<svg width="74" height="74" viewBox="0 0 74 74" fill="none"
    xmlns="http://www.w3.org/2000/svg">
    <path d="M63.2215 10.7448C56.2774 3.81606 47.0186 0 37.159 0C16.8567 0 0.318051 16.4425 0.318051 36.6659L63.2215 10.7448ZM63.2215 10.7448C70.1833 17.6735 74.0176 26.8883 73.9999 36.6835L63.2215 10.7448ZM1.42486 72.5924L6.19429 55.2731L6.30566 54.8687L6.09519 54.5059C2.95025 49.0839 1.30086 42.9448 1.31805 36.6686V36.6659C1.31805 16.9996 17.4042 1 37.159 1C46.7554 1 55.7597 4.71216 62.5152 11.4527L62.5161 11.4536C69.2899 18.1951 73.0171 27.1546 72.9999 36.6817V36.6835C72.9999 56.3495 56.9141 72.3493 37.1413 72.3493H37.1237C31.1241 72.3493 25.227 70.8437 19.9834 68.0033L19.6358 67.815L19.2534 67.9153L1.42486 72.5924ZM21.0421 63.7785L21.0479 63.7819L37.159 6.2077L37.16 5.2077C37.1599 5.2077 37.1597 5.2077 37.1596 5.2077C19.737 5.18979 5.53772 19.2973 5.53772 36.6659C5.53772 42.6023 7.19757 48.3969 10.3735 53.4119C10.3741 53.4129 10.3747 53.4139 10.3754 53.4149L10.8641 54.1979L7.88827 65.0123L7.42863 66.6826L9.10492 66.2452L20.2894 63.3266L21.0421 63.7785Z" fill="#C7A57A" stroke="#141213" stroke-width="2"/>
</svg>
