<svg width="82" height="71" viewBox="0 0 82 71" fill="none"
    xmlns="http://www.w3.org/2000/svg">
    <path d="M2 35.5C2 19.7079 2 11.8119 6.56913 6.90596C11.1383 2 18.4922 2 33.2 2H48.8C63.5078 2 70.8617 2 75.4309 6.90596C80 11.8119 80 19.7079 80 35.5C80 51.2921 80 59.1881 75.4309 64.094C70.8617 69 63.5078 69 48.8 69H33.2C18.4922 69 11.1383 69 6.56913 64.094C2 59.1881 2 51.2921 2 35.5Z" stroke="#C7A57A" stroke-width="3"/>
    <path d="M18 18L26.2758 26.3476C33.3162 33.4492 36.8364 37 41 37C45.1636 37 48.6838 33.4492 55.7242 26.3476L64 18" stroke="#C7A57A" stroke-width="3" stroke-linecap="round"/>
</svg>
