<svg width="62" height="77" viewBox="0 0 62 77" fill="none"
    xmlns="http://www.w3.org/2000/svg">
    <path fill-rule="evenodd" clip-rule="evenodd" d="M1 31.6353C1 14.7593 14.3886 1 31 1C47.6114 1 61 14.7593 61 31.6353C61 39.7826 58.689 48.5306 54.6038 56.0882C50.5236 63.6366 44.5622 70.1958 37.1046 73.698C33.2305 75.5173 28.7695 75.5173 24.8954 73.698C17.4378 70.1958 11.4764 63.6366 7.39619 56.0882C3.31096 48.5306 1 39.7826 1 31.6353ZM31 6.16715C17.3146 6.16715 6.14286 17.5262 6.14286 31.6353C6.14286 38.8593 8.20903 46.7652 11.9156 53.6222C15.6271 60.4885 20.8721 66.1049 27.0731 69.0169C29.567 70.1881 32.433 70.1881 34.9269 69.0169C41.1279 66.1049 46.3729 60.4885 50.0844 53.6222C53.791 46.7652 55.8571 38.8593 55.8571 31.6353C55.8571 17.5262 44.6854 6.16715 31 6.16715ZM31 23.391C26.7395 23.391 23.2857 26.8611 23.2857 31.1417C23.2857 35.4223 26.7395 38.8924 31 38.8924C35.2605 38.8924 38.7143 35.4223 38.7143 31.1417C38.7143 26.8611 35.2605 23.391 31 23.391ZM18.1429 31.1417C18.1429 24.0074 23.8992 18.2238 31 18.2238C38.1008 18.2238 43.8571 24.0074 43.8571 31.1417C43.8571 38.2761 38.1008 44.0596 31 44.0596C23.8992 44.0596 18.1429 38.2761 18.1429 31.1417Z" fill="#C7A57A" stroke="#141213" stroke-width="2"/>
</svg>
