<svg width="75" height="72" viewBox="0 0 75 72" fill="none"
    xmlns="http://www.w3.org/2000/svg">
    <path d="M41.2402 2C41.2402 2 49.9739 2.75984 61.0894 13.3976C72.205 24.0354 72.9989 32.3936 72.9989 32.3936" stroke="#C7A57A" stroke-width="3" stroke-linecap="round"/>
    <path d="M43.8867 14.6644C43.8867 14.6644 47.5919 15.6775 53.1497 20.9964C58.7075 26.3153 59.7661 29.8613 59.7661 29.8613" stroke="#C7A57A" stroke-width="3" stroke-linecap="round"/>
    <path d="M47.232 48.6625L46.1673 47.6058L47.232 48.6625ZM48.9366 46.9449L50.0013 48.0016L48.9366 46.9449ZM57.9817 45.7436L57.2579 47.0574L57.9817 45.7436ZM65.1323 49.6825L64.4086 50.9964L65.1323 49.6825ZM67.1472 62.0274L68.2119 63.0841L67.1472 62.0274ZM61.8304 67.3845L60.7658 66.3278L61.8304 67.3845ZM56.8718 69.9244L57.0128 71.4177H57.0128L56.8718 69.9244ZM19.9643 53.849L21.029 52.7924L19.9643 53.849ZM1.95221 19.7876L0.454567 19.8716L0.454567 19.8716L1.95221 19.7876ZM26.1855 25.2936L27.2501 26.3503L26.1855 25.2936ZM26.772 15.2284L27.9785 14.3371L26.772 15.2284ZM22.0524 8.84008L20.846 9.7314V9.7314L22.0524 8.84008ZM10.4056 7.76202L11.4702 8.81868V8.81868L10.4056 7.76202ZM4.53086 13.6811L3.46621 12.6245H3.46621L4.53086 13.6811ZM32.1201 41.6014L33.1847 40.5447L32.1201 41.6014ZM48.2966 49.7191L50.0013 48.0016L47.872 45.8883L46.1673 47.6058L48.2966 49.7191ZM57.2579 47.0574L64.4086 50.9964L65.856 48.3687L58.7054 44.4297L57.2579 47.0574ZM66.0826 60.9708L60.7658 66.3278L62.8951 68.4411L68.2119 63.0841L66.0826 60.9708ZM56.7307 68.431C50.9979 68.9726 36.5543 68.435 21.029 52.7924L18.8997 54.9057C35.1641 71.293 50.5484 72.0284 57.0128 71.4177L56.7307 68.431ZM21.029 52.7924C6.30486 37.9569 3.76721 25.3619 3.44986 19.7036L0.454567 19.8716C0.812027 26.2451 3.64664 39.5373 18.8997 54.9057L21.029 52.7924ZM26.1766 27.4319L27.2501 26.3503L25.1208 24.237L24.0473 25.3186L26.1766 27.4319ZM27.9785 14.3371L23.2589 7.94876L20.846 9.7314L25.5656 16.1197L27.9785 14.3371ZM9.34092 6.70536L3.46621 12.6245L5.59551 14.7378L11.4702 8.81868L9.34092 6.70536ZM25.112 26.3753C24.0473 25.3186 24.0459 25.32 24.0445 25.3215C24.044 25.322 24.0425 25.3235 24.0415 25.3245C24.0395 25.3265 24.0374 25.3287 24.0353 25.3308C24.031 25.3352 24.0265 25.3399 24.0218 25.3449C24.0123 25.3549 24.0019 25.3661 23.9906 25.3785C23.968 25.4033 23.942 25.4331 23.9132 25.4679C23.8556 25.5376 23.7869 25.6275 23.7125 25.7387C23.5636 25.9615 23.3931 26.2682 23.2457 26.6645C22.9472 27.4674 22.7635 28.5845 22.9858 30.0365C23.4246 32.9029 25.4269 36.987 31.0554 42.6581L33.1847 40.5447C27.7532 35.0722 26.2514 31.5432 25.9512 29.5825C25.804 28.6208 25.9421 28.0208 26.0576 27.71C26.1173 27.5495 26.177 27.4502 26.2064 27.4062C26.2213 27.384 26.2288 27.3753 26.2251 27.3797C26.2233 27.3819 26.2187 27.3874 26.2108 27.3961C26.2068 27.4005 26.202 27.4056 26.1964 27.4116C26.1935 27.4146 26.1905 27.4178 26.1872 27.4212C26.1855 27.4229 26.1838 27.4246 26.1821 27.4264C26.1812 27.4273 26.1798 27.4287 26.1794 27.4291C26.178 27.4305 26.1766 27.4319 25.112 26.3753ZM31.0554 42.6581C36.6826 48.3277 40.7392 50.3494 43.5931 50.793C45.0399 51.0178 46.1543 50.8321 46.9558 50.5296C47.3511 50.3804 47.6568 50.2078 47.8787 50.0572C47.9894 49.9821 48.0789 49.9126 48.1482 49.8544C48.1829 49.8253 48.2125 49.7991 48.2371 49.7763C48.2495 49.7649 48.2606 49.7544 48.2705 49.7448C48.2754 49.7401 48.2801 49.7355 48.2845 49.7312C48.2866 49.7291 48.2887 49.727 48.2908 49.725C48.2918 49.724 48.2932 49.7225 48.2937 49.722C48.2952 49.7206 48.2966 49.7191 47.232 48.6625C46.1673 47.6058 46.1687 47.6044 46.1701 47.603C46.1705 47.6026 46.1719 47.6012 46.1728 47.6003C46.1746 47.5985 46.1763 47.5968 46.178 47.5952C46.1814 47.5918 46.1845 47.5888 46.1875 47.5859C46.1934 47.5802 46.1985 47.5754 46.2029 47.5714C46.2115 47.5634 46.217 47.5586 46.2193 47.5567C46.2238 47.553 46.2155 47.5603 46.1938 47.575C46.1509 47.6042 46.0537 47.6635 45.8963 47.7229C45.5924 47.8376 45.0026 47.976 44.0539 47.8286C42.1169 47.5275 38.6176 46.0187 33.1847 40.5447L31.0554 42.6581ZM23.2589 7.94876C19.893 3.39279 13.3038 2.71249 9.34092 6.70536L11.4702 8.81868C14.0535 6.21584 18.5006 6.55675 20.846 9.7314L23.2589 7.94876ZM3.44986 19.7036C3.34826 17.892 4.17946 16.1645 5.59551 14.7378L3.46621 12.6245C1.63635 14.4682 0.292408 16.9802 0.454567 19.8716L3.44986 19.7036ZM60.7658 66.3278C59.5848 67.5177 58.2157 68.2908 56.7307 68.431L57.0128 71.4177C59.3859 71.1936 61.3723 69.9754 62.8951 68.4411L60.7658 66.3278ZM27.2501 26.3503C30.4427 23.1336 30.7027 18.0245 27.9785 14.3371L25.5656 16.1197C27.4558 18.6782 27.2172 22.1247 25.1208 24.237L27.2501 26.3503ZM64.4086 50.9964C68.1833 53.0757 68.9255 58.1063 66.0826 60.9708L68.2119 63.0841C72.5468 58.7164 71.2653 51.3484 65.856 48.3687L64.4086 50.9964ZM50.0013 48.0016C51.867 46.1217 54.8057 45.7066 57.2579 47.0574L58.7054 44.4297C55.1275 42.4588 50.7192 43.0195 47.872 45.8883L50.0013 48.0016Z" fill="#C7A57A"/>
</svg>
