<svg width="37" height="34" viewBox="0 0 37 34" fill="none"
    xmlns="http://www.w3.org/2000/svg">
    <path d="M7.33127 0.766896L7.33127 0.76691L7.33594 0.767036C7.6629 0.775787 7.82684 0.793324 7.99041 0.887641C8.15075 0.980095 8.4131 1.21245 8.71698 1.88369C9.11268 2.76119 9.75358 4.30899 10.3297 5.70613C10.3792 5.82609 10.4282 5.9449 10.4765 6.06199C10.7079 6.62353 10.9232 7.14567 11.0989 7.56688C11.2993 8.04718 11.4679 8.44486 11.546 8.5958C11.7172 8.9362 11.761 9.18987 11.6099 9.4979C11.5735 9.57227 11.5397 9.64179 11.5079 9.70726C11.2699 10.1972 11.1419 10.4608 10.8103 10.8396C10.6141 11.0639 10.4291 11.2868 10.254 11.4978C9.97364 11.8357 9.71881 12.1428 9.48412 12.3752C9.47676 12.3825 9.46921 12.39 9.46147 12.3976C9.25262 12.604 8.91237 12.9403 8.74217 13.392C8.53813 13.9336 8.60999 14.5157 8.96194 15.1198C9.50073 16.0446 11.3832 19.0843 14.1807 21.5509C17.1959 24.2215 19.8556 25.3593 21.1155 25.8983C21.3491 25.9982 21.5346 26.0776 21.6653 26.1423C22.169 26.3917 22.6891 26.5601 23.2166 26.4985C23.7771 26.4329 24.2011 26.1273 24.5396 25.7361C25.048 25.1488 26.8332 23.0826 27.4758 22.137L27.4759 22.137L27.4814 22.1287C27.6934 21.8076 27.8183 21.7938 27.8678 21.7883L27.8685 21.7882C28.0034 21.7733 28.2046 21.8168 28.6448 21.9709C29.0306 22.1155 30.3113 22.7149 31.6598 23.3608C32.994 23.9998 34.3364 24.6559 34.7873 24.8792C34.9945 24.9818 35.1712 25.0659 35.3272 25.1402C35.5473 25.245 35.7262 25.3302 35.8915 25.4199C36.021 25.4902 36.1057 25.5448 36.1618 25.5891C36.1839 25.6065 36.1987 25.6202 36.2082 25.6298C36.2141 25.6566 36.229 25.726 36.2393 25.856C36.2556 26.061 36.2551 26.3451 36.225 26.695C36.165 27.3924 35.9909 28.306 35.6377 29.2994C35.3403 30.1128 34.3984 31.0328 33.198 31.8008C32.0071 32.5626 30.7806 33.0365 30.1228 33.0982C29.9457 33.1148 29.7763 33.1351 29.607 33.1553C28.9299 33.2363 28.2542 33.3171 27.091 33.164C25.6162 32.97 23.3656 32.393 19.5459 30.8971L19.5457 30.8971C11.2378 27.6466 5.72701 19.5799 4.52981 17.8275C4.43038 17.6819 4.3607 17.58 4.32165 17.5279C4.31585 17.5202 4.30959 17.5118 4.30287 17.5029C4.05324 17.1705 3.17921 16.0069 2.35773 14.4063C1.50854 12.7517 0.75 10.6955 0.75 8.65156C0.75 4.77057 2.64359 2.77859 3.56299 1.81141C3.62256 1.74875 3.67804 1.69038 3.72865 1.63609C4.40181 0.913912 5.16779 0.75 5.60874 0.75C6.22374 0.75 6.82195 0.750083 7.33127 0.766896Z" fill="#C7A57A" stroke="#141213" stroke-width="1.5"/>
</svg>
