<?xml version="1.0" encoding="utf-8"?>
<!-- Generator: Adobe Illustrator 26.0.1, SVG Export Plug-In . SVG Version: 6.00 Build 0)  -->
<svg version="1.1" id="Layer_1" xmlns="http://www.w3.org/2000/svg" xmlns:xlink="http://www.w3.org/1999/xlink" x="0px" y="0px"
	 viewBox="0 0 607.64 602.74" style="enable-background:new 0 0 607.64 602.74;" xml:space="preserve">
<style type="text/css">
	.st0{fill:#C3A278;}
</style>
<g>
	<path class="st0" d="M595.02,267.88C572.7,99.68,413.13-17.3,251.15,15.8C80.58,50.65-29.94,217,24.07,376.41
		c22.9,67.6,20.68,125.4-0.08,188.12c-2.1,6.34-3.68,12.85-7.45,26.15c27.25-6.88,47.84-10.6,67.4-17.31
		c43.35-14.87,84.12-19.2,127.93,3.76c33.43,17.52,72.96,16.33,111.02,14.32C487.79,582.78,616.52,429.91,595.02,267.88z
		 M564.95,383.55c-35.52,113.22-139.7,190.36-257.9,190.22c-19.44-0.02-41.03,2.15-57.92-5.21
		c-66.37-28.91-132.26-37.19-206.93,2.03c4.59-19.26,5.48-26.22,7.89-32.61c19.18-51.02,17.82-97.27-4.62-150.92
		c-44.1-105.45,0.34-233.08,92.87-302.22c98.67-73.73,227.97-74.81,327.91-2.73C560.15,149.83,600.05,271.69,564.95,383.55z"/>
	<path class="st0" d="M358.48,385.05c-4.89,8.1-17.7,6.32-27.29,2.71c-47.21-17.79-83.15-49.18-108.59-92.3
		c-3.75-6.35-6.11-20.03-2.66-23.13c21.35-19.21,20.91-63.08,2.88-84.53c-17.94-21.35-42.21-3.08-51.33,16.26
		c-0.43,0.92-0.84,1.84-1.23,2.77c-24.36,57.83,25.38,116.46,65.37,152.58c46.74,42.21,101.04,76.34,166.63,72.2
		c25.52-1.61,57.38-28.51,37.51-54.54C418.8,349.59,374.76,358.07,358.48,385.05z"/>
</g>
</svg>
