<svg width="70" height="78" viewBox="0 0 70 78" fill="none" xmlns="http://www.w3.org/2000/svg">
<path d="M52.2788 51.1296C53.4521 51.1296 54.6253 51.1296 55.7986 51.1296C56.455 51.1296 57.1113 51.1296 57.8333 51.1296C57.7185 50.5635 57.5872 50.0712 57.5626 49.5543C57.497 47.7903 57.3329 46.0263 57.0621 44.2788C56.939 43.4665 56.8734 42.6296 56.6026 41.842C56.3565 41.12 56.1432 40.3734 55.733 39.7252C55.0438 38.6176 54.0264 37.8546 52.8039 37.4115C51.2533 36.8372 49.6862 36.3203 48.1191 35.7706C47.7909 35.6557 47.7909 35.6557 47.6268 35.9675C47.0771 37.0341 46.5274 38.1089 45.9777 39.1755C45.7808 39.5529 45.7808 39.5611 45.3952 39.4216C44.0168 38.9294 42.6302 38.4289 41.2518 37.9366C40.8252 37.7807 40.8252 37.7889 40.6201 38.1745C39.7258 39.8401 38.8233 41.5056 37.929 43.1711C37.289 44.3526 36.6491 45.5341 36.0255 46.7237C35.9188 46.9288 35.7958 47.0273 35.5578 47.0109C35.2953 46.9945 35.0245 46.9781 34.762 47.0109C34.3682 47.0601 34.1549 46.9124 33.9662 46.5514C32.4811 43.7455 30.9715 40.9641 29.4618 38.1663C29.2649 37.7971 29.2567 37.7889 28.8629 37.9284C27.4517 38.4289 26.0405 38.9376 24.6293 39.438C24.3011 39.5529 24.2929 39.5529 24.137 39.2493C23.5955 38.2073 23.0622 37.1654 22.5289 36.1234C22.291 35.6557 22.291 35.6557 21.8151 35.828C20.3137 36.3613 18.8205 36.9028 17.319 37.4361C16.4493 37.7479 15.6945 38.232 15.0792 38.9211C14.2833 39.8072 13.7418 40.841 13.43 41.9897C13.1921 42.8512 13.1511 43.7455 13.0526 44.6316C12.8885 46.0263 12.749 47.4293 12.6178 48.8323C12.5521 49.4969 12.4701 50.1697 12.4865 50.8424C12.4947 51.0722 12.5603 51.1624 12.7819 51.1378C12.8721 51.1296 12.9706 51.1378 13.0608 51.1378C14.7017 51.1378 16.3427 51.1378 17.9918 51.1378C18.5497 51.1378 18.5169 51.0311 18.4677 51.6711C18.3938 52.7623 18.2872 53.8535 18.2789 54.9529C18.2789 55.1827 18.32 55.314 18.5907 55.2811C18.6974 55.2647 18.8122 55.2811 18.9189 55.2811C23.0294 55.2811 27.1481 55.2811 31.2586 55.2811C38.0356 55.2811 44.8044 55.2811 51.5814 55.2811C52.0409 55.2811 52.0491 55.2811 52.0409 54.8299C52.0245 53.7469 51.9342 52.6721 51.844 51.5973C51.8112 51.0476 51.8358 51.1296 52.2788 51.1296ZM18.6728 48.8405C18.6564 49.0702 18.5661 49.1195 18.3528 49.1195C17.0893 49.1113 15.8176 49.1113 14.5541 49.1195C14.3079 49.1195 14.2669 49.0292 14.2833 48.8159C14.3736 47.6755 14.472 46.5432 14.5951 45.411C14.6771 44.6972 14.751 43.9834 14.8658 43.2778C15.112 41.7764 15.6535 40.4144 16.9744 39.4955C17.3272 39.2493 17.6964 39.0606 18.0902 38.9129C19.1076 38.5273 20.1414 38.1581 21.1588 37.7725C21.3885 37.6823 21.5034 37.7151 21.6264 37.953C21.9792 38.6832 22.373 39.3888 22.7669 40.1436C22.1925 40.4882 21.6839 40.8246 21.249 41.2595C20.0183 42.4819 19.3373 43.9998 19.0748 45.6817C18.9107 46.7237 18.7466 47.7821 18.6728 48.8405ZM49.4072 53.3613C39.7914 53.3613 30.1674 53.3613 20.5516 53.3613C20.4696 53.3613 20.3957 53.3531 20.3137 53.3613C20.0922 53.3859 20.0593 53.2792 20.0676 53.0823C20.125 51.8024 20.2481 50.5225 20.4039 49.2507C20.5352 48.1677 20.6747 47.0765 20.847 46.0017C21.1013 44.4593 21.7905 43.1301 23.095 42.1866C23.4232 41.9486 23.776 41.7517 24.1616 41.6041C25.4662 41.12 26.7625 40.6359 28.067 40.16C28.428 40.0288 28.428 40.0288 28.625 40.3816C30.0443 43.0399 31.472 45.6982 32.8749 48.3647C33.0718 48.7421 33.277 48.9144 33.7282 48.8897C34.6143 48.8487 35.5086 48.8651 36.4029 48.8815C36.7147 48.8897 36.8706 48.7995 37.0183 48.5205C38.4295 45.8376 39.8653 43.1711 41.2929 40.4964C41.5964 39.9221 41.4816 39.996 42.0559 40.1929C43.2374 40.5867 44.4188 41.0051 45.6003 41.4071C46.1664 41.5959 46.6915 41.8666 47.1509 42.2604C47.6678 42.6953 48.1027 43.1793 48.3652 43.8357C48.636 44.5167 49.0052 45.1649 49.1365 45.8869C49.2349 46.4037 49.2677 46.937 49.3334 47.4621C49.5631 49.3984 49.7436 51.3429 49.9241 53.3038C49.719 53.3941 49.5631 53.3613 49.4072 53.3613ZM51.7455 49.3656C51.524 49.3738 51.4584 49.2918 51.4338 49.0785C51.3271 48.0365 51.1958 46.9945 51.0728 45.9607C50.9989 45.3372 50.8348 44.7382 50.5969 44.1557C49.9897 42.6625 49.1201 41.3743 47.6925 40.5375C47.512 40.4308 47.4545 40.3487 47.5694 40.1354C47.9304 39.4791 48.275 38.8145 48.6196 38.1417C48.6852 38.0104 48.7426 37.8874 48.9313 37.9694C50.2031 38.4945 51.524 38.8801 52.7547 39.4955C53.3782 39.8155 53.9197 40.2667 54.289 40.8492C54.7566 41.6041 55.1258 42.4245 55.2243 43.327C55.3884 44.771 55.6099 46.2068 55.7084 47.6591C55.7412 48.1431 55.774 48.6272 55.815 49.1113C55.8396 49.341 55.7248 49.3738 55.5443 49.3656C54.9043 49.3574 54.2643 49.3656 53.6244 49.3656C53.0008 49.3656 52.3691 49.3574 51.7455 49.3656Z" fill="#C7A57A"/>
<path d="M38.675 23.0518C36.271 21.895 33.8589 21.8867 31.4549 23.0354C31.135 23.1913 30.9216 23.1995 30.6099 23.019C29.1905 22.2313 27.6808 21.8621 26.0563 22.1739C20.7807 23.1831 18.5983 29.1971 21.7489 33.324C23.4554 35.5638 26.3763 36.5074 29.1823 35.7443C29.4284 35.6787 29.5679 35.7115 29.7566 35.8756C32.7595 38.5585 37.3294 38.5667 40.3323 35.9002C40.5292 35.7279 40.6769 35.6623 40.9477 35.7443C41.8912 36.0151 42.8593 36.0725 43.8275 35.933C47.2488 35.4408 49.8004 32.5035 49.8168 28.9181C49.8004 28.7048 49.7922 28.3438 49.743 27.991C49.0292 23.1421 43.6798 20.5658 39.4462 23.0354C39.1509 23.2077 38.9621 23.1913 38.675 23.0518ZM26.2368 34.0706C25.0553 33.8655 24.0626 33.3158 23.2831 32.4051C21.634 30.477 21.6504 27.6382 23.3242 25.6937C24.9323 23.8148 27.5824 23.339 29.5597 24.4548C27.0409 27.3592 26.4829 30.5016 28.3782 33.9475C28.0664 34.1362 26.9998 34.2019 26.2368 34.0706ZM35.0403 36.1382C31.6683 36.1382 28.9033 33.3486 28.9033 29.9683C28.9115 26.5962 31.6929 23.8477 35.0896 23.8559C38.4288 23.8723 41.202 26.67 41.1856 30.0175C41.1774 33.3568 38.3878 36.1382 35.0403 36.1382ZM43.409 23.8805C45.6325 24.1512 47.3965 25.7593 47.9052 27.9417C48.5779 30.8544 46.453 33.8573 43.4747 34.1937C42.8839 34.2593 42.3014 34.2675 41.6861 34.1198C43.5485 30.6493 43.1301 27.4741 40.5128 24.5532C41.4071 23.9871 42.3753 23.7574 43.409 23.8805Z" fill="#C7A57A"/>
<path d="M47.5684 7.91577C53.1311 10.1638 57.7421 13.659 61.3685 18.4505C61.6065 18.7623 61.5983 18.7623 61.3521 19.0576C60.3512 20.2719 60.0312 21.6585 60.3594 23.1845C60.8434 25.4162 63.1325 26.9833 65.356 26.6387C68.3671 26.1792 69.7454 23.7178 69.2532 21.1006C68.7691 18.5407 65.9631 16.8752 63.5345 17.6711C63.1243 17.8023 63.1243 17.8023 62.8618 17.4577C59.5799 13.1913 55.5433 9.81924 50.7436 7.38247C48.5776 6.28306 46.3131 5.43798 43.9666 4.82264C43.5481 4.71598 43.5481 4.71598 43.4497 5.07698C43.3266 5.52823 43.2035 5.97949 43.0723 6.47176C43.2035 6.51278 43.2856 6.55381 43.3758 6.57022C44.8116 6.91481 46.2064 7.36606 47.5684 7.91577ZM64.9129 19.2545C66.3815 19.2545 67.6368 20.5345 67.6368 22.0359C67.6368 23.5045 66.3487 24.8009 64.8719 24.7762C63.4361 24.7434 62.148 23.8327 62.0741 22.0359C62.0249 20.5427 63.3787 19.2545 64.9129 19.2545Z" fill="#C7A57A"/>
<path d="M67.4822 52.7204C67.1048 52.3594 67.1458 52.4743 67.3345 52.0148C69.1314 47.7402 69.9764 43.2687 70.001 38.2885C69.9846 36.3851 69.8041 34.1452 69.3529 31.93C69.2216 31.29 69.0411 30.6582 68.8934 30.0183C68.8442 29.7968 68.7539 29.7557 68.5324 29.8296C68.1468 29.9608 67.753 30.0429 67.3592 30.1496C67.0474 30.2316 67.0556 30.2398 67.1212 30.5598C67.1294 30.609 67.1458 30.65 67.1541 30.6993C67.6217 32.5863 67.9089 34.498 68.0319 36.4343C68.196 39.068 68.0648 41.6852 67.5889 44.2779C67.1541 46.6818 66.4567 49.0119 65.5213 51.2682C65.4147 51.5308 65.2916 51.58 65.0373 51.5308C64.4958 51.4323 63.9461 51.4569 63.4045 51.5308C60.8447 51.8589 59.0151 54.5747 59.6961 57.0607C60.1145 58.5785 60.9842 59.76 62.502 60.2933C64.9224 61.1384 67.6135 60.1292 68.516 57.3724C68.7786 56.5602 68.7211 55.7561 68.5981 54.9193C68.4832 54.0332 68.1058 53.3276 67.4822 52.7204ZM64.2004 58.8575C62.6743 58.8411 61.4272 57.5365 61.4436 56.0023C61.4601 54.3778 62.7646 53.1143 64.3973 53.1389C65.9562 53.1635 67.1869 54.4762 67.1541 56.0843C67.1376 57.274 66.1449 58.8821 64.2004 58.8575Z" fill="#C7A57A"/>
<path d="M1.57368 48.5118C2.09057 48.3559 2.62387 48.2411 3.14896 48.0359C3.11614 47.8965 3.08332 47.7734 3.05051 47.6585C2.36132 45.2874 2.00032 42.867 1.90186 40.4057C1.7952 37.7228 1.95109 35.0645 2.45157 32.4226C2.8536 30.314 3.43612 28.2628 4.23197 26.2691C4.31402 26.064 4.40427 25.982 4.6422 26.0312C5.37241 26.1707 6.10262 26.1132 6.82463 25.9163C9.31883 25.2517 10.7875 22.5606 9.94238 20.1895C9.53215 19.0327 8.81835 18.0809 7.71072 17.5148C6.72617 17.0143 5.66778 16.8831 4.56015 17.0964C2.55823 17.482 1.04858 19.1639 0.917308 21.1987C0.827057 22.6427 1.35215 23.857 2.37773 24.8661C2.6895 25.1697 2.6895 25.1697 2.52541 25.5717C2.51721 25.6045 2.5008 25.6292 2.48439 25.6538C0.630147 30.4289 -0.288769 35.3516 0.0804381 40.4795C0.260939 43.0229 0.679375 45.5335 1.36036 47.9949C1.40958 48.1672 1.40958 48.3723 1.57368 48.5118ZM5.65137 18.6634C7.24306 18.6717 8.46555 19.9188 8.47375 21.5515C8.47375 23.0611 7.22665 24.2508 5.64316 24.2426C4.07608 24.2344 2.74694 22.9463 2.75514 21.4448C2.76334 19.9352 4.09249 18.6634 5.65137 18.6634Z" fill="#C7A57A"/>
<path d="M11.6241 15.152C16.112 10.7215 21.4286 7.78428 27.5739 6.34027C28.46 6.13516 29.3461 5.96286 30.2486 5.84799C30.7244 5.79056 30.6506 5.73313 30.8229 6.17618C30.9624 6.54539 31.1511 6.88998 31.3726 7.20175C32.2423 8.41604 33.3909 9.15445 34.9088 9.20368C37.5753 9.29393 39.8398 7.05407 39.6346 4.23989C39.4541 1.72108 37.2471 -0.371098 34.3509 0.0555416C32.3736 0.350907 30.987 1.7539 30.6096 3.73941C30.5603 3.98555 30.4537 4.02657 30.2404 4.05119C29.4363 4.17425 28.6323 4.28091 27.8364 4.45321C21.9373 5.69211 16.6946 8.26835 12.1246 12.1902C11.4026 12.8055 10.7052 13.4537 10.0488 14.1511C10.4919 14.5777 10.9103 14.9879 11.3534 15.4064C11.4436 15.3735 11.5257 15.2505 11.6241 15.152ZM35.0236 1.77851C36.5743 1.7703 37.8706 3.05843 37.8706 4.60089C37.8706 6.12695 36.5907 7.41507 35.0647 7.43148C33.5222 7.43969 32.2095 6.15157 32.2013 4.6091C32.2013 3.02561 33.432 1.79492 35.0236 1.77851Z" fill="#C7A57A"/>
<path d="M25.6065 70.385C24.3019 70.0158 23.022 69.5563 21.7831 69.0066C16.6306 66.7421 12.3314 63.3782 8.82806 58.9806C8.60654 58.7016 8.60654 58.7016 8.84447 58.4145C9.69775 57.3643 10.0505 56.1746 9.87825 54.8291C9.59109 52.5646 7.58917 50.7842 5.30829 50.7842C2.28899 50.8334 0.0983621 53.4343 0.951641 56.5192C1.64903 59.0544 4.29092 60.523 6.68666 59.8092C7.19535 59.6534 7.19535 59.6616 7.53994 60.0964C11.0843 64.5515 15.4082 68.0221 20.5935 70.385C22.0703 71.0578 23.5964 71.6157 25.1552 72.0587C25.467 72.149 25.4752 72.1408 25.5655 71.8372C25.6639 71.509 25.746 71.1726 25.8526 70.8526C25.9511 70.5655 25.9511 70.4834 25.6065 70.385ZM5.63647 58.2832C4.31553 58.2832 2.60897 57.3561 2.56795 55.4444C2.53513 53.9758 3.84787 52.6876 5.35751 52.6712C6.95741 52.6548 8.19631 53.8363 8.21272 55.387C8.23733 56.6505 7.32662 58.275 5.63647 58.2832Z" fill="#C7A57A"/>
<path d="M58.5145 62.0342C58.4242 62.1162 58.334 62.1983 58.2437 62.2803C53.0502 67.2769 46.905 70.329 39.7752 71.3792C39.4388 71.4285 39.4388 71.4285 39.3239 71.1167C39.2993 71.0592 39.2747 71.0018 39.2583 70.9444C38.364 68.6143 35.7795 67.441 33.4576 68.3025C31.0783 69.1804 29.8804 71.6746 30.7173 74.0457C31.349 75.8343 32.6125 76.9419 34.5078 77.1799C36.7969 77.467 38.8891 75.8918 39.3485 73.6191C39.4306 73.2006 39.4388 73.2006 39.8326 73.1432C40.4807 73.0448 41.1289 72.9627 41.7771 72.8314C48.6115 71.4531 54.486 68.2697 59.4744 63.4208C59.5565 63.3387 59.6877 63.2813 59.6221 63.1828C59.2529 62.8054 58.8919 62.428 58.5145 62.0342ZM35.0165 75.5718C33.1786 75.5472 32.2351 74.0129 32.2187 72.7002C32.2023 71.1905 33.5314 69.9106 35.0493 69.9188C36.5918 69.9188 37.8881 71.2233 37.8717 72.7658C37.8635 74.2919 36.5507 75.5964 35.0165 75.5718Z" fill="#C7A57A"/>
</svg>
