<svg width="70" height="63" viewBox="0 0 70 63" fill="none"
    xmlns="http://www.w3.org/2000/svg">
    <path d="M69.7039 15.563C67.5196 2.01815 51.3711 -4.59337 40.3616 3.56864C38.6453 4.83634 37.1241 6.32832 35.5736 7.7813C35.1738 8.1616 34.9203 8.26887 34.4912 7.81055C33.9256 7.1962 33.2723 6.67937 32.6677 6.09428C29.1571 2.69101 25.1103 0.370148 20.1272 0.0581C8.96176 -0.663512 -0.0388797 7.95682 0.000126302 19.2783C0.0488838 20.0389 0.0586353 20.7996 0.146399 21.5504C0.819253 27.4988 3.43266 32.6476 6.87494 37.3966C14.3348 47.6747 23.8523 55.7587 34.3839 62.7213C34.9593 63.1016 35.3201 62.8968 35.7882 62.6043C40.1958 59.8836 44.2525 56.6851 48.1726 53.3306C54.8036 47.6455 60.9275 41.4825 65.4327 33.9153C68.797 28.2595 70.7863 22.2818 69.7039 15.563ZM63.9798 32.7159C59.6793 40.0588 53.7797 46.017 47.412 51.5363C43.7356 54.7251 39.9228 57.7383 35.8467 60.4004C35.2713 60.771 34.8423 60.8393 34.2377 60.4297C24.4862 53.7694 15.583 46.1827 8.5717 36.5872C5.27569 32.0723 2.68179 27.2063 2.00894 21.5309C0.653477 10.2289 9.03977 1.24778 20.0687 1.89138C23.8718 2.11567 27.1678 3.69541 30.025 6.1918C31.595 7.56676 33.1943 8.91247 34.5497 10.5117C34.8813 10.9018 35.1348 11.1358 35.4274 10.5117C35.6614 10.4337 35.7882 10.2582 35.8564 10.0436C38.1383 7.86906 40.3324 5.59696 43.092 3.99771C52.9898 -1.72643 66.0178 4.50479 67.8706 15.7873C68.8848 21.9892 67.0417 27.4891 63.9798 32.7159Z" fill="#C7A57A"/>
    <path d="M39.2412 29.7168C37.1251 29.7168 37.1251 29.7168 37.2421 27.5715C37.2616 27.1522 37.3006 26.7426 37.3396 26.3233C37.6809 22.0911 38.0125 17.8492 38.3538 13.5488C37.5151 14.5435 26.5544 34.9924 26.3887 35.8408C28.4072 35.8408 30.4258 35.8895 32.4346 35.8213C33.3122 35.792 33.4195 36.0846 33.283 36.8549C33.088 38.0154 33.0002 39.1855 32.8734 40.3557C32.6394 41.3504 32.5126 42.3548 32.4834 43.3787C32.0153 46.5772 31.7422 49.7854 31.6252 53.0229C33.3903 50.1852 34.931 47.25 36.423 44.2856C37.915 41.3211 39.4167 38.3664 40.9087 35.402C41.2402 34.9924 41.4743 34.5438 41.5523 34.0075C42.4397 32.691 43.054 31.2381 43.8439 29.7168C42.1861 29.7168 40.7136 29.7266 39.2412 29.7168ZM34.0339 45.329C33.9851 45.3095 33.9461 45.29 33.8973 45.2802C33.9558 44.6561 34.0046 44.0418 34.0631 43.4177C34.1216 43.2227 34.1704 43.0179 34.2094 42.8131C34.2874 42.4035 34.3166 41.9842 34.2874 41.5552C34.2874 41.4771 34.2776 41.3991 34.2679 41.3211C34.5604 39.1368 34.853 36.9622 35.1553 34.7876C35.2333 34.2318 34.97 34.183 34.5117 34.183C32.7076 34.2025 30.8939 34.1928 28.9046 34.1928C31.2644 29.8046 33.556 25.5529 35.8476 21.3013C35.9159 21.311 35.9842 21.3305 36.0524 21.3403C35.9744 22.5495 35.9061 23.7489 35.8086 24.9581C35.6624 26.8109 35.5161 28.6637 35.3211 30.5165C35.2528 31.1796 35.4381 31.3746 36.1012 31.3551C37.7297 31.3063 39.3582 31.3453 41.172 31.3453C38.7731 36.0553 36.4035 40.6873 34.0339 45.329Z" fill="#C7A57A"/>
</svg>
