<svg width="64" height="69" viewBox="0 0 64 69" fill="none"
    xmlns="http://www.w3.org/2000/svg">
    <path d="M62.8622 23.8637C60.2252 23.8637 57.6 23.8518 54.963 23.8756C54.476 23.8756 54.3335 23.7687 54.3335 23.2579C54.3572 19.8726 54.3454 16.4872 54.3454 13.1019C54.3454 9.02758 54.3454 4.95329 54.3454 0.867123C54.3454 0.391987 54.3097 0 53.6683 0C48.7625 0.0118784 43.8567 0.0118784 38.9391 0C38.5708 0 38.357 0.142541 38.2264 0.487014C38.0244 1.0453 37.7869 1.57983 37.5731 2.13811C35.8388 6.80632 34.8767 11.6289 34.8173 16.6298C34.8173 16.8911 34.8767 17.1643 34.5797 17.3662C32.9524 18.5422 31.3369 19.7538 29.5908 21.0366C29.5908 19.5637 29.5908 18.2215 29.5908 16.8792C29.5908 15.8101 29.567 15.7864 28.4861 15.7864C22.5707 15.7864 16.6552 15.7864 10.7279 15.7864C9.73011 15.7864 9.69447 15.8101 9.69447 16.8317C9.69447 23.9825 9.69447 31.1214 9.70635 38.2722C9.70635 38.7592 9.58757 38.9136 9.08868 38.9017C6.33289 38.878 3.58898 38.8899 0.833192 38.8899C0.0610967 38.8899 0.00170469 38.9611 0.00170469 39.7451C0.00170469 49.0815 0.00170469 58.4298 0.00170469 67.7662C0.00170469 67.8494 0.00170469 67.9207 0.00170469 68.0038C-0.0220521 68.4314 0.203637 68.6215 0.607503 68.6215C1.047 68.6215 1.47463 68.6215 1.91413 68.6215C22.2024 68.6215 42.4907 68.6215 62.7671 68.6215C63.6343 68.6215 63.7055 68.5621 63.7055 67.7306C63.7055 53.3815 63.7055 39.0324 63.7055 24.6833C63.7293 23.9468 63.6461 23.8756 62.8622 23.8637ZM19.1497 53.7854C19.1497 58.1923 19.1378 62.611 19.1616 67.0179C19.1616 67.4693 19.0665 67.6118 18.5795 67.6118C12.9254 67.5881 7.2594 67.5881 1.60529 67.6118C1.11827 67.6118 1.02325 67.4693 1.02325 67.0179C1.03512 58.1685 1.03512 49.331 1.02325 40.4816C1.02325 40.054 1.11827 39.9114 1.56965 39.9114C7.22377 39.9233 12.8898 39.9352 18.5439 39.9114C19.0428 39.9114 19.1616 40.054 19.1616 40.541C19.1378 44.9597 19.1497 49.3785 19.1497 53.7854ZM22.2618 27.2015C22.2737 40.4459 22.2737 53.6785 22.2856 66.9229C22.2856 67.5049 22.1312 67.6356 21.5729 67.6237C20.1712 67.5881 20.1712 67.6118 20.1712 66.1983C20.1712 61.9221 20.1712 57.6459 20.1712 53.3696C20.1712 53.3696 20.1712 53.3696 20.1593 53.3696C20.1593 48.8321 20.1593 44.3064 20.1593 39.7689C20.1593 38.9968 20.0643 38.9017 19.316 38.9017C16.6433 38.9017 13.9707 38.8899 11.2981 38.9136C10.8704 38.9136 10.7279 38.8305 10.7279 38.3672C10.7398 31.3827 10.7398 24.3982 10.7279 17.4137C10.7279 16.9623 10.8467 16.8554 11.2862 16.8554C16.869 16.8673 22.4519 16.8673 28.0347 16.8554C28.4386 16.8554 28.5811 16.9505 28.5692 17.3781C28.5455 18.661 28.5455 19.9557 28.5692 21.2386C28.5811 21.6662 28.4505 21.9275 28.1179 22.177C26.3717 23.4361 24.6494 24.7308 22.9032 25.9899C22.4519 26.2988 22.2618 26.6432 22.2618 27.2015ZM40.2813 66.8279C40.2813 67.6 40.2813 67.6 39.4855 67.6C34.3065 67.6 29.1156 67.5881 23.9367 67.6118C23.3784 67.6118 23.3071 67.4455 23.3071 66.9585C23.319 53.7973 23.319 40.6479 23.3071 27.4866C23.3071 27.1421 23.3903 26.9164 23.6872 26.7026C29.0563 22.759 34.4253 18.8154 39.7824 14.8599C39.9012 14.7648 40.0438 14.6936 40.2695 14.551C40.2695 15.0143 40.2695 15.3706 40.2695 15.7151C40.2813 32.7606 40.2813 49.7942 40.2813 66.8279ZM43.5598 24.7308C43.5598 38.783 43.5598 52.8351 43.5717 66.8754C43.5717 67.4693 43.441 67.695 42.8352 67.6118C42.3482 67.5406 41.7186 67.8138 41.4098 67.5049C41.1009 67.1961 41.3148 66.5665 41.3148 66.0795C41.3148 48.9865 41.3148 31.8816 41.3148 14.7886C41.3148 14.456 41.3148 14.1115 41.3148 13.7789C41.3148 13.482 41.3623 13.1613 41.0178 13.0068C40.709 12.8762 40.4951 13.0544 40.2695 13.2207C39.1291 14.064 37.9769 14.9074 36.8247 15.7508C36.5515 15.9527 36.2902 16.1427 35.922 16.4041C35.8982 14.6104 36.0764 12.9475 36.3258 11.2845C36.8247 7.92289 37.7037 4.68009 38.9747 1.53231C39.1173 1.17596 39.2836 1.03342 39.6993 1.03342C44.0468 1.05718 48.4062 1.05718 52.7536 1.03342C53.2288 1.03342 53.3476 1.16408 53.3476 1.61546C53.3357 8.83753 53.3357 16.0596 53.3476 23.2817C53.3476 23.7093 53.2525 23.8637 52.7893 23.8637C51.5183 23.8518 51.5183 23.8756 51.5183 22.5927C51.5183 21.785 51.5183 20.9654 51.5183 20.1576C51.5183 19.7894 51.4708 19.4449 51.0194 19.4449C50.5205 19.4331 50.473 19.8013 50.473 20.1814C50.473 21.2267 50.4492 22.2839 50.4849 23.3292C50.4967 23.7449 50.3661 23.8637 49.9503 23.8637C48.1092 23.8399 46.268 23.8518 44.4269 23.8637C43.6548 23.8756 43.5598 23.9706 43.5598 24.7308ZM61.9238 67.6237C56.3766 67.5999 50.8412 67.5999 45.294 67.6237C44.6763 67.6237 44.5694 67.4455 44.5694 66.8754C44.5932 60.0097 44.5813 53.1439 44.5813 46.2663C44.5813 39.3531 44.5932 32.4518 44.5694 25.5385C44.5694 25.004 44.712 24.8852 45.2227 24.8852C46.7788 24.8852 48.3586 24.8021 49.9028 24.8377C54.0246 24.9328 58.1346 24.8377 62.2445 24.8852C62.589 24.8852 62.7077 25.004 62.6721 25.3366C62.6602 25.491 62.6721 25.6573 62.6721 25.8118C62.6721 39.4838 62.6721 53.1677 62.684 66.8397C62.7077 67.4812 62.5414 67.6237 61.9238 67.6237Z" fill="#C7A57A"/>
    <path d="M35.1149 52.2901C32.8936 52.302 30.6842 52.2901 28.463 52.2901C28.0947 52.2901 27.7503 52.3376 27.7503 52.789C27.7384 53.2879 28.1185 53.3235 28.4986 53.3235C29.5914 53.3235 30.6724 53.3235 31.7652 53.3235C32.8699 53.3235 33.9864 53.3117 35.0911 53.3235C35.495 53.3235 35.8513 53.2523 35.8395 52.789C35.8276 52.3614 35.495 52.2782 35.1149 52.2901Z" fill="#C7A57A"/>
    <path d="M28.4987 31.2408C30.6962 31.2408 32.8937 31.2408 35.0912 31.2408C35.4832 31.2408 35.8396 31.1814 35.8396 30.6944C35.8277 30.2074 35.4476 30.1836 35.0675 30.1836C33.9747 30.1836 32.8937 30.1836 31.8009 30.1836C30.7081 30.1836 29.6272 30.1836 28.5343 30.1836C28.1661 30.1836 27.7623 30.1955 27.7623 30.6944C27.7504 31.1695 28.1067 31.2526 28.4987 31.2408Z" fill="#C7A57A"/>
    <path d="M28.463 36.7535C29.5677 36.7417 30.6843 36.7535 31.789 36.7535C32.8936 36.7535 34.0102 36.7535 35.1149 36.7535C35.4713 36.7535 35.8157 36.7298 35.8395 36.2665C35.8514 35.8033 35.5188 35.7201 35.1505 35.7201C32.9174 35.7201 30.6843 35.7082 28.4392 35.7201C28.0829 35.7201 27.7384 35.7914 27.7503 36.2547C27.7622 36.7179 28.0948 36.7535 28.463 36.7535Z" fill="#C7A57A"/>
    <path d="M28.463 42.2028C29.5677 42.1909 30.6843 42.2028 31.789 42.2028C32.8936 42.2028 34.0102 42.2028 35.1149 42.2028C35.4713 42.2028 35.8157 42.179 35.8395 41.7157C35.8514 41.2525 35.5188 41.1693 35.1505 41.1693C32.9174 41.1693 30.6843 41.1575 28.4392 41.1693C28.0829 41.1693 27.7384 41.2406 27.7503 41.7039C27.7622 42.1552 28.0948 42.2028 28.463 42.2028Z" fill="#C7A57A"/>
    <path d="M35.1128 46.7764C32.8915 46.7764 30.6822 46.7764 28.4609 46.7764C28.0927 46.7764 27.7482 46.812 27.7363 47.2634C27.7363 47.7504 28.0927 47.786 28.4847 47.786C29.5894 47.7742 30.7059 47.786 31.8106 47.786C32.9034 47.786 33.9844 47.786 35.0772 47.786C35.4692 47.786 35.8374 47.7504 35.8255 47.2634C35.8374 46.8001 35.481 46.7764 35.1128 46.7764Z" fill="#C7A57A"/>
    <path d="M35.0555 57.8135C32.8817 57.8135 30.708 57.8135 28.5342 57.8135C28.1541 57.8135 27.7621 57.8254 27.7502 58.3124C27.7384 58.8469 28.166 58.8469 28.558 58.8469C29.627 58.8469 30.6961 58.8469 31.7651 58.8469C32.8698 58.8469 33.9745 58.8469 35.0911 58.8469C35.4712 58.8469 35.8513 58.8113 35.8394 58.3242C35.8275 57.8254 35.4356 57.8135 35.0555 57.8135Z" fill="#C7A57A"/>
    <path d="M60.1429 30.7768C59.941 30.7768 59.7509 30.7768 59.549 30.7768C59.3352 30.7768 59.1095 30.7649 58.8957 30.7768C58.575 30.8005 58.373 30.9431 58.373 31.2875C58.373 31.632 58.5869 31.7983 58.8957 31.8102C59.3233 31.8339 59.7628 31.8221 60.2023 31.8102C60.5112 31.7983 60.7368 31.6083 60.725 31.2875C60.725 30.9312 60.4874 30.7768 60.1429 30.7768Z" fill="#C7A57A"/>
    <path d="M58.8584 53.8909C59.0723 53.9147 59.2861 53.8909 59.5118 53.8909C59.7493 53.8909 59.9869 53.9028 60.2245 53.8909C60.5452 53.8672 60.7352 53.6771 60.7234 53.3564C60.7115 53.0594 60.5214 52.8813 60.2363 52.8694C59.785 52.8456 59.3336 52.8456 58.8822 52.8694C58.5734 52.8813 58.3714 53.0713 58.3833 53.4039C58.3833 53.7009 58.5734 53.8672 58.8584 53.8909Z" fill="#C7A57A"/>
    <path d="M51.9927 30.7764C51.7789 30.7764 51.5532 30.7764 51.3394 30.7764C51.1375 30.7764 50.9474 30.7764 50.7455 30.7764C50.4248 30.7764 50.211 30.9308 50.1753 31.2515C50.1397 31.596 50.3654 31.786 50.6623 31.8098C51.1137 31.8454 51.5651 31.8454 52.0165 31.8217C52.3253 31.7979 52.5391 31.6197 52.5273 31.2871C52.5273 30.9427 52.3134 30.7764 51.9927 30.7764Z" fill="#C7A57A"/>
    <path d="M50.5802 53.8659C50.8534 53.9134 51.1266 53.9015 51.3998 53.9134C51.3998 53.9015 51.3998 53.9015 51.3998 53.8897C51.6374 53.8897 51.8749 53.9253 52.1125 53.8778C52.3976 53.8303 52.5639 53.6283 52.5401 53.3314C52.5282 53.0582 52.3501 52.88 52.0887 52.8681C51.6017 52.8444 51.1028 52.8444 50.6158 52.88C50.3545 52.8919 50.1882 53.0938 50.1882 53.3551C50.1763 53.6283 50.3189 53.8184 50.5802 53.8659Z" fill="#C7A57A"/>
    <path d="M60.2501 55.2832C59.775 55.2595 59.2998 55.2476 58.8366 55.2832C58.5159 55.307 58.3496 55.5446 58.3733 55.8653C58.3971 56.1622 58.599 56.3167 58.896 56.3167C59.0979 56.3167 59.288 56.3167 59.4899 56.3167C59.7275 56.3167 59.965 56.3285 60.2026 56.3167C60.5233 56.3048 60.7253 56.1266 60.7253 55.794C60.7253 55.5089 60.5471 55.307 60.2501 55.2832Z" fill="#C7A57A"/>
    <path d="M47.0757 29.3762C47.2895 29.3762 47.5033 29.3762 47.729 29.3762C47.9428 29.3762 48.1566 29.3762 48.3823 29.3762C48.7149 29.3762 48.9169 29.198 48.9169 28.8773C48.9287 28.5566 48.7387 28.3546 48.4061 28.3428C47.9547 28.3309 47.5033 28.3309 47.0519 28.3546C46.7193 28.3665 46.5649 28.5922 46.5768 28.9129C46.5887 29.2099 46.7787 29.3643 47.0757 29.3762Z" fill="#C7A57A"/>
    <path d="M55.3184 29.3762C55.5322 29.3762 55.746 29.3762 55.9717 29.3762C56.1737 29.3762 56.3637 29.3643 56.5656 29.3762C56.8982 29.3881 57.1002 29.2099 57.1239 28.901C57.1358 28.5922 56.9576 28.3665 56.625 28.3546C56.1737 28.3309 55.7223 28.3309 55.2709 28.3428C54.9502 28.3546 54.7601 28.5566 54.772 28.8892C54.772 29.2218 54.9977 29.3643 55.3184 29.3762Z" fill="#C7A57A"/>
    <path d="M48.4179 30.7768C48.2041 30.7768 47.9784 30.7768 47.7646 30.7768C47.527 30.7768 47.2895 30.7649 47.0519 30.7768C46.7431 30.7886 46.5886 30.9549 46.5768 31.2638C46.5649 31.5845 46.7312 31.7745 47.0163 31.7983C47.5033 31.8339 48.0022 31.8339 48.4892 31.7983C48.7743 31.7745 48.9406 31.5607 48.9168 31.2519C48.8931 30.9549 48.7268 30.7768 48.4179 30.7768Z" fill="#C7A57A"/>
    <path d="M51.3284 43.0352C51.1146 43.0233 50.8889 43.0114 50.6751 43.0352C50.39 43.059 50.2 43.2253 50.1881 43.5222C50.1762 43.8192 50.3425 44.033 50.6276 44.0567C51.1146 44.0924 51.6135 44.0805 52.1005 44.0567C52.35 44.0449 52.5281 43.8548 52.54 43.5816C52.5519 43.2846 52.3856 43.0827 52.1005 43.0471C51.8392 43.0114 51.5779 43.0352 51.3284 43.0352Z" fill="#C7A57A"/>
    <path d="M58.8718 29.376C59.0856 29.3878 59.2995 29.376 59.5251 29.376C59.7627 29.376 60.0003 29.376 60.2378 29.376C60.5467 29.3641 60.7249 29.1978 60.7367 28.9008C60.7605 28.6039 60.5942 28.3901 60.2972 28.3663C59.8102 28.3307 59.3113 28.3188 58.8243 28.3663C58.5511 28.3901 58.3611 28.592 58.3848 28.9008C58.3967 29.1859 58.563 29.3641 58.8718 29.376Z" fill="#C7A57A"/>
    <path d="M60.2028 43.0248C59.989 43.0129 59.7751 43.0248 59.5495 43.0248C59.3356 43.0248 59.11 43.0129 58.8961 43.0248C58.5873 43.0486 58.3616 43.203 58.3735 43.5356C58.3854 43.8563 58.5635 44.0464 58.8961 44.0582C59.3238 44.0701 59.7633 44.0701 60.1909 44.0582C60.5116 44.0464 60.7135 43.8563 60.7135 43.5356C60.7254 43.2267 60.5235 43.0486 60.2028 43.0248Z" fill="#C7A57A"/>
    <path d="M50.6278 29.3629C50.8654 29.3748 51.1029 29.3629 51.3405 29.3629C51.5781 29.3629 51.8156 29.3748 52.0532 29.3629C52.3621 29.351 52.5284 29.1728 52.5521 28.8759C52.564 28.6027 52.4214 28.4126 52.1601 28.3651C51.6375 28.2819 51.1029 28.2819 50.5684 28.3651C50.2952 28.4126 50.1764 28.6264 50.1883 28.8877C50.2002 29.1609 50.3546 29.3391 50.6278 29.3629Z" fill="#C7A57A"/>
    <path d="M55.3198 30.7764C54.999 30.7764 54.7852 30.9189 54.7615 31.2515C54.7377 31.6316 54.9634 31.7979 55.296 31.8217C55.7236 31.8454 56.1631 31.8335 56.5908 31.8217C56.9233 31.8098 57.0896 31.596 57.0896 31.2753C57.0896 30.9427 56.8877 30.7764 56.5551 30.7882C56.3413 30.7882 56.1275 30.7882 55.9018 30.7882C55.7118 30.7764 55.5217 30.7764 55.3198 30.7764Z" fill="#C7A57A"/>
    <path d="M47.0512 53.8817C47.5264 53.9055 47.9896 53.9055 48.4648 53.8817C48.7498 53.858 48.9161 53.656 48.9161 53.3591C48.9043 53.0621 48.7261 52.8839 48.441 52.8602C48.2272 52.8364 48.0134 52.8602 47.7877 52.8602C47.5501 52.8602 47.3125 52.8483 47.075 52.8602C46.7661 52.8839 46.5642 53.0621 46.5642 53.3947C46.5761 53.7035 46.7661 53.8698 47.0512 53.8817Z" fill="#C7A57A"/>
    <path d="M56.639 52.8687C56.4015 52.8568 56.1639 52.8687 55.9263 52.8687C55.9263 52.8687 55.9263 52.8687 55.9263 52.8568C55.7125 52.8568 55.4987 52.845 55.273 52.8568C54.9404 52.8687 54.7622 53.0469 54.7622 53.3795C54.7504 53.6883 54.9404 53.8665 55.2255 53.8903C55.7006 53.914 56.1639 53.914 56.639 53.8903C56.936 53.8784 57.1023 53.6646 57.1023 53.3795C57.1023 53.0825 56.9479 52.8806 56.639 52.8687Z" fill="#C7A57A"/>
    <path d="M47.1344 44.0701C47.5501 44.082 47.954 44.0701 48.3697 44.0701C48.6904 44.0582 48.8924 43.9038 48.9043 43.5712C48.9161 43.203 48.6904 43.0486 48.346 43.0248C48.1559 43.0129 47.954 43.0248 47.752 43.0248C47.5382 43.0248 47.3244 43.0248 47.0987 43.0248C46.7661 43.0367 46.5761 43.203 46.5642 43.5237C46.5642 43.8919 46.7899 44.0701 47.1344 44.0701Z" fill="#C7A57A"/>
    <path d="M48.3817 55.2815C47.9541 55.2577 47.5146 55.2577 47.0869 55.2815C46.7781 55.2934 46.5762 55.4834 46.5762 55.816C46.5881 56.1486 46.7781 56.3149 47.1107 56.3268C47.3245 56.3387 47.5383 56.3268 47.764 56.3268C47.9659 56.3268 48.156 56.3268 48.3579 56.3268C48.7143 56.3268 48.9281 56.1486 48.9281 55.8041C48.9162 55.4715 48.6905 55.2934 48.3817 55.2815Z" fill="#C7A57A"/>
    <path d="M56.7343 55.3067C56.2117 55.2474 55.6772 55.2236 55.1426 55.3067C54.8694 55.3543 54.7506 55.5562 54.7625 55.8294C54.7744 56.1026 54.9169 56.2808 55.1901 56.3045C55.4277 56.3283 55.6653 56.3045 55.9029 56.3045C56.1642 56.3045 56.4136 56.3164 56.6749 56.3045C56.9482 56.2808 57.0907 56.0907 57.1145 55.8294C57.1145 55.58 56.9957 55.3424 56.7343 55.3067Z" fill="#C7A57A"/>
    <path d="M55.3679 43.0215C55.0353 43.0334 54.774 43.1403 54.7621 43.5204C54.7502 43.8886 54.9997 44.0549 55.3204 44.0668C55.748 44.0905 56.1875 44.0787 56.6152 44.0668C56.924 44.0549 57.0784 43.853 57.0903 43.5679C57.1022 43.2472 56.9359 43.0452 56.5914 43.0334C56.3895 43.0215 56.1994 43.0334 55.9975 43.0334C55.7955 43.0215 55.5817 43.0215 55.3679 43.0215Z" fill="#C7A57A"/>
    <path d="M48.5012 40.6233C47.9904 40.5995 47.4796 40.5995 46.9688 40.6233C46.7075 40.6352 46.565 40.849 46.5769 41.1222C46.5887 41.3954 46.7194 41.5736 46.9926 41.6092C47.2302 41.633 47.4677 41.6092 47.6934 41.6092C47.9429 41.6092 48.2042 41.6211 48.4536 41.6092C48.7625 41.5854 48.905 41.3835 48.905 41.0984C48.9169 40.8252 48.7625 40.6352 48.5012 40.6233Z" fill="#C7A57A"/>
    <path d="M56.6849 40.6232C56.4355 40.5994 56.1741 40.6232 55.9128 40.6232C55.9128 40.6232 55.9128 40.6232 55.9128 40.6113C55.699 40.6113 55.4852 40.6113 55.2595 40.6113C54.9625 40.6232 54.7606 40.7776 54.7487 41.0746C54.7369 41.3715 54.8794 41.621 55.2357 41.621C55.7109 41.6329 56.186 41.6329 56.6493 41.6091C56.9581 41.5972 57.1125 41.3834 57.1125 41.0983C57.1125 40.837 56.9462 40.647 56.6849 40.6232Z" fill="#C7A57A"/>
    <path d="M52.1125 40.6233C51.6018 40.5995 51.091 40.5995 50.5802 40.6233C50.307 40.6352 50.1764 40.8609 50.1882 41.1222C50.2001 41.3835 50.3308 41.5736 50.6159 41.5973C50.8534 41.6211 51.091 41.5973 51.3167 41.5973C51.5661 41.5973 51.8275 41.6211 52.0769 41.5973C52.3739 41.5736 52.5402 41.3835 52.5402 41.0865C52.5402 40.8252 52.3739 40.6352 52.1125 40.6233Z" fill="#C7A57A"/>
    <path d="M60.1787 40.6113C59.9768 40.6113 59.7867 40.6113 59.5848 40.6113C59.371 40.6113 59.1572 40.6113 58.9315 40.6113C58.5751 40.6113 58.3613 40.7776 58.3613 41.134C58.3613 41.4666 58.587 41.621 58.8959 41.6329C59.3235 41.6447 59.763 41.6329 60.1906 41.6329C60.5232 41.6329 60.7132 41.4428 60.7014 41.1102C60.7132 40.7776 60.5113 40.6113 60.1787 40.6113Z" fill="#C7A57A"/>
    <path d="M52.2313 55.3404C51.5779 55.2811 50.9128 55.0791 50.2832 55.483C50.4376 55.7562 50.8415 55.8869 50.7702 56.3026C51.2097 56.3026 51.6373 56.3264 52.0768 56.3145C52.3382 56.3026 52.5045 56.1244 52.5401 55.8512C52.5757 55.6018 52.4451 55.3642 52.2313 55.3404Z" fill="#C7A57A"/>
    <path d="M15.7533 48.3441C15.492 48.356 15.2426 48.3441 14.9812 48.3441C14.708 48.3441 14.4348 48.3323 14.1497 48.3441C13.8765 48.356 13.6984 48.5223 13.6746 48.7836C13.6509 49.0687 13.7815 49.3063 14.0785 49.3538C14.6605 49.437 15.2544 49.4132 15.8484 49.3538C16.1453 49.3182 16.2997 49.0687 16.2641 48.8074C16.2403 48.5342 16.0622 48.3323 15.7533 48.3441Z" fill="#C7A57A"/>
    <path d="M5.98748 52.2904C5.72616 52.2786 5.47671 52.2904 5.21539 52.2904C4.94218 52.2904 4.66898 52.2786 4.3839 52.2904C4.07506 52.3023 3.90876 52.5161 3.90876 52.7893C3.89688 53.0744 4.07506 53.2882 4.37202 53.3001C4.91843 53.3239 5.47671 53.312 6.02312 53.3001C6.32008 53.2882 6.49825 53.0982 6.49825 52.8012C6.49825 52.4805 6.3082 52.3023 5.98748 52.2904Z" fill="#C7A57A"/>
    <path d="M5.98816 48.3457C5.72683 48.3457 5.47739 48.3457 5.21606 48.3457C4.94286 48.3457 4.66966 48.3457 4.38457 48.3457C4.09949 48.3457 3.94507 48.5239 3.90944 48.7852C3.88568 49.0584 3.99259 49.3079 4.30142 49.3435C4.88347 49.4266 5.47739 49.4148 6.07131 49.3435C6.38014 49.3079 6.49893 49.094 6.48705 48.7971C6.47517 48.4882 6.28512 48.3457 5.98816 48.3457Z" fill="#C7A57A"/>
    <path d="M10.9295 56.255C10.3831 56.2313 9.8248 56.2313 9.2784 56.2432C8.98144 56.255 8.81514 56.4332 8.80326 56.7302C8.79138 57.0628 8.98144 57.2409 9.30215 57.2528C9.5516 57.2647 9.81292 57.2528 10.0624 57.2528C10.3356 57.2528 10.6088 57.2647 10.882 57.2528C11.1908 57.2409 11.3452 57.0746 11.3571 56.7658C11.3809 56.4807 11.2383 56.2669 10.9295 56.255Z" fill="#C7A57A"/>
    <path d="M6.04835 56.2424C5.47819 56.2187 4.90803 56.2306 4.33786 56.2543C4.07654 56.2662 3.92212 56.4681 3.92212 56.7413C3.92212 57.0264 4.06466 57.2402 4.3735 57.2521C4.6467 57.264 4.9199 57.2521 5.19311 57.2521C5.46631 57.2521 5.73951 57.264 6.01272 57.2521C6.2978 57.2283 6.48785 57.0621 6.48785 56.7532C6.49973 56.4563 6.33343 56.2543 6.04835 56.2424Z" fill="#C7A57A"/>
    <path d="M4.39672 45.4093C4.66992 45.4212 4.94313 45.4093 5.22821 45.4093C5.50141 45.4093 5.77461 45.4212 6.04782 45.4093C6.32102 45.3974 6.47544 45.2311 6.4992 44.9579C6.52295 44.6966 6.41605 44.4709 6.14284 44.4234C5.53705 44.3284 4.93125 44.3284 4.32545 44.4115C4.02849 44.4472 3.89783 44.6847 3.93346 44.9698C3.94534 45.2311 4.11164 45.3974 4.39672 45.4093Z" fill="#C7A57A"/>
    <path d="M10.8924 48.3441C10.6192 48.3323 10.3459 48.3441 10.0609 48.3441C9.78766 48.3441 9.51446 48.3323 9.24126 48.3441C8.95618 48.356 8.81364 48.5342 8.80176 48.7955C8.78988 49.0569 8.88491 49.2825 9.16999 49.3301C9.77578 49.4251 10.3816 49.4132 10.9874 49.3301C11.2606 49.2944 11.3912 49.0806 11.3794 48.8193C11.3675 48.5342 11.2012 48.356 10.8924 48.3441Z" fill="#C7A57A"/>
    <path d="M15.7511 52.291C15.4897 52.291 15.2403 52.291 14.979 52.291C14.7176 52.291 14.4682 52.291 14.2069 52.291C13.8743 52.291 13.6842 52.4692 13.6723 52.7899C13.6605 53.1225 13.8743 53.3007 14.1831 53.3126C14.7176 53.3244 15.2403 53.3244 15.7748 53.3126C16.0837 53.3007 16.2381 53.0869 16.2381 52.8018C16.2618 52.5048 16.0837 52.3029 15.7511 52.291Z" fill="#C7A57A"/>
    <path d="M15.7511 56.29C15.4897 56.29 15.2403 56.29 14.979 56.29C14.7176 56.29 14.4682 56.29 14.2069 56.29C13.8743 56.29 13.6842 56.4682 13.6723 56.7889C13.6605 57.1215 13.8743 57.2997 14.1831 57.3116C14.7176 57.3235 15.2403 57.3235 15.7748 57.3116C16.0837 57.2997 16.2381 57.0859 16.2381 56.8008C16.2618 56.492 16.0837 56.29 15.7511 56.29Z" fill="#C7A57A"/>
    <path d="M14.2062 45.4126C14.4676 45.4245 14.717 45.4126 14.9783 45.4126C15.2397 45.4126 15.4891 45.4126 15.7504 45.4126C16.0593 45.4126 16.2493 45.2463 16.2612 44.9613C16.2731 44.6524 16.1305 44.4149 15.7861 44.403C15.2515 44.3911 14.717 44.3673 14.1944 44.3792C13.8855 44.3911 13.6836 44.5693 13.6836 44.9137C13.6836 45.2463 13.8855 45.4008 14.2062 45.4126Z" fill="#C7A57A"/>
    <path d="M10.965 44.4147C10.6918 44.3791 10.4186 44.3791 10.1454 44.3672C9.84847 44.3791 9.55151 44.3791 9.26643 44.4147C8.96947 44.4385 8.80317 44.6285 8.81505 44.9255C8.82693 45.2224 8.96947 45.4125 9.27831 45.4244C9.82471 45.4362 10.383 45.4362 10.9294 45.4244C11.2501 45.4125 11.3808 45.1987 11.3808 44.9136C11.3927 44.6285 11.2382 44.4385 10.965 44.4147Z" fill="#C7A57A"/>
    <path d="M10.8344 52.2904C10.3355 52.2786 9.84848 52.2904 9.34959 52.2904C9.02887 52.2904 8.81506 52.4567 8.80318 52.7893C8.7913 53.1576 9.01699 53.3239 9.37334 53.3239C9.61091 53.3239 9.84848 53.3239 10.086 53.3239C10.3474 53.3239 10.5968 53.3357 10.8581 53.3239C11.1789 53.3001 11.3808 53.1457 11.3689 52.8012C11.3689 52.4449 11.1551 52.2904 10.8344 52.2904Z" fill="#C7A57A"/>
    <path d="M15.763 60.2012C15.2285 60.1893 14.7058 60.1775 14.1713 60.2012C13.8506 60.2131 13.6605 60.3913 13.6724 60.7357C13.6843 61.0802 13.8981 61.2228 14.2188 61.2228C14.4683 61.2228 14.7296 61.2228 14.979 61.2228C15.2285 61.2228 15.4898 61.2228 15.7392 61.2228C16.0718 61.2109 16.2381 61.0208 16.2381 60.7001C16.2381 60.3913 16.0718 60.2131 15.763 60.2012Z" fill="#C7A57A"/>
    <path d="M6.06067 60.2122C5.49051 60.1884 4.92035 60.1884 4.35018 60.2122C4.05322 60.224 3.91068 60.4378 3.92256 60.7467C3.93444 61.0199 4.07698 61.1981 4.36206 61.2099C4.63526 61.2337 4.90847 61.2099 5.18167 61.2099C5.47863 61.2099 5.77559 61.2218 6.06067 61.2099C6.33387 61.1862 6.47642 61.008 6.48829 60.7348C6.50017 60.4378 6.36951 60.224 6.06067 60.2122Z" fill="#C7A57A"/>
    <path d="M10.8582 60.2013C10.3474 60.1894 9.82477 60.1894 9.314 60.2013C8.99329 60.2132 8.79135 60.3795 8.80323 60.7239C8.81511 61.0684 9.01704 61.211 9.33776 61.2228C9.59908 61.2228 9.84853 61.2228 10.1099 61.2228C10.3474 61.2228 10.585 61.2228 10.8226 61.2228C11.1433 61.211 11.3571 61.0803 11.3571 60.7239C11.3808 60.3795 11.1789 60.2132 10.8582 60.2013Z" fill="#C7A57A"/>
    <path d="M47.9306 11.9258C46.5645 11.9258 45.1985 11.9258 43.8444 11.9258C43.4762 11.9258 43.2148 12.0802 43.2148 12.4722C43.2148 12.8761 43.4999 12.983 43.8682 12.983C44.5452 12.9711 45.2104 12.983 45.8875 12.983C46.5646 12.983 47.2297 12.9711 47.9068 12.983C48.2632 12.983 48.5601 12.8998 48.5601 12.4841C48.5482 12.0921 48.3107 11.9258 47.9306 11.9258Z" fill="#C7A57A"/>
    <path d="M43.8704 16.9877C45.2127 16.9758 46.5549 16.9758 47.9091 16.9877C48.2773 16.9877 48.5505 16.8689 48.5505 16.465C48.5624 16.0612 48.2773 15.9424 47.9091 15.9424C47.2558 15.9543 46.6025 15.9424 45.9491 15.9424C45.2602 15.9424 44.5594 15.9424 43.8704 15.9424C43.526 15.9424 43.2052 16.0018 43.1934 16.4175C43.1934 16.8451 43.4666 16.9877 43.8704 16.9877Z" fill="#C7A57A"/>
    <path d="M43.8212 4.9994C44.5102 4.98752 45.211 4.9994 45.8999 4.9994C46.5889 4.9994 47.2897 4.9994 47.9786 4.9994C48.335 4.9994 48.5488 4.80935 48.5488 4.46487C48.5607 4.09664 48.3231 3.9541 47.9668 3.9541C46.577 3.9541 45.1991 3.9541 43.8093 3.9541C43.453 3.9541 43.2154 4.09664 43.2035 4.45299C43.1917 4.82122 43.4411 4.9994 43.8212 4.9994Z" fill="#C7A57A"/>
    <path d="M50.983 15.9989C51.3394 15.987 51.4938 15.7613 51.4938 15.4049C51.4938 14.7754 51.4938 14.1458 51.4938 13.5163C51.4938 12.863 51.4938 12.2096 51.4938 11.5682C51.4938 11.2119 51.3156 10.998 50.9711 10.998C50.6504 10.998 50.4604 11.2119 50.4604 11.5326C50.4485 12.8392 50.4604 14.1339 50.4604 15.4406C50.4604 15.7732 50.6267 15.9989 50.983 15.9989Z" fill="#C7A57A"/>
    <path d="M50.9836 7.50666C51.3875 7.49479 51.5062 7.22158 51.4944 6.85335C51.4825 6.24755 51.4944 5.62988 51.4944 5.02408C51.4944 4.39452 51.4825 3.76497 51.4944 3.13541C51.4944 2.76718 51.3518 2.50586 50.9717 2.50586C50.6035 2.50586 50.4609 2.75531 50.4609 3.09978C50.4609 4.35889 50.4609 5.618 50.4609 6.87711C50.4609 7.23346 50.5678 7.53042 50.9836 7.50666Z" fill="#C7A57A"/>
    <path d="M48.5609 20.4546C48.5609 20.1101 48.3234 19.9438 47.967 19.9557C47.2543 19.9676 46.5416 19.9557 45.8289 19.9557C45.14 19.9557 44.451 19.9557 43.7502 19.9557C43.382 19.9557 43.18 20.1457 43.1919 20.4902C43.2038 20.8109 43.4295 20.9653 43.7502 20.9653C45.1518 20.9653 46.5535 20.9535 47.9551 20.9653C48.3352 20.9653 48.5728 20.799 48.5609 20.4546Z" fill="#C7A57A"/>
    <path d="M43.8331 8.97955C44.4983 8.96767 45.1753 8.97955 45.8405 8.97955C46.5532 8.97955 47.2659 8.97955 47.9667 8.97955C48.3231 8.97955 48.5488 8.82513 48.5488 8.4569C48.5488 8.08867 48.2993 7.95801 47.9549 7.95801C46.577 7.95801 45.1872 7.95801 43.8093 7.95801C43.4648 7.95801 43.2154 8.07679 43.2035 8.44502C43.1916 8.83701 43.453 8.97955 43.8331 8.97955Z" fill="#C7A57A"/>
    <path d="M17.6867 18.0303C17.3898 18.0303 17.1997 18.1847 17.1759 18.4935C17.1641 18.6479 17.1641 18.8142 17.1641 18.9687C17.1641 21.8432 17.1641 24.7059 17.1641 27.5805C17.1641 29.5998 17.1641 31.6192 17.1641 33.6385C17.1641 34.6481 17.1641 35.6578 17.1641 36.6675C17.1641 37.0001 17.3185 37.2139 17.6392 37.2258C17.9837 37.2376 18.1856 37.0476 18.1975 36.6794C18.1975 36.5962 18.1975 36.5249 18.1975 36.4418C18.1975 30.5857 18.1975 24.7297 18.1975 18.8618C18.1975 18.743 18.1975 18.6242 18.1856 18.5054C18.1618 18.1966 17.9837 18.0303 17.6867 18.0303Z" fill="#C7A57A"/>
    <path d="M14.1731 27.2351C14.1018 26.2254 14.2562 25.192 14.2681 24.1705C14.2919 22.4481 14.28 20.7257 14.2681 19.0034C14.2681 18.7896 14.2562 18.5639 14.2087 18.3619C14.1493 18.1244 13.9593 18.0056 13.7098 18.0294C13.4485 18.0531 13.2585 18.1719 13.2228 18.457C13.2109 18.5995 13.2109 18.7302 13.2109 18.8727C13.2109 21.7829 13.2109 24.6931 13.2109 27.6033C13.2109 30.5492 13.2109 33.495 13.2109 36.4527C13.2109 36.8329 13.2109 37.213 13.7098 37.2248C14.2444 37.2367 14.2681 36.8329 14.2562 36.429C14.2562 36.0964 14.2681 35.7519 14.2562 35.4193C14.1968 32.6873 14.375 29.9553 14.1731 27.2351Z" fill="#C7A57A"/>
    <path d="M22.1425 21.3326C22.1425 20.4417 22.1307 19.5509 22.1425 18.66C22.1425 18.2918 22.0238 18.0186 21.6199 18.0186C21.216 18.0186 21.0854 18.3155 21.0854 18.66C21.0854 20.418 21.0735 22.176 21.0854 23.934C21.0854 24.2785 21.216 24.5754 21.6199 24.5754C22.0238 24.5754 22.1307 24.2903 22.1307 23.9221C22.1425 23.0669 22.1425 22.1997 22.1425 21.3326Z" fill="#C7A57A"/>
    <path d="M25.5752 18.0186C25.2189 18.0186 25.0645 18.2561 25.0645 18.6125C25.0645 19.0995 25.0645 19.5984 25.0645 20.0854C25.0645 20.6318 25.0645 21.1901 25.0645 21.7365C25.0645 22.0572 25.2307 22.2829 25.5515 22.2948C25.9078 22.3067 26.086 22.081 26.086 21.7246C26.086 20.6793 26.086 19.634 26.086 18.5887C26.0979 18.2442 25.9316 18.0186 25.5752 18.0186Z" fill="#C7A57A"/>
</svg>
