<svg width="67" height="61" viewBox="0 0 67 61" fill="none"
    xmlns="http://www.w3.org/2000/svg">
    <path d="M67 41.3798C67 40.8572 66.9182 40.385 66.3767 40.1709C63.0208 38.8235 60.0175 36.7898 56.7875 35.1969C55.9375 34.775 55.7045 34.2713 55.736 33.3898C55.799 31.6332 55.7486 29.8702 55.7549 28.1073C55.7612 26.2877 56.1453 24.531 53.3812 24.0021C51.5553 23.6495 49.9372 22.2392 48.2183 21.3073C47.1165 20.7155 45.5739 20.3755 46.7009 18.5559C46.745 18.4866 46.7135 18.3607 46.7135 18.2663C46.7135 14.4507 46.7135 10.6352 46.7198 6.81967C46.7198 6.30337 46.6568 5.84375 46.1091 5.61079C42.5894 4.15006 39.3847 2.07229 36.0225 0.315639C35.2417 -0.0936174 34.6877 -0.118802 33.9069 0.321935C30.7588 2.08489 27.5981 3.83524 24.3555 5.4156C23.4866 5.83745 23.1592 6.19634 23.1844 7.0967C23.2285 8.9541 23.09 10.8241 23.2222 12.6689C23.3922 15.0678 22.5926 17.5422 23.7511 19.8655C23.8644 20.0859 23.6944 20.2307 23.5244 20.3188C20.9429 21.704 18.4559 23.3158 15.7422 24.3484C14.4704 24.8332 14.143 25.3118 14.1493 26.4388C14.1619 29.4043 14.1556 32.3762 14.1556 35.7887C12.04 33.4906 10.4471 35.0898 8.79118 35.9713C6.37972 37.2557 4.0564 38.7417 1.55679 39.812C0.234577 40.3787 -0.0235689 41.0461 0.00161608 42.2928C0.0645786 45.7179 0.051986 49.1431 0.00791229 52.5682C-0.00468021 53.6638 0.379391 54.413 1.34901 54.9482C4.38381 56.623 7.39971 58.3293 10.4156 60.0293C11.3475 60.5519 12.2667 60.5456 13.1923 60.023C16.3404 58.2537 19.5137 56.5223 22.6114 54.6775C23.2474 54.2997 23.5937 54.369 24.1414 54.6775C26.8551 56.2264 29.6192 57.6871 32.3014 59.28C34.121 60.363 35.8021 60.3882 37.6154 59.28C39.6932 58.0082 41.8906 56.9252 43.9746 55.6534C44.8183 55.1434 45.4353 55.2504 46.2161 55.7038C48.7031 57.1519 51.2279 58.5371 53.7275 59.9663C54.6971 60.5204 55.6479 60.5708 56.6301 60.0167C59.6523 58.3167 62.6745 56.6293 65.6967 54.9356C66.4648 54.5012 67 53.9282 66.9937 52.9712C66.9874 49.1116 66.9874 45.2457 67 41.3798ZM45.7439 7.83966C45.725 11.1641 45.7313 14.4885 45.7376 17.8129C45.7376 18.4048 45.7502 18.9903 45.1205 19.3366C41.9913 21.0933 38.8621 22.8562 35.4873 24.7577C35.4873 20.6903 35.4999 16.9818 35.481 13.267C35.4747 12.5996 35.7391 12.203 36.3247 11.8819C39.1454 10.333 41.9598 8.77151 44.7428 7.15966C45.7061 6.593 45.7502 7.03374 45.7439 7.83966ZM29.2666 4.00524C30.891 3.11747 32.528 2.236 34.1525 1.34822C34.5806 1.11526 34.9521 0.888598 35.4999 1.19082C38.4339 2.82784 41.3995 4.4145 44.5413 6.12078C41.3995 7.87744 38.4906 9.48298 35.6132 11.1326C35.1284 11.4096 34.8199 11.4411 34.3162 11.1452C31.4451 9.48298 28.5362 7.88373 25.4322 6.13967C26.7922 5.37783 28.0262 4.67894 29.2666 4.00524ZM24.11 15.0866C24.3807 12.4737 24.1666 9.81668 24.1729 7.17855C24.1729 7.08411 24.1981 6.98337 24.2485 6.64337C27.5414 8.49447 30.6769 10.2574 33.8125 12.0141C34.2343 12.2533 34.4295 12.5933 34.4295 13.0907C34.4232 16.8874 34.4232 20.6777 34.4232 24.7325C31.9866 23.3725 29.8458 21.9055 27.491 20.9296C24.7207 19.7774 23.8077 18.0081 24.11 15.0866ZM11.253 59.3178C7.90971 57.4415 4.78047 55.6849 1.64494 53.9282C1.15383 53.6512 1.01531 53.2293 1.01531 52.7005C1.02161 48.9479 1.01531 45.1953 1.01531 41.1783C4.36492 43.0672 7.46897 44.8112 10.573 46.549C10.9886 46.782 11.253 47.0779 11.253 47.5816C11.2467 51.416 11.253 55.2567 11.253 59.3178ZM11.3286 45.8249C8.37563 44.1438 5.41009 42.4816 2.24308 40.6998C5.39121 38.9809 8.37563 37.3502 11.3601 35.7258C11.6371 35.5746 11.9204 35.5621 12.1975 35.7132C15.1819 37.3376 18.1663 38.962 21.3585 40.6998C18.1789 42.4816 15.2197 44.1438 12.2667 45.8186C11.9267 46.0138 11.6749 46.0201 11.3286 45.8249ZM22.5737 52.9271C22.5737 53.4812 22.2148 53.7897 21.7615 54.0416C18.7015 55.7541 15.6478 57.473 12.3297 59.3367C12.3297 55.2693 12.336 51.4601 12.3234 47.6509C12.3234 47.1598 12.5186 46.8198 12.9404 46.5805C16.0822 44.8301 19.2241 43.0735 22.58 41.1972C22.5737 45.2583 22.58 49.0927 22.5737 52.9271ZM34.4232 58.0082C34.4232 58.3419 34.3917 58.6756 34.3665 59.2423C30.8406 57.2715 27.5414 55.3952 24.2044 53.5819C23.5307 53.2167 23.5496 52.7193 23.5496 52.1275C23.5559 48.6583 23.5433 45.1827 23.5559 41.7135C23.5622 40.8761 23.537 40.1079 22.4163 40.0639C22.3722 40.0639 22.2903 40.0387 22.284 40.0198C21.9566 38.3702 20.3952 39.0376 19.4696 38.5213C18.2796 37.8539 17.0833 37.1991 15.8745 36.5569C15.4526 36.3365 15.2008 36.0784 15.2071 35.5558C15.2259 32.2376 15.2197 28.9132 15.2197 25.2929C20.1559 28.0569 24.897 30.7076 29.6255 33.3584C29.5499 33.755 29.2414 33.8054 29.021 33.9565C28.7062 34.1769 28.7629 34.435 28.9329 34.7121C29.1533 35.0709 29.3862 34.8884 29.657 34.775C31.9236 33.8054 34.4169 35.4424 34.4232 37.9106C34.4295 44.6161 34.4232 51.3153 34.4232 58.0082ZM34.6247 35.2158C29.254 31.7528 23.5244 28.9006 18.0026 25.6895C17.713 25.5195 17.4422 25.3369 16.9763 25.041C19.5011 23.6621 21.8748 22.3966 24.2044 21.0744C24.8466 20.7092 25.3314 20.7785 25.9359 21.131C28.3851 22.5477 30.8784 23.8951 33.3214 25.3181C34.4547 25.9792 35.4936 25.9477 36.6143 25.3055C39.0635 23.8888 41.5506 22.5288 44.0124 21.131C44.535 20.8351 44.9694 20.6399 45.6054 21.0114C47.9664 22.3714 50.3779 23.6433 52.9846 25.0662C52.1283 25.551 51.4294 25.954 50.7242 26.3506C47.2739 28.2836 43.8613 30.2858 40.3669 32.1243C38.6291 33.0373 36.948 34.0195 35.3425 35.1339C35.0906 35.3165 34.971 35.4361 34.6247 35.2158ZM43.4583 41.6757C43.4772 45.3464 43.0994 49.0612 43.6031 52.6627C43.9054 54.8097 42.8539 55.1812 41.6009 55.8801C39.6491 56.9693 37.6973 58.0523 35.7706 59.1226C35.3676 58.8015 35.4936 58.4363 35.4936 58.1215C35.4873 51.3719 35.481 44.6224 35.4873 37.8728C35.4936 35.795 37.8043 33.9628 39.7939 34.4665C40.2284 34.5798 40.6439 34.435 40.5432 34.1328C40.1465 32.9806 41.1287 32.9176 41.6891 32.6028C45.9265 30.1976 50.1764 27.8366 54.6908 25.3118C54.6908 28.3717 54.672 31.1547 54.7034 33.9376C54.7097 34.5421 54.4201 34.8002 53.9605 35.0458C52.2794 35.9398 50.6172 36.8528 48.9361 37.7532C48.6842 37.8854 48.3442 38.0931 48.1427 38.0176C47.3305 37.7028 46.7198 37.2746 46.8268 38.7983C46.852 39.1698 45.4605 39.8435 44.642 40.0198C43.6031 40.2465 43.452 40.8005 43.4583 41.6757ZM54.6908 59.0345C54.1368 59.2549 53.8408 58.833 53.4883 58.6441C50.806 57.1645 48.1427 55.6408 45.4479 54.1738C44.7239 53.7771 44.4091 53.2797 44.4154 52.436C44.4531 48.7779 44.428 45.1198 44.428 41.1846C47.7776 43.0609 50.9068 44.8238 54.0423 46.5679C54.5964 46.8764 54.6908 47.3423 54.6908 47.9153C54.6908 51.6238 54.6908 55.3323 54.6908 59.0345ZM54.7664 45.8312C51.8135 44.1501 48.8479 42.4879 45.6809 40.6998C48.8353 38.9809 51.8198 37.3502 54.7979 35.7258C55.0749 35.5746 55.3582 35.5684 55.6353 35.7195C58.6197 37.3439 61.6041 38.9746 64.79 40.7061C61.6167 42.4879 58.6512 44.1438 55.6982 45.8186C55.3582 46.0075 55.1127 46.0264 54.7664 45.8312ZM65.3693 53.9408C62.2337 55.6975 59.1045 57.4604 55.7675 59.3367C55.7675 55.2567 55.7675 51.416 55.7675 47.5753C55.7675 47.0716 56.0319 46.782 56.4475 46.549C59.5515 44.8175 62.6556 43.0798 66.0115 41.2035C66.0115 42.7713 66.0115 44.1501 66.0115 45.5353C66.0115 47.8335 66.0052 50.1316 66.0115 52.4297C66.0115 53.0279 65.9926 53.5882 65.3693 53.9408Z" fill="#C7A57A"/>
    <path d="M26.1863 35.7586C25.3993 35.9916 24.6815 36.426 24.0959 36.999C23.8945 37.2005 24.1022 37.5531 24.3856 37.6979C24.6626 37.8364 26.6585 36.6779 26.6963 36.3757C26.5389 36.1553 26.4759 35.6705 26.1863 35.7586Z" fill="#C7A57A"/>
    <path d="M43.0346 35.2322C42.7764 35.1315 42.4553 35.6226 42.5561 35.8178C42.9339 36.5418 43.7209 36.7937 44.4198 37.0581C44.7031 37.1652 44.7912 36.6929 44.9738 36.4033C44.4324 35.843 43.7335 35.503 43.0346 35.2322Z" fill="#C7A57A"/>
    <path d="M34.8279 30.5107C34.425 30.7815 33.9464 31.0333 33.5687 31.3859C33.3609 31.5748 33.682 31.9904 33.7764 31.9778C34.5698 31.8707 35.3568 31.8078 36.1501 31.9841C36.1816 31.9904 36.4398 31.4804 36.3642 31.3922C35.999 30.9326 35.4701 30.687 34.8279 30.5107Z" fill="#C7A57A"/>
</svg>
