<svg width="743" height="395" viewBox="0 0 743 395" fill="none"
    xmlns="http://www.w3.org/2000/svg">
    <g clip-path="url(#clip0_7_41)">
        <path d="M574.248 378.547C568.927 385.452 562.671 390.588 564.033 392.933C564.033 392.933 566.885 395.064 574.673 395.064C588.101 395.064 601.273 394.041 599.103 392.677C596.102 390.802 587.42 390.098 579.121 387.242C576.993 386.518 583.611 382.532 581.823 381.893C579.192 381.037 576.653 379.916 574.248 378.547Z" fill="#64748B"/>
        <path d="M712.463 392.528C712.463 392.528 714.229 395 720.975 395C732.573 395 744.66 393.423 742.787 392.251C740.191 390.61 719.868 386.369 719.868 386.369L715.293 380.7L707.568 384.962L712.463 392.528Z" fill="#64748B"/>
        <path d="M675.712 221.327C670.613 221.348 665.532 220.74 660.582 219.515C658.499 218.95 656.726 217.58 655.652 215.705C654.579 213.831 654.293 211.606 654.857 209.52C655.422 207.434 656.79 205.659 658.662 204.583C660.534 203.508 662.755 203.222 664.838 203.787C665.136 203.787 683.437 208.561 694.141 199.375C701.291 193.216 704.015 181.622 702.206 164.935L701.631 159.607L718.102 150.251C719.977 149.242 722.173 149.008 724.218 149.598C726.264 150.189 727.997 151.558 729.048 153.412C730.099 155.266 730.383 157.459 729.841 159.521C729.299 161.582 727.973 163.35 726.146 164.445L718.847 168.579C720.017 188.251 715.229 202.785 704.653 211.822C695.715 219.515 684.564 221.327 675.712 221.327Z" fill="#FEEBD6"/>
        <path d="M703.908 176.081C703.589 187.931 700.44 196.52 694.481 201.656C682.756 211.737 662.561 206.579 662.327 206.494C661.193 206.18 660.01 206.093 658.843 206.238C657.676 206.383 656.549 206.756 655.527 207.337C653.462 208.51 651.946 210.457 651.314 212.749C650.682 215.041 650.985 217.491 652.156 219.559C653.327 221.627 655.271 223.145 657.56 223.778C662.785 226.079 668.452 227.2 674.158 227.06C708.824 225.845 729.742 195.902 730.126 178.447L703.908 176.081Z" fill="#CBD5E1"/>
        <path d="M656.262 134.565C653.155 133.159 650.09 131.645 647.09 130.068C618.383 146.457 581.696 167.429 580.951 168.153C580.951 168.153 599.188 197.244 600.337 198.395C601.082 199.141 646.303 166.661 678.819 143.133C671.349 140.234 663.603 137.869 656.262 134.565Z" fill="#977858"/>
        <path d="M656.73 133.713C664.242 137.037 672.137 139.446 679.776 142.472C697.694 129.493 711.527 119.348 711.527 119.348L680.968 110.823L648.09 129.535C650.913 131.013 653.793 132.406 656.73 133.713Z" fill="#977858"/>
        <path d="M603.955 95.5638L621.979 144.411L657.198 157.348L612.595 75.7222L603.955 95.5638Z" fill="#977858"/>
        <path d="M659.135 169.368H633.024L656.262 210.01L691.672 224.95L659.135 169.368Z" fill="#977858"/>
        <path d="M691.608 224.95L670.881 189.465L582.015 241.638L564.522 211.8L575.503 34.27L615.446 10.8266L687.352 133.627L711.526 119.348L731.658 153.725L707.462 167.919L728.231 203.425L691.608 224.95ZM611.041 87.1882L608.785 88.5095L602.678 183.285L650.771 155.046L611.041 87.1882Z" fill="#C7A57A"/>
        <path d="M534.985 203.659L564.522 211.779L582.015 241.638L550.775 233.731L534.985 203.659Z" fill="#977858"/>
        <path d="M534.985 203.659L564.522 211.779L575.503 34.2487L548.392 27.7485L534.985 203.659Z" fill="#977858"/>
        <path d="M548.392 27.7485L575.503 34.2487L615.446 10.784L587.995 2.7919L548.392 27.7485Z" fill="#977858"/>
        <path d="M607.828 274.394C607.828 274.394 612.19 321.281 612.19 337.755C612.19 337.755 578.142 364.374 569.63 378.249C573.226 380.977 580.27 384.642 584.952 384.472C599.704 370.611 615.687 358.127 632.705 347.175C632.705 347.175 643.472 315.868 646.835 289.356L607.828 274.394Z" fill="#334155"/>
        <path d="M632.151 276.611C639.819 276.88 647.43 275.208 654.283 271.752C652.155 262.396 656.794 234.754 662.795 219.963C662.795 219.963 667.455 209.691 664.178 206.536C652.048 194.836 641.727 195.88 638.514 195.667C627.384 205.087 606.594 232.878 607.487 269.599C613.148 275.63 624.767 276.568 632.151 276.611Z" fill="#CBD5E1"/>
        <path d="M707.398 386.262C711.864 385.275 715.881 382.84 718.826 379.336C705.653 358.023 657.347 279.36 654.729 273.201C654.729 273.052 654.602 272.86 654.538 272.689C647.19 276.384 638.995 278.061 630.789 277.549C623.639 277.272 613.297 276.27 607.381 270.963C607.381 271.347 607.381 271.73 607.381 272.114C608.402 292.616 676.329 361.007 703.142 387.2C704.577 386.966 705.998 386.653 707.398 386.262Z" fill="#161B26"/>
        <path d="M567.14 255.341C563.423 255.397 559.801 254.168 556.882 251.863C553.964 249.557 551.928 246.315 551.116 242.682C550.776 241.645 550.647 240.55 550.737 239.462C550.827 238.374 551.134 237.316 551.64 236.349C552.145 235.382 552.84 234.526 553.681 233.833C554.523 233.139 555.495 232.622 556.539 232.311C557.584 232 558.68 231.903 559.764 232.024C560.847 232.145 561.895 232.482 562.845 233.016C563.796 233.55 564.63 234.269 565.298 235.131C565.967 235.993 566.455 236.981 566.736 238.036C566.838 238.386 566.966 238.728 567.119 239.059C567.991 239.059 571.226 238.803 579.078 234.178C586.08 230.065 594.379 223.906 602.487 217.96C616.042 207.922 628.853 198.438 639.429 195.092C640.448 194.768 641.52 194.649 642.585 194.741C643.649 194.833 644.685 195.134 645.634 195.626C646.582 196.119 647.425 196.794 648.113 197.613C648.801 198.432 649.321 199.378 649.644 200.398C649.966 201.419 650.085 202.492 649.994 203.559C649.902 204.625 649.602 205.663 649.11 206.612C648.618 207.562 647.944 208.406 647.126 209.095C646.309 209.784 645.363 210.305 644.345 210.628C636.365 213.164 624.065 222.286 612.169 231.088C594.698 243.982 579.334 255.341 567.14 255.341Z" fill="#D7D5FF"/>
        <path d="M582.377 249.353C581.377 244.557 580.249 239.251 577.291 235.308C570.736 238.952 567.927 239.187 567.119 239.165C566.966 238.834 566.838 238.492 566.736 238.142C566.455 237.088 565.967 236.1 565.298 235.238C564.63 234.375 563.796 233.656 562.845 233.122C561.895 232.589 560.847 232.251 559.764 232.13C558.68 232.009 557.584 232.107 556.539 232.418C555.495 232.729 554.523 233.246 553.681 233.94C552.84 234.633 552.145 235.489 551.64 236.455C551.134 237.422 550.827 238.481 550.737 239.569C550.647 240.657 550.776 241.751 551.116 242.788C551.928 246.421 553.964 249.664 556.882 251.969C559.801 254.275 563.423 255.503 567.14 255.448C572.607 255.149 577.931 253.589 582.696 250.887L582.377 249.353Z" fill="#FEEBD6"/>
        <path d="M649.558 200.335C649.237 199.314 648.717 198.367 648.029 197.547C647.341 196.728 646.499 196.053 645.55 195.56C644.601 195.067 643.565 194.766 642.5 194.675C641.435 194.584 640.363 194.703 639.344 195.028C628.704 198.374 615.936 207.815 602.401 217.896C594.379 223.842 586.079 230.001 578.993 234.114L578.057 234.647C581.1 238.675 586.377 258.559 586.463 259.007C595.102 254.489 636.535 222.904 645.515 213.378C648.686 210.159 650.92 204.704 649.558 200.335Z" fill="#CBD5E1"/>
        <path d="M555.628 248.756C555.125 248.755 554.634 248.598 554.223 248.308C547.839 243.747 544.498 234.946 544.37 234.562C544.23 234.261 544.153 233.934 544.145 233.602C544.137 233.27 544.198 232.94 544.323 232.632C544.449 232.325 544.636 232.047 544.874 231.815C545.112 231.584 545.395 231.404 545.706 231.288C546.017 231.171 546.348 231.121 546.679 231.138C547.01 231.156 547.334 231.243 547.63 231.392C547.927 231.542 548.189 231.751 548.401 232.006C548.612 232.262 548.769 232.559 548.86 232.878C548.86 232.878 551.84 240.7 557.011 244.408C557.383 244.716 557.655 245.128 557.79 245.593C557.925 246.057 557.918 246.551 557.768 247.011C557.619 247.471 557.335 247.875 556.953 248.171C556.571 248.467 556.109 248.641 555.628 248.671V248.756Z" fill="#FEEBD6"/>
        <path d="M555.627 242.959C555.243 242.957 554.865 242.864 554.524 242.686C554.184 242.508 553.891 242.251 553.67 241.936C550.605 237.673 548.158 227.294 547.881 226.144C547.741 225.522 547.853 224.87 548.192 224.331C548.531 223.791 549.07 223.409 549.69 223.266C549.996 223.194 550.314 223.183 550.624 223.233C550.935 223.284 551.232 223.396 551.499 223.562C551.766 223.729 551.997 223.947 552.18 224.203C552.363 224.459 552.493 224.75 552.563 225.057C553.244 227.955 555.457 236.139 557.585 239.165C557.769 239.422 557.899 239.713 557.97 240.021C558.04 240.329 558.049 240.647 557.996 240.958C557.942 241.27 557.828 241.567 557.658 241.834C557.489 242.1 557.269 242.331 557.011 242.511C556.606 242.799 556.123 242.955 555.627 242.959Z" fill="#FEEBD6"/>
        <path d="M558.926 241.552C558.465 241.536 558.019 241.387 557.641 241.122C557.263 240.857 556.97 240.489 556.798 240.06C554.67 234.69 553.755 223.394 553.712 223.011C553.664 222.378 553.869 221.751 554.282 221.27C554.695 220.788 555.283 220.491 555.915 220.443C556.547 220.395 557.172 220.6 557.653 221.014C558.134 221.427 558.431 222.015 558.479 222.648C558.808 227.97 559.729 233.238 561.224 238.355C561.346 238.646 561.409 238.959 561.409 239.274C561.41 239.589 561.348 239.902 561.227 240.193C561.107 240.484 560.929 240.749 560.706 240.971C560.483 241.193 560.218 241.369 559.926 241.488C559.601 241.582 559.26 241.604 558.926 241.552Z" fill="#FEEBD6"/>
        <path d="M562.522 240.401C561.992 240.404 561.476 240.229 561.055 239.905C560.635 239.581 560.335 239.126 560.203 238.611C559.324 234.631 559.324 230.507 560.203 226.527C560.346 225.908 560.73 225.372 561.269 225.036C561.808 224.7 562.457 224.593 563.075 224.737C563.693 224.881 564.229 225.265 564.564 225.805C564.899 226.344 565.007 226.995 564.863 227.614C564.184 230.847 564.184 234.185 564.863 237.418C565.018 238.034 564.924 238.686 564.601 239.233C564.279 239.78 563.753 240.177 563.139 240.337C562.936 240.381 562.73 240.403 562.522 240.401Z" fill="#FEEBD6"/>
        <path d="M658.815 213.442C657.687 213.444 656.574 213.189 655.559 212.696C654.647 212.266 653.829 211.66 653.151 210.913C652.473 210.166 651.949 209.292 651.609 208.341C651.269 207.391 651.12 206.383 651.169 205.375C651.219 204.366 651.467 203.378 651.899 202.466C653.464 199.422 655.362 196.563 657.56 193.941C658.869 192.384 660.742 191.411 662.768 191.237C664.793 191.063 666.805 191.702 668.359 193.014C669.914 194.325 670.885 196.201 671.059 198.23C671.233 200.258 670.594 202.272 669.285 203.83C667.926 205.452 666.736 207.209 665.731 209.073C665.108 210.381 664.128 211.485 662.904 212.258C661.68 213.032 660.262 213.442 658.815 213.442Z" fill="#FEEBD6"/>
        <path d="M659.922 209.477C660.837 210.479 661.795 211.438 662.774 212.333C664.072 211.562 665.109 210.419 665.753 209.051C666.757 207.188 667.948 205.431 669.307 203.808C670.613 202.248 671.247 200.232 671.07 198.204C670.892 196.176 669.917 194.301 668.36 192.992C666.802 191.684 664.789 191.049 662.764 191.227C660.738 191.404 658.866 192.381 657.56 193.941C657.411 194.111 656.794 194.857 655.985 195.944C656.07 200.761 656.581 205.79 659.922 209.477Z" fill="#64748B"/>
        <path d="M685.097 201.017C683.632 204.574 680.815 207.404 677.268 208.882C673.72 210.361 669.731 210.368 666.178 208.902C662.626 207.435 659.801 204.615 658.324 201.062C656.848 197.509 656.841 193.514 658.305 189.955L662.135 180.642C663.6 177.084 666.416 174.255 669.964 172.776C673.512 171.298 677.5 171.29 681.053 172.757C682.814 173.481 684.415 174.546 685.764 175.891C687.113 177.235 688.184 178.834 688.916 180.594C689.647 182.354 690.024 184.241 690.026 186.147C690.028 188.054 689.655 189.942 688.927 191.703L685.097 201.017Z" fill="#FEEBD6"/>
        <path d="M659.922 188.869C658.752 193.856 651.601 192.257 648.92 189.657C645.217 186.077 643.004 175.932 651.197 176.465C645.302 167.535 665.327 157.859 667.434 168.174C668.987 165.51 670.605 163.123 674.073 162.889C676.584 162.74 680.989 164.679 680.628 167.748C682.483 166.367 684.744 165.643 687.055 165.689C689.367 165.736 691.597 166.55 693.396 168.004C694.566 168.963 696.694 171.094 695.63 172.629C695.056 173.502 692.034 173.758 691.012 174.057C692.757 173.268 699.908 174.866 698.503 177.829C697.843 179.214 694.353 177.978 693.332 177.68C693.321 177.786 693.321 177.893 693.332 177.999C697.141 180.131 698.716 182.262 698.248 186.972C698.035 189.103 697.013 193.365 694.417 193.6C693.077 193.749 691.544 192.918 691.566 191.469C694.758 194.665 690.246 203.19 686.224 198.971C685.574 198.097 685.282 197.008 685.409 195.926C685.535 194.844 686.071 193.851 686.905 193.152C684.522 191.767 679.372 184.521 683.032 182.496C681.309 182.496 673.371 179.832 675.903 177.552C676.563 180.216 673.286 183.647 670.668 182.283C672.286 185.821 667.519 188.464 664.582 188.677C666.37 190.936 660.837 193.621 659.135 190.339L659.922 188.869Z" fill="#0F1624"/>
        <path d="M387.662 159.841C387.662 159.841 383.002 142.003 406.07 137.762L404.325 159.266L387.662 159.841Z" fill="#64748B"/>
        <path d="M295.2 204.938C290.333 204.97 285.52 203.915 281.112 201.848C260.151 191.938 257.832 162.122 257.704 160.864C257.552 158.708 258.261 156.579 259.675 154.947C261.09 153.314 263.095 152.311 265.248 152.158C267.401 152.006 269.526 152.716 271.157 154.133C272.787 155.55 273.788 157.557 273.941 159.714C274.409 165.702 277.814 182.304 288.071 187.121C296.583 191.106 309.649 187.121 326.035 175.399C327.799 174.258 329.934 173.843 331.996 174.24C334.058 174.638 335.887 175.816 337.102 177.531C338.318 179.246 338.826 181.364 338.52 183.444C338.215 185.525 337.119 187.407 335.462 188.698C320.31 199.503 306.819 204.938 295.2 204.938Z" fill="#94A3B8"/>
        <path d="M338.526 220.24C340.803 214.273 342.782 208.241 345.336 202.359C343.665 202.231 342.003 202.01 340.356 201.699C332.897 200.41 325.947 197.058 320.289 192.023C314.622 186.879 310.247 180.468 307.521 173.311C304.393 165.064 302.632 156.36 302.307 147.544C301.869 137.329 302.648 127.098 304.627 117.068C306.467 106.955 309.518 97.1019 313.713 87.7209C317.272 79.7077 322.101 72.3235 328.014 65.8546C333.159 60.189 339.558 55.8095 346.698 53.0673C353.132 50.8386 360.002 50.173 366.743 51.1252C373.484 52.0775 379.903 54.6205 385.47 58.5446C387.79 53.9198 390.258 49.4016 392.621 44.8835C395.408 39.5341 398.004 34.0995 400.494 28.6009C401.558 26.2566 402.473 23.827 403.431 21.4401C395.1 16.7697 386.054 13.5146 376.66 11.8069C363.462 9.06337 349.794 9.59013 336.845 13.3414C324.399 17.0272 312.904 23.3834 303.158 31.9683C292.753 41.2663 284.159 52.4164 277.814 64.853C270.621 78.738 265.543 93.6223 262.747 109.012C259.69 124.336 258.93 140.031 260.491 155.579C261.825 169.479 265.714 183.013 271.962 195.497C277.82 207.099 286.135 217.281 296.327 225.334C306.182 232.977 317.643 238.275 329.844 240.828C332.929 234.05 335.887 227.209 338.526 220.24Z" fill="#977858"/>
        <path d="M448.822 97.6098C447.498 83.7009 443.609 70.1587 437.352 57.6708C431.49 46.0768 423.184 35.8964 413.007 27.8337C410.255 25.6898 407.354 23.7455 404.325 22.0155C403.389 24.4024 402.474 26.8107 401.388 29.1551C398.856 34.6323 396.324 40.0882 393.536 45.4376C391.131 49.9771 388.641 54.5379 386.322 59.1839C387.13 59.8233 387.939 60.4627 388.727 61.166C394.346 66.3683 398.712 72.7813 401.495 79.9207C404.709 88.0836 406.536 96.728 406.9 105.495C407.355 115.762 406.562 126.046 404.538 136.121C402.692 146.179 399.656 155.981 395.494 165.319C391.933 173.414 387.034 180.85 381.002 187.313C375.78 192.968 369.329 197.343 362.147 200.1C357.094 201.963 351.713 202.768 346.336 202.466C343.634 208.859 341.335 215.53 338.867 222.052C336.398 228.573 333.675 234.839 330.844 241.105L332.759 241.51C345.953 244.232 359.608 243.705 372.554 239.975C384.977 236.274 396.444 229.902 406.155 221.306C416.562 212.004 425.162 200.855 431.521 188.421C438.702 174.531 443.78 159.649 446.588 144.262C449.635 128.908 450.389 113.186 448.822 97.6098Z" fill="#977858"/>
        <path d="M357.636 249.928C344.407 247.591 331.947 242.061 321.332 233.816C311.132 225.771 302.815 215.587 296.966 203.979C290.682 191.516 286.75 177.997 285.368 164.104C283.814 148.541 284.574 132.833 287.624 117.494C290.436 102.109 295.514 87.227 302.69 73.3352C309.054 60.9167 317.654 49.7824 328.056 40.4932C337.799 31.8787 349.303 25.4998 361.764 21.8024C374.74 18.267 388.351 17.7424 401.56 20.2685C414.768 22.7946 427.228 28.3048 437.99 36.3799C448.177 44.4384 456.491 54.6194 462.356 66.217C468.604 78.7009 472.493 92.2344 473.826 106.135C475.392 121.697 474.632 137.407 471.57 152.744C468.765 168.131 463.687 183.014 456.504 196.903C450.158 209.34 441.565 220.49 431.159 229.788C421.44 238.385 409.966 244.756 397.536 248.457C384.556 252.206 370.856 252.711 357.636 249.928ZM365.233 210.159C372.535 211.667 380.113 211.098 387.109 208.518C394.295 205.77 400.748 201.393 405.963 195.731C412.005 189.276 416.905 181.839 420.455 173.737C424.637 164.413 427.674 154.616 429.499 144.561C431.523 134.478 432.316 124.187 431.862 113.914C431.505 105.148 429.685 96.5031 426.478 88.339C423.705 81.1944 419.337 74.7793 413.709 69.5843C408.144 64.612 401.306 61.291 393.961 59.9938C386.562 58.4405 378.877 58.9791 371.766 61.5496C364.614 64.2803 358.206 68.6612 353.061 74.3369C347.143 80.7978 342.32 88.1839 338.782 96.2032C334.579 105.582 331.528 115.436 329.695 125.55C327.705 135.579 326.926 145.811 327.376 156.026C327.688 164.842 329.442 173.546 332.568 181.793C335.306 188.944 339.679 195.352 345.336 200.505C350.956 205.493 357.841 208.834 365.233 210.159Z" fill="#C7A57A"/>
        <path d="M501.32 130.154L501.937 160.14C501.937 160.14 493.425 167.812 485.722 160.14L488.552 126.381L501.32 130.154Z" fill="#0F1624"/>
        <path d="M466.038 369.361C465.548 368.957 462.207 367.401 461.781 367.017C460.272 369.32 458.533 371.462 456.589 373.411C458.088 374.606 459.241 376.181 459.929 377.972C460.617 379.762 460.816 381.705 460.505 383.598C458.873 385.039 457.138 386.357 455.312 387.541C450.652 389.842 442.055 393.039 442.055 393.039L463.697 394.744L479.742 378.27C474.944 375.671 470.362 372.692 466.038 369.361Z" fill="#64748B"/>
        <path d="M381.278 370.534C377.831 369.916 373.49 372.558 370.638 370.534C370.269 373.624 370.091 376.735 370.106 379.847L338.186 393.061H379.065C379.448 388.692 378.661 384.536 379.235 380.465C379.491 378.398 380.917 372.537 381.278 370.534Z" fill="#64748B"/>
        <path d="M418.54 225.035L382.364 293.852C382.364 293.852 397.004 306.277 411.432 310.412L438.586 229.319L418.54 225.035Z" fill="#94A3B8"/>
        <path d="M458.143 375.094C460.299 372.766 462.224 370.232 463.888 367.529C454.546 359.515 449.971 351.225 437.245 336.988C431.989 331.106 445.928 297.348 449.311 291.679C455.376 281.513 456.334 274.139 461.079 256.727L425.754 269.94C417.348 300.118 407.538 330.275 417.37 344.661C427.754 359.878 446.162 372.132 455.057 378.249C455.397 378.526 457.866 374.924 458.143 375.094Z" fill="#334155"/>
        <path d="M398.664 156.367C398.168 156.363 397.686 156.207 397.281 155.92C397.024 155.738 396.806 155.506 396.639 155.239C396.472 154.971 396.359 154.674 396.308 154.362C396.256 154.051 396.267 153.733 396.339 153.426C396.411 153.119 396.543 152.829 396.728 152.574C398.367 150.406 399.547 147.926 400.197 145.285C400.32 144.665 400.681 144.118 401.202 143.759C401.722 143.401 402.362 143.26 402.984 143.367C403.292 143.419 403.587 143.531 403.852 143.697C404.117 143.864 404.345 144.081 404.526 144.337C404.706 144.592 404.833 144.881 404.901 145.187C404.969 145.492 404.976 145.808 404.921 146.116C404.169 149.466 402.719 152.618 400.665 155.366C400.435 155.68 400.133 155.935 399.785 156.109C399.438 156.283 399.053 156.372 398.664 156.367Z" fill="#FEEBD6"/>
        <path d="M458.568 264.058C469.081 235.159 478.061 189.785 481.423 171.67C479.732 170.97 477.997 170.379 476.231 169.901C473.124 169.027 469.379 168.004 466.187 169.006C464.606 169.523 463.097 170.239 461.696 171.137C460.9 173.503 460.282 175.925 459.845 178.383C459.845 178.383 437.267 221.647 422.541 251.207C435.057 253.903 447.168 258.223 458.568 264.058Z" fill="#64748B"/>
        <path d="M422.115 252.102C420.817 254.702 419.583 257.217 418.434 259.561C415.518 264.697 412.411 269.429 409.39 274.011C380.321 317.893 369.34 352.866 367.404 369.425C370.191 371.557 380.682 372.814 384.172 373.432C389.535 345.982 403.495 328.463 428.499 307.769C436.862 300.843 443.119 292.041 448.609 284.731C452.699 278.601 455.949 271.949 458.27 264.953C446.834 259.098 434.678 254.777 422.115 252.102Z" fill="#161B26"/>
        <path d="M393.919 264.271C391.985 264.287 390.109 263.611 388.628 262.366C387.147 261.122 386.157 259.389 385.837 257.479C385.517 255.569 385.886 253.608 386.88 251.946C387.874 250.285 389.426 249.033 391.259 248.415C401.133 244.984 416.284 231.365 426.499 216.958C437.644 200.851 449.627 185.343 462.398 170.497C463.863 168.974 465.861 168.079 467.971 168.001C470.081 167.923 472.139 168.668 473.711 170.08C475.284 171.492 476.247 173.46 476.4 175.569C476.552 177.678 475.881 179.764 474.528 181.388C462.183 195.761 450.598 210.771 439.82 226.357C429.733 240.678 411.9 258.517 396.579 263.824C395.725 264.129 394.825 264.28 393.919 264.271Z" fill="#FEEBD6"/>
        <path d="M475.699 174.376H475.145C473.15 174.202 471.303 173.253 469.998 171.731C468.693 170.209 468.036 168.236 468.166 166.235C468.5 162.82 469.214 159.453 470.294 156.197C470.622 155.244 471.135 154.365 471.802 153.611C472.47 152.856 473.279 152.24 474.184 151.799C475.089 151.358 476.072 151.099 477.077 151.038C478.081 150.978 479.088 151.116 480.04 151.444C480.992 151.773 481.869 152.287 482.623 152.955C483.376 153.624 483.991 154.434 484.431 155.341C484.872 156.247 485.13 157.231 485.191 158.238C485.252 159.244 485.114 160.252 484.785 161.205C484.103 163.205 483.625 165.268 483.36 167.365C483.189 169.281 482.308 171.064 480.89 172.362C479.472 173.66 477.62 174.379 475.699 174.376Z" fill="#D7D5FF"/>
        <path d="M477.955 166.235C479.293 167.785 480.767 169.211 482.36 170.497C482.914 169.5 483.247 168.396 483.338 167.258C483.604 165.162 484.082 163.098 484.764 161.099C485.37 159.347 485.323 157.434 484.63 155.715C483.937 153.995 482.645 152.585 480.995 151.746C479.344 150.906 477.445 150.694 475.65 151.148C473.855 151.602 472.285 152.691 471.23 154.215C471.954 158.541 475.486 163.443 477.955 166.235Z" fill="#64748B"/>
        <path d="M497.703 149.654C497.661 151.567 497.242 153.452 496.47 155.202C495.697 156.951 494.587 158.53 493.202 159.848C491.817 161.165 490.186 162.195 488.401 162.878C486.617 163.561 484.716 163.883 482.806 163.827C480.896 163.785 479.012 163.366 477.264 162.593C475.516 161.819 473.938 160.707 472.621 159.321C471.303 157.934 470.273 156.3 469.589 154.513C468.904 152.726 468.58 150.821 468.634 148.908L468.868 138.849C468.909 136.935 469.328 135.049 470.1 133.298C470.872 131.548 471.983 129.967 473.367 128.648C474.752 127.329 476.383 126.297 478.167 125.611C479.952 124.926 481.854 124.601 483.764 124.655C485.674 124.696 487.556 125.116 489.303 125.889C491.05 126.663 492.627 127.775 493.942 129.162C495.258 130.549 496.286 132.183 496.968 133.97C497.65 135.757 497.972 137.661 497.915 139.573L497.703 149.654Z" fill="#FEEBD6"/>
        <path d="M382.427 261.927C378.469 261.796 374.577 260.875 370.979 259.22C370.434 258.946 370.014 258.476 369.802 257.904C369.591 257.332 369.604 256.701 369.839 256.138C370.074 255.576 370.513 255.123 371.069 254.872C371.624 254.622 372.253 254.591 372.83 254.787C379.214 257.451 384.151 257.835 387.343 255.895C387.886 255.603 388.52 255.531 389.114 255.694C389.709 255.856 390.218 256.241 390.537 256.768C390.857 257.296 390.962 257.926 390.831 258.529C390.7 259.132 390.342 259.662 389.833 260.009C387.588 261.319 385.025 261.983 382.427 261.927Z" fill="#FEEBD6"/>
        <path d="M385.279 265.401C381.779 265.317 378.303 264.787 374.937 263.823L373.851 263.568C373.276 263.38 372.792 262.981 372.497 262.452C372.202 261.922 372.117 261.301 372.259 260.711C372.402 260.122 372.761 259.608 373.265 259.272C373.769 258.937 374.382 258.804 374.979 258.9L376.065 259.156C381.962 261.038 388.289 261.09 394.217 259.305C394.531 259.193 394.866 259.148 395.199 259.172C395.532 259.197 395.857 259.291 396.152 259.448C396.447 259.605 396.706 259.822 396.912 260.085C397.119 260.348 397.269 260.651 397.352 260.975C397.435 261.299 397.45 261.637 397.395 261.967C397.341 262.297 397.218 262.612 397.035 262.892C396.852 263.172 396.613 263.411 396.333 263.593C396.053 263.776 395.738 263.898 395.408 263.951C392.108 264.868 388.704 265.355 385.279 265.401Z" fill="#FEEBD6"/>
        <path d="M382.257 257.195C377.514 257.119 372.942 255.403 369.319 252.336C368.877 251.899 368.621 251.308 368.604 250.687C368.587 250.065 368.811 249.461 369.229 249.001C369.647 248.541 370.227 248.261 370.846 248.219C371.466 248.177 372.078 248.377 372.553 248.777C374.344 250.301 376.467 251.382 378.751 251.934C381.036 252.485 383.417 252.492 385.705 251.953C386.301 251.845 386.915 251.966 387.426 252.293C387.936 252.619 388.305 253.126 388.458 253.713C388.611 254.3 388.538 254.923 388.252 255.458C387.967 255.993 387.49 256.4 386.917 256.599C385.396 256.996 383.83 257.196 382.257 257.195Z" fill="#FEEBD6"/>
        <path d="M387.301 254.617H387.024C384.677 254.403 382.409 253.654 380.395 252.428C378.381 251.202 376.674 249.53 375.405 247.541C375.097 246.976 375.027 246.311 375.208 245.694C375.39 245.076 375.809 244.556 376.373 244.248C376.938 243.94 377.601 243.869 378.218 244.051C378.834 244.233 379.353 244.653 379.661 245.218C380.557 246.543 381.74 247.648 383.122 248.453C384.503 249.257 386.048 249.739 387.641 249.864C387.954 249.882 388.26 249.962 388.543 250.099C388.825 250.235 389.077 250.427 389.286 250.661C389.494 250.896 389.655 251.169 389.758 251.466C389.861 251.762 389.904 252.076 389.886 252.39C389.868 252.703 389.788 253.01 389.652 253.292C389.515 253.575 389.324 253.828 389.09 254.037C388.856 254.246 388.583 254.406 388.287 254.509C387.991 254.612 387.677 254.656 387.364 254.638L387.301 254.617Z" fill="#FEEBD6"/>
        <path d="M415.901 159.841H415.497C411.539 159.181 400.601 157.454 398.175 157.454C397.841 157.486 397.505 157.447 397.188 157.341C396.87 157.235 396.578 157.064 396.33 156.838C396.083 156.612 395.885 156.337 395.75 156.03C395.614 155.724 395.544 155.392 395.544 155.057C395.544 154.721 395.614 154.39 395.75 154.083C395.885 153.776 396.083 153.501 396.33 153.276C396.578 153.05 396.87 152.879 397.188 152.772C397.505 152.666 397.841 152.628 398.175 152.659C401.537 152.659 414.795 154.79 416.284 155.089C416.911 155.198 417.47 155.55 417.84 156.068C418.21 156.587 418.362 157.23 418.263 157.859C418.164 158.414 417.873 158.917 417.441 159.279C417.009 159.641 416.464 159.84 415.901 159.841Z" fill="#FEEBD6"/>
        <path d="M414.369 164.85C414.157 164.882 413.942 164.882 413.731 164.85C408.214 163.312 402.597 162.165 396.919 161.418C396.318 161.338 395.769 161.034 395.382 160.565C394.996 160.097 394.8 159.499 394.835 158.892C394.87 158.286 395.133 157.714 395.571 157.294C396.009 156.873 396.589 156.633 397.196 156.623C403.197 157.357 409.136 158.533 414.965 160.14C415.576 160.309 416.095 160.713 416.409 161.264C416.724 161.815 416.809 162.468 416.646 163.081C416.515 163.586 416.22 164.033 415.808 164.353C415.396 164.673 414.89 164.848 414.369 164.85Z" fill="#FEEBD6"/>
        <path d="M413.22 170.135C412.973 170.168 412.722 170.168 412.475 170.135C401.686 166.64 399.026 166.427 397.579 166.32C396.904 166.272 396.235 166.165 395.579 166.001C395.275 165.921 394.99 165.783 394.74 165.593C394.491 165.403 394.28 165.166 394.122 164.895C393.964 164.623 393.861 164.324 393.819 164.012C393.777 163.701 393.796 163.384 393.876 163.081C394.041 162.464 394.442 161.938 394.991 161.615C395.541 161.292 396.195 161.198 396.813 161.355C397.189 161.45 397.574 161.508 397.962 161.525C399.707 161.674 402.601 161.909 413.922 165.553C414.458 165.735 414.913 166.1 415.206 166.585C415.5 167.069 415.613 167.642 415.527 168.202C415.441 168.762 415.16 169.273 414.734 169.646C414.308 170.02 413.764 170.23 413.199 170.242L413.22 170.135Z" fill="#FEEBD6"/>
        <path d="M408.581 173.971H408.411C397.6 173.183 397.153 167.322 397.132 166.661L401.941 166.533C401.946 166.484 401.946 166.434 401.941 166.384C401.941 166.384 402.431 168.729 408.772 169.176C409.392 169.246 409.96 169.554 410.356 170.035C410.753 170.516 410.948 171.133 410.9 171.755C410.858 172.347 410.597 172.902 410.168 173.312C409.739 173.722 409.173 173.957 408.581 173.971Z" fill="#FEEBD6"/>
        <path d="M399.43 171.094C397.737 170.427 395.929 170.101 394.11 170.135C391.386 170.135 387.726 165.51 387.726 160.694C387.726 160.694 386.407 146.543 401.324 152.936L399.43 171.094Z" fill="#FEEBD6"/>
        <path d="M446.438 213.122L425.605 316.401C425.605 316.401 458.015 324.222 477.891 312.756L482.934 169.368C482.934 169.368 460.59 161.568 446.438 213.122Z" fill="#94A3B8"/>
        <path d="M451.29 269.983L471.336 268.896C471.336 268.896 471.826 299.607 459.845 298.413C459.845 298.371 443.459 301.994 451.29 269.983Z" fill="white"/>
        <path d="M476.465 166.917C474.269 164.938 471.418 163.844 468.463 163.848C466.802 163.866 465.161 164.227 463.645 164.909C462.129 165.591 460.77 166.579 459.653 167.812C446.777 182.791 434.702 198.442 423.477 214.699C422.115 216.638 420.604 218.62 419.008 220.602L416.88 223.203L419.2 225.653C421.668 228.275 424.243 230.811 426.754 233.283L430.819 237.29L433.777 240.274L436.458 237.055C438.863 234.178 441.076 231.301 443.055 228.531C453.763 213.082 465.255 198.193 477.486 183.924C478.54 182.743 479.35 181.365 479.87 179.869C480.389 178.373 480.608 176.789 480.513 175.207C480.418 173.626 480.011 172.08 479.317 170.657C478.622 169.234 477.653 167.963 476.465 166.917Z" fill="#CBD5E1"/>
        <path d="M421.462 213.943L413.369 222.963L434.438 241.922L442.531 232.901L421.462 213.943Z" fill="white"/>
        <path d="M454.184 155.408L472.592 162.633C472.592 162.633 480.423 124.484 474.72 118.751C474.72 118.751 454.184 116.812 454.184 155.408Z" fill="#0F1624"/>
        <path d="M475.784 125.401C476.422 126.381 490.68 135.929 501.937 133.286C501.937 133.286 500.022 116.407 473.826 118.858L475.784 125.401Z" fill="#0F1624"/>
        <path d="M486.807 143.388C486.811 144.979 486.344 146.536 485.464 147.86C484.584 149.185 483.331 150.218 481.864 150.829C480.398 151.439 478.783 151.6 477.224 151.291C475.666 150.982 474.235 150.216 473.112 149.091C471.988 147.966 471.224 146.532 470.915 144.972C470.606 143.411 470.767 141.794 471.376 140.325C471.986 138.856 473.018 137.601 474.341 136.72C475.663 135.839 477.217 135.371 478.806 135.375C480.926 135.381 482.958 136.227 484.457 137.728C485.957 139.23 486.801 141.265 486.807 143.388Z" stroke="#FACC15" stroke-width="0.87" stroke-miterlimit="10"/>
        <path d="M504.895 144.923C504.908 146.31 504.508 147.669 503.747 148.828C502.986 149.987 501.898 150.893 500.621 151.431C499.344 151.968 497.937 152.113 496.578 151.847C495.218 151.581 493.969 150.917 492.988 149.937C492.007 148.958 491.339 147.708 491.069 146.348C490.8 144.987 490.94 143.577 491.473 142.297C492.006 141.017 492.907 139.924 494.062 139.158C495.217 138.392 496.573 137.988 497.958 137.996C499.793 138.002 501.551 138.733 502.85 140.03C504.149 141.327 504.884 143.086 504.895 144.923Z" stroke="#FACC15" stroke-width="0.75" stroke-miterlimit="10"/>
        <path d="M486.807 143.388C487.502 143.095 488.262 142.991 489.01 143.089C489.758 143.186 490.466 143.481 491.063 143.942" stroke="#FACC15" stroke-width="0.87" stroke-miterlimit="10"/>
        <path d="M253.809 157.433H253.235C252.228 157.36 251.245 157.089 250.343 156.634C249.441 156.18 248.638 155.551 247.979 154.785C247.321 154.018 246.82 153.129 246.506 152.168C246.192 151.207 246.07 150.193 246.149 149.185C246.491 145.772 247.204 142.406 248.277 139.147C248.937 137.223 250.334 135.64 252.159 134.746C253.985 133.853 256.091 133.723 258.012 134.384C259.934 135.045 261.515 136.444 262.407 138.273C263.299 140.101 263.429 142.21 262.768 144.134C262.08 146.132 261.603 148.196 261.343 150.294C261.209 152.213 260.361 154.012 258.966 155.334C257.571 156.657 255.73 157.406 253.809 157.433Z" fill="#0086CF"/>
        <path d="M249.256 370.491C256.781 374.002 264.923 375.994 273.217 376.352C281.495 361.604 306.414 321.643 283.73 288.865L251.66 271.602C251.66 271.602 283.73 305.127 249.256 370.491Z" fill="#334155"/>
        <path d="M265.875 383.619C265.875 383.619 268.833 377.609 271.153 373.56C269.408 373.347 261.641 373.027 258.385 371.791C254.232 379.251 249.508 386.376 244.255 393.103H287.368L265.875 383.619Z" fill="#64748B"/>
        <path d="M319.204 290.783C313.841 280.362 274.898 248.969 271.366 230.939C271.046 229.34 270.791 227.699 270.557 226.037C264.301 229.34 256.172 230.299 249.745 230.577C242.446 230.939 238.083 231.408 231.018 227.955C231.614 239.144 229.805 249.949 236.317 261.287C249.255 283.772 292.242 303.017 297.03 310.455C306.478 325.117 309.798 356.936 312.969 376.352C318.033 376.352 329.993 376.139 334.951 374.37C333.291 364.438 335.994 323.434 319.204 290.783Z" fill="#161B26"/>
        <path d="M332.632 381.786C332.632 381.786 331.227 376.117 330.802 373.475C325.865 375.201 322.992 373.475 318.033 373.475C318.8 378.291 318.225 387.285 318.672 392.656H359.551L332.632 381.786Z" fill="#64748B"/>
        <path d="M250.043 236.565C256.278 236.288 269.344 234.434 274.6 229.298C273.515 220.773 269.706 206.963 271.047 195.88C275.601 158.2 257.3 147.054 257.3 147.054C257.3 147.054 248.788 141.151 242.02 148.205C231.721 158.861 221.655 188.89 222.677 233.326C229.827 236.885 242.595 236.8 250.043 236.565Z" fill="#94A3B8"/>
        <path d="M343.995 248.33C343.372 248.332 342.75 248.261 342.144 248.116C312.628 241.254 287.624 223.544 269.791 196.967C261.775 185.112 255.658 172.075 251.66 158.328C251.241 156.27 251.63 154.13 252.747 152.352C253.863 150.574 255.621 149.295 257.654 148.782C259.688 148.269 261.841 148.56 263.665 149.596C265.49 150.632 266.845 152.332 267.45 154.343C271.072 166.469 276.526 177.969 283.623 188.442C299.264 211.63 320.161 226.421 345.762 232.367C347.708 232.821 349.42 233.976 350.572 235.612C351.724 237.247 352.235 239.25 352.01 241.239C351.784 243.228 350.836 245.064 349.347 246.399C347.857 247.734 345.93 248.474 343.931 248.479L343.995 248.33Z" fill="#FEEBD6"/>
        <path d="M326.035 223.778C309.293 215.657 295.068 203.134 284.879 187.547C277.889 177.226 272.508 165.901 268.918 153.959C268.611 152.74 268.066 151.594 267.314 150.587C266.563 149.58 265.621 148.731 264.541 148.09C263.462 147.448 262.266 147.026 261.023 146.848C259.781 146.671 258.515 146.741 257.299 147.054C256.077 147.36 254.928 147.905 253.916 148.657C252.904 149.409 252.051 150.354 251.405 151.437C250.758 152.52 250.331 153.72 250.149 154.968C249.966 156.217 250.032 157.489 250.341 158.712V158.882C253.955 174.069 260.13 188.528 268.599 201.635C282.195 222.503 301.813 238.73 324.843 248.159C325.019 248.189 325.199 248.189 325.375 248.159C325.665 248.162 325.948 248.073 326.184 247.903C326.383 247.776 326.547 247.599 326.658 247.39C326.77 247.181 326.827 246.947 326.822 246.71V225.121C326.835 224.844 326.767 224.571 326.627 224.332C326.487 224.094 326.282 223.901 326.035 223.778Z" fill="#CBD5E1"/>
        <path d="M350.039 248.905C347.244 248.883 344.457 248.59 341.718 248.031C341.129 247.871 340.622 247.492 340.301 246.971C339.981 246.45 339.87 245.826 339.992 245.227C340.114 244.627 340.459 244.096 340.958 243.742C341.456 243.388 342.071 243.238 342.676 243.321C349.805 244.749 355.742 244.238 360.36 241.765C360.924 241.466 361.584 241.403 362.195 241.591C362.806 241.779 363.317 242.202 363.616 242.767C363.915 243.332 363.978 243.993 363.79 244.605C363.602 245.216 363.18 245.728 362.616 246.028C358.727 248.018 354.405 249.006 350.039 248.905Z" fill="#FEEBD6"/>
        <path d="M350.379 243.534C349.204 243.543 348.03 243.458 346.868 243.279C346.558 243.234 346.259 243.129 345.99 242.969C345.72 242.809 345.484 242.597 345.297 242.345C345.109 242.094 344.972 241.808 344.895 241.504C344.818 241.199 344.801 240.883 344.847 240.572C344.881 240.253 344.978 239.944 345.133 239.663C345.289 239.382 345.498 239.135 345.75 238.937C346.002 238.738 346.291 238.592 346.6 238.507C346.909 238.422 347.231 238.399 347.549 238.441C352.692 238.973 357.876 237.964 362.445 235.542C362.725 235.386 363.032 235.285 363.35 235.248C363.669 235.21 363.991 235.235 364.299 235.323C364.607 235.41 364.896 235.557 365.147 235.755C365.399 235.954 365.609 236.2 365.765 236.48C365.922 236.76 366.022 237.068 366.059 237.386C366.097 237.705 366.071 238.028 365.984 238.337C365.898 238.645 365.751 238.934 365.552 239.186C365.354 239.438 365.108 239.648 364.829 239.805C360.378 242.183 355.424 243.462 350.379 243.534Z" fill="#FEEBD6"/>
        <path d="M348.251 238.824H347.102C346.499 238.744 345.949 238.437 345.563 237.966C345.177 237.496 344.983 236.896 345.021 236.288C345.059 235.68 345.325 235.108 345.767 234.689C346.208 234.27 346.792 234.034 347.4 234.029C348.989 234.181 350.591 233.979 352.092 233.437C353.593 232.895 354.956 232.028 356.083 230.896C356.281 230.653 356.525 230.451 356.802 230.302C357.078 230.153 357.381 230.06 357.693 230.028C358.005 229.997 358.321 230.027 358.621 230.117C358.922 230.208 359.202 230.356 359.445 230.555C359.688 230.754 359.89 230.999 360.038 231.275C360.187 231.552 360.28 231.856 360.311 232.168C360.343 232.481 360.313 232.797 360.223 233.098C360.132 233.399 359.984 233.679 359.785 233.923C358.319 235.511 356.532 236.769 354.544 237.614C352.556 238.459 350.411 238.871 348.251 238.824Z" fill="#FEEBD6"/>
        <path d="M339.973 234.775C339.377 234.719 338.824 234.442 338.421 233.998C338.018 233.555 337.795 232.977 337.795 232.377C337.795 231.778 338.018 231.2 338.421 230.756C338.824 230.313 339.377 230.036 339.973 229.98C341.465 229.916 342.924 229.522 344.245 228.826C345.566 228.129 346.717 227.148 347.613 225.952C347.978 225.43 348.534 225.074 349.16 224.962C349.787 224.851 350.431 224.992 350.954 225.355C351.214 225.534 351.436 225.763 351.607 226.029C351.779 226.295 351.895 226.592 351.951 226.903C352.006 227.215 351.999 227.534 351.93 227.842C351.862 228.151 351.732 228.443 351.55 228.701C350.208 230.528 348.468 232.025 346.462 233.077C344.456 234.13 342.237 234.71 339.973 234.775Z" fill="#FEEBD6"/>
        <path d="M332.142 180.621C331.759 180.623 331.382 180.534 331.041 180.359C330.7 180.185 330.406 179.931 330.184 179.619C328.132 176.878 326.682 173.733 325.928 170.391C325.876 169.789 326.051 169.189 326.42 168.711C326.789 168.232 327.323 167.91 327.918 167.808C328.513 167.706 329.124 167.832 329.631 168.16C330.137 168.489 330.502 168.996 330.652 169.581C331.294 172.227 332.467 174.714 334.1 176.891C334.284 177.147 334.416 177.436 334.489 177.743C334.561 178.05 334.571 178.369 334.52 178.68C334.468 178.991 334.356 179.289 334.189 179.556C334.022 179.823 333.804 180.055 333.547 180.237C333.129 180.506 332.638 180.64 332.142 180.621Z" fill="#FEEBD6"/>
        <path d="M332.632 181.686C332.483 181.707 332.333 181.707 332.185 181.686C326.964 180.991 321.703 180.65 316.437 180.663C315.841 180.607 315.288 180.33 314.885 179.887C314.482 179.443 314.259 178.865 314.259 178.266C314.259 177.666 314.482 177.088 314.885 176.645C315.288 176.201 315.841 175.924 316.437 175.868C322.003 175.848 327.564 176.218 333.078 176.976C333.701 177.1 334.249 177.465 334.604 177.992C334.959 178.519 335.091 179.165 334.972 179.79C334.863 180.329 334.57 180.814 334.143 181.16C333.716 181.506 333.181 181.692 332.632 181.686Z" fill="#FEEBD6"/>
        <path d="M315.118 186.673C314.53 186.676 313.962 186.459 313.525 186.065C313.089 185.671 312.814 185.128 312.756 184.542C312.717 184.226 312.742 183.904 312.829 183.598C312.915 183.291 313.061 183.004 313.259 182.754C313.457 182.504 313.703 182.296 313.982 182.142C314.261 181.988 314.567 181.891 314.884 181.857C316.395 181.665 329.78 180.024 334.206 180.813C334.515 180.867 334.811 180.981 335.076 181.15C335.34 181.318 335.569 181.538 335.749 181.795C335.929 182.053 336.056 182.343 336.124 182.65C336.192 182.957 336.198 183.274 336.143 183.583C336.029 184.21 335.672 184.766 335.149 185.13C334.627 185.493 333.981 185.634 333.355 185.523C330.61 185.032 320.928 185.949 315.459 186.631L315.118 186.673Z" fill="#FEEBD6"/>
        <path d="M318.246 192.108C317.663 192.089 317.106 191.859 316.68 191.459C316.254 191.06 315.987 190.519 315.93 189.937C315.873 189.356 316.029 188.773 316.369 188.298C316.709 187.823 317.21 187.488 317.778 187.355C321.226 186.769 324.626 185.928 327.95 184.841C329.269 184.414 330.908 183.882 333.334 183.178C333.645 183.054 333.979 182.997 334.313 183.01C334.648 183.023 334.976 183.106 335.277 183.253C335.578 183.4 335.845 183.609 336.06 183.865C336.276 184.122 336.436 184.42 336.53 184.742C336.623 185.064 336.649 185.402 336.605 185.735C336.561 186.067 336.447 186.386 336.273 186.673C336.098 186.959 335.866 187.205 335.591 187.396C335.315 187.587 335.003 187.718 334.675 187.782C332.312 188.464 330.759 188.975 329.418 189.401C325.945 190.56 322.387 191.45 318.778 192.065L318.246 192.108Z" fill="#FEEBD6"/>
        <path d="M323.46 195.923C322.865 195.912 322.295 195.681 321.861 195.273C321.426 194.866 321.158 194.312 321.108 193.719C321.057 193.125 321.229 192.533 321.588 192.059C321.948 191.584 322.471 191.26 323.055 191.149C330.823 189.828 332.355 186.887 332.376 186.887C332.47 186.584 332.624 186.304 332.827 186.063C333.031 185.821 333.282 185.623 333.563 185.48C333.845 185.337 334.153 185.252 334.468 185.23C334.783 185.208 335.099 185.249 335.398 185.352C336 185.552 336.5 185.982 336.787 186.549C337.074 187.116 337.125 187.774 336.93 188.378C336.611 189.316 334.547 194.026 323.864 195.859L323.46 195.923Z" fill="#FEEBD6"/>
        <path d="M332.632 193.024L330.802 173.481C333.185 173.672 335.403 174.779 336.99 176.571C338.576 178.363 339.409 180.7 339.314 183.093C339.335 186.098 338.484 189.444 332.632 193.024Z" fill="#FEEBD6"/>
        <path d="M278.771 129.344C279.288 131.29 279.416 133.32 279.147 135.316C278.879 137.312 278.22 139.236 277.208 140.976C276.195 142.717 274.85 144.24 273.249 145.458C271.647 146.677 269.821 147.567 267.876 148.077C265.934 148.595 263.908 148.724 261.916 148.456C259.924 148.189 258.004 147.53 256.267 146.519C254.529 145.507 253.008 144.162 251.79 142.561C250.573 140.959 249.682 139.133 249.17 137.187L246.447 126.893C245.415 122.959 245.982 118.776 248.024 115.26C250.067 111.745 253.417 109.184 257.342 108.138C261.267 107.105 265.441 107.674 268.948 109.719C272.455 111.765 275.008 115.121 276.047 119.05L278.771 129.344Z" fill="#FEEBD6"/>
        <path d="M277.282 123.888C276.273 127.179 274.442 130.157 271.962 132.54C268.793 135.174 264.97 136.898 260.901 137.529C256.831 138.159 252.667 137.673 248.851 136.121L249.128 137.187C250.166 141.123 252.724 144.486 256.238 146.534C259.752 148.583 263.934 149.149 267.865 148.109C271.796 147.069 275.154 144.508 277.199 140.988C279.244 137.469 279.81 133.28 278.771 129.344L277.282 123.888Z" fill="#0F1624"/>
        <path d="M249.085 136.611C243.319 132.924 237.126 118.858 246.213 115.789C251.831 113.892 249.554 131.219 249.554 136.142L249.085 136.611Z" fill="#0F1624"/>
        <path d="M244.468 116.94C237.509 111.91 246.127 97.6311 263.301 97.6311C273.941 97.6311 273.941 105.772 266.493 110.163C260.406 113.828 250.958 111.676 246.383 117.899L244.468 116.94Z" fill="#0F1624"/>
        <path d="M277.282 127.042C273.917 122.107 270.861 116.968 268.131 111.655C266.94 108.969 265.322 104.408 270.685 107.648C275.175 110.354 277.601 119.924 277.069 124.698L277.282 127.042Z" fill="#0F1624"/>
        <path d="M155.942 161.163C153.169 163.51 150.52 166 148.004 168.622L113.424 240.956L139.173 207.687L166.518 151.082C163.007 154.471 159.602 157.859 155.942 161.163Z" fill="#977858"/>
        <path d="M135.427 149.185C137.938 145.754 140.364 141.726 143.216 138.167L82.695 108.692L25.2383 114.446L125.851 160.907C129.171 157.113 132.491 153.299 135.427 149.185Z" fill="#977858"/>
        <path d="M144.067 138.678C140.854 142.792 138.322 147.459 135.151 151.317C132.384 154.712 129.59 158.072 126.766 161.397L172.498 182.518L189.096 160.8L144.067 138.678Z" fill="#977858"/>
        <path d="M75.2044 222.627L92.9309 185.416L0 140.959L14.8962 109.736L167.965 19.458L209.738 39.4915L148.345 167.897L173.647 180.045L156.452 215.978L131.171 203.851L113.424 240.956L75.2044 222.627ZM144.046 78.5993L141.684 77.4698L59.8188 125.465L110.104 149.569L144.046 78.5993Z" fill="#C7A57A"/>
        <path d="M173.647 180.045L189.096 160.694L176.967 187.654L155.899 217.129L173.647 180.045Z" fill="#977858"/>
        <path d="M167.71 149.995L228.061 17.5186L209.738 39.4915L148.345 167.897C150.047 166.235 166.731 150.975 167.71 149.995Z" fill="#977858"/>
        <path d="M14.9175 109.736L42.1988 85.952L191.735 0L167.965 19.458L14.9175 109.736Z" fill="#977858"/>
        <path d="M167.965 19.458L209.738 39.4915L228.061 17.5186L191.735 0L167.965 19.458Z" fill="#977858"/>
        <path d="M116.722 116.237C111.572 112.592 108.04 114.105 105.571 114.574C103.926 114.801 102.255 114.423 100.868 113.509C100.336 113.21 99.7103 113.126 99.1179 113.272C98.5256 113.418 98.0109 113.784 97.6782 114.296C97.3454 114.809 97.2194 115.428 97.3258 116.03C97.4321 116.631 97.7628 117.17 98.2508 117.537C100.081 118.597 102.051 119.393 104.103 119.902C100.123 123.611 96.059 127.873 95.761 128.171C95.5487 128.402 95.3838 128.673 95.2758 128.968C95.1678 129.262 95.1188 129.575 95.1316 129.889C95.1576 130.523 95.4337 131.12 95.8994 131.549C96.365 131.979 96.9819 132.206 97.6145 132.18C98.247 132.154 98.8433 131.877 99.2723 131.411C99.2723 131.411 102.145 128.321 105.316 125.273C102.379 128.939 99.6128 132.775 99.1233 133.478C98.8635 133.835 98.7076 134.257 98.6729 134.697C98.6382 135.137 98.7261 135.578 98.9268 135.971C99.1274 136.364 99.433 136.694 99.8096 136.924C100.186 137.153 100.619 137.274 101.06 137.272C101.442 137.269 101.817 137.177 102.157 137.003C102.497 136.83 102.792 136.578 103.018 136.27C104.571 134.139 106.784 131.113 108.912 128.449C108.125 130.004 107.125 131.773 105.124 134.991C104.957 135.258 104.843 135.556 104.791 135.867C104.739 136.178 104.749 136.496 104.82 136.803C104.891 137.11 105.022 137.4 105.206 137.656C105.39 137.912 105.622 138.129 105.89 138.295C106.266 138.534 106.701 138.659 107.146 138.657C107.569 138.673 107.988 138.577 108.361 138.378C108.735 138.18 109.05 137.887 109.274 137.528C110.104 136.206 110.764 135.098 111.402 134.16C111.194 134.675 111.172 135.245 111.339 135.774C111.506 136.303 111.852 136.757 112.317 137.059C112.7 137.317 113.153 137.45 113.615 137.442C113.997 137.433 114.372 137.334 114.708 137.153C115.045 136.971 115.334 136.713 115.552 136.398C117.326 133.813 118.61 130.923 119.34 127.873H119.446C120.787 121.181 119.169 117.984 116.722 116.237ZM111.913 133.116C112.7 131.731 113.253 130.665 113.764 129.621C113.232 130.829 112.613 131.997 111.913 133.116Z" fill="#FEEBD6"/>
        <path d="M43.3478 143.452C35.772 143.026 24.7701 157.881 36.0274 161.93C25.8342 161.696 23.2592 176.124 32.6864 180.109C16.3219 176.891 18.2158 198.203 25.9618 205.833C24.6575 205.687 23.3371 205.835 22.0971 206.265C20.8571 206.696 19.7288 207.398 18.7947 208.322C17.8606 209.245 17.1442 210.366 16.698 211.602C16.2517 212.838 16.0869 214.158 16.2155 215.466C17.0029 220.986 19.1947 228.616 32.7928 232.686C46.3909 236.757 54.6902 229.127 61.4573 221.902C65.7134 230.768 87.1851 218.791 84.8656 208.199C92.9521 211.055 100.187 201.805 100.336 194.538C100.485 187.27 95.4844 181.921 90.7389 177.275C94.0799 174.206 94.7183 168.494 93.8458 164.125C92.3775 156.9 83.3121 156.176 83.3121 150.421C83.3121 148.29 83.7164 142.131 81.9927 139.382C79.2689 134.991 74.5021 130.665 68.5223 132.796C43.3478 120.861 43.3478 143.452 43.3478 143.452Z" fill="#0F1624"/>
        <path d="M58.0099 376.352C51.0938 375.137 49.9872 375.478 43.1137 373.816L27.3025 393.167H88.6535L53.0516 383.619L58.0099 376.352Z" fill="#64748B"/>
        <path d="M172.178 381.893L168.561 377.226C165.326 379.385 161.838 381.139 158.176 382.447L167.859 393.274H203.801L172.178 381.893Z" fill="#64748B"/>
        <path d="M36.6658 376.416C43.5393 378.099 50.3915 379.847 57.3502 381.041L107.976 318.638L99.3574 293.852L63.8407 252.912L74.0552 310.945L36.6658 376.416Z" fill="#334155"/>
        <path d="M105.529 235.734C91.6328 232.047 72.7998 236.714 59.2869 241.829C59.2869 241.829 67.5649 274.885 73.0126 284.731C88.8664 313.46 157.474 385.111 157.474 385.111C161.241 383.811 168.497 378.504 171.817 376.352L105.529 235.734Z" fill="#161B26"/>
        <path d="M57.4566 254.745C70.8845 249.715 97.8891 241.19 111.594 244.664C111.594 244.664 93.3139 201.635 85.0146 192.151C79.4179 185.757 48.8381 167.727 48.8381 191.277C49.1925 212.7 52.0856 234.005 57.4566 254.745Z" fill="#94A3B8"/>
        <path d="M69.3735 189.273L68.8202 189.444C66.859 189.972 64.7688 189.698 63.0091 188.683C61.2494 187.668 59.964 185.994 59.4356 184.031C58.6411 180.686 58.2341 177.26 58.2227 173.822C58.2227 171.787 59.0298 169.836 60.4665 168.397C61.9032 166.958 63.8517 166.15 65.8835 166.15C67.9153 166.15 69.8639 166.958 71.3006 168.397C72.7373 169.836 73.5444 171.787 73.5444 173.822C73.5574 175.971 73.7856 178.113 74.2254 180.216C74.679 182.059 74.434 184.006 73.5378 185.679C72.6417 187.352 71.1579 188.633 69.3735 189.273Z" fill="#D7D5FF"/>
        <path d="M74.4808 181.686C74.4583 181.124 74.3727 180.567 74.2254 180.024C73.7856 177.921 73.5574 175.779 73.5444 173.63C73.5444 171.596 72.7373 169.644 71.3006 168.205C69.8639 166.766 67.9153 165.958 65.8835 165.958C63.8517 165.958 61.9032 166.766 60.4665 168.205C59.0298 169.644 58.2227 171.596 58.2227 173.63V174.27C62.0105 178.724 68.2244 180.749 74.4808 181.686Z" fill="#64748B"/>
        <path d="M81.9716 158.669C83.1451 162.321 82.8252 166.289 81.082 169.705C79.3388 173.121 76.3146 175.705 72.6721 176.891C70.8627 177.483 68.9546 177.711 67.057 177.563C65.1593 177.415 63.3095 176.893 61.6135 176.028C59.9174 175.163 58.4084 173.971 57.173 172.521C55.9375 171.071 54.9998 169.391 54.4136 167.578L51.3067 157.987C50.1195 154.327 50.4323 150.345 52.1761 146.916C53.92 143.487 56.9523 140.892 60.6062 139.701C62.4266 139.116 64.3446 138.898 66.2498 139.058C68.1549 139.219 70.0095 139.755 71.7066 140.637C73.4038 141.518 74.91 142.728 76.1385 144.195C77.3671 145.662 78.2935 147.358 78.8647 149.185L81.9716 158.669Z" fill="#FEEBD6"/>
        <path d="M167.327 150.975C167.036 150.723 166.684 150.553 166.305 150.485L167.475 149.207C167.689 148.975 167.855 148.703 167.963 148.407C168.072 148.111 168.12 147.796 168.107 147.481C168.093 147.166 168.017 146.857 167.883 146.571C167.749 146.286 167.56 146.03 167.327 145.818C167.217 145.702 167.087 145.608 166.943 145.541C167.239 145.125 167.393 144.626 167.384 144.116C167.375 143.606 167.204 143.113 166.894 142.708C166.585 142.303 166.154 142.007 165.665 141.865C165.176 141.723 164.655 141.741 164.177 141.918C165.262 140.81 165.943 140.042 166.028 139.957C166.392 139.472 166.559 138.869 166.498 138.266C166.436 137.663 166.15 137.105 165.696 136.705C165.242 136.304 164.654 136.089 164.049 136.103C163.444 136.118 162.867 136.36 162.432 136.782C159.318 140.264 155.737 143.298 151.792 145.797C150.429 143.671 148.477 141.989 146.174 140.959C145.584 140.737 144.931 140.759 144.356 141.018C143.782 141.278 143.334 141.754 143.11 142.344C142.885 142.932 142.9 143.585 143.15 144.163C143.401 144.741 143.868 145.197 144.45 145.434C145.834 146.105 146.999 147.155 147.813 148.461C147.56 149.152 147.375 149.865 147.259 150.592C112.04 198.459 65.2877 181.495 63.181 180.685C61.1864 179.995 59.0026 180.108 57.0889 180.998C55.1752 181.888 53.6808 183.487 52.92 185.458C52.1593 187.429 52.1914 189.618 53.0097 191.566C53.828 193.514 55.3686 195.068 57.3076 195.902C66.426 199.037 76.0127 200.586 85.6529 200.484C89.1231 200.487 92.5906 200.288 96.0377 199.887C113.636 197.756 139.662 187.696 160.453 160.864C160.793 160.651 161.283 160.353 161.9 159.905C162.36 159.614 162.8 159.294 163.219 158.946C164.844 157.565 166.34 156.038 167.688 154.385C167.896 154.141 168.052 153.857 168.146 153.551C168.241 153.244 168.272 152.922 168.238 152.603C168.204 152.284 168.106 151.975 167.949 151.695C167.792 151.416 167.581 151.171 167.327 150.975Z" fill="#FEEBD6"/>
        <path d="M102.443 180.813L100.464 181.239C95.5682 182.289 90.575 182.818 85.568 182.816C78.1322 182.906 70.735 181.732 63.6919 179.342C61.3241 178.432 58.6925 178.5 56.3746 179.531C54.0567 180.562 52.2418 182.471 51.3281 184.841C50.8099 185.998 50.5563 187.257 50.5858 188.526C50.6152 189.794 50.927 191.04 51.4983 192.172C56.1587 200.484 69.0119 203.851 85.6531 203.851C89.2081 203.848 92.7602 203.649 96.2932 203.254C98.4213 202.999 100.549 202.636 102.89 202.146L104.295 201.784C103.023 197.851 102.181 193.793 101.784 189.678C101.819 186.712 102.04 183.751 102.443 180.813Z" fill="#CBD5E1"/>
        <path d="M51.0726 165.766C56.0947 162.548 57.8397 156.559 57.2864 150.571C61.6914 153.533 65.1814 151.721 67.9265 146.628C76.2897 158.35 89.0366 140.895 71.6719 134.586C57.7759 129.514 44.1565 143.282 47.7103 157.113L51.0726 165.766Z" fill="#0F1624"/>
    </g>
    <defs>
        <clipPath id="clip0_7_41">
            <rect width="743" height="395" fill="white"/>
        </clipPath>
    </defs>
</svg>
