<svg width="23" height="21" viewBox="0 0 23 21" fill="none" xmlns="http://www.w3.org/2000/svg">
<path fill-rule="evenodd" clip-rule="evenodd" d="M1.73841 1.20325C2.42298 0.549711 3.50611 0.263134 4.55379 0.730348L21.0635 8.09285C22.98 8.9475 22.98 11.5532 21.0635 12.4079L4.55379 19.7704C3.50611 20.2376 2.42298 19.951 1.73841 19.2975C1.04808 18.6384 0.729282 17.5622 1.28025 16.5302L4.43228 10.6265L5.09389 10.9798L4.43228 10.6265C4.55958 10.3881 4.55958 10.1126 4.43228 9.87421L1.28025 3.97049C0.729281 2.93853 1.04808 1.8623 1.73841 1.20325ZM2.7742 2.28821C2.50003 2.54996 2.41351 2.90823 2.60347 3.26402L1.94186 3.61725L2.60347 3.26402L5.7555 9.16773C6.1185 9.84764 6.11851 10.6531 5.7555 11.333L2.60347 17.2367C2.41351 17.5925 2.50003 17.9508 2.7742 18.2125C3.05415 18.4798 3.49472 18.6003 3.94287 18.4004L20.4526 11.0379C21.1836 10.7119 21.1836 9.78881 20.4526 9.4628L3.94287 2.1003C3.49472 1.90045 3.05414 2.02096 2.7742 2.28821Z" fill="#ECECEC" stroke="#141213" stroke-width="0.8"/>
</svg>
