<svg width="123" height="121" viewBox="0 0 123 121" fill="none"
    xmlns="http://www.w3.org/2000/svg">
    <path d="M38.1325 12.9697C38.4756 13.6216 38.8873 14.4108 39.5392 14.9255C39.6079 14.9941 39.7108 15.0627 39.7794 15.097C40.3284 15.4744 40.9803 15.646 41.7352 15.646C42.8331 15.646 43.9654 15.2686 45.132 14.8568C50.1415 13.0383 55.4597 12.1119 60.9838 12.1119C74.3996 12.1119 87.6781 17.6704 96.4961 27.0374C109.26 40.5561 113.068 61.9321 105.726 79.0191C105.383 79.774 105.005 80.5289 104.353 80.7004C104.25 80.7347 104.113 80.7347 103.976 80.7347C103.564 80.7347 103.118 80.5632 102.672 80.3916L96.5304 78.0241L96.4961 102.9C96.4961 104.341 96.9078 105.199 97.697 105.508C97.8686 105.576 98.0401 105.576 98.2117 105.576C98.692 105.576 99.1381 105.37 99.5841 105.164L120.754 94.974C121.303 94.6995 122.984 93.876 122.882 92.4692C122.744 91.0625 121.303 90.7537 120.034 90.4792C119.553 90.3762 119.073 90.2733 118.661 90.1017C117.117 89.5184 116.397 87.6313 116.431 86.1559C116.431 84.6462 117.014 83.1365 117.563 81.6954L117.735 81.2151C121.715 70.5442 122.436 58.7411 119.828 47.0752C117.22 35.3751 111.559 25.013 103.427 17.0528C92.3444 6.24467 76.6985 0 60.5378 0C52.955 0 45.7153 1.37246 38.9559 4.01443C37.2747 4.66635 36.2797 5.48982 35.9365 6.51917C35.3876 8.06318 36.3483 9.74444 37.4462 11.7002C37.6521 12.1119 37.8923 12.5237 38.1325 12.9697ZM41.7352 6.10743C42.2842 5.90156 42.7988 5.73 43.3478 5.55845C48.9062 3.77425 54.7735 2.84785 60.778 2.84785C77.3161 2.84785 93.511 9.77875 104.148 21.376C119.416 38.0513 123.19 64.7456 113.137 84.7835C112.588 85.8471 111.936 87.151 112.314 88.4548C112.76 89.9988 114.269 90.5478 115.71 91.0968C116.706 91.4742 117.735 91.8859 118.387 92.5722L102.638 100.635C101.917 101.013 101.162 101.219 100.613 101.219C100.099 101.219 99.7214 101.047 99.5155 100.704C99.3097 100.361 99.3096 99.9491 99.3096 99.4344L99.5841 82.4846C99.6871 82.4503 99.8243 82.416 99.9616 82.416C100.511 82.416 101.128 82.9306 101.78 83.4453C102.501 84.0286 103.255 84.6462 104.113 84.7835C104.25 84.8178 104.388 84.8178 104.491 84.8178C106.241 84.8178 107.441 82.862 107.99 81.6954C116.397 63.9564 113.309 41.2423 100.442 26.3855C90.9377 15.4058 76.2867 8.88665 61.224 8.88665C56.2489 8.88665 51.3767 9.60719 46.7789 11.014L46.4701 11.1169C45.3036 11.46 44.137 11.8374 42.9704 11.8374C42.593 11.8374 42.2155 11.8031 41.8724 11.7002C40.4313 11.3571 39.5392 10.3964 39.4706 9.12683C39.4706 8.06318 40.1225 6.69072 41.7352 6.10743Z" fill="#C7A57A"/>
    <path d="M7.59511 33.144C8.04116 34.0704 7.59511 35.2026 7.04613 36.3692C0.973018 49.3046 0.321103 64.4016 5.159 78.8467C9.92828 93.086 19.3982 104.923 31.7846 112.197C40.9114 117.55 52.0626 120.466 63.1795 120.466C72.6151 120.466 81.3988 118.305 88.6042 114.222L88.8787 114.05L88.7071 113.741C87.815 112.06 86.82 110.379 85.8593 108.801C85.5505 108.252 85.2074 107.737 84.8986 107.188C84.4868 106.467 83.9722 105.61 83.0801 105.129C82.6683 104.889 82.1537 104.786 81.639 104.786C80.644 104.786 79.6146 105.164 78.7912 105.472C73.6788 107.359 68.2233 108.32 62.5619 108.32C49.4206 108.32 36.7941 103.208 27.9074 94.2868C15.0407 81.3858 10.5459 60.4558 16.9278 43.3688C17.2709 42.4767 18.5404 39.5259 20.5991 39.5259C20.702 39.5259 20.805 39.5259 20.9079 39.5602C21.7314 39.6631 22.5205 40.2807 23.2754 40.8297C24.1332 41.4816 25.0253 42.1679 26.0203 42.1679C26.2605 42.1679 26.5007 42.1335 26.7065 42.0649L26.9467 41.9963L27.0153 17.944C27.0153 17.0176 26.9124 15.8853 26.0203 15.3707C25.7801 15.2334 25.5056 15.1648 25.1968 15.1648C24.6822 15.1648 24.1332 15.3707 23.6528 15.5765C15.8641 19.0763 8.04116 23.0564 0.595593 27.4483L0.115234 27.7228L6.18834 31.8401C6.70301 32.1832 7.32062 32.595 7.59511 33.144ZM11.5409 68.1073C12.982 77.9546 17.065 86.9785 23.2754 94.1153C32.7453 105.026 47.362 111.545 62.3217 111.545C66.9881 111.545 71.5858 110.894 75.9433 109.624L76.3207 109.521C77.6246 109.144 78.9627 108.732 80.2665 108.732C80.8498 108.732 81.3645 108.801 81.8449 108.972C82.8742 109.281 83.7663 110.276 84.0408 111.34C84.2467 112.094 84.1094 112.746 83.6291 113.261C83.2173 113.673 82.634 113.947 82.0164 114.153C75.7374 116.521 69.0124 117.722 62.0815 117.722C50.999 117.722 39.9164 114.496 30.8925 108.698C7.11475 93.2918 -2.04638 60.6617 10.5116 35.9232C11.0606 34.8252 11.7125 33.5557 11.3694 32.2519C10.9576 30.6735 9.48223 30.0216 8.04116 29.404C7.11475 28.9923 6.18834 28.6149 5.53643 27.9629C10.889 24.772 16.5161 21.9928 22.2804 19.6939C22.7607 19.488 23.2411 19.3165 23.7558 19.1106C24.2704 25.321 24.3047 31.5999 23.8587 37.776C22.6235 37.1241 21.0108 36.3692 19.4668 36.3692C18.6091 36.3692 17.8542 36.6094 17.2023 37.0555C16.2759 37.7074 15.7269 38.771 15.2809 39.7661C11.3694 48.4468 10.0998 58.2256 11.5409 68.1073Z" fill="#C7A57A"/>
    <path d="M31.1326 65.6042C31.6816 66.4963 32.6423 67.1825 33.5688 67.3884C34.701 67.6629 35.9362 67.4227 37.0685 67.7658C39.0243 68.3491 40.1222 70.8881 39.1958 72.741C38.5782 73.9762 37.2401 74.7996 36.7254 76.1035C35.9019 78.1622 37.4459 80.3581 38.9556 81.9707C40.7398 83.8922 43.073 85.8822 45.612 85.2646C46.8473 84.9901 47.8423 84.098 48.9059 83.4461C49.9696 82.7599 51.3077 82.2795 52.4743 82.7599C54.7046 83.7206 54.1899 87.0488 55.3908 89.1418C56.7632 91.5779 60.0914 91.8867 62.8707 91.6808C65.0666 91.5093 67.6743 90.8574 68.3262 88.7644C68.635 87.7693 68.4291 86.7057 68.6007 85.7107C69.0467 83.103 72.5122 81.5247 74.7767 82.9657C75.7717 83.5834 76.4923 84.647 77.5559 85.1617C78.7568 85.7107 80.1979 85.4705 81.3645 84.8186C82.5311 84.1666 83.4575 83.2059 84.3496 82.2452C85.2417 81.3188 86.1338 80.3581 86.6484 79.1915C87.1631 78.0249 87.266 76.5838 86.5455 75.4859C86.1338 74.8683 85.5162 74.4565 85.0358 73.9075C84.0751 72.7753 83.7663 71.1626 84.2467 69.7559C84.727 68.3491 85.9965 67.2511 87.4376 66.9766C88.9473 66.6678 90.7315 67.1139 91.8295 66.0845C92.5843 65.364 92.6872 64.2317 92.7559 63.2024C92.8245 61.8986 92.9274 60.5947 92.9961 59.3252C93.099 57.4724 93.0304 55.2078 91.4177 54.2471C90.2168 53.5609 88.6728 53.9383 87.3347 53.6295C85.1387 53.1491 83.629 50.6444 84.2467 48.4828C84.7613 46.6643 86.4769 45.3261 86.7857 43.4733C87.2317 41.0372 85.1731 38.9099 83.2859 37.2973C81.7076 35.9248 79.6489 34.4494 77.6932 35.2043C76.5266 35.6503 75.7717 36.7483 74.7081 37.4002C72.4778 38.704 69.1496 37.1943 68.7036 34.6553C68.532 33.6603 68.7036 32.6309 68.3948 31.6702C68.0174 30.4693 66.8851 29.6115 65.6842 29.1998C64.4833 28.7881 63.1795 28.8224 61.91 28.8567C60.5032 28.891 59.0964 28.9596 57.7926 29.5086C56.4888 30.0233 55.3222 31.0526 55.0134 32.4251C54.8418 33.2142 54.9447 34.072 54.8075 34.8955C54.3958 37.2287 51.4793 38.704 49.352 37.6747C48.254 37.1257 47.4649 36.0964 46.3669 35.5817C44.8229 34.8269 42.9014 35.2729 41.4604 36.2336C40.0193 37.1943 38.9556 38.6354 37.9606 40.0079C37.1028 41.1745 36.2107 42.5126 36.5538 43.9194C36.8626 45.2575 38.2008 46.081 38.9213 47.2476C40.1565 49.272 39.0929 52.2914 36.897 53.0805C35.7647 53.4923 34.4609 53.3893 33.3286 53.8354C31.5787 54.5216 30.515 56.3744 30.3092 58.2272C30.069 60.2173 30.8238 62.0701 30.7209 63.9915C30.618 64.5062 30.7895 65.0895 31.1326 65.6042ZM39.9164 54.5216C40.534 54.0069 41.0486 53.3893 41.4261 52.6688C42.5583 50.6101 42.5583 47.9338 41.3917 45.8751C40.6712 44.6056 39.5046 43.3361 39.9164 41.9293C40.0879 41.3803 40.4653 40.9343 40.8771 40.4882C42.0094 39.2187 43.5534 37.812 45.2003 38.258C46.0581 38.4639 46.71 39.1501 47.4305 39.6648C49.1118 40.8314 51.342 41.1402 53.2635 40.4539C55.1849 39.7677 56.7289 38.1208 57.3122 36.1993C57.6896 34.8612 57.6896 33.3172 58.6847 32.3221C59.6797 31.2928 61.3267 31.2928 62.7677 31.3957C63.4197 31.43 64.0716 31.4643 64.6205 31.8075C65.8901 32.5966 65.9244 34.3808 66.2675 35.8562C66.8165 38.0864 68.6007 39.9393 70.7623 40.6255C72.9582 41.2774 75.4629 40.7284 77.1442 39.1844C77.8304 38.5668 78.5853 37.7433 79.4774 37.9492C79.8891 38.0521 80.2322 38.3266 80.541 38.6354C81.2959 39.3217 82.0507 40.0422 82.8056 40.7284C83.2859 41.1745 83.8006 41.6891 83.9722 42.3411C84.2466 43.5076 83.2173 44.537 82.5311 45.532C81.2616 47.3505 80.9528 49.7866 81.7762 51.8796C82.5654 53.9383 84.4525 55.5509 86.6141 56.0313C87.7464 56.2715 89.0845 56.3401 89.7708 57.2665C90.1139 57.7812 90.1825 58.4331 90.2168 59.0507C90.2855 60.08 90.3198 61.0751 90.3198 62.1044C90.3198 62.4818 90.3198 62.8936 90.1482 63.2367C89.6678 64.1974 88.3297 64.1974 87.2661 64.3003C84.9672 64.5405 82.8399 66.0502 81.8792 68.1432C80.9184 70.2362 81.1243 72.8439 82.4281 74.731C83.0114 75.5888 83.8349 76.378 83.9035 77.4416C83.9722 78.5739 83.1487 79.5689 82.3252 80.3924C81.3645 81.3874 80.1636 82.4854 78.7911 82.1766C77.7618 81.9707 77.0756 81.01 76.1835 80.4267C74.262 79.1229 71.6887 79.6032 69.5271 80.4267C67.537 81.1816 65.3754 82.5197 65.3068 84.647C65.2382 85.9165 65.8901 87.4949 64.9293 88.3183C64.6205 88.5928 64.2088 88.6957 63.7971 88.7644C62.0129 89.1761 59.8856 89.3134 58.5817 88.0095C57.4152 86.8429 57.4152 84.9901 56.7976 83.4461C55.4937 80.1179 50.896 78.6768 47.9109 80.6326C46.7443 81.4217 45.612 82.6569 44.2396 82.3825C43.6906 82.2795 43.2103 81.9364 42.7642 81.5933C41.2202 80.3924 39.5732 78.7798 39.9164 76.8583C40.1222 75.726 40.98 74.8683 41.5633 73.8732C43.3475 70.7509 41.6662 66.1875 38.2694 64.9866C36.8626 64.4719 35.0441 64.4376 33.8776 63.4083C33.1913 62.7906 33.4658 62.2417 33.4658 61.4182C33.4658 60.3202 33.4658 59.188 33.4658 58.09C33.4658 57.6783 33.4658 57.2322 33.706 56.8891C34.1177 56.3058 34.9412 56.3401 35.6617 56.3058C37.2058 56.1685 38.7155 55.5509 39.9164 54.5216Z" fill="#C7A57A"/>
    <path d="M50.964 63.6822C51.513 64.1969 52.1649 64.7802 52.3021 65.3635L52.3364 65.5351L52.4737 65.6037C53.8461 66.2556 54.7725 67.3879 55.596 68.5202L55.699 68.6574H55.8362C55.9391 68.6574 56.0764 68.6917 56.2479 68.726C56.4538 68.7603 56.6597 68.7946 56.8655 68.7946C57.0714 68.7946 57.2087 68.7603 57.3459 68.6574C63.0073 65.0547 67.4334 60.0452 71.7224 55.173C72.3743 54.4182 73.0262 53.6976 73.6781 52.9428C74.0898 52.4967 74.0555 52.1193 73.9869 51.8791C73.7124 51.2272 72.6145 51.09 71.9968 51.0557H71.8253L71.7224 51.1586C70.4528 52.4281 69.149 53.732 67.9138 55.0015C64.8944 58.0209 61.7378 61.1432 58.8213 64.3685C58.1351 65.1233 57.5518 65.5351 57.1057 65.5351C56.4538 65.5351 55.9048 64.643 55.3215 63.6822L55.2529 63.545L55.1157 63.5107C54.4637 63.3734 53.9148 62.6872 53.4001 62.0353C52.8168 61.2805 52.1992 60.5256 51.3414 60.5256C50.964 60.5256 50.5523 60.6972 50.1405 61.0403C49.8317 61.2805 49.6602 61.5893 49.6602 61.8981C49.6945 62.5157 50.3121 63.0646 50.964 63.6822Z" fill="#C7A57A"/>
</svg>
