<svg width="123" height="121" viewBox="0 0 123 121" fill="none"
  xmlns="http://www.w3.org/2000/svg">
  <path d="M116.388 103.478C115.042 96.4747 111.675 90.5758 106.449 85.7543C102.813 82.4143 98.611 80.044 93.8973 78.5895C92.9007 78.2932 92.9007 78.2932 92.9007 77.2427C92.9007 66.7379 92.9007 56.2061 92.9007 45.7013C92.9007 44.8124 92.6313 44.139 91.9849 43.4926C83.1231 34.6577 74.2613 25.796 65.4265 16.9342C64.807 16.3147 64.1605 16.0453 63.2717 16.0453C56.4839 16.0723 49.6693 16.0453 42.8815 16.0453C35.9591 16.0453 29.0367 16.0453 22.1143 16.0453C21.3062 16.0453 21.2523 15.9915 21.2523 15.1834C21.2523 12.7861 21.2523 10.4158 21.2523 8.01856C21.2523 5.48663 20.3635 3.33179 18.3164 1.76953C13.9528 -1.59741 7.83848 0.44969 6.30316 5.72904C6.19542 6.07921 6.27623 6.56404 5.97994 6.80646C5.65671 7.04888 5.25268 6.77953 4.87558 6.77953C2.23591 6.75259 0.0271981 8.90743 0.0271981 11.574C0.0271981 20.3819 0.0541336 29.1898 0.000262639 37.9977C-0.0266728 40.6105 2.02042 43.2232 5.118 43.0347C6.03381 42.9808 6.03381 43.0077 6.03381 43.9235C6.03381 44.0852 6.03381 44.2468 6.03381 44.3814C6.03381 58.8727 6.03381 73.364 6.03381 87.8553C6.03381 88.421 6.08768 88.9597 6.30316 89.4714C8.18864 94.5084 10.0741 99.5453 11.9596 104.582C12.0943 104.959 12.1751 105.336 12.1751 105.74C12.1751 109.054 12.1751 112.394 12.1751 115.707C12.1751 117.053 12.1751 118.4 12.1751 119.747C12.202 120.77 12.8485 121.417 13.872 121.444C14.1414 121.444 14.3838 121.444 14.6532 121.444C27.4744 121.444 40.3227 121.444 53.1439 121.444C53.3864 121.444 53.6288 121.444 53.8712 121.444C54.2483 121.417 54.4638 121.579 54.6254 121.956C55.0294 122.925 55.4604 123.841 55.9452 124.757C58.0193 128.663 60.7397 132.029 64.1875 134.777C71.083 140.272 78.9481 121.642 87.7021 141.861C92.0118 141.484 96.106 140.218 99.9039 138.117C106.153 134.696 110.84 129.767 113.883 123.329C116.9 116.999 117.708 110.346 116.388 103.478ZM6.14155 37.7284C6.14155 38.0247 6.14155 38.321 6.03381 38.5903C5.81832 39.2098 5.22574 39.6139 4.68703 39.5331C4.01365 39.4253 3.55574 38.9405 3.55574 38.2132C3.55574 35.2503 3.55574 32.2605 3.55574 29.2976C3.55574 27.8431 3.55574 26.3886 3.55574 24.934C3.55574 20.6513 3.55574 16.3955 3.55574 12.1128C3.55574 11.8973 3.55574 11.6548 3.55574 11.4394C3.60962 10.7929 4.04058 10.3619 4.63316 10.3081C5.27961 10.2273 5.84526 10.6044 6.03381 11.2239C6.11461 11.5202 6.14155 11.8434 6.14155 12.1397C6.14155 20.6782 6.14155 29.2168 6.14155 37.7284ZM65.5073 22.5637C65.5073 22.429 65.4804 22.2674 65.642 22.1866C65.8036 22.1058 65.8844 22.2674 65.9922 22.3482C66.073 22.4021 66.1538 22.4829 66.2076 22.5637C72.9146 29.2707 79.6215 35.9776 86.3284 42.7114C86.4901 42.8731 86.8133 43.0077 86.7055 43.2771C86.5978 43.5465 86.2746 43.4118 86.0321 43.4118C82.7729 43.4118 79.4868 43.4118 76.2276 43.4118C72.9415 43.4118 69.6554 43.4118 66.3693 43.4118C65.5343 43.4118 65.4804 43.3579 65.4804 42.5229C65.4804 35.9506 65.4804 29.3784 65.4804 22.8061C65.5073 22.7523 65.5073 22.6445 65.5073 22.5637ZM13.468 3.62808C15.1649 3.54727 16.6733 4.46308 17.4275 6.18695C17.6699 6.75259 17.7507 7.34517 17.7507 7.96469C17.7507 24.961 17.7507 41.9573 17.7507 58.9535C17.7507 59.9232 17.7507 59.9232 16.808 59.9232C14.6532 59.9232 12.5253 59.9232 10.3704 59.9232C9.58929 59.9232 9.56235 59.8694 9.56235 59.0882C9.56235 50.4958 9.56235 41.9034 9.56235 33.311C9.56235 24.8263 9.58929 16.3686 9.53542 7.88388C9.53542 5.78292 11.0438 3.73582 13.468 3.62808ZM9.45461 86.1045C9.45461 85.3503 9.45461 84.5961 9.45461 83.815C9.45461 77.3235 9.45461 70.859 9.45461 64.3676C9.45461 63.4787 9.48155 63.4518 10.3974 63.4518C10.9899 63.4518 16.4578 63.4518 17.0504 63.4518C17.6969 63.4518 17.7777 63.5326 17.7777 64.179C17.7777 67.0611 17.7777 69.9432 17.7777 72.8522C17.7777 73.6064 17.7777 74.3606 17.7777 75.1418C17.7777 78.6973 17.7777 82.2527 17.7777 85.8351C17.7777 86.6971 17.7507 86.724 16.8619 86.724C16.2154 86.724 10.6936 86.724 10.0741 86.724C9.64316 86.6971 9.45461 86.5085 9.45461 86.1045ZM14.1414 97.7676C14.0606 98.01 13.9798 98.2524 13.872 98.4948C13.8182 98.6295 13.8182 98.845 13.6296 98.845C13.468 98.845 13.468 98.6026 13.4141 98.4679C12.9293 97.2019 12.4444 95.909 11.9596 94.6431C11.4748 93.3771 11.0169 92.0842 10.532 90.8182C10.3165 90.2256 10.3704 90.1448 11.0169 90.1179C11.9057 90.1179 12.7677 90.1179 13.6565 90.1179C14.5185 90.1179 15.3804 90.1179 16.2423 90.1179C16.8888 90.1179 16.9427 90.2256 16.7272 90.8182C15.8653 93.1616 15.0033 95.4511 14.1414 97.7676ZM29.0636 95.101C28.4441 95.101 27.8246 95.1279 27.3398 95.6397C26.828 96.1784 26.6664 96.744 26.9357 97.4443C27.2051 98.1447 27.7169 98.4948 28.4441 98.5218C28.6865 98.5487 28.929 98.5218 29.1714 98.5218C37.1712 98.5218 45.1441 98.5218 53.1439 98.5218C54.1675 98.5218 54.1675 98.5487 53.8443 99.5184C52.9823 102.131 52.4975 104.798 52.3089 107.545C52.0665 110.804 52.3897 114.037 53.1439 117.215C53.3325 117.969 53.2517 118.05 52.4706 118.05C44.6054 118.05 36.7672 118.05 28.902 118.05C24.7809 118.05 20.6328 118.05 16.5117 118.05C15.6498 118.05 15.5959 117.996 15.5959 117.134C15.5959 112.878 15.5959 108.623 15.5959 104.367C15.5959 103.262 16.1346 102.347 16.4848 101.35C17.9662 97.3366 19.4746 93.3501 20.983 89.3637C21.1715 88.8789 21.1985 88.394 21.1985 87.8822C21.1985 65.5258 21.1985 43.1963 21.1985 20.8398C21.1985 19.4392 21.0907 19.5469 22.4914 19.5469C28.902 19.5469 35.3127 19.5469 41.7502 19.5469C48.2417 19.5469 54.7601 19.5469 61.2515 19.5469C62.1943 19.5469 62.1943 19.5469 62.1943 20.5166C62.1943 28.6242 62.1943 36.7318 62.1943 44.8394C62.1943 45.2973 62.1943 45.7282 62.4905 46.1323C62.8407 46.5632 63.2447 46.7518 63.8104 46.7518C65.642 46.7518 67.4736 46.7518 69.3052 46.7518C75.6889 46.7518 82.0726 46.7518 88.4563 46.7518C89.3721 46.7518 89.3991 46.7787 89.3991 47.6676C89.3991 57.3913 89.3991 67.115 89.3991 76.8387C89.3991 77.5929 89.3183 77.6468 88.591 77.539C84.2544 76.9464 79.9717 77.3235 75.7697 78.5087C71.6486 79.6669 67.8776 81.5793 64.5376 84.2729C61.063 87.0472 58.2078 90.3872 56.1068 94.3468C55.8106 94.9124 55.4604 95.1279 54.8139 95.1279C46.2215 95.101 37.656 95.101 29.0636 95.101ZM84.6046 138.548C68.4702 138.575 55.2718 125.376 55.6489 108.838C55.9991 93.5387 68.6588 80.4211 85.1163 80.6635C100.793 80.906 113.614 93.9158 113.452 109.592C113.587 125.215 100.874 138.521 84.6046 138.548Z" fill="#C7A57A"/>
  <path d="M28.7404 55.2632C33.3464 55.2632 37.9524 55.2632 42.5314 55.2632C47.0027 55.2632 51.5009 55.2632 55.9722 55.2632C56.2146 55.2632 56.457 55.2632 56.6994 55.2362C57.4536 55.1824 58.1001 54.5628 58.2078 53.8087C58.3156 53.0275 57.9115 52.2733 57.1843 51.977C56.7802 51.8154 56.3762 51.8154 55.9722 51.8154C47.0027 51.8154 38.0601 51.8154 29.0906 51.8154C28.8751 51.8154 28.6327 51.8154 28.4172 51.8424C27.1512 51.977 26.4509 53.243 27.0435 54.3743C27.3937 55.0477 28.0132 55.2632 28.7404 55.2632Z" fill="#C7A57A"/>
  <path d="M57.2389 66.4412C56.8349 66.2527 56.4309 66.2527 56.0268 66.2527C47.0304 66.2527 38.0339 66.2527 29.0375 66.2527C28.822 66.2527 28.6335 66.2527 28.418 66.2796C27.1789 66.4143 26.4786 67.6803 27.0443 68.7846C27.3944 69.4849 27.987 69.7004 28.7143 69.7004C33.3202 69.7004 37.9262 69.7004 42.5052 69.7004C47.0304 69.7004 51.5286 69.7004 56.0538 69.7004C56.2962 69.7004 56.5386 69.7004 56.781 69.6735C57.5352 69.5927 58.1278 69.0001 58.2355 68.2728C58.3433 67.4917 57.9123 66.7375 57.2389 66.4412Z" fill="#C7A57A"/>
  <path d="M28.7144 40.8268C33.3204 40.8268 37.9263 40.8268 42.5053 40.8268C46.9766 40.8268 51.4749 40.8268 55.9461 40.8268C56.1886 40.8268 56.431 40.8268 56.6734 40.8268C57.9394 40.7191 58.6397 39.3184 57.9663 38.241C57.5353 37.5407 56.835 37.406 56.0808 37.406C47.0305 37.406 37.9802 37.406 28.9568 37.406C28.7683 37.406 28.5797 37.406 28.3912 37.4329C27.2599 37.5676 26.5865 38.5912 26.9366 39.6417C27.1521 40.4228 27.7716 40.8268 28.7144 40.8268Z" fill="#C7A57A"/>
  <path d="M56.7537 84.0849C57.8042 83.9502 58.4506 82.9805 58.1543 81.957C57.885 81.0412 57.3193 80.6641 56.1611 80.6641C47.1108 80.6641 38.0335 80.6641 28.9832 80.6641C28.7139 80.6641 28.4445 80.6641 28.1482 80.7449C27.0708 81.0121 26.5321 82.1186 26.99 83.1211C27.3402 83.8963 27.9597 84.1118 28.7408 84.1118C33.3198 84.1118 37.8989 84.1118 42.4779 84.1118C47.0031 84.1118 51.5013 84.1118 56.0264 84.1118C56.2689 84.1118 56.5113 84.1118 56.7537 84.0849Z" fill="#C7A57A"/>
  <path d="M84.577 87.1006C72.0789 87.1006 62.3821 97.1206 62.0589 108.891C61.6818 121.767 71.9442 132.137 84.4962 132.11C97.075 132.11 107.041 122.117 107.041 109.619C107.068 96.9859 96.8865 87.1275 84.577 87.1006ZM84.4153 128.716C73.9644 128.689 65.1295 119.989 65.4797 108.918C65.8029 99.0061 74.0452 90.5214 84.55 90.5214C94.8932 90.5214 103.647 98.8175 103.647 109.592C103.647 120.258 95.1626 128.743 84.4153 128.716Z" fill="#C7A57A"/>
  <path d="M89.937 110.158C88.9134 109.43 87.7821 108.972 86.6508 108.541C86.2737 108.407 86.0313 108.218 86.0313 107.76C86.0582 105.417 86.0313 103.047 86.0313 100.703C86.0313 100.138 86.166 100.057 86.6778 100.272C87.5128 100.595 88.1323 101.161 88.671 101.861C89.102 102.427 89.6676 102.589 90.3949 102.373C90.9874 102.212 91.4184 101.673 91.4723 101.053C91.5262 100.326 91.0952 99.7874 90.6373 99.2756C89.5599 98.0904 88.24 97.2824 86.6778 96.9591C86.166 96.8514 85.9774 96.609 86.0313 96.0972C86.0582 95.774 86.0044 95.4507 86.0313 95.1006C86.1121 94.1848 85.3041 93.6461 84.7115 93.5653C84.0112 93.4845 83.3108 93.9962 83.0953 94.7504C82.9876 95.1814 82.9876 95.6124 83.0145 96.0433C83.0415 96.5551 82.826 96.7706 82.3121 96.8783C81.2907 97.0938 80.2941 97.4709 79.4321 98.1174C77.3312 99.6527 76.4962 101.754 76.7655 104.313C76.9271 106.063 77.7082 107.464 79.1358 108.514C80.1324 109.269 81.2368 109.78 82.395 110.184C82.8529 110.346 83.0415 110.642 83.0145 111.127C82.9876 112.339 83.0145 113.551 83.0145 114.763C83.0145 116.056 83.0145 117.322 83.0145 118.615C83.0145 119.073 82.826 119.208 82.395 119.1C81.0213 118.75 79.8362 118.077 79.0012 116.891C78.4624 116.137 77.4389 115.976 76.7116 116.487C76.0383 116.945 75.8497 117.942 76.3076 118.723C76.7386 119.45 77.3581 120.043 78.0315 120.582C79.2705 121.551 80.6981 122.117 82.2334 122.359C82.9337 122.467 82.9876 122.548 83.0145 123.248C83.0145 123.652 82.9876 124.083 83.0953 124.487C83.2839 125.187 83.9304 125.699 84.6307 125.618C85.4657 125.538 85.9774 124.999 86.0044 124.164C86.0044 124.029 86.0044 123.895 86.0044 123.76C86.0044 122.494 86.0044 122.521 87.2165 122.171C89.6945 121.443 91.5262 119.989 92.2534 117.43C93.0345 114.683 92.4689 111.962 89.937 110.158ZM83.0415 106.575C83.0415 106.844 83.0145 107.114 82.6374 106.925C81.2637 106.252 80.1324 105.417 79.9708 103.72C79.8092 102.212 81.1021 100.38 82.6105 100.084C83.0145 100.003 83.0415 100.245 83.0415 100.542C83.0415 101.565 83.0415 102.589 83.0415 103.585C83.0415 104.582 83.0415 105.578 83.0415 106.575ZM86.6239 118.938C86.1929 119.073 86.0583 118.912 86.0583 118.508C86.0583 117.43 86.0583 116.353 86.0583 115.302C86.0583 114.279 86.0583 113.228 86.0583 112.205C86.0583 111.693 86.166 111.639 86.6239 111.854C87.7552 112.393 88.7518 113.067 89.1558 114.359C89.7753 116.299 88.6171 118.373 86.6239 118.938Z" fill="#C7A57A"/>
</svg>
