<svg width="135" height="139" viewBox="0 0 135 139" fill="none"
    xmlns="http://www.w3.org/2000/svg">
    <path d="M134.515 87.214C133.79 86.3734 132.747 86.4314 131.558 87.3589C129.181 89.243 126.805 91.1561 124.37 93.0982C122.688 90.5764 121.036 88.0836 119.384 85.5908C113.355 76.4891 107.355 67.4165 101.326 58.3438C100.746 57.5032 100.746 57.0395 101.616 56.3728C103.732 54.7496 105.732 53.0394 107.761 51.3002C108.601 50.5756 108.833 49.648 108.108 48.7494C107.355 47.8219 106.398 47.7639 105.442 48.5465C102.717 50.7785 100.021 53.0394 97.2967 55.2713C96.2532 56.1409 96.1662 57.0974 96.8909 58.1989C97.4996 59.0685 98.0503 59.996 98.659 60.8366C99.1518 61.5323 99.0358 61.7642 98.1662 61.8801C92.8328 62.6048 87.5863 62.257 82.4847 60.4308C79.2963 59.3004 76.0208 58.8946 72.6585 59.4743C68.6584 60.17 64.8902 61.7062 61.035 62.9236C58.919 63.5903 56.861 64.6918 54.6581 64.6628C49.2667 64.6048 43.9912 63.8222 38.9766 61.7062C36.5128 60.6627 36.5418 60.6337 37.9331 58.4018C38.9186 56.8655 38.8317 56.1989 37.4693 55.0684C34.9185 52.9524 32.3388 50.8074 29.759 48.7204C28.6285 47.7929 27.5271 47.8219 26.8604 48.7784C26.1068 49.8509 26.4836 50.7495 27.4401 51.5321C29.4981 53.2133 31.4982 54.9525 33.5852 56.6047C34.2229 57.1264 34.2229 57.5032 33.8171 58.1409C26.2807 69.4745 18.7733 80.8081 11.2948 92.1416C10.7731 92.9532 10.4253 93.0402 9.67163 92.4025C7.52665 90.6054 5.32371 88.8952 3.12076 87.156C2.19321 86.4314 1.20768 86.3734 0.45404 87.3299C-0.328586 88.3155 -0.0387243 89.243 0.859845 89.9967C3.81643 92.4025 6.802 94.7794 9.78757 97.1272C10.8311 97.9389 11.8746 97.736 12.6572 96.6635C13.034 96.1707 13.2079 95.562 13.8456 95.1562C15.3819 97.3881 16.9761 99.5621 18.8312 101.533C20.5414 103.33 20.5414 103.33 19.1211 105.33C15.7007 110.113 18.4254 116.693 24.2227 117.504C25.1212 117.62 25.1212 117.881 25.0343 118.664C24.4256 123.679 28.7735 127.91 33.7011 127.128C34.7736 126.954 35.0635 127.273 35.3533 128.2C36.6867 132.49 41.2955 134.722 45.4405 133.041C46.368 132.664 46.6869 132.751 47.1507 133.65C48.8898 137.07 52.9189 138.432 56.4262 136.925C58.1944 136.172 59.2669 134.693 60.3683 133.215C61.5278 131.679 61.5278 131.708 63.0061 132.809C66.1656 135.128 69.383 137.331 73.3831 137.969C77.0643 138.548 81.3543 136.316 82.2529 133.012C82.6587 131.563 83.2384 131.331 84.5718 131.36C89.4414 131.447 92.7169 128.519 93.2386 123.708C93.3256 123.012 93.4125 122.867 94.1662 122.983C100.253 124.055 104.891 119.823 104.311 113.707C104.224 112.809 104.427 112.635 105.297 112.461C110.456 111.475 113.326 106.78 111.877 101.707C111.645 100.953 111.674 100.577 112.514 100.171C115.065 99.0113 117.413 97.4751 119.587 95.7069C120.949 94.6054 120.949 94.5765 121.964 96.1127C123.152 97.9099 124.022 98.0548 125.732 96.7214C128.457 94.5475 131.152 92.4025 133.877 90.1996C135.124 89.1561 135.326 88.1705 134.515 87.214ZM22.8023 113.099C21.0342 111.707 20.6284 109.359 21.9617 107.562C23.9618 104.838 26.0778 102.2 28.1648 99.5621C29.0054 98.4896 30.1358 98.0548 31.5851 98.0548C32.9765 98.1997 34.1649 98.8374 34.8606 100.2C35.5852 101.591 35.5852 103.04 34.6577 104.316C32.5996 107.098 30.4837 109.852 28.2807 112.548C26.8604 114.229 24.4545 114.403 22.8023 113.099ZM35.933 121.881C34.7156 123.447 33.0344 123.939 31.3243 123.331C29.6141 122.722 28.6285 121.302 28.6285 119.476C28.5706 118.548 28.8894 117.765 29.4402 117.07C32.8605 112.664 36.2809 108.229 39.7302 103.823C41.2955 101.823 43.7883 101.475 45.5854 102.866C47.5275 104.374 47.7014 106.722 46.0492 108.867C42.6578 113.215 39.2954 117.533 35.933 121.881ZM45.9622 128.142C44.426 130.142 41.9622 130.461 40.0781 129.012C38.2519 127.592 37.9911 125.244 39.5273 123.215C42.223 119.678 44.9187 116.171 47.6724 112.693C48.8898 111.157 50.6 110.664 52.3102 111.272C53.8755 111.852 54.9769 113.388 54.9769 115.273C54.9479 116.113 54.5421 117.012 53.9044 117.823C51.2667 121.273 48.629 124.722 45.9622 128.142ZM60.8031 126.432C59.2959 128.606 57.6436 130.693 55.9914 132.751C55.3827 133.505 54.4842 133.737 53.5856 133.795C52.1653 133.766 51.0928 133.244 50.3971 132.055C49.6725 130.838 49.6145 129.534 50.4551 128.374C51.9624 126.258 53.5566 124.171 55.2088 122.171C56.3683 120.78 58.5132 120.693 59.9336 121.765C61.3829 122.925 61.8756 124.925 60.8031 126.432ZM107.877 106.78C106.34 109.07 103.529 109.591 101.007 107.968C96.8329 105.243 92.7169 102.49 88.5718 99.736C86.079 98.0838 83.5862 96.4316 81.0934 94.7794C79.818 93.9388 78.6296 94.0257 78.0499 94.9823C77.4412 95.9388 77.847 96.9823 79.1514 97.8519C85.4993 102.084 91.8473 106.287 98.1952 110.49C100.775 112.2 101.5 115.012 100.021 117.36C98.5141 119.736 95.6155 120.287 93.0647 118.606C88.282 115.446 83.4993 112.229 78.7455 109.041C77.9049 108.49 77.0643 107.939 76.2237 107.359C74.4556 106.171 73.4411 106.113 72.7164 107.214C72.0208 108.258 72.4266 109.156 74.1367 110.316C78.5426 113.272 82.9485 116.229 87.3544 119.186C89.2385 120.432 90.0211 122.461 89.4704 124.461C88.9487 126.374 87.3254 127.679 85.2094 127.766C84.05 127.824 82.9485 127.592 81.905 126.925C77.4991 123.997 73.0353 121.099 68.6004 118.171C67.9917 117.765 67.383 117.331 66.6004 117.62C65.9337 117.881 65.4409 118.345 65.325 119.07C65.18 119.997 65.6438 120.606 66.3975 121.099C69.9048 123.418 73.3831 125.766 76.8904 128.084C78.1368 128.896 79.1224 129.853 78.9774 131.418C78.8905 132.606 77.0064 133.998 75.4121 134.229C73.9918 134.432 72.6295 134.114 71.3251 133.563C68.7743 132.49 66.5424 130.867 64.3684 129.186C63.8757 128.809 63.9047 128.548 64.1365 127.997C66.2525 123.273 64.1945 118.954 59.1509 117.562C58.4553 117.36 58.3973 117.157 58.4842 116.519C59.035 111.504 56.6001 108.258 51.5855 107.417C50.7739 107.272 50.7449 107.012 50.7449 106.316C50.7739 100.229 45.0927 96.6055 39.5563 99.2142C38.8896 99.5331 38.5998 99.5911 38.2229 98.8084C35.6432 93.5909 28.9764 92.8373 25.2662 97.3012C25.0633 97.562 24.8604 97.8229 24.6574 98.1128C22.7733 100.519 22.7733 100.519 20.7443 98.1707C19.266 96.4606 17.9037 94.6634 16.6573 92.7214C16.1645 91.9387 16.0776 91.388 16.6283 90.5474C22.4255 81.8806 28.1648 73.1847 33.904 64.4889C34.2808 63.9092 34.5127 63.3874 35.4403 63.9382C38.9476 66.0252 42.8317 66.9237 46.8028 67.6194C47.1217 67.6774 47.4695 67.7353 47.7884 67.7933C47.9623 67.8223 48.1362 67.8803 48.3101 67.9382C45.1506 72.0253 42.5709 76.4601 39.4404 80.4892C38.3969 81.8516 38.6288 82.7501 39.9911 83.7936C45.5854 88.0836 51.2957 88.1995 57.0639 84.1125C58.977 82.7791 60.6582 81.2139 62.2235 79.4747C62.7742 78.866 63.3249 78.2283 64.2815 78.3442C67.325 78.808 70.3396 78.5472 73.3831 78.5182C74.2237 78.5182 74.9484 78.7501 75.673 79.2138C85.3254 85.7647 95.0068 92.3155 104.659 98.8664C105.21 99.2432 105.79 99.62 106.311 100.026C108.717 101.823 109.355 104.577 107.877 106.78ZM117.964 92.3156C115.616 94.2576 113.065 95.8808 110.311 97.2142C109.587 97.562 109.036 97.562 108.34 97.0693C97.9633 89.9967 87.5863 82.982 77.2093 75.9384C75.76 74.9529 74.1367 74.8949 72.0787 74.8949C69.7888 75.2427 67.0931 75.0398 64.3974 74.8079C62.3974 74.634 60.8611 75.5326 59.5857 76.9819C57.7596 79.0109 55.7306 80.7791 53.4117 82.1994C50.1652 84.1994 46.9768 83.7646 43.8173 81.9965C43.2086 81.6777 43.2375 81.3588 43.6434 80.866C45.9333 78.0544 47.7304 74.8949 49.8174 71.9673C50.9768 70.3441 52.5421 69.2426 54.4552 68.7209C59.7017 67.3005 64.8322 65.4454 70.0207 63.7932C73.9628 62.5468 77.818 62.6048 81.7891 64.0251C87.7892 66.1701 93.9633 66.431 100.195 65.1846C101.123 65.0106 101.558 65.1846 102.05 65.9382C107.413 74.0833 112.804 82.1994 118.196 90.3155C118.746 91.1271 118.833 91.5909 117.964 92.3156Z" fill="#C7A57A"/>
    <path d="M42.7155 54.7493C44.0778 56.8653 45.5851 58.8653 47.0634 60.8654C47.7591 61.7929 48.7446 61.8799 49.6142 61.1553C50.3968 60.4886 50.5707 59.619 49.8751 58.7204C49.7012 58.4885 49.5272 58.2566 49.3533 58.0248C44.3967 51.4739 40.5705 44.3143 37.8168 36.575C36.0487 31.5604 34.8313 26.4009 33.9907 20.7776C33.8168 20.1109 34.3965 19.7921 35.2951 19.6471C38.0197 19.1834 40.6285 18.3138 43.1793 17.3282C51.3823 14.1108 58.9477 9.64693 66.3102 4.86422C67.1218 4.34247 67.6725 4.2845 68.5131 4.83523C73.6437 8.19762 78.8902 11.3571 84.3975 14.0818C89.0643 16.4007 93.818 18.5167 98.9776 19.5602C100.949 19.966 101.036 20.024 100.746 21.995C99.2384 31.6764 96.1659 40.807 91.3252 49.3289C90.0208 51.6478 88.5715 53.8508 87.0643 56.0537C86.4266 56.9813 86.5135 57.9088 87.4701 58.5755C88.4266 59.2712 89.2962 58.9813 89.9919 58.1117C90.3977 57.6189 90.7165 57.0972 91.0933 56.5754C98.7747 45.1549 103.239 32.546 104.833 18.8935C105.007 17.2993 104.427 16.4876 102.775 16.4297C99.2964 16.2847 96.05 15.1833 92.8615 13.9079C84.4845 10.5455 76.7742 5.99468 69.3248 0.980079C67.9914 0.0815099 67.0059 0.0815099 65.6725 0.980079C59.7014 5.00915 53.5273 8.71937 47.0054 11.7629C42.1937 14.0238 37.3241 16.1108 31.9037 16.4297C30.5413 16.5166 29.9616 17.3572 30.1355 18.8645C31.6718 31.7923 35.7009 43.7926 42.7155 54.7493Z" fill="#C7A57A"/>
    <path d="M78.34 28.6036C73.9051 33.0675 69.4413 37.4444 65.0644 41.9373C64.0788 42.9518 63.5281 43.1257 62.5136 41.9662C60.6585 39.8792 58.6005 37.9662 56.6004 35.9951C55.499 34.9226 54.3975 34.8357 53.5569 35.6473C52.6583 36.5169 52.7163 37.7343 53.7888 38.8068C56.5135 41.5604 59.2382 44.2851 61.9629 47.0098C63.2962 48.3142 64.2528 48.3432 65.5571 47.0388C70.7457 41.8503 75.9342 36.6618 81.1227 31.4733C81.6154 30.9805 82.0212 30.4588 82.0212 29.7341C82.0212 28.8645 81.6154 28.2268 80.8328 27.908C79.8763 27.5601 79.0647 27.879 78.34 28.6036Z" fill="#C7A57A"/>
</svg>
