<svg width="29" height="28" viewBox="0 0 29 28" fill="none"
    xmlns="http://www.w3.org/2000/svg">
    <path d="M2 13.825C2 11.2512 2.00212 9.42138 2.18879 8.033C2.37158 6.6734 2.71469 5.8878 3.28873 5.31375C3.86277 4.73971 4.64837 4.3966 6.00798 4.21381C7.39635 4.02715 9.22615 4.02502 11.8 4.02502H17.2C19.7739 4.02502 21.6036 4.02715 22.992 4.21381C24.3516 4.3966 25.1372 4.73971 25.7113 5.31375C26.2853 5.8878 26.6284 6.6734 26.8112 8.033C26.9979 9.42138 27 11.2512 27 13.825V16.525C27 19.0989 26.9979 20.9287 26.8112 22.317C26.6284 23.6766 26.2853 24.4622 25.7113 25.0363C25.1372 25.6103 24.3516 25.9534 22.992 26.1362C21.6036 26.3229 19.7739 26.325 17.2 26.325H11.8C9.22615 26.325 7.39635 26.3229 6.00798 26.1362C4.64837 25.9534 3.86277 25.6103 3.28873 25.0363C2.71469 24.4622 2.37158 23.6766 2.18879 22.317C2.00212 20.9287 2 19.0989 2 16.525V13.825Z" stroke="#C7A57A" stroke-width="2"/>
    <path d="M7.75 3.025V1" stroke="#C7A57A" stroke-width="2" stroke-linecap="round"/>
    <path d="M21.25 3.025V1" stroke="#C7A57A" stroke-width="2" stroke-linecap="round"/>
    <path d="M1.6748 9.77502H27.3248" stroke="#C7A57A" stroke-width="2" stroke-linecap="round"/>
</svg>
