<svg width="32" height="32" viewBox="0 0 32 32" fill="none"
    xmlns="http://www.w3.org/2000/svg">
    <path d="M20.0879 3.38866L20.6447 2.55798L20.0879 3.38866C20.6748 3.78199 21.3339 4.05498 22.027 4.19182C22.3301 4.25168 22.6395 4.27633 23.0964 4.31273L23.1523 4.31719C24.4951 4.42434 24.9758 4.47102 25.357 4.60568C26.3091 4.94197 27.058 5.69087 27.3943 6.64298L28.3372 6.30993L27.3943 6.64298C27.529 7.02421 27.5757 7.50491 27.6828 8.84768L27.6873 8.90349C27.7237 9.36047 27.7483 9.66983 27.8082 9.97304L28.7892 9.77936L27.8082 9.97305C27.945 10.6661 28.218 11.3252 28.6113 11.9121C28.7834 12.1688 28.9847 12.4049 29.2821 12.7538L29.3185 12.7965C30.1922 13.8217 30.4991 14.1946 30.6734 14.5594C31.1089 15.4704 31.1089 16.5296 30.6734 17.4406C30.4991 17.8054 30.1922 18.1783 29.3185 19.2035L29.2821 19.2462C28.9847 19.595 28.7834 19.8312 28.6113 20.0879C28.218 20.6748 27.945 21.3339 27.8082 22.0269L28.7892 22.2206L27.8082 22.027C27.7483 22.3302 27.7237 22.6395 27.6873 23.0965L27.6828 23.1523C27.5757 24.4951 27.529 24.9758 27.3943 25.357C27.058 26.3091 26.3091 27.058 25.357 27.3943C24.9758 27.529 24.4951 27.5757 23.1523 27.6828L23.0965 27.6873C22.6395 27.7237 22.3302 27.7483 22.027 27.8082L22.2206 28.7892L22.0269 27.8082C21.3339 27.945 20.6748 28.218 20.0879 28.6113C19.8312 28.7834 19.595 28.9847 19.2462 29.2821L19.2035 29.3185C18.1783 30.1922 17.8054 30.4991 17.4406 30.6734C16.5296 31.1089 15.4704 31.1089 14.5594 30.6734C14.1946 30.4991 13.8217 30.1922 12.7965 29.3184L12.7538 29.2821C12.4049 28.9847 12.1688 28.7834 11.9121 28.6113C11.3252 28.218 10.6661 27.945 9.97305 27.8082L9.77936 28.7892L9.97304 27.8082C9.66983 27.7483 9.36047 27.7237 8.90349 27.6873L8.84768 27.6828C7.50491 27.5757 7.02421 27.529 6.64298 27.3943L6.30993 28.3372L6.64298 27.3943C5.69087 27.058 4.94197 26.3091 4.60568 25.357C4.47102 24.9758 4.42434 24.4951 4.31719 23.1523L4.31273 23.0964C4.27633 22.6395 4.25168 22.3301 4.19182 22.027C4.05498 21.3339 3.78199 20.6748 3.38866 20.0879L2.55798 20.6447L3.38866 20.0879C3.2166 19.8312 3.01529 19.5951 2.71796 19.2463L2.68155 19.2035C1.80784 18.1783 1.50094 17.8054 1.32658 17.4406C0.891139 16.5296 0.891139 15.4704 1.32658 14.5594C1.50094 14.1946 1.80784 13.8217 2.68155 12.7965L2.71792 12.7538C3.01527 12.405 3.21659 12.1688 3.38866 11.9121C3.78199 11.3252 4.05498 10.6661 4.19182 9.97305C4.25168 9.66985 4.27633 9.3605 4.31273 8.90358C4.3142 8.88519 4.31568 8.86656 4.31719 8.84768C4.42434 7.50491 4.47102 7.02421 4.60568 6.64298C4.94197 5.69087 5.69087 4.94197 6.64298 4.60568C7.02421 4.47102 7.50491 4.42434 8.84768 4.31719C8.86656 4.31568 8.88519 4.3142 8.90358 4.31273C9.3605 4.27633 9.66985 4.25168 9.97305 4.19182C10.6661 4.05498 11.3252 3.78199 11.9121 3.38866C12.1688 3.21659 12.405 3.01527 12.7538 2.71792C12.7678 2.70595 12.7821 2.69383 12.7965 2.68155C13.8217 1.80784 14.1946 1.50094 14.5594 1.32658C15.4704 0.891139 16.5296 0.891139 17.4406 1.32658C17.8054 1.50094 18.1783 1.80784 19.2035 2.68155L19.2462 2.71795C19.5951 3.01528 19.8312 3.21659 20.0879 3.38866Z" stroke="#C7A57A" stroke-width="2"/>
    <path d="M10.792 21.2095L21.2094 10.7921" stroke="#C7A57A" stroke-width="2" stroke-linecap="round"/>
    <path d="M21.077 20.3415C21.077 20.7481 20.7473 21.0777 20.3407 21.0777C19.9341 21.0777 19.6045 20.7481 19.6045 20.3415C19.6045 19.9348 19.9341 19.6052 20.3407 19.6052C20.7473 19.6052 21.077 19.9348 21.077 20.3415Z" fill="#1C274C" stroke="#C7A57A" stroke-width="2"/>
    <path d="M12.3963 11.6602C12.3963 12.0669 12.0667 12.3965 11.6601 12.3965C11.2535 12.3965 10.9238 12.0669 10.9238 11.6602C10.9238 11.2536 11.2535 10.924 11.6601 10.924C12.0667 10.924 12.3963 11.2536 12.3963 11.6602Z" fill="#1C274C" stroke="#C7A57A" stroke-width="2"/>
</svg>
