<svg width="24" height="29" viewBox="0 0 24 29" fill="none"
    xmlns="http://www.w3.org/2000/svg">
    <path d="M7.00024 14.4004C7.00024 16.0574 5.65704 17.4006 4.00012 17.4006C2.3432 17.4006 1 16.0574 1 14.4004C1 12.7435 2.3432 11.4003 4.00012 11.4003C5.65704 11.4003 7.00024 12.7435 7.00024 14.4004Z" stroke="#C7A57A" stroke-width="2"/>
    <path d="M16.0012 5.59998L8.00098 11.2001" stroke="#C7A57A" stroke-width="2" stroke-linecap="round"/>
    <path d="M16.0012 23.2L8.00098 17.5998" stroke="#C7A57A" stroke-width="2" stroke-linecap="round"/>
    <path d="M23.0002 24.8001C23.0002 26.457 21.657 27.8002 20.0001 27.8002C18.3432 27.8002 17 26.457 17 24.8001C17 23.1432 18.3432 21.8 20.0001 21.8C21.657 21.8 23.0002 23.1432 23.0002 24.8001Z" stroke="#C7A57A" stroke-width="2"/>
    <path d="M23.0002 4.00012C23.0002 5.65704 21.657 7.00024 20.0001 7.00024C18.3432 7.00024 17 5.65704 17 4.00012C17 2.3432 18.3432 1 20.0001 1C21.657 1 23.0002 2.3432 23.0002 4.00012Z" stroke="#C7A57A" stroke-width="2"/>
</svg>
