<svg width="44" height="32" viewBox="0 0 44 32" fill="none"
    xmlns="http://www.w3.org/2000/svg">
    <path d="M43.0937 5.5228C42.5863 3.63813 41.1003 2.15214 39.2156 1.64473C35.7725 0.702393 21.9999 0.702393 21.9999 0.702393C21.9999 0.702393 8.22731 0.702393 4.78416 1.60848C2.93574 2.1159 1.4135 3.63813 0.906092 5.5228C0 8.96595 0 16.106 0 16.106C0 16.106 0 23.2822 0.906092 26.6891C1.4135 28.5738 2.89949 30.0598 4.78416 30.5672C8.26356 31.5095 21.9999 31.5095 21.9999 31.5095C21.9999 31.5095 35.7725 31.5095 39.2156 30.6034C41.1003 30.096 42.5863 28.61 43.0937 26.7253C43.9998 23.2822 43.9998 16.1422 43.9998 16.1422C43.9998 16.1422 44.0361 8.96595 43.0937 5.5228Z" fill="#C7A57A"/>
</svg>
