<svg width="75" height="52" viewBox="0 0 75 52" fill="none"
    xmlns="http://www.w3.org/2000/svg">
    <g opacity="0.6">
        <path d="M73.0425 8.12227C72.1875 4.94664 69.6837 2.44279 66.508 1.58781C60.7064 0 37.5 0 37.5 0C37.5 0 14.2935 0 8.49186 1.52674C5.37731 2.38172 2.81238 4.94664 1.95741 8.12227C0.430664 13.9239 0.430664 25.9546 0.430664 25.9546C0.430664 25.9546 0.430664 38.0464 1.95741 43.787C2.81238 46.9626 5.31624 49.4664 8.49186 50.3214C14.3545 51.9092 37.5 51.9092 37.5 51.9092C37.5 51.9092 60.7064 51.9092 66.508 50.3825C69.6837 49.5275 72.1875 47.0237 73.0425 43.848C74.5693 38.0464 74.5693 26.0157 74.5693 26.0157C74.5693 26.0157 74.6303 13.9239 73.0425 8.12227Z" fill="#FF0000"/>
        <path d="M30 36L50 25L30 14V36Z" fill="white"/>
    </g>
</svg>
