<svg width="78" height="42" viewBox="0 0 78 42" fill="none"
    xmlns="http://www.w3.org/2000/svg">
    <path d="M72.0796 3.09685C70.6375 3.9166 69.1346 4.61491 67.7532 5.54093C66.0681 6.3455 64.4438 7.27152 62.8195 8.2279C62.2881 8.50115 61.7416 8.75922 61.2255 9.06283C59.6467 9.97367 57.9768 10.7175 56.474 11.765C56.4588 11.7953 56.4436 11.8257 56.4436 11.8561C56.4891 11.8712 56.5347 11.8864 56.5802 11.8864C59.085 11.8864 61.5898 11.9168 64.0946 11.9016C64.7019 11.9016 64.884 11.9775 64.5956 12.6303C62.5766 17.2604 61.7872 22.0878 62.1819 27.1126C62.5766 32.0918 64.0795 36.6916 66.7664 40.9118C66.8727 41.2458 67.1004 41.4886 67.3281 41.8074C67.4647 41.4431 67.2674 41.185 67.2522 40.8966C67.2067 40.7296 67.1308 40.5626 67.1308 40.3956C66.9031 37.2229 66.7664 34.0501 66.9486 30.8774C67.0549 30.2398 67.0397 29.587 67.1308 28.9494C67.6317 25.4579 68.33 22.0119 69.3623 18.6418C70.2124 15.8486 71.3358 13.1464 72.4136 10.4443C73.5825 8.03055 74.7666 5.60165 76.0873 3.26383C76.7097 2.17083 77.3625 1.07782 78.0001 0C75.9355 0.956379 73.9924 2.00384 72.0796 3.09685Z" fill="#E63D2B"/>
    <path d="M55.5926 25.0935C54.8032 24.3952 53.8316 24.0309 52.7841 23.7121C56.5793 22.1485 57.9152 17.7917 55.5167 14.6341C53.9531 12.5543 51.6608 11.9623 49.1712 11.9168C45.9377 11.9016 42.7042 11.9016 39.4707 11.8712C38.9394 11.8712 39.0001 12.1445 39.0001 12.4784C39.0001 17.4121 39.0001 22.3307 39.0001 27.2644C39.0001 30.346 39.0153 33.4277 39.0305 36.5094C39.0761 36.5549 39.1216 36.646 39.1823 36.6308C42.9623 36.5853 46.7726 36.8585 50.5374 36.4942C53.3003 36.2209 55.6381 35.0672 56.8526 32.3499C57.9911 29.7995 57.4598 26.733 55.5926 25.0935ZM44.7536 16.1522C46.135 16.1825 47.5317 15.9852 48.8979 16.2584C50.4312 16.562 51.1143 17.4273 51.1295 18.8543C51.1446 20.5242 50.5374 21.3439 48.989 21.7842C48.9283 21.7993 48.8676 21.8601 48.8068 21.9056C47.3495 21.9208 45.9073 21.9208 44.45 21.936C44.45 20.1902 44.4348 18.4596 44.45 16.7138C44.45 16.4861 44.3437 16.1522 44.7536 16.1522ZM51.2813 30.4827C50.7044 31.9248 49.4596 32.2588 48.1085 32.3499C47.0459 32.4106 45.9832 32.3499 44.9358 32.3802C44.4955 32.3954 44.45 32.1829 44.45 31.8337C44.4652 30.9077 44.45 29.9665 44.45 29.0405C44.45 28.1145 44.4652 27.1733 44.45 26.2473C44.4348 25.8677 44.5411 25.7159 44.951 25.7159C46.0591 25.7463 47.1673 25.6856 48.2755 25.7311C50.8714 25.8374 52.2528 28.0538 51.2813 30.4827Z" fill="#2E3F71"/>
    <path d="M30.7425 18.8391C29.9227 16.6227 29.2244 14.376 28.2529 12.2203C28.268 11.9471 28.1162 11.8864 27.8885 11.8864C25.9758 11.9015 24.0782 11.9167 22.1654 11.9319C21.9074 12.0685 21.9074 12.357 21.8315 12.5695C21.2091 14.2242 20.6018 15.8789 19.9794 17.5184C17.672 23.6665 15.3645 29.8147 13.0419 35.9476C12.8445 36.4486 12.8597 36.6459 13.4821 36.6308C14.9698 36.6004 16.4575 36.6156 17.9604 36.6308C18.3247 36.6308 18.4917 36.5245 18.598 36.1602C19.0079 34.8698 19.4785 33.5946 19.8883 32.2891C20.025 31.8489 20.2223 31.6515 20.7233 31.6515C23.5317 31.6819 26.3401 31.6819 29.1333 31.6515C29.6191 31.6515 29.7861 31.8337 29.9075 32.2587C30.2871 33.5339 30.7425 34.7939 31.122 36.0691C31.2434 36.479 31.4256 36.6308 31.8658 36.6156C33.4143 36.5852 34.9475 36.5852 36.4959 36.6156C37.1335 36.6308 37.255 36.5245 37.0121 35.8869C34.902 30.2245 32.8526 24.5166 30.7425 18.8391ZM21.5582 27.2643C22.6968 23.8487 23.8049 20.4634 24.9435 17.0326C26.0517 20.4634 27.1295 23.8335 28.2377 27.2643C25.9909 27.2643 23.8049 27.2643 21.5582 27.2643Z" fill="#2E3F71"/>
    <path d="M13.7101 26.2169C13.8619 26.2169 14.0896 26.2928 14.12 26.0196C14.1351 24.9114 14.12 23.8032 14.1807 22.695C14.211 22.1789 14.0289 22.0726 13.5431 22.0726C11.1142 22.103 8.70049 22.0574 6.27159 22.103C5.61882 22.1181 5.48219 21.9056 5.49737 21.2984C5.54292 19.917 5.54292 18.5203 5.49737 17.1389C5.46701 16.4861 5.69472 16.3495 6.30195 16.3495C9.20145 16.3647 12.1161 16.3343 15.0156 16.3192C15.3344 16.2129 15.1826 15.9396 15.1826 15.7423C15.1978 14.6796 15.1674 13.617 15.1978 12.5695C15.213 12.0382 15.1219 11.856 14.5147 11.856C9.9453 11.8864 5.37593 11.8712 0.806563 11.8712C0.578854 11.8712 0.366325 11.9168 0.138616 11.932C-0.0890933 12.2204 0.0323516 12.5544 0.0323516 12.8732C0.0323516 20.509 0.0475322 28.1449 0.017171 35.7807C0.017171 36.5094 0.2297 36.6612 0.897647 36.646C2.2639 36.6005 3.63016 36.6156 4.99641 36.646C5.48219 36.6612 5.57328 36.4487 5.46701 36.054C5.48219 33.0634 5.49738 30.0728 5.51256 27.0822C5.51256 26.7938 5.43665 26.475 5.634 26.2017C8.33615 26.2017 11.0231 26.2169 13.7101 26.2169Z" fill="#2E3F71"/>
</svg>
