<?xml version="1.0" encoding="UTF-8"?>
<svg id="Layer_1" data-name="Layer 1" xmlns="http://www.w3.org/2000/svg" xmlns:xlink="http://www.w3.org/1999/xlink" viewBox="0 0 3034.8 3758.32">
  <defs>
    <style>
      .cls-1 {
        fill: url(#linear-gradient);
        stroke-width: 0px;
      }
    </style>
    <linearGradient id="linear-gradient" x1="126.56" y1="1865.47" x2="2907.59" y2="1865.47" gradientUnits="userSpaceOnUse">
      <stop offset="0" stop-color="#977858"/>
      <stop offset=".44" stop-color="#c7a57a"/>
      <stop offset=".94" stop-color="#977858"/>
    </linearGradient>
  </defs>
  <path class="cls-1" d="M1114.33,1499.77h97.64v1477.54h-444.22v-1134.44h181.05v957.51h82.13v-1119.56h-263.93v-531.18h.84l-.08-.13,449.15-293.83,1.33,210.46-268.68,171.68v261.94h164.77ZM1730.05,2977.32h-444.22V453.74l-.75-.41h.75v-.04h.06l-.06-.09,443.66-296.88.56,2821ZM1549,485.9l-81.37,59.03-.75-.41v2255.86h82.13V485.9ZM1992.69,2977.32h-185l.77-180.25-.77-1725.98,1.33-209.97,443.66,282.88-.06.09h.06v.04h.75s-.75.41-.75.41v1652.52h-78.75s-102.3,0-102.3,0h-78.82s-.13,180.25-.13,180.25ZM1989.51,2616.01h82.13s0-1377.94,0-1377.94l-.75.41-81.37-49.82v1427.35ZM271.71,3485.65c91.11,0,145.14-55.72,145.14-156.42v-191.61h-73.26v188.68c0,65.01-26.1,91.89-71.43,91.89s-71.43-26.88-71.43-91.89v-188.68h-74.17v191.61c0,100.69,54.03,156.42,145.14,156.42ZM722.69,3479.79h77.84l-143.31-342.16h-73.26l-142.85,342.16h76l28.39-73.32h148.8l28.39,73.32ZM569.31,3346.34l50.82-131,50.82,131h-101.64ZM907.67,3416.24v-79.19h148.8v-61.59h-148.8v-74.3h168.49v-63.54h-242.21v342.16h248.16v-63.54h-174.44ZM1270.75,3574.61h65.47v-457.52h-65.47v457.52ZM1541.8,3479.79h74.17v-342.16h-74.17v342.16ZM1912.67,3137.63v207.74l-159.33-207.74h-61.35v342.16h73.26v-207.74l159.79,207.74h60.89v-342.16h-73.26ZM2061.93,3479.79h145.6c104.85,0,176.73-67.45,176.73-171.08s-71.88-171.08-176.73-171.08h-145.6v342.16ZM2136.1,3414.78v-212.14h67.76c63.64,0,105.31,40.57,105.31,106.07s-41.67,106.07-105.31,106.07h-67.76ZM2440.12,3479.79h74.17v-342.16h-74.17v342.16ZM2829.76,3479.79h77.84l-143.31-342.16h-73.26l-142.85,342.16h76l28.39-73.32h148.8l28.39,73.32ZM2676.38,3346.34l50.82-131,50.82,131h-101.64Z"/>
</svg>