<svg width="22" height="22" viewBox="0 0 22 22" fill="none"
    xmlns="http://www.w3.org/2000/svg">
    <path fill-rule="evenodd" clip-rule="evenodd" d="M9.9883 1.54888C9.37426 1.63003 8.61602 1.8042 7.5374 2.05311L6.30922 2.33654C5.3982 2.54677 4.77082 2.69252 4.29162 2.85698C3.82899 3.01576 3.56727 3.17228 3.36978 3.36978C3.17228 3.56727 3.01576 3.82899 2.85698 4.29162C2.69252 4.77082 2.54677 5.3982 2.33654 6.30922L2.05311 7.5374C1.8042 8.61602 1.63003 9.37426 1.54888 9.9883C1.46982 10.5865 1.48805 10.9913 1.59358 11.3592C1.69911 11.7272 1.89817 12.0801 2.28226 12.5454C2.67651 13.0231 3.22607 13.5738 4.00882 14.3566L5.83845 16.1862C7.19794 17.5457 8.16533 18.5108 8.99701 19.1454C9.81138 19.7667 10.4069 20 11.0123 20C11.6178 20 12.2133 19.7667 13.0276 19.1454C13.8593 18.5108 14.8267 17.5457 16.1862 16.1862C17.5457 14.8267 18.5108 13.8593 19.1454 13.0276C19.7667 12.2133 20 11.6178 20 11.0123C20 10.4069 19.7667 9.81138 19.1454 8.99701C18.5108 8.16533 17.5457 7.19794 16.1862 5.83845L14.3566 4.00882C13.5738 3.22607 13.0231 2.67651 12.5454 2.28226C12.0801 1.89817 11.7272 1.69911 11.3592 1.59358C10.9913 1.48805 10.5865 1.46982 9.9883 1.54888ZM9.79178 0.0618095C10.5091 -0.0329875 11.1381 -0.0303122 11.7727 0.151705C12.4074 0.333722 12.9422 0.664817 13.5002 1.12538C14.0397 1.57061 14.6405 2.1714 15.391 2.92197L17.2868 4.81774C18.5974 6.12835 19.6351 7.16598 20.3379 8.08714C21.061 9.03494 21.5 9.94704 21.5 11.0123C21.5 12.0776 21.061 12.9897 20.3379 13.9375C19.6351 14.8587 18.5974 15.8963 17.2868 17.2069L17.2069 17.2868C15.8963 18.5974 14.8587 19.6351 13.9375 20.3379C12.9897 21.061 12.0776 21.5 11.0123 21.5C9.94704 21.5 9.03494 21.061 8.08714 20.3379C7.16598 19.6351 6.12833 18.5974 4.81771 17.2868L2.92196 15.391C2.1714 14.6405 1.57061 14.0397 1.12538 13.5002C0.664817 12.9422 0.333722 12.4074 0.151705 11.7727C-0.0303122 11.1381 -0.0329874 10.5091 0.0618095 9.79178C0.153449 9.09835 0.344505 8.27048 0.583188 7.23622L0.883852 5.93334C1.08302 5.07023 1.24543 4.36639 1.43821 3.80469C1.63955 3.21806 1.89313 2.7251 2.30912 2.30912C2.7251 1.89313 3.21806 1.63955 3.80469 1.43821C4.36639 1.24543 5.07023 1.08302 5.93335 0.883852L7.23622 0.583189C8.27047 0.344506 9.09835 0.15345 9.79178 0.0618095ZM8.24094 6.74514C7.75278 6.25699 6.96133 6.25699 6.47317 6.74514C5.98502 7.2333 5.98502 8.02476 6.47317 8.51291C6.96133 9.00107 7.75278 9.00107 8.24094 8.51291C8.72909 8.02476 8.72909 7.2333 8.24094 6.74514ZM5.41251 5.68448C6.48645 4.61054 8.22766 4.61054 9.3016 5.68448C10.3755 6.75843 10.3755 8.49963 9.3016 9.57357C8.22766 10.6475 6.48645 10.6475 5.41251 9.57357C4.33857 8.49963 4.33857 6.75843 5.41251 5.68448ZM17.8011 9.74017C18.094 10.0331 18.094 10.5079 17.8011 10.8008L10.8221 17.7801C10.5292 18.073 10.0543 18.073 9.76143 17.7801C9.46853 17.4872 9.46852 17.0123 9.76141 16.7194L16.7404 9.74019C17.0333 9.44729 17.5082 9.44728 17.8011 9.74017Z" fill="#C7A57A"/>
</svg>
