<svg width="22" height="20" viewBox="0 0 22 20" fill="none"
    xmlns="http://www.w3.org/2000/svg">
    <path fill-rule="evenodd" clip-rule="evenodd" d="M0.738415 0.703251C1.42298 0.0497106 2.50611 -0.236866 3.55379 0.230348L20.0635 7.59285C21.98 8.4475 21.98 11.0532 20.0635 11.9079L3.55379 19.2704C2.50611 19.7376 1.42298 19.451 0.738415 18.7975C0.0480797 18.1384 -0.270718 17.0622 0.280252 16.0302L3.43228 10.1265L4.09389 10.4798L3.43228 10.1265C3.55958 9.8881 3.55958 9.61263 3.43228 9.37421L0.280253 3.47049C-0.270719 2.43853 0.0480785 1.3623 0.738415 0.703251ZM1.7742 1.78821C1.50003 2.04996 1.41351 2.40823 1.60347 2.76402L0.94186 3.11725L1.60347 2.76402L4.7555 8.66773C5.1185 9.34764 5.11851 10.1531 4.7555 10.833L1.60347 16.7367C1.41351 17.0925 1.50003 17.4508 1.7742 17.7125C2.05415 17.9798 2.49472 18.1003 2.94287 17.9004L19.4526 10.5379C20.1836 10.2119 20.1836 9.28881 19.4526 8.9628L2.94287 1.6003C2.49472 1.40045 2.05414 1.52096 1.7742 1.78821Z" fill="#C7A57A"/>
</svg>
