<svg width="20" height="22" viewBox="0 0 20 22" fill="none"
    xmlns="http://www.w3.org/2000/svg">
    <path d="M16.4703 21.5203C14.0026 21.5134 11.4518 21.5065 8.89398 21.5065C6.34659 21.5065 3.70563 21.5099 1.0508 21.5169H1.04387C0.860179 21.5169 0.745806 21.4892 0.683421 21.4268C0.61757 21.3609 0.59331 21.25 0.59331 21.0282C0.607173 13.5281 0.607173 7.79565 0.589844 2.44094C0.589844 2.2226 0.624502 2.08396 0.697285 2.00771C0.763135 1.94186 0.870576 1.91414 1.05427 1.91414C1.09239 1.91414 1.13398 1.91414 1.18597 1.9176C1.25182 1.92107 1.31767 1.92453 1.38352 1.93147C1.48749 1.9384 1.5984 1.9488 1.69891 1.9488C1.87567 1.9488 2.09401 1.928 2.25344 1.76511C2.39901 1.61608 2.46832 1.37 2.46139 1.01649C2.45793 0.884785 2.49605 0.78081 2.57577 0.701096C2.77332 0.500078 3.18922 0.475817 3.53234 0.475817H3.5462C3.89278 0.475817 4.47504 0.57286 4.49237 1.22097C4.5097 1.83442 4.75577 1.94186 5.26872 1.94533H5.28258C5.79899 1.94533 5.96535 1.77204 5.97575 1.2279C5.98268 0.711493 6.2946 0.479283 6.98084 0.472351H7.00856C7.72946 0.472351 8.03792 0.704562 8.04485 1.2487C8.04831 1.76511 8.22161 1.94186 8.72415 1.94186C8.74148 1.94186 8.75881 1.94186 8.77267 1.94186C9.21977 1.93493 9.53169 1.87948 9.52476 1.26603C9.51783 0.742686 9.82629 0.48968 10.4952 0.472351C10.5264 0.472351 10.5541 0.472351 10.5853 0.472351C11.2646 0.472351 11.5731 0.704562 11.5904 1.22097C11.6112 1.82403 11.8607 1.93493 12.3806 1.94533C12.391 1.94533 12.4049 1.94533 12.4153 1.94533C12.9213 1.94533 13.0946 1.76511 13.1015 1.23137C13.1084 0.728823 13.41 0.486214 14.0234 0.479283H14.0719C14.7096 0.479283 15.1394 0.597121 15.1533 1.18285C15.1671 1.70619 15.3682 1.95226 15.791 1.95226C15.8776 1.95226 15.9747 1.94186 16.089 1.92453C16.2103 1.90374 16.3143 1.89334 16.4044 1.89334C16.5916 1.89334 16.7268 1.9384 16.8134 2.02851C16.9382 2.15675 16.9902 2.39589 16.9798 2.79446C16.9416 4.24318 16.9451 5.71615 16.952 7.14061C16.9555 7.95162 16.959 8.79035 16.952 9.61521C16.9486 10.0727 17.0595 10.4158 17.3194 10.7693C18.1547 11.8992 18.3418 13.1157 17.8739 14.3842C17.7215 14.8001 17.7838 15.0566 18.12 15.3616C18.5429 15.7428 18.9449 16.1656 19.3331 16.5711C19.4058 16.6474 19.4752 16.7202 19.5479 16.793C20.1094 17.3787 20.1614 18.1412 19.6727 18.6472C19.4232 18.9036 19.1216 19.0423 18.7959 19.0423C18.4666 19.0423 18.127 18.9036 17.8116 18.6437C17.7526 18.5952 17.6972 18.5328 17.6417 18.4704C17.5031 18.3145 17.3437 18.1342 17.0456 18.0753L16.9624 18.058V18.1412C16.9624 18.4254 16.9624 18.7096 16.959 18.9834C16.9555 19.6731 16.952 20.3212 16.9694 20.9831C16.9763 21.2188 16.9486 21.3436 16.8793 21.4198C16.8099 21.4926 16.6817 21.5238 16.4807 21.5238H16.4703V21.5203ZM1.73357 2.50679C1.53602 2.50679 1.40431 2.54838 1.3142 2.6385C1.18597 2.76673 1.17904 2.96428 1.17904 3.1757C1.18597 8.23928 1.1929 14.2282 1.17557 20.2241C1.17557 20.5083 1.22063 20.6781 1.32807 20.7856C1.42858 20.8861 1.58454 20.9312 1.83061 20.9312C1.84794 20.9312 1.86527 20.9312 1.8826 20.9312C2.40594 20.9173 2.97434 20.9138 3.67443 20.9138C4.06607 20.9138 4.46464 20.9138 4.84935 20.9173C5.23406 20.9173 5.62916 20.9208 6.0208 20.9208H10.4952C11.8919 20.9208 13.7323 20.9208 15.6004 20.9173C15.6489 20.9173 15.7009 20.9208 15.7529 20.9242C15.8048 20.9277 15.8603 20.9312 15.9123 20.9312C16.0232 20.9312 16.1618 20.9173 16.2589 20.8168C16.3455 20.7267 16.3836 20.5846 16.3767 20.3801C16.3628 19.9157 16.3663 19.4408 16.3698 18.9834C16.3732 18.5085 16.3767 18.0199 16.3594 17.5381C16.3421 17.0356 16.1168 16.7583 15.7286 16.7583C15.6177 16.7583 15.4929 16.7791 15.3612 16.8241C14.9834 16.9489 14.6161 17.0113 14.266 17.0113C14.0199 17.0113 13.7808 16.9801 13.559 16.9177C12.8416 16.7167 12.1276 16.7028 11.4587 16.7028C11.3616 16.7028 11.2646 16.7028 11.1676 16.7028C11.0705 16.7028 10.9735 16.7028 10.8764 16.7028C10.7967 16.7028 10.7205 16.7028 10.6408 16.7028C10.1521 16.6994 9.7743 16.6959 9.42078 16.6959C8.97716 16.6959 8.58205 16.6994 8.20428 16.7063C8.19388 16.7063 8.18348 16.7063 8.17655 16.7063C7.87849 16.7063 7.79184 16.6197 7.78491 16.3216C7.78145 16.2142 7.80224 16.1379 7.84036 16.0998C7.87156 16.0686 7.91661 16.0547 7.99286 16.0547C8.02405 16.0547 8.05871 16.0582 8.09337 16.0582C8.12803 16.0617 8.16615 16.0617 8.20081 16.0617H8.20774C8.48501 16.0617 8.76574 16.0617 9.04301 16.0617C9.32027 16.0617 9.60101 16.0617 9.87827 16.0617C10.5195 16.0617 11.0116 16.0582 11.4726 16.0547V15.9161C11.483 15.9161 11.4899 15.9196 11.4899 15.9196C11.4587 15.9022 11.3894 15.8052 11.2785 15.6319C11.2611 15.6076 11.2507 15.5868 11.2438 15.5764C11.1641 15.4586 11.0844 15.3338 11.0081 15.1987C10.8452 14.9075 10.6893 14.606 10.5437 14.3045C10.4536 14.1139 10.2872 13.7014 10.3011 13.6286C10.2976 13.639 10.2803 13.6633 10.256 13.6633V13.5247C10.1659 13.5247 10.0724 13.5316 9.97878 13.5351C9.88174 13.542 9.78123 13.5455 9.68765 13.5455C9.58368 13.5455 9.49703 13.5385 9.42078 13.5247C9.27175 13.4969 9.10886 13.4831 8.93903 13.4831C8.77267 13.4831 8.59245 13.4969 8.40529 13.5247H7.87849C7.82304 13.4692 7.79184 13.3687 7.79184 13.2301C7.79184 13.1261 7.80917 13.0533 7.8473 13.0117C7.88195 12.9771 7.93741 12.9632 8.03445 12.9632C8.06218 12.9632 8.0899 12.9632 8.11763 12.9667C8.14882 12.9667 8.17655 12.9701 8.20428 12.9701C8.20428 12.9701 8.3845 12.9667 8.47115 12.9667C8.70336 12.9632 8.9425 12.9597 9.17471 12.9597C9.45891 12.9597 9.69458 12.9632 9.9164 12.9736C9.93026 12.9736 9.94413 12.9736 9.95799 12.9736C10.3462 12.9736 10.3635 12.7033 10.3774 12.5057C10.3808 12.4607 10.3843 12.4121 10.3912 12.3706C10.412 12.2388 10.3947 12.1418 10.3392 12.076C10.2734 11.9997 10.1659 11.9893 10.0828 11.9893C10.055 11.9893 10.0238 11.9893 9.99611 11.9928C9.96838 11.9928 9.94413 11.9962 9.91986 11.9962H9.83668C9.53516 11.9928 9.21977 11.9893 8.91131 11.9893C8.62018 11.9893 8.36024 11.9928 8.1211 11.9997C8.1107 11.9997 8.10377 11.9997 8.09684 11.9997C7.8473 11.9997 7.79877 11.8992 7.79531 11.6185C7.79184 11.5214 7.80917 11.4556 7.8473 11.4174C7.89928 11.3655 8.00326 11.3585 8.1211 11.3585H8.14536C8.25626 11.3585 8.37064 11.3585 8.48154 11.3585C8.61671 11.3585 9.15738 11.3585 9.29255 11.3585C9.55595 11.3585 9.906 11.3585 10.2526 11.362H10.2734C10.5333 11.362 10.7309 11.3135 10.9284 11.0778C12.0306 9.74692 12.9074 9.22704 14.0511 9.22704C14.6577 9.22704 15.3647 9.37954 16.2797 9.70186L16.3732 9.73305V8.05212C16.3732 6.39892 16.3732 4.8393 16.3732 3.24502C16.3732 3.20343 16.3767 3.16184 16.3767 3.12025C16.3836 2.94695 16.3906 2.76673 16.2727 2.64543C16.1896 2.55878 16.0544 2.51373 15.8638 2.51026H15.8395C15.3612 2.51026 15.1914 2.67315 15.1741 3.15837C15.1567 3.69904 14.8379 3.94165 14.1412 3.94165H14.1101C13.4238 3.93472 13.1119 3.70251 13.1084 3.19303C13.1015 2.62463 12.8624 2.52066 12.3563 2.51026C12.339 2.51026 12.3182 2.51026 12.3009 2.51026C11.8607 2.51026 11.6181 2.6177 11.5973 3.1861C11.58 3.70251 11.2715 3.94511 10.6269 3.94511C10.6165 3.94511 10.6061 3.94511 10.5922 3.94511C9.97532 3.93818 9.56288 3.81341 9.53862 3.24502C9.51436 2.68009 9.33067 2.50679 8.75534 2.50679C8.18695 2.50679 8.07258 2.73554 8.04138 3.22076C8.01019 3.7233 7.68787 3.94858 7.0051 3.94858C6.3258 3.94858 6.00001 3.7129 5.98268 3.21036C5.96535 2.68702 5.79552 2.51026 5.31377 2.51026C5.29644 2.51026 5.27565 2.51026 5.25485 2.51026C4.8043 2.52066 4.52356 2.55878 4.4993 3.16877C4.47504 3.70251 4.15272 3.94858 3.48035 3.94858C3.43529 3.94858 3.39024 3.94858 3.34171 3.94511C2.69014 3.91392 2.39208 3.65398 2.40594 3.11678C2.41287 2.89843 2.37128 2.75287 2.28117 2.65929C2.17026 2.54145 2.00044 2.51719 1.7613 2.51026C1.75436 2.50679 1.74397 2.50679 1.73357 2.50679ZM17.3714 15.4794C16.8862 15.9438 16.6644 16.1552 16.6609 16.3944C16.6574 16.6231 16.8585 16.8241 17.257 17.2227C17.3471 17.3128 17.4373 17.4029 17.5239 17.4896C17.7353 17.701 17.9571 17.9228 18.172 18.1377C18.3661 18.3318 18.5602 18.4323 18.7508 18.4323C18.9033 18.4323 19.0523 18.3664 19.1944 18.2382C19.34 18.1065 19.4162 17.9609 19.4232 17.8084C19.4301 17.6248 19.3365 17.4341 19.139 17.2296C18.7439 16.8172 18.3418 16.3944 17.9571 15.9889C17.7942 15.8191 17.4269 15.4309 17.4269 15.4309L17.3714 15.4794ZM14.2279 9.80584C13.3718 9.80584 12.5227 10.1697 11.8989 10.8005C11.275 11.4348 10.9284 12.2874 10.9423 13.1469C10.9735 14.9318 12.4465 16.384 14.2244 16.384H14.2452C16.044 16.3736 17.5031 14.9006 17.4996 13.1018C17.4962 11.2927 16.0336 9.81623 14.2418 9.80584H14.2279ZM10.5472 1.06501C10.3808 1.06501 10.2664 1.09967 10.1902 1.17938C10.1209 1.25216 10.0862 1.35614 10.0897 1.49824C10.0932 1.6542 10.0897 1.81363 10.0897 1.96612C10.0897 2.02504 10.0897 2.08396 10.0897 2.14288C10.0897 2.2122 10.0897 2.28152 10.0897 2.35083C10.0932 2.49293 10.0932 2.64196 10.0862 2.78406C10.0758 2.99894 10.1105 3.14104 10.1971 3.23462C10.2768 3.3178 10.3947 3.35939 10.5576 3.35939C10.5714 3.35939 10.5853 3.35939 10.5992 3.35939C11.0393 3.34206 11.0359 3.01281 11.0324 2.79792C11.0289 2.44441 11.0255 1.97652 11.0359 1.50863C11.0393 1.36654 11.0081 1.26256 10.9388 1.18978C10.8626 1.11006 10.7482 1.07541 10.568 1.07194C10.561 1.06501 10.5541 1.06501 10.5472 1.06501ZM3.45609 1.05808C3.29319 1.05808 3.17535 1.09967 3.09911 1.17591C2.9778 1.29722 2.98127 1.48784 2.98127 1.67153C2.98473 2.03198 2.9882 2.45827 2.98473 2.88804C2.98473 3.044 3.01939 3.1549 3.09564 3.23462C3.17189 3.31433 3.28626 3.35246 3.44222 3.35246H3.45262C3.61205 3.35246 3.72642 3.31433 3.80267 3.23462C3.87545 3.15837 3.91011 3.04746 3.90318 2.89497C3.89625 2.72514 3.89971 2.55532 3.89971 2.38549C3.89971 2.31271 3.89971 2.23993 3.89971 2.16714C3.89971 2.11862 3.89971 2.07357 3.89971 2.02504C3.89971 1.91067 3.89971 1.7963 3.89971 1.67846C3.89971 1.64727 3.89971 1.61261 3.89971 1.57795C3.90318 1.42545 3.90318 1.26949 3.7992 1.16205C3.72642 1.08927 3.61552 1.05461 3.46302 1.05461L3.45609 1.05808ZM14.1205 1.07194C14.0927 1.07194 14.0615 1.07541 14.0303 1.07887C13.8674 1.10313 13.7253 1.20018 13.656 1.33881C13.6526 1.34921 13.6456 1.3596 13.6422 1.36654C13.5867 1.5017 13.5971 1.6542 13.6075 1.78937V1.8067C13.6283 2.10129 13.6283 2.39935 13.6075 2.69395C13.5971 2.84298 13.5832 3.01281 13.6803 3.14451C13.7635 3.26235 13.9194 3.32473 14.1135 3.32473C14.1274 3.32473 14.1447 3.32473 14.1586 3.32473C14.3423 3.31433 14.474 3.25888 14.5537 3.15837C14.6473 3.04053 14.6473 2.88457 14.6473 2.7702L14.6542 1.81016C14.6577 1.55716 14.5849 1.33881 14.4566 1.21057C14.3735 1.117 14.2556 1.07194 14.1205 1.07194ZM7.04669 1.05808C7.02936 1.05808 7.01203 1.05808 6.99817 1.05808C6.81101 1.07194 6.64119 1.17245 6.55454 1.31801C6.53721 1.34921 6.51988 1.38386 6.50948 1.41852C6.4679 1.54676 6.4679 1.68539 6.47136 1.79976L6.48869 2.96082C6.48869 3.00587 6.48869 3.06479 6.51642 3.12025C6.57187 3.22769 6.70011 3.26235 6.74516 3.27274C6.84221 3.297 6.94271 3.31087 7.04669 3.31087C7.12987 3.31087 7.21305 3.30394 7.29623 3.28661C7.54577 3.23462 7.53537 2.87417 7.53191 2.63503C7.53191 2.58651 7.52844 2.54145 7.53191 2.51026C7.53884 2.36123 7.5423 2.20873 7.54577 2.06317C7.54923 1.92107 7.5527 1.77204 7.55617 1.62647C7.55617 1.61261 7.55617 1.59875 7.55963 1.58142C7.56656 1.46011 7.57696 1.29029 7.48685 1.19671C7.38634 1.0962 7.18879 1.05808 7.04669 1.05808Z" fill="#C7A57A"/>
    <path d="M13.6668 8.7314C13.6564 8.7314 13.6425 8.7314 13.6286 8.7314C13.2786 8.72447 12.9008 8.721 12.4399 8.721C12.1695 8.721 11.9027 8.721 11.6323 8.72447C11.3793 8.72447 11.1263 8.72794 10.8733 8.72794H10.8144C10.5718 8.72794 10.3326 8.72794 10.09 8.72794C9.84742 8.72794 9.60828 8.72794 9.36567 8.72794C8.90818 8.72794 8.53734 8.7314 8.19769 8.73487C8.19075 8.73487 8.18036 8.73487 8.17342 8.73487C8.01053 8.73487 7.91695 8.71061 7.85803 8.65169C7.80258 8.59623 7.77832 8.49919 7.77832 8.35363C7.78179 8.11448 7.87536 8.09369 8.00013 8.09369C8.03133 8.09369 8.06598 8.09715 8.10064 8.09715C8.1353 8.10062 8.17342 8.10062 8.20808 8.10062C9.09187 8.09715 10.0242 8.09715 11.2372 8.09715C11.8021 8.09715 12.3636 8.09715 12.9285 8.09715H13.6425C13.6702 8.09715 13.698 8.09715 13.7257 8.09715C13.7499 8.09715 13.7777 8.09715 13.8019 8.09715C13.9059 8.09715 13.9648 8.11102 13.9995 8.14914C14.0376 8.18727 14.0584 8.26351 14.0584 8.37096C14.0584 8.67941 13.9406 8.7314 13.6668 8.7314Z" fill="#C7A57A"/>
    <path d="M4.20903 9.14031C4.06693 8.97395 3.9283 8.81452 3.79313 8.65856C3.43268 8.24266 3.09303 7.85102 2.74645 7.46978C2.63207 7.34847 2.59048 7.27222 2.59395 7.20637C2.59741 7.14399 2.64594 7.07121 2.74298 6.98456C2.82616 6.91178 2.89201 6.87712 2.94746 6.87712C3.02718 6.87712 3.09649 6.94644 3.19007 7.03655C3.20394 7.05041 3.2178 7.06427 3.23513 7.07814C3.3391 7.17865 3.43268 7.31728 3.52279 7.45245C3.70648 7.72971 3.8971 8.01391 4.20556 8.01391C4.23675 8.01391 4.26795 8.01045 4.29914 8.00698C4.57641 7.95846 4.79475 7.65693 5.00617 7.36927C5.09282 7.24796 5.18639 7.12666 5.2765 7.02268C5.48792 6.79047 5.69587 6.5548 5.87263 6.35725L5.90382 6.32259C6.00086 6.21168 6.08058 6.1181 6.17762 6.1181C6.24347 6.1181 6.31972 6.15969 6.4133 6.24634C6.62818 6.44389 6.54847 6.53054 6.39597 6.70036C6.38557 6.71423 6.37171 6.72462 6.36131 6.73849C5.83797 7.32421 5.31463 7.90647 4.77742 8.50953L4.20903 9.14031Z" fill="#C7A57A"/>
    <path d="M8.12723 7.14056C7.86036 7.14056 7.78411 7.06432 7.78064 6.79051C7.77718 6.67268 7.79797 6.59296 7.84303 6.54791C7.89502 6.49245 7.99206 6.48206 8.12723 6.48206C8.14109 6.48206 8.15496 6.48206 8.16882 6.48206C8.43569 6.48552 8.72682 6.48552 9.09073 6.48552C9.27442 6.48552 9.45464 6.48552 9.63833 6.48552C9.82202 6.48552 10.0022 6.48552 10.1859 6.48552H10.2726C10.4597 6.48552 10.6504 6.48552 10.8375 6.48552C11.0559 6.48552 11.2777 6.48552 11.496 6.48552C11.8357 6.48552 12.1164 6.48552 12.3763 6.48206H12.3937C12.4179 6.48206 12.4422 6.48206 12.463 6.48206C12.6016 6.48206 12.6987 6.49245 12.7541 6.55137C12.7992 6.59989 12.82 6.68654 12.8165 6.81478C12.8061 7.08858 12.7091 7.1371 12.4387 7.1371H12.4283C11.6485 7.13363 10.9519 7.13017 10.3003 7.13017C9.53089 7.13017 8.82386 7.13363 8.14109 7.1371L8.12723 7.14056Z" fill="#C7A57A"/>
    <path d="M4.19797 13.9198C4.12519 13.9198 4.03854 13.854 3.93804 13.7223C3.57759 13.2509 3.17209 12.8038 2.77698 12.3706L2.71806 12.3047C2.55517 12.128 2.52051 12.0552 2.70766 11.8819C2.80471 11.7918 2.87749 11.7502 2.93988 11.7502C3.00573 11.7502 3.07851 11.7953 3.19981 11.9062C3.31072 12.0067 3.40776 12.1557 3.50134 12.2943C3.6885 12.5751 3.87912 12.8662 4.19797 12.8662C4.23956 12.8662 4.28115 12.8627 4.32274 12.8523C4.61734 12.783 4.84608 12.4711 5.06443 12.173C5.15801 12.0448 5.25159 11.9131 5.3521 11.8057L5.42488 11.7259C5.6155 11.5145 5.81305 11.2996 6.00367 11.0813C6.07299 11.0016 6.12844 10.9669 6.18043 10.9669C6.21855 10.9669 6.26361 10.9877 6.30867 11.0328C6.33293 11.057 6.36065 11.0778 6.38838 11.0986C6.48196 11.1714 6.55474 11.2338 6.55474 11.362C6.53741 11.3828 6.52008 11.4036 6.50275 11.4244C6.45076 11.4903 6.39185 11.563 6.33293 11.6289C6.13191 11.8542 5.93436 12.076 5.73334 12.3013C5.32784 12.7518 4.90847 13.2197 4.50643 13.6876C4.3782 13.8332 4.28808 13.9198 4.19797 13.9198Z" fill="#C7A57A"/>
    <path d="M4.19574 18.6263C4.14028 18.6263 4.07097 18.5778 3.99125 18.4739C3.71399 18.1273 3.41939 17.7911 3.13173 17.4653C3.00003 17.3163 2.86139 17.1603 2.72969 17.0043C2.71236 16.9835 2.6881 16.9628 2.67077 16.942C2.56333 16.8345 2.53214 16.786 2.60492 16.6959C2.67077 16.6162 2.75049 16.5503 2.8406 16.4775C2.87179 16.4533 2.89952 16.429 2.93071 16.4013C3.24957 16.5711 3.46098 16.8761 3.64467 17.1464C3.84569 17.441 4.02245 17.5762 4.20614 17.5762C4.39329 17.5762 4.57005 17.441 4.79879 17.1291C5.00674 16.8449 5.25282 16.585 5.49542 16.332C5.65485 16.1621 5.82121 15.9889 5.97371 15.8086C6.07768 15.6873 6.1366 15.6735 6.17126 15.6735C6.22671 15.6735 6.29257 15.7116 6.38961 15.8017C6.5629 15.9646 6.59063 16.0374 6.4208 16.2245C5.71377 16.9905 5.02407 17.7772 4.43488 18.4531C4.3517 18.5397 4.26852 18.6263 4.19574 18.6263Z" fill="#C7A57A"/>
    <path d="M13.6476 18.2591C13.2872 18.2591 12.8955 18.2556 12.4069 18.2556C12.1539 18.2556 11.1938 18.2556 10.9651 18.2556L10.8958 18.2522C10.6531 18.2522 10.414 18.2522 10.1714 18.2522C9.92879 18.2522 9.68965 18.2522 9.44704 18.2522C8.96875 18.2522 8.58058 18.2522 8.22706 18.2487H8.22013C8.19241 18.2487 8.16468 18.2487 8.13695 18.2487C8.10923 18.2487 8.08496 18.2487 8.0607 18.2487C7.91167 18.2487 7.80423 18.2279 7.79037 17.9818C7.78344 17.8536 7.80423 17.7704 7.84929 17.7219C7.90128 17.6665 7.99485 17.6561 8.13695 17.6561C8.15428 17.6561 8.23746 17.6561 8.23746 17.6561C9.06233 17.6561 9.89066 17.6561 10.7155 17.6561C11.7969 17.6561 12.7569 17.6561 13.658 17.6526H13.6823C13.8175 17.6526 13.9284 17.6561 13.9873 17.715C14.0289 17.76 14.0497 17.8363 14.0497 17.9541C14.0497 18.2383 13.9284 18.2522 13.6996 18.2522L13.6476 18.2591Z" fill="#C7A57A"/>
    <path d="M13.594 14.7932C13.5212 14.7932 13.438 14.7378 13.3306 14.62C12.9528 14.2041 12.5646 13.8193 12.1764 13.4762C11.965 13.2891 12.0378 13.2059 12.2007 13.0222L12.2354 12.9841C12.3012 12.9113 12.3567 12.8732 12.4017 12.8732C12.4606 12.8732 12.523 12.9321 12.5993 13.0049C12.6166 13.0222 12.6339 13.0361 12.6513 13.0534C13.1261 13.4832 13.3652 13.698 13.6182 13.698C13.8782 13.698 14.1069 13.4624 14.5575 12.991C14.6857 12.8593 14.8139 12.7207 14.9387 12.589C15.1259 12.3914 15.3165 12.1904 15.5106 11.9929C15.521 11.9825 15.5314 11.9686 15.5452 11.9582C15.6007 11.8993 15.6492 11.8473 15.7047 11.8473C15.7359 11.8473 15.774 11.8646 15.819 11.8993C15.9091 11.9721 16.0131 12.024 16.1206 12.0795C16.1448 12.0899 16.1656 12.1038 16.1899 12.1142C16.1414 12.1765 16.1032 12.2251 16.0686 12.2701C15.9923 12.3706 15.9403 12.433 15.8849 12.4919C15.6665 12.7207 15.4447 12.9529 15.2264 13.1782C14.7793 13.6426 14.3183 14.1243 13.8747 14.6096C13.7534 14.7378 13.6702 14.7932 13.594 14.7932Z" fill="#C7A57A"/>
</svg>
