<svg width="22" height="24" viewBox="0 0 22 24" fill="none"
    xmlns="http://www.w3.org/2000/svg">
    <mask id="path-1-outside-1_348_2796" maskUnits="userSpaceOnUse" x="-0.517578" y="0.0344849" width="22" height="24" fill="black">
        <rect fill="white" x="-0.517578" y="0.0344849" width="22" height="24"/>
        <path d="M20.7582 21.1247C20.4725 20.8381 20.1559 20.6929 19.8084 20.6929C19.5844 20.6929 19.345 20.754 19.0979 20.8802C19.0438 20.9069 18.9936 20.9451 18.9434 20.9795C18.8508 21.0483 18.7619 21.1133 18.6538 21.1133C18.6113 21.1133 18.565 21.1018 18.5187 21.0827C17.924 20.8381 17.3294 20.6088 16.7 20.3604C16.4683 20.2687 16.2328 20.177 15.9934 20.0853C16.6459 19.3783 17.1672 18.6063 16.6961 17.7617C16.5031 17.4139 16.4451 17.1694 16.5185 16.9974C16.5919 16.8254 16.7888 16.7108 17.1981 16.5961C17.4221 16.535 17.6576 16.4433 17.9163 16.3171C18.1287 16.214 18.2831 16.1719 18.4299 16.1719C18.5959 16.1719 18.7542 16.2292 18.928 16.3477C19.1558 16.5044 19.3991 16.5808 19.65 16.5808C19.986 16.5808 20.3103 16.4356 20.5922 16.1605C21.0363 15.7286 21.1289 15.1668 20.8548 14.5783C20.627 14.0891 20.2061 13.8178 19.6694 13.8178C19.5883 13.8178 19.5072 13.8254 19.4222 13.8369C18.7504 13.9324 18.3372 14.3566 18.2638 15.0331C18.26 15.0636 18.26 15.0942 18.2561 15.1248C18.2445 15.2929 18.2329 15.4382 18.0437 15.507C17.7927 15.5949 17.5418 15.7095 17.2985 15.8203C16.7811 16.0573 16.2444 16.298 15.6999 16.298C15.2713 16.298 14.8697 16.149 14.4759 15.8433C14.2481 15.6675 13.9276 15.6025 13.6148 15.5413C13.5569 15.5299 13.5028 15.5184 13.4449 15.507C13.136 15.442 13.0472 15.3159 13.1012 15.0331C13.1321 14.8764 13.1398 14.7044 13.1514 14.5401C13.1707 14.2267 13.1862 13.9286 13.3329 13.7146C14.221 12.4229 14.2094 10.9592 14.1979 9.54523V9.5223C14.1979 9.28536 14.1979 9.06753 14.1979 8.87645C14.2017 7.04589 14.1824 7.01914 12.4564 6.39239C12.3135 6.34271 12.1629 6.28539 11.9969 6.22424C12.9777 5.34527 13.4951 4.48159 13.5376 3.65229C13.5685 3.02937 13.3252 2.44084 12.8155 1.89817C12.2942 1.34021 11.5876 1.03448 10.8269 1.03448C10.1357 1.03448 9.47931 1.29435 8.97734 1.76441C8.44834 2.2574 8.17804 2.86122 8.14329 3.61026C8.09696 4.68031 8.61051 5.51342 9.76505 6.23189C8.68002 6.53379 8.0931 6.71723 7.78419 7.09557C7.46756 7.47773 7.44053 8.04333 7.45212 9.15925C7.45598 9.33122 7.45598 9.50701 7.45598 9.67899C7.45984 11.0509 7.4637 12.4649 8.31705 13.7337C8.48695 13.986 8.50626 14.3566 8.5217 14.7121C8.52943 14.8764 8.53715 15.0445 8.56032 15.2012C8.5719 15.2777 8.56418 15.4114 8.40972 15.4458C8.02745 15.5299 7.64132 15.6827 7.27063 15.828C6.71846 16.0458 6.15085 16.2751 5.57551 16.2751C5.06968 16.2751 4.61018 16.0993 4.16999 15.7363C4.0889 15.6713 3.98078 15.6369 3.87267 15.614C3.5599 15.5375 3.42861 15.3694 3.39386 15.0063C3.33208 14.349 2.89961 13.921 2.20843 13.8331C2.13507 13.8216 2.0617 13.8178 1.9922 13.8178C1.45934 13.8178 1.04231 14.0853 0.787465 14.5936C0.501727 15.163 0.602122 15.7057 1.07706 16.1605C1.35894 16.4318 1.68329 16.5732 2.01151 16.5732C2.25863 16.5732 2.50576 16.4929 2.7413 16.3362C2.91892 16.2178 3.07723 16.1643 3.23941 16.1643C3.37455 16.1643 3.51742 16.2025 3.68732 16.2866C4.06573 16.47 4.38236 16.5999 4.67968 16.6993C4.95384 16.7872 5.17007 16.8675 5.22027 17.0203C5.25888 17.1388 5.20096 17.3108 5.03879 17.5401C4.55226 18.2279 4.83027 18.9541 5.1469 19.4432C5.2473 19.5999 5.367 19.749 5.49056 19.9056C5.54076 19.9706 5.59096 20.0356 5.64501 20.1044C5.42106 20.1923 5.20096 20.2763 4.98087 20.3604C4.3785 20.5935 3.80702 20.8114 3.23555 21.0483C3.1699 21.0751 3.10426 21.0903 3.04634 21.0903C2.9112 21.0903 2.79922 21.0215 2.66793 20.9413L2.64862 20.9298C2.38992 20.7693 2.13121 20.6891 1.87636 20.6891C1.54042 20.6891 1.21993 20.8305 0.91875 21.1133C0.466975 21.5413 0.362719 22.061 0.621428 22.6152C0.876276 23.1617 1.29716 23.4483 1.84547 23.4483C1.9227 23.4483 2.00378 23.4406 2.08873 23.4292C2.77991 23.3298 3.20466 22.8789 3.27802 22.168C3.30505 21.8967 3.34366 21.7247 3.62168 21.6254C4.35919 21.3579 5.15463 21.0521 6.05432 20.6891C6.15085 20.6509 6.23966 20.6317 6.33619 20.6317C6.46362 20.6317 6.5949 20.6661 6.75708 20.7388C8.08537 21.3426 9.43298 21.6483 10.7651 21.6483C11.7382 21.6483 12.6881 21.484 13.5916 21.1553C14.1631 20.9489 14.6998 20.8496 15.2327 20.8496C15.9625 20.8496 16.6923 21.0368 17.6035 21.4534C17.673 21.484 17.7464 21.5184 17.8236 21.5375C18.1943 21.6254 18.4299 21.7821 18.4453 22.275C18.4685 22.8789 18.8855 23.3031 19.5612 23.4177C19.6539 23.433 19.7504 23.4406 19.8393 23.4406C20.3528 23.4406 20.7544 23.1846 21.0054 22.6992C21.2911 22.126 21.21 21.5795 20.7582 21.1247ZM19.7891 22.7375C19.7775 22.7375 19.7659 22.7375 19.7543 22.7375C19.3759 22.7375 19.1442 22.5196 19.1172 22.1375C19.1017 21.9158 19.1519 21.7324 19.2639 21.6063C19.372 21.4878 19.5303 21.419 19.735 21.4075C19.7543 21.4075 19.7736 21.4075 19.7929 21.4075C20.264 21.4075 20.4184 21.7591 20.4648 22.0534C20.4493 22.4852 20.2138 22.7222 19.7891 22.7375ZM8.13171 9.40383C8.13557 9.34651 8.14329 9.27772 8.15102 9.20511C8.17032 9.0102 8.19735 8.77326 8.16646 8.53632C8.06993 7.7376 8.42517 7.30194 9.35189 7.07264C9.86158 6.94653 10.3597 6.88156 10.8424 6.88156C11.5258 6.88156 12.2054 7.0115 12.858 7.26755C13.2866 7.4357 13.4681 7.68792 13.4874 8.13505C13.526 9.15543 13.5453 10.5006 13.3484 11.8382C13.3406 11.8841 13.3368 11.9299 13.3329 11.9758C13.3213 12.1095 13.3059 12.2433 13.2441 12.3388C12.5761 13.3439 12.4332 14.4942 12.2981 15.6063C12.2324 16.1413 12.1629 16.6955 12.0355 17.2267C11.9042 17.7655 11.7498 18.0598 11.2903 18.0598C11.2169 18.0598 11.1358 18.0522 11.047 18.0369C10.9428 18.0178 10.8308 18.0101 10.7034 18.0101C10.5566 18.0101 10.4022 18.0216 10.2747 18.033C10.2439 18.0369 10.2168 18.0369 10.1898 18.0369C9.92723 18.0369 9.79594 17.9146 9.74574 17.6165C9.69555 17.3299 9.62604 17.0432 9.55654 16.7643C9.52565 16.6305 9.4909 16.4929 9.46 16.3592C9.36733 15.9579 9.30941 15.5413 9.25149 15.1401C9.12793 14.2611 9.00051 13.3516 8.51398 12.4955C8.14715 11.8535 8.15102 11.0586 8.15102 10.214C8.14329 9.9465 8.14329 9.67134 8.13171 9.40383ZM10.8308 5.67775C10.8115 5.67775 10.7883 5.67775 10.769 5.67775C9.69941 5.64718 8.83447 4.75674 8.84219 3.69815C8.84605 2.61663 9.73416 1.73384 10.8192 1.73384C10.8308 1.73384 10.8424 1.73384 10.8578 1.73384C11.4061 1.74531 11.9081 1.95549 12.2711 2.32619C12.634 2.69689 12.8271 3.20134 12.8116 3.74401C12.7846 4.82935 11.9158 5.67775 10.8308 5.67775ZM8.89239 17.0203C8.89625 17.0585 8.90397 17.1006 8.9117 17.1388V17.1426C9.31714 18.6865 9.35189 18.7133 10.8269 18.7133H10.9196C12.3637 18.7133 12.4178 18.7133 12.6997 17.284C12.7846 16.8483 12.9352 16.7948 13.0549 16.7948C13.1514 16.7948 13.2789 16.8369 13.4565 16.9286C13.5105 16.9553 13.5646 16.9821 13.6187 17.005C13.7036 17.0432 13.7886 17.0815 13.8658 17.1311C14.3137 17.3987 14.5531 17.6967 14.5492 17.9948C14.5454 18.2891 14.3098 18.5795 13.8658 18.8356C12.9159 19.3821 11.8424 19.4814 10.8231 19.5426C9.76891 19.4738 8.74566 19.3668 7.83439 18.8623C7.34014 18.5872 6.94628 18.312 7.16252 17.7235C7.28994 17.3719 8.30547 16.7566 8.65685 16.7566C8.66843 16.7566 8.68002 16.7566 8.6916 16.7604C8.8615 16.7796 8.87308 16.8866 8.89239 17.0203ZM6.48678 16.9897L6.49064 16.9859C6.79955 16.6802 7.18568 16.5273 7.5332 16.4203L7.52934 16.5082C7.27449 16.6267 7.07757 16.8139 6.88836 16.9974C6.79955 17.0815 6.70688 17.1694 6.61035 17.2496L6.60262 17.2573L6.59876 17.2649C6.23966 18.1668 6.40183 18.7095 7.18568 19.2712C8.01973 19.8636 9.3403 20.2037 10.8076 20.2037C12.2788 20.2037 13.6071 19.8636 14.4488 19.2712C15.2867 18.6827 15.4335 18.0865 14.9663 17.1464L14.9624 17.1388L14.2442 16.5579C14.638 16.6038 14.9431 16.7604 15.1748 17.0356L15.1786 17.0394L15.1825 17.0432C15.8042 17.4331 16.1401 17.8993 16.144 18.3885C16.1517 18.8814 15.8273 19.363 15.2057 19.7757C14.1554 20.4789 12.5568 20.884 10.8231 20.884C9.11635 20.884 7.5332 20.4903 6.4752 19.8063C5.85353 19.4012 5.51759 18.9388 5.50601 18.4649C5.49828 17.9643 5.83422 17.456 6.48678 16.9897ZM18.9666 15.1515C18.9743 14.7694 19.2253 14.5172 19.6114 14.5057C19.6192 14.5057 19.6269 14.5057 19.6346 14.5057C20.0323 14.5057 20.2833 14.7617 20.3065 15.1859C20.2756 15.614 20.0323 15.8585 19.6462 15.8585C19.6385 15.8585 19.6307 15.8585 19.623 15.8585C19.2021 15.8509 18.9589 15.5834 18.9666 15.1515ZM2.01151 14.4942C2.45556 14.5515 2.68338 14.7732 2.6911 15.1592C2.70268 15.5872 2.45942 15.8471 2.04626 15.8585C2.03854 15.8585 2.03081 15.8585 2.01923 15.8585C1.61765 15.8585 1.35508 15.6101 1.33577 15.2127C1.31647 14.8344 1.54429 14.5936 2.01151 14.4942ZM1.85705 22.7413C1.42072 22.7183 1.18132 22.4661 1.20449 22.0457C1.2238 21.6368 1.46706 21.4037 1.86864 21.4037C1.88408 21.4037 1.89953 21.4037 1.91497 21.4037C2.32813 21.4228 2.55209 21.6598 2.57912 22.1107C2.50962 22.5273 2.28566 22.7413 1.91111 22.7413C1.8918 22.7413 1.8725 22.7413 1.85705 22.7413Z"/>
    </mask>
    <path d="M20.7582 21.1247C20.4725 20.8381 20.1559 20.6929 19.8084 20.6929C19.5844 20.6929 19.345 20.754 19.0979 20.8802C19.0438 20.9069 18.9936 20.9451 18.9434 20.9795C18.8508 21.0483 18.7619 21.1133 18.6538 21.1133C18.6113 21.1133 18.565 21.1018 18.5187 21.0827C17.924 20.8381 17.3294 20.6088 16.7 20.3604C16.4683 20.2687 16.2328 20.177 15.9934 20.0853C16.6459 19.3783 17.1672 18.6063 16.6961 17.7617C16.5031 17.4139 16.4451 17.1694 16.5185 16.9974C16.5919 16.8254 16.7888 16.7108 17.1981 16.5961C17.4221 16.535 17.6576 16.4433 17.9163 16.3171C18.1287 16.214 18.2831 16.1719 18.4299 16.1719C18.5959 16.1719 18.7542 16.2292 18.928 16.3477C19.1558 16.5044 19.3991 16.5808 19.65 16.5808C19.986 16.5808 20.3103 16.4356 20.5922 16.1605C21.0363 15.7286 21.1289 15.1668 20.8548 14.5783C20.627 14.0891 20.2061 13.8178 19.6694 13.8178C19.5883 13.8178 19.5072 13.8254 19.4222 13.8369C18.7504 13.9324 18.3372 14.3566 18.2638 15.0331C18.26 15.0636 18.26 15.0942 18.2561 15.1248C18.2445 15.2929 18.2329 15.4382 18.0437 15.507C17.7927 15.5949 17.5418 15.7095 17.2985 15.8203C16.7811 16.0573 16.2444 16.298 15.6999 16.298C15.2713 16.298 14.8697 16.149 14.4759 15.8433C14.2481 15.6675 13.9276 15.6025 13.6148 15.5413C13.5569 15.5299 13.5028 15.5184 13.4449 15.507C13.136 15.442 13.0472 15.3159 13.1012 15.0331C13.1321 14.8764 13.1398 14.7044 13.1514 14.5401C13.1707 14.2267 13.1862 13.9286 13.3329 13.7146C14.221 12.4229 14.2094 10.9592 14.1979 9.54523V9.5223C14.1979 9.28536 14.1979 9.06753 14.1979 8.87645C14.2017 7.04589 14.1824 7.01914 12.4564 6.39239C12.3135 6.34271 12.1629 6.28539 11.9969 6.22424C12.9777 5.34527 13.4951 4.48159 13.5376 3.65229C13.5685 3.02937 13.3252 2.44084 12.8155 1.89817C12.2942 1.34021 11.5876 1.03448 10.8269 1.03448C10.1357 1.03448 9.47931 1.29435 8.97734 1.76441C8.44834 2.2574 8.17804 2.86122 8.14329 3.61026C8.09696 4.68031 8.61051 5.51342 9.76505 6.23189C8.68002 6.53379 8.0931 6.71723 7.78419 7.09557C7.46756 7.47773 7.44053 8.04333 7.45212 9.15925C7.45598 9.33122 7.45598 9.50701 7.45598 9.67899C7.45984 11.0509 7.4637 12.4649 8.31705 13.7337C8.48695 13.986 8.50626 14.3566 8.5217 14.7121C8.52943 14.8764 8.53715 15.0445 8.56032 15.2012C8.5719 15.2777 8.56418 15.4114 8.40972 15.4458C8.02745 15.5299 7.64132 15.6827 7.27063 15.828C6.71846 16.0458 6.15085 16.2751 5.57551 16.2751C5.06968 16.2751 4.61018 16.0993 4.16999 15.7363C4.0889 15.6713 3.98078 15.6369 3.87267 15.614C3.5599 15.5375 3.42861 15.3694 3.39386 15.0063C3.33208 14.349 2.89961 13.921 2.20843 13.8331C2.13507 13.8216 2.0617 13.8178 1.9922 13.8178C1.45934 13.8178 1.04231 14.0853 0.787465 14.5936C0.501727 15.163 0.602122 15.7057 1.07706 16.1605C1.35894 16.4318 1.68329 16.5732 2.01151 16.5732C2.25863 16.5732 2.50576 16.4929 2.7413 16.3362C2.91892 16.2178 3.07723 16.1643 3.23941 16.1643C3.37455 16.1643 3.51742 16.2025 3.68732 16.2866C4.06573 16.47 4.38236 16.5999 4.67968 16.6993C4.95384 16.7872 5.17007 16.8675 5.22027 17.0203C5.25888 17.1388 5.20096 17.3108 5.03879 17.5401C4.55226 18.2279 4.83027 18.9541 5.1469 19.4432C5.2473 19.5999 5.367 19.749 5.49056 19.9056C5.54076 19.9706 5.59096 20.0356 5.64501 20.1044C5.42106 20.1923 5.20096 20.2763 4.98087 20.3604C4.3785 20.5935 3.80702 20.8114 3.23555 21.0483C3.1699 21.0751 3.10426 21.0903 3.04634 21.0903C2.9112 21.0903 2.79922 21.0215 2.66793 20.9413L2.64862 20.9298C2.38992 20.7693 2.13121 20.6891 1.87636 20.6891C1.54042 20.6891 1.21993 20.8305 0.91875 21.1133C0.466975 21.5413 0.362719 22.061 0.621428 22.6152C0.876276 23.1617 1.29716 23.4483 1.84547 23.4483C1.9227 23.4483 2.00378 23.4406 2.08873 23.4292C2.77991 23.3298 3.20466 22.8789 3.27802 22.168C3.30505 21.8967 3.34366 21.7247 3.62168 21.6254C4.35919 21.3579 5.15463 21.0521 6.05432 20.6891C6.15085 20.6509 6.23966 20.6317 6.33619 20.6317C6.46362 20.6317 6.5949 20.6661 6.75708 20.7388C8.08537 21.3426 9.43298 21.6483 10.7651 21.6483C11.7382 21.6483 12.6881 21.484 13.5916 21.1553C14.1631 20.9489 14.6998 20.8496 15.2327 20.8496C15.9625 20.8496 16.6923 21.0368 17.6035 21.4534C17.673 21.484 17.7464 21.5184 17.8236 21.5375C18.1943 21.6254 18.4299 21.7821 18.4453 22.275C18.4685 22.8789 18.8855 23.3031 19.5612 23.4177C19.6539 23.433 19.7504 23.4406 19.8393 23.4406C20.3528 23.4406 20.7544 23.1846 21.0054 22.6992C21.2911 22.126 21.21 21.5795 20.7582 21.1247ZM19.7891 22.7375C19.7775 22.7375 19.7659 22.7375 19.7543 22.7375C19.3759 22.7375 19.1442 22.5196 19.1172 22.1375C19.1017 21.9158 19.1519 21.7324 19.2639 21.6063C19.372 21.4878 19.5303 21.419 19.735 21.4075C19.7543 21.4075 19.7736 21.4075 19.7929 21.4075C20.264 21.4075 20.4184 21.7591 20.4648 22.0534C20.4493 22.4852 20.2138 22.7222 19.7891 22.7375ZM8.13171 9.40383C8.13557 9.34651 8.14329 9.27772 8.15102 9.20511C8.17032 9.0102 8.19735 8.77326 8.16646 8.53632C8.06993 7.7376 8.42517 7.30194 9.35189 7.07264C9.86158 6.94653 10.3597 6.88156 10.8424 6.88156C11.5258 6.88156 12.2054 7.0115 12.858 7.26755C13.2866 7.4357 13.4681 7.68792 13.4874 8.13505C13.526 9.15543 13.5453 10.5006 13.3484 11.8382C13.3406 11.8841 13.3368 11.9299 13.3329 11.9758C13.3213 12.1095 13.3059 12.2433 13.2441 12.3388C12.5761 13.3439 12.4332 14.4942 12.2981 15.6063C12.2324 16.1413 12.1629 16.6955 12.0355 17.2267C11.9042 17.7655 11.7498 18.0598 11.2903 18.0598C11.2169 18.0598 11.1358 18.0522 11.047 18.0369C10.9428 18.0178 10.8308 18.0101 10.7034 18.0101C10.5566 18.0101 10.4022 18.0216 10.2747 18.033C10.2439 18.0369 10.2168 18.0369 10.1898 18.0369C9.92723 18.0369 9.79594 17.9146 9.74574 17.6165C9.69555 17.3299 9.62604 17.0432 9.55654 16.7643C9.52565 16.6305 9.4909 16.4929 9.46 16.3592C9.36733 15.9579 9.30941 15.5413 9.25149 15.1401C9.12793 14.2611 9.00051 13.3516 8.51398 12.4955C8.14715 11.8535 8.15102 11.0586 8.15102 10.214C8.14329 9.9465 8.14329 9.67134 8.13171 9.40383ZM10.8308 5.67775C10.8115 5.67775 10.7883 5.67775 10.769 5.67775C9.69941 5.64718 8.83447 4.75674 8.84219 3.69815C8.84605 2.61663 9.73416 1.73384 10.8192 1.73384C10.8308 1.73384 10.8424 1.73384 10.8578 1.73384C11.4061 1.74531 11.9081 1.95549 12.2711 2.32619C12.634 2.69689 12.8271 3.20134 12.8116 3.74401C12.7846 4.82935 11.9158 5.67775 10.8308 5.67775ZM8.89239 17.0203C8.89625 17.0585 8.90397 17.1006 8.9117 17.1388V17.1426C9.31714 18.6865 9.35189 18.7133 10.8269 18.7133H10.9196C12.3637 18.7133 12.4178 18.7133 12.6997 17.284C12.7846 16.8483 12.9352 16.7948 13.0549 16.7948C13.1514 16.7948 13.2789 16.8369 13.4565 16.9286C13.5105 16.9553 13.5646 16.9821 13.6187 17.005C13.7036 17.0432 13.7886 17.0815 13.8658 17.1311C14.3137 17.3987 14.5531 17.6967 14.5492 17.9948C14.5454 18.2891 14.3098 18.5795 13.8658 18.8356C12.9159 19.3821 11.8424 19.4814 10.8231 19.5426C9.76891 19.4738 8.74566 19.3668 7.83439 18.8623C7.34014 18.5872 6.94628 18.312 7.16252 17.7235C7.28994 17.3719 8.30547 16.7566 8.65685 16.7566C8.66843 16.7566 8.68002 16.7566 8.6916 16.7604C8.8615 16.7796 8.87308 16.8866 8.89239 17.0203ZM6.48678 16.9897L6.49064 16.9859C6.79955 16.6802 7.18568 16.5273 7.5332 16.4203L7.52934 16.5082C7.27449 16.6267 7.07757 16.8139 6.88836 16.9974C6.79955 17.0815 6.70688 17.1694 6.61035 17.2496L6.60262 17.2573L6.59876 17.2649C6.23966 18.1668 6.40183 18.7095 7.18568 19.2712C8.01973 19.8636 9.3403 20.2037 10.8076 20.2037C12.2788 20.2037 13.6071 19.8636 14.4488 19.2712C15.2867 18.6827 15.4335 18.0865 14.9663 17.1464L14.9624 17.1388L14.2442 16.5579C14.638 16.6038 14.9431 16.7604 15.1748 17.0356L15.1786 17.0394L15.1825 17.0432C15.8042 17.4331 16.1401 17.8993 16.144 18.3885C16.1517 18.8814 15.8273 19.363 15.2057 19.7757C14.1554 20.4789 12.5568 20.884 10.8231 20.884C9.11635 20.884 7.5332 20.4903 6.4752 19.8063C5.85353 19.4012 5.51759 18.9388 5.50601 18.4649C5.49828 17.9643 5.83422 17.456 6.48678 16.9897ZM18.9666 15.1515C18.9743 14.7694 19.2253 14.5172 19.6114 14.5057C19.6192 14.5057 19.6269 14.5057 19.6346 14.5057C20.0323 14.5057 20.2833 14.7617 20.3065 15.1859C20.2756 15.614 20.0323 15.8585 19.6462 15.8585C19.6385 15.8585 19.6307 15.8585 19.623 15.8585C19.2021 15.8509 18.9589 15.5834 18.9666 15.1515ZM2.01151 14.4942C2.45556 14.5515 2.68338 14.7732 2.6911 15.1592C2.70268 15.5872 2.45942 15.8471 2.04626 15.8585C2.03854 15.8585 2.03081 15.8585 2.01923 15.8585C1.61765 15.8585 1.35508 15.6101 1.33577 15.2127C1.31647 14.8344 1.54429 14.5936 2.01151 14.4942ZM1.85705 22.7413C1.42072 22.7183 1.18132 22.4661 1.20449 22.0457C1.2238 21.6368 1.46706 21.4037 1.86864 21.4037C1.88408 21.4037 1.89953 21.4037 1.91497 21.4037C2.32813 21.4228 2.55209 21.6598 2.57912 22.1107C2.50962 22.5273 2.28566 22.7413 1.91111 22.7413C1.8918 22.7413 1.8725 22.7413 1.85705 22.7413Z" fill="#C7A57A"/>
    <path d="M20.7582 21.1247C20.4725 20.8381 20.1559 20.6929 19.8084 20.6929C19.5844 20.6929 19.345 20.754 19.0979 20.8802C19.0438 20.9069 18.9936 20.9451 18.9434 20.9795C18.8508 21.0483 18.7619 21.1133 18.6538 21.1133C18.6113 21.1133 18.565 21.1018 18.5187 21.0827C17.924 20.8381 17.3294 20.6088 16.7 20.3604C16.4683 20.2687 16.2328 20.177 15.9934 20.0853C16.6459 19.3783 17.1672 18.6063 16.6961 17.7617C16.5031 17.4139 16.4451 17.1694 16.5185 16.9974C16.5919 16.8254 16.7888 16.7108 17.1981 16.5961C17.4221 16.535 17.6576 16.4433 17.9163 16.3171C18.1287 16.214 18.2831 16.1719 18.4299 16.1719C18.5959 16.1719 18.7542 16.2292 18.928 16.3477C19.1558 16.5044 19.3991 16.5808 19.65 16.5808C19.986 16.5808 20.3103 16.4356 20.5922 16.1605C21.0363 15.7286 21.1289 15.1668 20.8548 14.5783C20.627 14.0891 20.2061 13.8178 19.6694 13.8178C19.5883 13.8178 19.5072 13.8254 19.4222 13.8369C18.7504 13.9324 18.3372 14.3566 18.2638 15.0331C18.26 15.0636 18.26 15.0942 18.2561 15.1248C18.2445 15.2929 18.2329 15.4382 18.0437 15.507C17.7927 15.5949 17.5418 15.7095 17.2985 15.8203C16.7811 16.0573 16.2444 16.298 15.6999 16.298C15.2713 16.298 14.8697 16.149 14.4759 15.8433C14.2481 15.6675 13.9276 15.6025 13.6148 15.5413C13.5569 15.5299 13.5028 15.5184 13.4449 15.507C13.136 15.442 13.0472 15.3159 13.1012 15.0331C13.1321 14.8764 13.1398 14.7044 13.1514 14.5401C13.1707 14.2267 13.1862 13.9286 13.3329 13.7146C14.221 12.4229 14.2094 10.9592 14.1979 9.54523V9.5223C14.1979 9.28536 14.1979 9.06753 14.1979 8.87645C14.2017 7.04589 14.1824 7.01914 12.4564 6.39239C12.3135 6.34271 12.1629 6.28539 11.9969 6.22424C12.9777 5.34527 13.4951 4.48159 13.5376 3.65229C13.5685 3.02937 13.3252 2.44084 12.8155 1.89817C12.2942 1.34021 11.5876 1.03448 10.8269 1.03448C10.1357 1.03448 9.47931 1.29435 8.97734 1.76441C8.44834 2.2574 8.17804 2.86122 8.14329 3.61026C8.09696 4.68031 8.61051 5.51342 9.76505 6.23189C8.68002 6.53379 8.0931 6.71723 7.78419 7.09557C7.46756 7.47773 7.44053 8.04333 7.45212 9.15925C7.45598 9.33122 7.45598 9.50701 7.45598 9.67899C7.45984 11.0509 7.4637 12.4649 8.31705 13.7337C8.48695 13.986 8.50626 14.3566 8.5217 14.7121C8.52943 14.8764 8.53715 15.0445 8.56032 15.2012C8.5719 15.2777 8.56418 15.4114 8.40972 15.4458C8.02745 15.5299 7.64132 15.6827 7.27063 15.828C6.71846 16.0458 6.15085 16.2751 5.57551 16.2751C5.06968 16.2751 4.61018 16.0993 4.16999 15.7363C4.0889 15.6713 3.98078 15.6369 3.87267 15.614C3.5599 15.5375 3.42861 15.3694 3.39386 15.0063C3.33208 14.349 2.89961 13.921 2.20843 13.8331C2.13507 13.8216 2.0617 13.8178 1.9922 13.8178C1.45934 13.8178 1.04231 14.0853 0.787465 14.5936C0.501727 15.163 0.602122 15.7057 1.07706 16.1605C1.35894 16.4318 1.68329 16.5732 2.01151 16.5732C2.25863 16.5732 2.50576 16.4929 2.7413 16.3362C2.91892 16.2178 3.07723 16.1643 3.23941 16.1643C3.37455 16.1643 3.51742 16.2025 3.68732 16.2866C4.06573 16.47 4.38236 16.5999 4.67968 16.6993C4.95384 16.7872 5.17007 16.8675 5.22027 17.0203C5.25888 17.1388 5.20096 17.3108 5.03879 17.5401C4.55226 18.2279 4.83027 18.9541 5.1469 19.4432C5.2473 19.5999 5.367 19.749 5.49056 19.9056C5.54076 19.9706 5.59096 20.0356 5.64501 20.1044C5.42106 20.1923 5.20096 20.2763 4.98087 20.3604C4.3785 20.5935 3.80702 20.8114 3.23555 21.0483C3.1699 21.0751 3.10426 21.0903 3.04634 21.0903C2.9112 21.0903 2.79922 21.0215 2.66793 20.9413L2.64862 20.9298C2.38992 20.7693 2.13121 20.6891 1.87636 20.6891C1.54042 20.6891 1.21993 20.8305 0.91875 21.1133C0.466975 21.5413 0.362719 22.061 0.621428 22.6152C0.876276 23.1617 1.29716 23.4483 1.84547 23.4483C1.9227 23.4483 2.00378 23.4406 2.08873 23.4292C2.77991 23.3298 3.20466 22.8789 3.27802 22.168C3.30505 21.8967 3.34366 21.7247 3.62168 21.6254C4.35919 21.3579 5.15463 21.0521 6.05432 20.6891C6.15085 20.6509 6.23966 20.6317 6.33619 20.6317C6.46362 20.6317 6.5949 20.6661 6.75708 20.7388C8.08537 21.3426 9.43298 21.6483 10.7651 21.6483C11.7382 21.6483 12.6881 21.484 13.5916 21.1553C14.1631 20.9489 14.6998 20.8496 15.2327 20.8496C15.9625 20.8496 16.6923 21.0368 17.6035 21.4534C17.673 21.484 17.7464 21.5184 17.8236 21.5375C18.1943 21.6254 18.4299 21.7821 18.4453 22.275C18.4685 22.8789 18.8855 23.3031 19.5612 23.4177C19.6539 23.433 19.7504 23.4406 19.8393 23.4406C20.3528 23.4406 20.7544 23.1846 21.0054 22.6992C21.2911 22.126 21.21 21.5795 20.7582 21.1247ZM19.7891 22.7375C19.7775 22.7375 19.7659 22.7375 19.7543 22.7375C19.3759 22.7375 19.1442 22.5196 19.1172 22.1375C19.1017 21.9158 19.1519 21.7324 19.2639 21.6063C19.372 21.4878 19.5303 21.419 19.735 21.4075C19.7543 21.4075 19.7736 21.4075 19.7929 21.4075C20.264 21.4075 20.4184 21.7591 20.4648 22.0534C20.4493 22.4852 20.2138 22.7222 19.7891 22.7375ZM8.13171 9.40383C8.13557 9.34651 8.14329 9.27772 8.15102 9.20511C8.17032 9.0102 8.19735 8.77326 8.16646 8.53632C8.06993 7.7376 8.42517 7.30194 9.35189 7.07264C9.86158 6.94653 10.3597 6.88156 10.8424 6.88156C11.5258 6.88156 12.2054 7.0115 12.858 7.26755C13.2866 7.4357 13.4681 7.68792 13.4874 8.13505C13.526 9.15543 13.5453 10.5006 13.3484 11.8382C13.3406 11.8841 13.3368 11.9299 13.3329 11.9758C13.3213 12.1095 13.3059 12.2433 13.2441 12.3388C12.5761 13.3439 12.4332 14.4942 12.2981 15.6063C12.2324 16.1413 12.1629 16.6955 12.0355 17.2267C11.9042 17.7655 11.7498 18.0598 11.2903 18.0598C11.2169 18.0598 11.1358 18.0522 11.047 18.0369C10.9428 18.0178 10.8308 18.0101 10.7034 18.0101C10.5566 18.0101 10.4022 18.0216 10.2747 18.033C10.2439 18.0369 10.2168 18.0369 10.1898 18.0369C9.92723 18.0369 9.79594 17.9146 9.74574 17.6165C9.69555 17.3299 9.62604 17.0432 9.55654 16.7643C9.52565 16.6305 9.4909 16.4929 9.46 16.3592C9.36733 15.9579 9.30941 15.5413 9.25149 15.1401C9.12793 14.2611 9.00051 13.3516 8.51398 12.4955C8.14715 11.8535 8.15102 11.0586 8.15102 10.214C8.14329 9.9465 8.14329 9.67134 8.13171 9.40383ZM10.8308 5.67775C10.8115 5.67775 10.7883 5.67775 10.769 5.67775C9.69941 5.64718 8.83447 4.75674 8.84219 3.69815C8.84605 2.61663 9.73416 1.73384 10.8192 1.73384C10.8308 1.73384 10.8424 1.73384 10.8578 1.73384C11.4061 1.74531 11.9081 1.95549 12.2711 2.32619C12.634 2.69689 12.8271 3.20134 12.8116 3.74401C12.7846 4.82935 11.9158 5.67775 10.8308 5.67775ZM8.89239 17.0203C8.89625 17.0585 8.90397 17.1006 8.9117 17.1388V17.1426C9.31714 18.6865 9.35189 18.7133 10.8269 18.7133H10.9196C12.3637 18.7133 12.4178 18.7133 12.6997 17.284C12.7846 16.8483 12.9352 16.7948 13.0549 16.7948C13.1514 16.7948 13.2789 16.8369 13.4565 16.9286C13.5105 16.9553 13.5646 16.9821 13.6187 17.005C13.7036 17.0432 13.7886 17.0815 13.8658 17.1311C14.3137 17.3987 14.5531 17.6967 14.5492 17.9948C14.5454 18.2891 14.3098 18.5795 13.8658 18.8356C12.9159 19.3821 11.8424 19.4814 10.8231 19.5426C9.76891 19.4738 8.74566 19.3668 7.83439 18.8623C7.34014 18.5872 6.94628 18.312 7.16252 17.7235C7.28994 17.3719 8.30547 16.7566 8.65685 16.7566C8.66843 16.7566 8.68002 16.7566 8.6916 16.7604C8.8615 16.7796 8.87308 16.8866 8.89239 17.0203ZM6.48678 16.9897L6.49064 16.9859C6.79955 16.6802 7.18568 16.5273 7.5332 16.4203L7.52934 16.5082C7.27449 16.6267 7.07757 16.8139 6.88836 16.9974C6.79955 17.0815 6.70688 17.1694 6.61035 17.2496L6.60262 17.2573L6.59876 17.2649C6.23966 18.1668 6.40183 18.7095 7.18568 19.2712C8.01973 19.8636 9.3403 20.2037 10.8076 20.2037C12.2788 20.2037 13.6071 19.8636 14.4488 19.2712C15.2867 18.6827 15.4335 18.0865 14.9663 17.1464L14.9624 17.1388L14.2442 16.5579C14.638 16.6038 14.9431 16.7604 15.1748 17.0356L15.1786 17.0394L15.1825 17.0432C15.8042 17.4331 16.1401 17.8993 16.144 18.3885C16.1517 18.8814 15.8273 19.363 15.2057 19.7757C14.1554 20.4789 12.5568 20.884 10.8231 20.884C9.11635 20.884 7.5332 20.4903 6.4752 19.8063C5.85353 19.4012 5.51759 18.9388 5.50601 18.4649C5.49828 17.9643 5.83422 17.456 6.48678 16.9897ZM18.9666 15.1515C18.9743 14.7694 19.2253 14.5172 19.6114 14.5057C19.6192 14.5057 19.6269 14.5057 19.6346 14.5057C20.0323 14.5057 20.2833 14.7617 20.3065 15.1859C20.2756 15.614 20.0323 15.8585 19.6462 15.8585C19.6385 15.8585 19.6307 15.8585 19.623 15.8585C19.2021 15.8509 18.9589 15.5834 18.9666 15.1515ZM2.01151 14.4942C2.45556 14.5515 2.68338 14.7732 2.6911 15.1592C2.70268 15.5872 2.45942 15.8471 2.04626 15.8585C2.03854 15.8585 2.03081 15.8585 2.01923 15.8585C1.61765 15.8585 1.35508 15.6101 1.33577 15.2127C1.31647 14.8344 1.54429 14.5936 2.01151 14.4942ZM1.85705 22.7413C1.42072 22.7183 1.18132 22.4661 1.20449 22.0457C1.2238 21.6368 1.46706 21.4037 1.86864 21.4037C1.88408 21.4037 1.89953 21.4037 1.91497 21.4037C2.32813 21.4228 2.55209 21.6598 2.57912 22.1107C2.50962 22.5273 2.28566 22.7413 1.91111 22.7413C1.8918 22.7413 1.8725 22.7413 1.85705 22.7413Z" stroke="#C7A57A" stroke-width="0.2" mask="url(#path-1-outside-1_348_2796)"/>
</svg>
