<svg width="18" height="18" viewBox="0 0 18 18" fill="none"
    xmlns="http://www.w3.org/2000/svg">
    <path d="M16.0978 17.5804C13.1562 17.5804 10.2188 17.5804 7.27717 17.5804C7.23508 17.5678 7.193 17.5509 7.15092 17.5383C6.55334 17.3487 6.17459 16.9528 6.06097 16.3336C5.96839 15.8239 5.91789 15.3016 5.85476 14.7877C5.8211 14.5349 5.82531 14.5307 5.5686 14.5307C4.2514 14.5307 2.93421 14.5307 1.61701 14.5307C1.21302 14.5307 0.859519 14.4001 0.556521 14.1348C0.304024 13.9115 0.169358 13.6209 0.0683594 13.3049C0.0683594 9.39174 0.0683594 5.47855 0.0683594 1.56535C0.0894008 1.50638 0.110442 1.45162 0.131484 1.39265C0.333482 0.786084 0.901602 0.35222 1.54968 0.348008C3.30875 0.343796 5.07202 0.343796 6.83109 0.348008C7.51704 0.35222 8.11462 0.840843 8.26612 1.50638C8.38395 2.02028 8.41761 2.54681 8.48074 3.06913C8.53124 3.4693 8.53966 3.41033 8.88053 3.41033C11.1698 3.41033 13.4549 3.41454 15.7443 3.41033C16.1903 3.41033 16.5649 3.55776 16.8847 3.86525C17.1035 4.08008 17.2172 4.34966 17.3097 4.6361C17.3097 8.54929 17.3097 12.4625 17.3097 16.3757C17.2298 16.5947 17.154 16.8138 17.011 17.0033C16.7711 17.3024 16.4555 17.4709 16.0978 17.5804ZM16.2871 10.5038C16.2871 8.6883 16.2871 6.87281 16.2871 5.05732C16.2871 4.65294 16.0977 4.44654 15.7148 4.44654C13.4255 4.44233 11.1362 4.44654 8.84686 4.44233C8.70378 4.44233 8.6617 4.49709 8.67853 4.6361C8.84686 5.92926 9.00678 7.22243 9.1709 8.51981C9.38552 10.2258 9.58752 11.9317 9.81477 13.6335C9.86527 14.0252 9.78531 14.3201 9.51598 14.6065C9.03203 15.1289 8.57753 15.6764 8.11041 16.2156C8.03887 16.2957 7.97154 16.3757 7.89999 16.4557C7.84949 16.5147 7.84949 16.5568 7.94629 16.5568C7.99258 16.5568 8.03466 16.5568 8.08095 16.5568C10.5554 16.5568 13.0299 16.5568 15.5044 16.5568C15.5885 16.5568 15.6727 16.561 15.7569 16.5568C16.0767 16.5357 16.2619 16.3546 16.2829 16.0345C16.2871 15.9671 16.2871 15.8997 16.2871 15.8323C16.2871 14.0547 16.2871 12.2814 16.2871 10.5038ZM1.09518 7.43725C1.09518 9.18956 1.09518 10.9461 1.09518 12.6984C1.09518 12.7868 1.09097 12.8795 1.09518 12.968C1.11622 13.2881 1.29718 13.4734 1.61701 13.4945C1.66751 13.4987 1.71801 13.4945 1.76851 13.4945C4.00311 13.4945 6.23351 13.4945 8.46811 13.4945C8.49757 13.4945 8.52282 13.4945 8.55228 13.4945C8.67853 13.5029 8.72903 13.4439 8.70799 13.3218C8.69115 13.2123 8.67853 13.0985 8.6659 12.989C8.54807 12.0413 8.43024 11.0893 8.3082 10.1415C8.19037 9.20219 8.07253 8.26286 7.95891 7.32352C7.84108 6.37576 7.72325 5.42379 7.60541 4.47603C7.496 3.61673 7.395 2.75321 7.27717 1.89391C7.22667 1.52744 7.04571 1.38001 6.67538 1.38001C5.9726 1.38001 5.27402 1.38001 4.57123 1.38001C3.61174 1.38001 2.65225 1.38001 1.69276 1.38001C1.29718 1.38001 1.1036 1.57799 1.09518 1.96973C1.09518 2.02449 1.09518 2.08346 1.09518 2.13822C1.09518 3.90737 1.09518 5.67231 1.09518 7.43725ZM8.13987 14.577C8.13566 14.5644 8.12724 14.5476 8.12303 14.5349C7.74429 14.5349 7.36554 14.5349 6.98679 14.5349C6.91525 14.5349 6.89421 14.5813 6.90263 14.6487C6.94471 14.9983 6.98259 15.3479 7.02888 15.6975C7.0415 15.7818 7.07938 15.807 7.14671 15.7312C7.21825 15.647 7.294 15.5627 7.36554 15.4785C7.62225 15.1794 7.87895 14.8761 8.13987 14.577Z" fill="#C7A57A"/>
    <path d="M11.3717 7.94692C11.5906 7.94692 11.8094 7.94271 12.0282 7.94692C12.1713 7.95113 12.2218 7.89216 12.2092 7.75737C12.2008 7.64785 12.205 7.53412 12.2092 7.42039C12.2218 7.13817 12.4491 6.93176 12.731 6.93598C13.0046 6.94019 13.2234 7.14238 13.2402 7.41618C13.2486 7.53412 13.2486 7.65206 13.2402 7.77001C13.2318 7.90059 13.2907 7.94692 13.417 7.94692C13.8673 7.94271 14.3133 7.94271 14.7636 7.94692C15.0161 7.95113 15.2181 8.13647 15.256 8.37236C15.2981 8.63352 15.1508 8.87362 14.9067 8.95365C14.8646 8.96629 14.8183 8.97893 14.7763 8.97471C14.6753 8.9705 14.6248 9.02105 14.5953 9.11372C14.3596 9.8298 14.0061 10.4785 13.5348 11.0682C13.4633 11.1609 13.4843 11.2072 13.5643 11.2704C13.8883 11.5273 14.2081 11.7927 14.528 12.0539C14.7384 12.2266 14.8099 12.4414 14.73 12.6647C14.6079 13.0101 14.2123 13.1238 13.9009 12.8921C13.5979 12.6604 13.3076 12.4161 13.013 12.176C12.9583 12.1297 12.8952 12.0876 12.8489 12.0328C12.7647 11.9444 12.7016 11.9486 12.609 12.0286C12.2723 12.315 11.9272 12.5931 11.5822 12.8711C11.4222 13.0016 11.2455 13.0522 11.0477 12.9848C10.8625 12.9258 10.7447 12.791 10.7068 12.6015C10.6648 12.3867 10.7363 12.2055 10.9088 12.0665C11.2203 11.8138 11.5317 11.5526 11.8515 11.3041C11.9777 11.2072 11.9862 11.1398 11.8852 11.0135C11.4349 10.4532 11.1024 9.8298 10.8752 9.14742C10.8373 9.02947 10.7826 8.97893 10.6521 8.9705C10.3786 8.94944 10.1892 8.72198 10.1934 8.44397C10.2018 8.17017 10.4081 7.95535 10.6858 7.94692C10.913 7.94271 11.1445 7.95113 11.3717 7.94692ZM12.731 8.98314C12.5206 8.98314 12.306 8.98735 12.0956 8.98314C11.982 8.97893 11.9399 9.01262 11.9904 9.13057C12.1629 9.53916 12.3733 9.92669 12.6384 10.2805C12.71 10.3732 12.7605 10.3732 12.832 10.2805C13.0972 9.92247 13.3076 9.53916 13.4801 9.13057C13.5306 9.00841 13.4843 8.98314 13.3749 8.98314C13.1561 8.98735 12.9414 8.98314 12.731 8.98314Z" fill="#C7A57A"/>
    <path d="M4.64251 7.9764C4.47418 7.9764 4.30585 7.98061 4.13752 7.9764C4.01127 7.97218 3.95656 8.02273 3.93552 8.14489C3.85135 8.59139 3.76298 9.03367 3.67039 9.48017C3.59885 9.82137 3.42211 9.99407 3.14857 9.99828C2.83715 10.0025 2.59307 9.77082 2.62253 9.4549C2.6562 9.12634 2.73195 8.80621 2.79928 8.48187C3.0644 7.155 3.33373 5.82393 3.59465 4.49706C3.68302 4.05056 3.83873 3.91998 4.29322 3.91998C4.56255 3.91998 4.83188 3.91998 5.10121 3.91998C5.42105 3.9242 5.60621 4.05899 5.67354 4.37912C5.84608 5.18788 6.006 6.00084 6.16591 6.81381C6.33424 7.64363 6.49837 8.46923 6.66249 9.29905C6.74245 9.71185 6.50258 10.0193 6.11962 9.99828C5.88396 9.98143 5.703 9.82558 5.64829 9.56863C5.5515 9.11792 5.45892 8.67142 5.37896 8.22071C5.3495 8.048 5.28638 7.95955 5.09701 7.98061C4.94551 7.98903 4.79401 7.9764 4.64251 7.9764ZM4.65093 6.94018C4.75613 6.94018 4.86555 6.94018 4.97076 6.94018C5.06755 6.94018 5.11805 6.91069 5.0928 6.79696C4.97497 6.22409 4.86134 5.64701 4.74351 5.07414C4.73088 5.01938 4.72247 4.9562 4.64672 4.9562C4.57518 4.9562 4.56255 5.01517 4.54993 5.07414C4.4363 5.65122 4.31847 6.22409 4.20064 6.79696C4.1796 6.90648 4.2301 6.94018 4.32689 6.93597C4.4363 6.94018 4.54151 6.94018 4.65093 6.94018Z" fill="#C7A57A"/>
</svg>
