<svg width="22" height="22" viewBox="0 0 22 22" fill="none"
    xmlns="http://www.w3.org/2000/svg">
    <g opacity="0.6">
        <path d="M10.0188 7.65809L10.3433 8.23955C10.6362 8.76429 10.5186 9.45266 10.0574 9.9139C10.0574 9.9139 10.0574 9.9139 10.0574 9.9139C10.0572 9.91402 9.49799 10.4735 10.5123 11.4877C11.5259 12.5014 12.0853 11.9435 12.0861 11.9426C12.0861 11.9426 12.0861 11.9426 12.0861 11.9426C12.5474 11.4814 13.2357 11.3639 13.7604 11.6567L14.3419 11.9812C15.1343 12.4234 15.2279 13.5346 14.5314 14.2311C14.1129 14.6496 13.6002 14.9752 13.0335 14.9967C12.0794 15.0329 10.4591 14.7914 8.83385 13.1661C7.20856 11.5409 6.96711 9.92061 7.00328 8.96654C7.02476 8.3998 7.3504 7.88712 7.7689 7.46862C8.46538 6.77214 9.57659 6.86572 10.0188 7.65809Z" stroke="#ECECEC" stroke-linecap="round"/>
        <path d="M11 21C16.5228 21 21 16.5228 21 11C21 5.47715 16.5228 1 11 1C5.47715 1 1 5.47715 1 11C1 12.5997 1.37562 14.1116 2.04346 15.4525C2.22094 15.8088 2.28001 16.2161 2.17712 16.6006L1.58151 18.8267C1.32295 19.793 2.20701 20.677 3.17335 20.4185L5.39939 19.8229C5.78393 19.72 6.19121 19.7791 6.54753 19.9565C7.88837 20.6244 9.40032 21 11 21Z" stroke="#ECECEC"/>
    </g>
</svg>
