<svg width="20" height="20" viewBox="0 0 20 20" fill="none"
    xmlns="http://www.w3.org/2000/svg">
    <path d="M10.9008 1L10.9008 2.8M16.3008 1L16.3008 2.8M8.20078 1L8.20078 3.7M13.6008 1L13.6008 3.7" stroke="#C7A57A" stroke-width="0.5" stroke-linecap="round"/>
    <path d="M1.90039 9.99981H3.70039M1.90039 15.3998H3.70039M1.90039 12.6998L4.60039 12.6998M1.90039 7.2998L4.60039 7.2998" stroke="#C7A57A" stroke-width="0.5" stroke-linecap="round"/>
    <path d="M1 4.6V15.85C1 17.114 1 17.746 1.30335 18.2C1.43468 18.3966 1.60343 18.5653 1.79997 18.6966C2.25398 19 2.88598 19 4.15 19C5.41402 19 6.04602 19 6.50003 18.6966C6.69657 18.5653 6.86532 18.3966 6.99665 18.2C7.3 17.746 7.3 17.114 7.3 15.85V9.1C7.3 8.25147 7.3 7.82721 7.5636 7.5636C7.82721 7.3 8.25147 7.3 9.1 7.3H15.85C17.114 7.3 17.746 7.3 18.2 6.99665C18.3966 6.86532 18.5653 6.69657 18.6966 6.50003C19 6.04602 19 5.41402 19 4.15C19 2.88598 19 2.25398 18.6966 1.79997C18.5653 1.60343 18.3966 1.43468 18.2 1.30335C17.746 1 17.114 1 15.85 1H4.6C2.90294 1 2.05442 1 1.52721 1.52721C1 2.05442 1 2.90294 1 4.6Z" stroke="#C7A57A" stroke-width="0.5" stroke-linecap="round"/>
</svg>
