<svg width="20" height="20" viewBox="0 0 20 20" fill="none"
    xmlns="http://www.w3.org/2000/svg">
    <g clip-path="url(#clip0_543_5371)">
        <path fill-rule="evenodd" clip-rule="evenodd" d="M5.48748 2.29175C4.73491 2.29175 4.12484 2.90182 4.12484 3.65439V9.37508H4.36174C4.3708 9.37507 4.37983 9.37507 4.3888 9.37508C4.39324 9.37508 4.39766 9.37508 4.40207 9.37508L17.6109 9.37508C17.6198 9.37507 17.6289 9.37507 17.6379 9.37508H19.3332C19.6783 9.37508 19.9582 9.6549 19.9582 10.0001C19.9582 10.3453 19.6783 10.6251 19.3332 10.6251H19.1099C19.1153 10.6625 19.1193 10.7005 19.1218 10.7388C19.1249 10.7869 19.1249 10.8389 19.1248 10.889L19.1248 10.9206C19.1248 11.2333 19.1248 11.4166 19.1119 11.621C18.9936 13.4847 17.9865 15.2056 16.527 16.3309C16.5385 16.3489 16.5491 16.3677 16.5589 16.3872L17.3922 18.0539C17.5466 18.3626 17.4214 18.7381 17.1127 18.8924C16.8039 19.0468 16.4285 18.9217 16.2742 18.6129L15.4677 17.0001C14.7996 17.3383 14.073 17.5609 13.3173 17.6374C13.1135 17.6581 12.9892 17.6627 12.7773 17.6707L12.7718 17.6709C12.1549 17.6941 11.5511 17.7084 10.9998 17.7084C10.4486 17.7084 9.84476 17.6941 9.2279 17.6709L9.22233 17.6707C9.01049 17.6627 8.88615 17.6581 8.68242 17.6374C7.92669 17.5609 7.20007 17.3383 6.53193 17.0001L5.72552 18.6129C5.57115 18.9217 5.19573 19.0468 4.887 18.8924C4.57826 18.7381 4.45312 18.3626 4.60749 18.0539L5.44082 16.3872C5.45058 16.3677 5.46122 16.3489 5.47267 16.3309C4.01313 15.2056 3.00609 13.4847 2.88781 11.621C2.87483 11.4166 2.87483 11.2333 2.87484 10.9205L2.87484 10.9023C2.87484 10.8979 2.87484 10.8935 2.87483 10.889C2.87483 10.8736 2.87482 10.8581 2.8749 10.8425C2.87486 10.8394 2.87484 10.8364 2.87484 10.8334V10.6251H2.6665C2.32133 10.6251 2.0415 10.3453 2.0415 10.0001C2.0415 9.6549 2.32133 9.37508 2.6665 9.37508H2.87484V3.65439C2.87484 2.21147 4.04456 1.04175 5.48748 1.04175C6.55579 1.04175 7.51648 1.69217 7.91325 2.68408L8.00503 2.91353C8.66611 2.74582 9.38345 2.78468 10.0596 3.07353C10.9056 3.43499 11.5213 4.11699 11.8366 4.91719C11.9604 5.23128 11.8123 5.58689 11.5023 5.72038L6.53496 7.85878C6.37961 7.92566 6.20378 7.92672 6.04763 7.86172C5.89148 7.79672 5.76835 7.6712 5.70634 7.51384C5.39116 6.71395 5.37227 5.7877 5.72253 4.92519C5.97186 4.3112 6.37662 3.80782 6.87205 3.44681L6.75265 3.14831C6.54572 2.63098 6.04466 2.29175 5.48748 2.29175ZM4.40207 10.6251C4.36868 10.6251 4.34881 10.6251 4.3338 10.6253C4.32288 10.6254 4.31899 10.6256 4.31884 10.6256C4.31829 10.6256 4.3188 10.6256 4.31884 10.6256C4.21463 10.6323 4.13237 10.7152 4.12531 10.8193C4.12527 10.8203 4.12512 10.8245 4.12502 10.834C4.12485 10.8491 4.12484 10.8689 4.12484 10.9023C4.12484 11.2379 4.1251 11.3812 4.1353 11.5419C4.28982 13.9766 6.38118 16.148 8.80837 16.3938C8.97084 16.4103 9.06076 16.4138 9.27483 16.4218C9.88152 16.4446 10.4689 16.4584 10.9998 16.4584C11.5308 16.4584 12.1182 16.4446 12.7248 16.4218C12.9389 16.4138 13.0288 16.4103 13.1913 16.3938C15.6185 16.148 17.7099 13.9766 17.8644 11.5419C17.8746 11.3812 17.8748 11.2379 17.8748 10.9023C17.8748 10.8689 17.8748 10.8491 17.8747 10.834C17.8746 10.8256 17.8744 10.8214 17.8744 10.8198C17.8743 10.8188 17.8743 10.8187 17.8744 10.8198C17.8676 10.7154 17.7844 10.6323 17.68 10.6255C17.681 10.6256 17.6813 10.6256 17.68 10.6255C17.6783 10.6255 17.674 10.6254 17.6659 10.6253C17.6509 10.6251 17.631 10.6251 17.5976 10.6251H4.40207ZM9.56847 4.22302C9.02072 3.98901 8.42861 4.02157 7.92245 4.26798C7.4734 4.48658 7.09249 4.87392 6.88068 5.39551C6.74442 5.73105 6.69514 6.08055 6.7219 6.4174L10.3729 4.84567C10.165 4.57791 9.89262 4.3615 9.56847 4.22302Z" fill="#C7A57A"/>
        <path d="M7.91325 2.68408C7.51648 1.69217 6.55579 1.04175 5.48748 1.04175C4.04456 1.04175 2.87484 2.21147 2.87484 3.65439V9.37508H2.6665C2.32133 9.37508 2.0415 9.6549 2.0415 10.0001C2.0415 10.3453 2.32133 10.6251 2.6665 10.6251H2.87484V10.8334C2.87484 10.8364 2.87486 10.8394 2.8749 10.8425C2.87482 10.8581 2.87483 10.8736 2.87483 10.889C2.87484 10.8935 2.87484 10.8979 2.87484 10.9023L2.87484 10.9205C2.87483 11.2333 2.87483 11.4166 2.88781 11.621C3.00609 13.4847 4.01313 15.2056 5.47267 16.3309C5.46122 16.3489 5.45058 16.3677 5.44082 16.3872L4.60749 18.0539C4.45312 18.3626 4.57826 18.7381 4.887 18.8924C5.19573 19.0468 5.57115 18.9217 5.72552 18.6129L6.53193 17.0001C7.20007 17.3383 7.92669 17.5609 8.68242 17.6374C8.88615 17.6581 9.01049 17.6627 9.22233 17.6707L9.2279 17.6709C9.84476 17.6941 10.4486 17.7084 10.9998 17.7084C11.5511 17.7084 12.1549 17.6941 12.7718 17.6709L12.7773 17.6707C12.9892 17.6627 13.1135 17.6581 13.3173 17.6374C14.073 17.5609 14.7996 17.3383 15.4677 17.0001L16.2742 18.6129C16.4285 18.9217 16.8039 19.0468 17.1127 18.8924C17.4214 18.7381 17.5466 18.3626 17.3922 18.0539L16.5589 16.3872C16.5491 16.3677 16.5385 16.3489 16.527 16.3309C17.9865 15.2056 18.9936 13.4847 19.1119 11.621C19.1248 11.4166 19.1248 11.2333 19.1248 10.9206L19.1248 10.889C19.1249 10.8389 19.1249 10.7869 19.1218 10.7388C19.1193 10.7005 19.1153 10.6625 19.1099 10.6251H19.3332C19.6783 10.6251 19.9582 10.3453 19.9582 10.0001C19.9582 9.6549 19.6783 9.37508 19.3332 9.37508H17.6379C17.6289 9.37507 17.6198 9.37507 17.6109 9.37508L4.40207 9.37508C4.39766 9.37508 4.39324 9.37508 4.3888 9.37508C4.37983 9.37507 4.3708 9.37507 4.36174 9.37508H4.12484V3.65439C4.12484 2.90182 4.73491 2.29175 5.48748 2.29175C6.04466 2.29175 6.54572 2.63098 6.75265 3.14831L6.87205 3.44681C6.37662 3.80782 5.97186 4.3112 5.72253 4.92519C5.37227 5.7877 5.39116 6.71395 5.70634 7.51384C5.76835 7.6712 5.89148 7.79672 6.04763 7.86172C6.20378 7.92672 6.37961 7.92566 6.53496 7.85878L11.5023 5.72038C11.8123 5.58689 11.9604 5.23128 11.8366 4.91719C11.5213 4.11699 10.9056 3.43499 10.0596 3.07353C9.38345 2.78468 8.66611 2.74582 8.00503 2.91353L7.91325 2.68408ZM7.91325 2.68408L7.33295 2.9162M4.31884 10.6256C4.31899 10.6256 4.32288 10.6254 4.3338 10.6253C4.34881 10.6251 4.36868 10.6251 4.40207 10.6251H17.5976C17.631 10.6251 17.6509 10.6251 17.6659 10.6253C17.674 10.6254 17.6783 10.6255 17.68 10.6255M4.31884 10.6256C4.31829 10.6256 4.3188 10.6256 4.31884 10.6256ZM4.31884 10.6256C4.21463 10.6323 4.13237 10.7152 4.12531 10.8193C4.12527 10.8203 4.12513 10.8245 4.12502 10.834C4.12485 10.8491 4.12484 10.8689 4.12484 10.9023C4.12484 11.2379 4.1251 11.3812 4.1353 11.5419C4.28982 13.9766 6.38118 16.148 8.80837 16.3938C8.97084 16.4103 9.06076 16.4138 9.27483 16.4218C9.88152 16.4446 10.4689 16.4584 10.9998 16.4584C11.5308 16.4584 12.1182 16.4446 12.7248 16.4218C12.9389 16.4138 13.0288 16.4103 13.1913 16.3938C15.6185 16.148 17.7099 13.9766 17.8644 11.5419C17.8746 11.3812 17.8748 11.2379 17.8748 10.9023C17.8748 10.8689 17.8748 10.8491 17.8747 10.834C17.8746 10.8256 17.8744 10.8214 17.8744 10.8198M17.8744 10.8198C17.8743 10.8188 17.8743 10.8187 17.8744 10.8198ZM17.8744 10.8198C17.8676 10.7154 17.7844 10.6323 17.68 10.6255M17.68 10.6255C17.6813 10.6256 17.681 10.6256 17.68 10.6255ZM7.92245 4.26798C8.42861 4.02157 9.02072 3.98901 9.56847 4.22302C9.89262 4.3615 10.165 4.57791 10.3729 4.84567L6.7219 6.4174C6.69514 6.08055 6.74442 5.73105 6.88068 5.39551C7.09249 4.87392 7.4734 4.48658 7.92245 4.26798Z" stroke="black" stroke-width="0.8" stroke-linecap="round"/>
    </g>
    <defs>
        <clipPath id="clip0_543_5371">
            <rect width="20" height="20" fill="white"/>
        </clipPath>
    </defs>
</svg>
