<svg width="24" height="24" viewBox="0 0 24 24" fill="none"
    xmlns="http://www.w3.org/2000/svg">
    <path fill-rule="evenodd" clip-rule="evenodd" d="M10.9436 3.25H13.0564C14.8942 3.24998 16.3498 3.24997 17.489 3.40314C18.6614 3.56076 19.6104 3.89288 20.3588 4.64124C21.1071 5.38961 21.4392 6.33856 21.5969 7.51098C21.7482 8.63675 21.75 10.0715 21.75 11.8787C22.0939 12.1624 22.3669 12.5282 22.5407 12.9476C22.661 13.238 22.7076 13.5375 22.7292 13.8546C22.75 14.1592 22.75 14.5303 22.75 14.9747V15.0253C22.75 15.4697 22.75 15.8408 22.7292 16.1454C22.7076 16.4625 22.661 16.762 22.5407 17.0524C22.2616 17.7262 21.7262 18.2616 21.0524 18.5407C20.762 18.661 20.4625 18.7076 20.1454 18.7292C20.0242 18.7375 19.8926 18.7425 19.75 18.7455V20C19.75 20.4142 19.4142 20.75 19 20.75C18.5858 20.75 18.25 20.4142 18.25 20V18.75H5.75V20C5.75 20.4142 5.41421 20.75 5 20.75C4.58579 20.75 4.25 20.4142 4.25 20V18.7455C4.10741 18.7425 3.97577 18.7375 3.85464 18.7292C3.53754 18.7076 3.23801 18.661 2.94762 18.5407C2.27379 18.2616 1.73844 17.7262 1.45933 17.0524C1.33905 16.762 1.29241 16.4625 1.27077 16.1454C1.24999 15.8408 1.24999 15.4697 1.25 15.0253V14.9748C1.24999 14.5303 1.24999 14.1592 1.27077 13.8546C1.29241 13.5375 1.33905 13.238 1.45933 12.9476C1.63307 12.5282 1.90609 12.1624 2.25 11.8787C2.25001 10.0715 2.25178 8.63675 2.40314 7.51098C2.56076 6.33856 2.89288 5.38961 3.64124 4.64124C4.38961 3.89288 5.33856 3.56076 6.51098 3.40314C7.65019 3.24997 9.10582 3.24998 10.9436 3.25ZM3.75039 11.2789C3.78493 11.2758 3.81968 11.2732 3.85464 11.2708C4.1064 11.2536 4.40354 11.2506 4.75 11.2501L4.75 10.448C4.74997 9.54952 4.74995 8.8003 4.82991 8.20552C4.91432 7.57773 5.09999 7.01093 5.55546 6.55546C6.01093 6.09999 6.57773 5.91432 7.20552 5.82991C7.8003 5.74995 8.54952 5.74997 9.448 5.75H14.552C15.4505 5.74997 16.1997 5.74995 16.7945 5.82991C17.4223 5.91432 17.9891 6.09999 18.4445 6.55546C18.9 7.01093 19.0857 7.57773 19.1701 8.20552C19.2501 8.8003 19.25 9.54952 19.25 10.448V11.2501C19.5965 11.2506 19.8936 11.2536 20.1454 11.2708C20.1803 11.2732 20.2151 11.2758 20.2496 11.2789C20.2472 9.74405 20.2303 8.60396 20.1102 7.71085C19.975 6.70476 19.7213 6.12511 19.2981 5.7019C18.8749 5.27869 18.2952 5.02502 17.2892 4.88976C16.2615 4.75159 14.9068 4.75 13 4.75H11C9.09318 4.75 7.73851 4.75159 6.71085 4.88976C5.70476 5.02502 5.12511 5.27869 4.7019 5.7019C4.27869 6.12511 4.02502 6.70476 3.88976 7.71085C3.76968 8.60396 3.75276 9.74405 3.75039 11.2789ZM17.75 11.25V10.5C17.75 9.53599 17.7484 8.88843 17.6835 8.40539C17.6214 7.94393 17.5142 7.74643 17.3839 7.61612C17.2536 7.4858 17.0561 7.37858 16.5946 7.31654C16.1116 7.25159 15.464 7.25 14.5 7.25H12.75V11.25H17.75ZM11.25 11.25V7.25H9.5C8.53599 7.25 7.88843 7.25159 7.40539 7.31654C6.94393 7.37858 6.74643 7.4858 6.61612 7.61612C6.4858 7.74643 6.37858 7.94393 6.31654 8.40539C6.25159 8.88843 6.25 9.53599 6.25 10.5V11.25H11.25ZM3.95674 12.7673C3.71602 12.7837 3.5988 12.8132 3.52165 12.8452C3.21536 12.972 2.97202 13.2154 2.84515 13.5216C2.81319 13.5988 2.78372 13.716 2.76729 13.9567C2.75041 14.2042 2.75 14.5238 2.75 15C2.75 15.4762 2.75041 15.7958 2.76729 16.0433C2.78372 16.284 2.81319 16.4012 2.84515 16.4784C2.97202 16.7846 3.21536 17.028 3.52165 17.1549C3.5988 17.1868 3.71602 17.2163 3.95674 17.2327C4.20421 17.2496 4.5238 17.25 5 17.25H19C19.4762 17.25 19.7958 17.2496 20.0433 17.2327C20.284 17.2163 20.4012 17.1868 20.4784 17.1549C20.7846 17.028 21.028 16.7846 21.1549 16.4784C21.1868 16.4012 21.2163 16.284 21.2327 16.0433C21.2496 15.7958 21.25 15.4762 21.25 15C21.25 14.5238 21.2496 14.2042 21.2327 13.9567C21.2163 13.716 21.1868 13.5988 21.1549 13.5216C21.028 13.2154 20.7846 12.972 20.4784 12.8452C20.4012 12.8132 20.284 12.7837 20.0433 12.7673C19.7958 12.7504 19.4762 12.75 19 12.75H5C4.5238 12.75 4.20421 12.7504 3.95674 12.7673Z" fill="#C7A57A"/>
    <path d="M17.3839 7.61612C17.5142 7.74643 17.6214 7.94393 17.6835 8.40539C17.7484 8.88843 17.75 9.53599 17.75 10.5V11.25H12.75V7.25H14.5C15.464 7.25 16.1116 7.25159 16.5946 7.31654C17.0561 7.37858 17.2536 7.4858 17.3839 7.61612ZM17.3839 7.61612L17.9142 7.08579M10.9436 3.25C9.10582 3.24998 7.65019 3.24997 6.51098 3.40314C5.33856 3.56076 4.38961 3.89288 3.64124 4.64124C2.89288 5.38961 2.56076 6.33856 2.40314 7.51098C2.25178 8.63675 2.25001 10.0715 2.25 11.8787C1.90609 12.1624 1.63307 12.5282 1.45933 12.9476C1.33905 13.238 1.29241 13.5375 1.27077 13.8546C1.24999 14.1592 1.24999 14.5303 1.25 14.9748V15.0253C1.24999 15.4697 1.24999 15.8408 1.27077 16.1454C1.29241 16.4625 1.33905 16.762 1.45933 17.0524C1.73844 17.7262 2.27379 18.2616 2.94762 18.5407C3.23801 18.661 3.53754 18.7076 3.85464 18.7292C3.97577 18.7375 4.10741 18.7425 4.25 18.7455V20C4.25 20.4142 4.58579 20.75 5 20.75C5.41421 20.75 5.75 20.4142 5.75 20V18.75H18.25V20C18.25 20.4142 18.5858 20.75 19 20.75C19.4142 20.75 19.75 20.4142 19.75 20V18.7455C19.8926 18.7425 20.0242 18.7375 20.1454 18.7292C20.4625 18.7076 20.762 18.661 21.0524 18.5407C21.7262 18.2616 22.2616 17.7262 22.5407 17.0524C22.661 16.762 22.7076 16.4625 22.7292 16.1454C22.75 15.8408 22.75 15.4697 22.75 15.0253V14.9747C22.75 14.5303 22.75 14.1592 22.7292 13.8546C22.7076 13.5375 22.661 13.238 22.5407 12.9476C22.3669 12.5282 22.0939 12.1624 21.75 11.8787C21.75 10.0715 21.7482 8.63675 21.5969 7.51098C21.4392 6.33856 21.1071 5.38961 20.3588 4.64124C19.6104 3.89288 18.6614 3.56076 17.489 3.40314C16.3498 3.24997 14.8942 3.24998 13.0564 3.25H10.9436ZM3.85464 11.2708C3.81968 11.2732 3.78493 11.2758 3.75039 11.2789C3.75276 9.74405 3.76968 8.60396 3.88976 7.71085C4.02502 6.70476 4.27869 6.12511 4.7019 5.7019C5.12511 5.27869 5.70476 5.02502 6.71085 4.88976C7.73851 4.75159 9.09318 4.75 11 4.75H13C14.9068 4.75 16.2615 4.75159 17.2892 4.88976C18.2952 5.02502 18.8749 5.27869 19.2981 5.7019C19.7213 6.12511 19.975 6.70476 20.1102 7.71085C20.2303 8.60396 20.2472 9.74405 20.2496 11.2789C20.2151 11.2758 20.1803 11.2732 20.1454 11.2708C19.8936 11.2536 19.5965 11.2506 19.25 11.2501V10.448C19.25 9.54952 19.2501 8.8003 19.1701 8.20552C19.0857 7.57773 18.9 7.01093 18.4445 6.55546C17.9891 6.09999 17.4223 5.91432 16.7945 5.82991C16.1997 5.74995 15.4505 5.74997 14.552 5.75H9.448C8.54952 5.74997 7.8003 5.74995 7.20552 5.82991C6.57773 5.91432 6.01093 6.09999 5.55546 6.55546C5.09999 7.01093 4.91432 7.57773 4.82991 8.20552C4.74995 8.8003 4.74997 9.54952 4.75 10.448L4.75 11.2501C4.40354 11.2506 4.1064 11.2536 3.85464 11.2708ZM11.25 7.25V11.25H6.25V10.5C6.25 9.53599 6.25159 8.88843 6.31654 8.40539C6.37858 7.94393 6.4858 7.74643 6.61612 7.61612C6.74643 7.4858 6.94393 7.37858 7.40539 7.31654C7.88843 7.25159 8.53599 7.25 9.5 7.25H11.25ZM3.52165 12.8452C3.5988 12.8132 3.71602 12.7837 3.95674 12.7673C4.20421 12.7504 4.5238 12.75 5 12.75H19C19.4762 12.75 19.7958 12.7504 20.0433 12.7673C20.284 12.7837 20.4012 12.8132 20.4784 12.8452C20.7846 12.972 21.028 13.2154 21.1549 13.5216C21.1868 13.5988 21.2163 13.716 21.2327 13.9567C21.2496 14.2042 21.25 14.5238 21.25 15C21.25 15.4762 21.2496 15.7958 21.2327 16.0433C21.2163 16.284 21.1868 16.4012 21.1549 16.4784C21.028 16.7846 20.7846 17.028 20.4784 17.1549C20.4012 17.1868 20.284 17.2163 20.0433 17.2327C19.7958 17.2496 19.4762 17.25 19 17.25H5C4.5238 17.25 4.20421 17.2496 3.95674 17.2327C3.71602 17.2163 3.5988 17.1868 3.52165 17.1549C3.21536 17.028 2.97202 16.7846 2.84515 16.4784C2.81319 16.4012 2.78372 16.284 2.76729 16.0433C2.75041 15.7958 2.75 15.4762 2.75 15C2.75 14.5238 2.75041 14.2042 2.76729 13.9567C2.78372 13.716 2.81319 13.5988 2.84515 13.5216C2.97202 13.2154 3.21536 12.972 3.52165 12.8452Z" stroke="#141213"/>
</svg>
