<svg width="12" height="12" viewBox="0 0 12 12" fill="none" xmlns="http://www.w3.org/2000/svg">
<path fill-rule="evenodd" clip-rule="evenodd" d="M1.625 5.07165C1.625 2.62214 3.57751 0.625 6 0.625C8.42249 0.625 10.375 2.62214 10.375 5.07165C10.375 6.2542 10.038 7.52395 9.44222 8.62093C8.84719 9.71656 7.97781 10.6686 6.89026 11.1769C6.32528 11.441 5.67472 11.441 5.10974 11.1769C4.02219 10.6686 3.15281 9.71656 2.55778 8.62093C1.96201 7.52395 1.625 6.2542 1.625 5.07165ZM6 1.375C4.00422 1.375 2.375 3.02374 2.375 5.07165C2.375 6.12018 2.67632 7.26771 3.21685 8.26299C3.75812 9.25962 4.52301 10.0748 5.42732 10.4975C5.79103 10.6675 6.20897 10.6675 6.57268 10.4975C7.47699 10.0748 8.24188 9.25962 8.78315 8.26299C9.32368 7.26771 9.625 6.12018 9.625 5.07165C9.625 3.02374 7.99578 1.375 6 1.375ZM6 3.875C5.37868 3.875 4.875 4.37868 4.875 5C4.875 5.62132 5.37868 6.125 6 6.125C6.62132 6.125 7.125 5.62132 7.125 5C7.125 4.37868 6.62132 3.875 6 3.875ZM4.125 5C4.125 3.96447 4.96447 3.125 6 3.125C7.03553 3.125 7.875 3.96447 7.875 5C7.875 6.03553 7.03553 6.875 6 6.875C4.96447 6.875 4.125 6.03553 4.125 5Z" fill="#ECECEC"/>
</svg>
