<svg width="13" height="14" viewBox="0 0 13 14" fill="none"
    xmlns="http://www.w3.org/2000/svg">
    <path d="M12 9.61111V6.5596C12 3.93878 12 2.62837 11.1945 1.81418C10.3891 1 9.09273 1 6.5 1C3.90728 1 2.61091 1 1.80546 1.81418C1 2.62837 1 3.93878 1 6.55959V9.61111C1 11.5035 1 12.4496 1.44862 12.8631C1.66258 13.0603 1.93265 13.1841 2.22034 13.2171C2.82357 13.2861 3.528 12.663 4.93687 11.4169C5.55963 10.8661 5.87101 10.5907 6.23128 10.5181C6.40868 10.4824 6.59132 10.4824 6.76872 10.5181C7.12899 10.5907 7.44036 10.8661 8.06312 11.4169C9.47199 12.663 10.1764 13.2861 10.7797 13.2171C11.0674 13.1841 11.3374 13.0603 11.5514 12.8631C12 12.4496 12 11.5035 12 9.61111Z" stroke="#ECECEC"/>
    <path d="M8.33463 3.44434H4.66797" stroke="#ECECEC" stroke-linecap="round"/>
</svg>
