<?xml version="1.0" encoding="UTF-8"?>
<svg id="Layer_1" xmlns="http://www.w3.org/2000/svg" version="1.1" viewBox="0 0 68.03 68.03">
  <!-- Generator: Adobe Illustrator 29.8.2, SVG Export Plug-In . SVG Version: 2.1.1 Build 3)  -->
  <defs>
    <style>
      .st0, .st1 {
        fill: #acacac;
      }

      .st1 {
        fill-rule: evenodd;
      }

      .st2 {
        display: none;
      }
    </style>
  </defs>
  <g id="Layer_21" class="st2">
    <g id="Layer_11">
      <g>
        <path class="st1" d="M60.04,27.73c-2.91-12.11-13.39-20.44-26.07-20.61-1.67,0-3.48.18-5.15.48C11.02,11.17,1.9,30.77,10.53,46.58c.35.4.35.84.26,1.32-1.23,4.05-2.42,8.32-3.48,12.46-.13.48.04.66.48.48,4.32-1.15,8.63-2.33,12.95-3.3.4-.09.66-.09,1.01,0,5.55,2.82,11.36,3.66,17.53,2.51,14.62-2.82,24.27-17.79,20.79-32.33h-.04ZM37.71,55.74c-1.23.26-2.51.35-3.08.26-4.76,0-8.54-1.1-12.07-3.08-.48-.35-.92-.4-1.32-.18-2.42.57-4.76,1.23-7.13,1.85-.48.18-.57,0-.4-.4.66-2.25,1.23-4.49,1.89-6.74.18-.57.09-1.1-.26-1.59-4.8-7.88-4.67-17.62.75-24.93,5.64-7.58,13.39-10.61,22.59-8.72,9.07,1.89,14.89,7.8,16.96,16.87,2.91,12.38-5.42,24.66-17.97,26.73v-.09h.04Z"/>
        <path class="st1" d="M40.97,46.58c-.92.09-1.89,0-2.73-.35-6.17-1.85-10.7-5.55-14.45-10.61-1.41-1.89-2.73-3.92-3.08-6.3-.57-2.73.35-5.24,2.42-7.13.66-.66,2.73-1.01,3.57-.48.26.26.4.4.57.66.75,1.89,1.59,3.66,2.33,5.51.09.4.09.75-.09,1.15-.4.84-1.01,1.5-1.67,2.25-.48.4-.48.92-.18,1.41,2.16,3.66,5.15,6.3,9.16,7.8.57.26,1.01.18,1.41-.35.66-.84,1.32-1.67,1.98-2.51.4-.48.92-.57,1.5-.35,1.32.57,2.55,1.15,3.83,1.76.35.18.57.35.92.4,1.32.66,1.32.75,1.15,2.16-.18,2.82-2.33,4.23-4.76,4.89-.66.18-1.15.18-1.76,0l-.18.09.04.04Z"/>
      </g>
    </g>
  </g>
  <g id="_x31_82_x2C__Instagram_x2C__Sets_x2C__Share">
    <g>
      <path class="st0" d="M38.68,59.96c-.5,0-.91-.2-1.11-.7l-10.6-19L7.68,29.76c-.4-.2-.71-.7-.61-1.2.1-.5.4-.9.81-1.1l46.46-15.9c.51-.2,1.01,0,1.31.3.3.3.51.8.3,1.3l-16.06,46c-.2.5-.61.8-1.11.8h-.1ZM11.41,28.96l17.17,9.3c.2.1.4.3.5.5l9.39,17,14.24-40.9L11.41,28.96Z"/>
      <path class="st0" d="M27.88,40.56c-.3,0-.61-.1-.91-.4-.5-.5-.5-1.3,0-1.8l25.85-25.6c.5-.5,1.31-.5,1.82,0s.5,1.3,0,1.8l-25.85,25.6c-.2.3-.5.4-.91.4Z"/>
    </g>
  </g>
</svg>