<svg width="14" height="14" viewBox="0 0 14 14" fill="none"
    xmlns="http://www.w3.org/2000/svg">
    <path d="M5.09397 3.29076C5.91822 1.90716 6.33035 1.21536 6.91717 1.22124C7.50399 1.22712 7.87687 1.92679 8.62263 3.32613L8.81557 3.68815C9.02749 4.0858 9.13345 4.28463 9.30368 4.41682C9.47391 4.54901 9.68914 4.5996 10.1196 4.70079L10.5115 4.79291C12.0263 5.149 12.7836 5.32704 12.9487 5.90505C13.1138 6.48306 12.5773 7.07824 11.5042 8.2686L11.2265 8.57656C10.9216 8.91483 10.7691 9.08396 10.6968 9.29436C10.6244 9.50477 10.6403 9.73263 10.6721 10.1883L10.701 10.6032C10.813 12.2069 10.8689 13.0087 10.3841 13.3601C9.89935 13.7114 9.19487 13.3796 7.7859 12.716L7.42138 12.5443C7.02099 12.3557 6.8208 12.2614 6.60584 12.2592C6.39087 12.2571 6.18548 12.3473 5.77468 12.5278L5.40069 12.692C3.95509 13.3271 3.23228 13.6446 2.76758 13.2837C2.30288 12.9229 2.40403 12.1226 2.60634 10.5221L2.65868 10.108C2.71617 9.6532 2.74491 9.42579 2.68444 9.21405C2.62396 9.00232 2.48112 8.83022 2.19542 8.48604L1.93533 8.17269C0.929964 6.96149 0.427283 6.3559 0.624872 5.78152C0.822461 5.20715 1.58946 5.04438 3.12347 4.71886L3.52033 4.63464C3.95625 4.54214 4.17421 4.49589 4.35179 4.36718C4.52938 4.23848 4.6465 4.04189 4.88072 3.64871L5.09397 3.29076Z" stroke="#ECECEC"/>
</svg>
