<svg width="19" height="19" viewBox="0 0 19 19" fill="none"
    xmlns="http://www.w3.org/2000/svg">
    <g clip-path="url(#clip0_543_5746)">
        <path d="M18.7707 9.38533C18.7707 4.202 14.5687 0 9.38533 0C4.202 0 0 4.202 0 9.38533C0 13.7867 3.03033 17.48 7.11821 18.4943V12.2535H5.18295V9.38533H7.11821V8.14947C7.11821 4.95508 8.56392 3.47445 11.7001 3.47445C12.2948 3.47445 13.3208 3.5912 13.7405 3.70758V6.30731C13.519 6.28404 13.1342 6.2724 12.6563 6.2724C11.1175 6.2724 10.5228 6.85542 10.5228 8.37096V9.38533H13.5885L13.0617 12.2535H10.5228V18.702C15.1701 18.1407 18.771 14.1839 18.771 9.38533H18.7707Z" fill="#ECECEC"/>
        <path d="M13.0614 12.2536L13.5881 9.38549H10.5225V8.37112C10.5225 6.85558 11.1171 6.27256 12.656 6.27256C13.1339 6.27256 13.5187 6.2842 13.7402 6.30748V3.70774C13.3204 3.59099 12.2944 3.47461 11.6998 3.47461C8.56359 3.47461 7.11787 4.95524 7.11787 8.14963V9.38549H5.18262V12.2536H7.11787V18.4945C7.84392 18.6747 8.60338 18.7708 9.38499 18.7708C9.76979 18.7708 10.1493 18.7472 10.5221 18.7021V12.2536H13.061H13.0614Z" fill="#141213"/>
    </g>
    <defs>
        <clipPath id="clip0_543_5746">
            <rect width="18.7707" height="18.7707" fill="white"/>
        </clipPath>
    </defs>
</svg>
