<svg width="63" height="119" viewBox="0 0 63 119" fill="none"
    xmlns="http://www.w3.org/2000/svg">
    <path d="M11.1741 56.4284H7.75937V45.4239L19.0411 38.2164L18.9865 29.375L0.119246 41.7151L0.123445 41.7193H0.0898438V64.0307H4.29003H7.75937H11.1741V111.056H7.72577V70.8392H0.119246V118.486H3.42899H7.72577H11.1741H13.816H18.7807V56.4284H14.6771H11.1741Z" fill="#C7A57A"/>
    <path d="M40.5175 0L21.8813 12.4703L21.8855 12.4745H21.8813H21.8477L21.8813 12.4913V118.487H25.1868H29.4836H32.9319H35.5738H40.5385L40.5175 0ZM32.9361 111.057H29.4878V16.3051L29.5214 16.3219L32.9403 13.8438V111.057H32.9361Z" fill="#C7A57A"/>
    <path d="M51.5753 110.916H54.8851H59.1818H62.4874V41.5039L62.521 41.4871H62.4874H62.4832L62.4874 41.4829L43.8554 29.6006L43.8008 38.421L43.8344 110.916L43.8008 118.489H51.5711L51.5753 110.916ZM51.4367 43.3604L54.8557 45.4521L54.8893 45.4353V103.31H51.4409V43.3604H51.4367Z" fill="#C7A57A"/>
</svg>
