<svg width="20" height="19" viewBox="0 0 20 19" fill="none"
    xmlns="http://www.w3.org/2000/svg">
    <g clip-path="url(#clip0_543_5748)">
        <path d="M9.92634 1.69009C12.434 1.69009 12.7309 1.70109 13.7171 1.74508C14.6337 1.78541 15.1286 1.93939 15.4586 2.0677C15.8948 2.23635 16.2101 2.44165 16.5364 2.76794C16.8664 3.09789 17.068 3.40951 17.2366 3.84578C17.3649 4.17574 17.5189 4.67433 17.5593 5.5872C17.6032 6.57706 17.6142 6.87402 17.6142 9.37799C17.6142 11.8856 17.6032 12.1826 17.5593 13.1688C17.5189 14.0853 17.3649 14.5803 17.2366 14.9102C17.068 15.3465 16.8627 15.6618 16.5364 15.9881C16.2064 16.318 15.8948 16.5196 15.4586 16.6883C15.1286 16.8166 14.63 16.9706 13.7171 17.0109C12.7273 17.0549 12.4303 17.0659 9.92634 17.0659C7.4187 17.0659 7.12174 17.0549 6.13555 17.0109C5.21901 16.9706 4.72408 16.8166 4.39413 16.6883C3.95786 16.5196 3.64257 16.3143 3.31629 15.9881C2.98633 15.6581 2.7847 15.3465 2.61605 14.9102C2.48774 14.5803 2.33376 14.0817 2.29343 13.1688C2.24944 12.1789 2.23844 11.882 2.23844 9.37799C2.23844 6.87035 2.24944 6.57339 2.29343 5.5872C2.33376 4.67067 2.48774 4.17574 2.61605 3.84578C2.7847 3.40951 2.99 3.09422 3.31629 2.76794C3.64624 2.43799 3.95786 2.23635 4.39413 2.0677C4.72408 1.93939 5.22268 1.78541 6.13555 1.74508C7.12174 1.70109 7.4187 1.69009 9.92634 1.69009ZM9.92634 0C7.37837 0 7.05942 0.0109984 6.05856 0.0549922C5.06137 0.0989859 4.3758 0.260296 3.78189 0.491263C3.16231 0.733229 2.63805 1.05218 2.11746 1.57644C1.5932 2.09703 1.27424 2.62129 1.03228 3.2372C0.801312 3.83479 0.640001 4.51669 0.596008 5.51388C0.552014 6.5184 0.541016 6.83736 0.541016 9.38533C0.541016 11.9333 0.552014 12.2523 0.596008 13.2531C0.640001 14.2503 0.801312 14.9359 1.03228 15.5298C1.27424 16.1494 1.5932 16.6736 2.11746 17.1942C2.63805 17.7148 3.16231 18.0374 3.77822 18.2757C4.3758 18.5067 5.0577 18.668 6.05489 18.712C7.05575 18.756 7.37471 18.767 9.92268 18.767C12.4706 18.767 12.7896 18.756 13.7905 18.712C14.7876 18.668 15.4732 18.5067 16.0671 18.2757C16.683 18.0374 17.2073 17.7148 17.7279 17.1942C18.2485 16.6736 18.5711 16.1494 18.8094 15.5335C19.0404 14.9359 19.2017 14.254 19.2457 13.2568C19.2897 12.2559 19.3007 11.937 19.3007 9.38899C19.3007 6.84102 19.2897 6.52207 19.2457 5.52121C19.2017 4.52402 19.0404 3.83845 18.8094 3.24454C18.5784 2.62129 18.2595 2.09703 17.7352 1.57644C17.2146 1.05585 16.6904 0.733229 16.0745 0.494929C15.4769 0.263962 14.795 0.102652 13.7978 0.0586583C12.7933 0.0109984 12.4743 0 9.92634 0Z" fill="#ECECEC"/>
        <path d="M9.92645 4.56445C7.26483 4.56445 5.10547 6.72381 5.10547 9.38543C5.10547 12.0471 7.26483 14.2064 9.92645 14.2064C12.5881 14.2064 14.7474 12.0471 14.7474 9.38543C14.7474 6.72381 12.5881 4.56445 9.92645 4.56445ZM9.92645 12.5127C8.19969 12.5127 6.79923 11.1122 6.79923 9.38543C6.79923 7.65868 8.19969 6.25821 9.92645 6.25821C11.6532 6.25821 13.0537 7.65868 13.0537 9.38543C13.0537 11.1122 11.6532 12.5127 9.92645 12.5127Z" fill="#ECECEC"/>
        <path d="M16.0635 4.37355C16.0635 4.9968 15.5576 5.49906 14.938 5.49906C14.3148 5.49906 13.8125 4.99313 13.8125 4.37355C13.8125 3.75031 14.3184 3.24805 14.938 3.24805C15.5576 3.24805 16.0635 3.75398 16.0635 4.37355Z" fill="#ECECEC"/>
    </g>
    <defs>
        <clipPath id="clip0_543_5748">
            <rect width="18.7707" height="18.7707" fill="white" transform="translate(0.541016)"/>
        </clipPath>
    </defs>
</svg>
