<svg width="20" height="19" viewBox="0 0 20 19" fill="none"
    xmlns="http://www.w3.org/2000/svg">
    <g clip-path="url(#clip0_543_5749)">
        <path d="M17.6975 0H1.69814C1.33064 0 0.978202 0.145987 0.718345 0.405845C0.458487 0.665702 0.3125 1.01814 0.3125 1.38564V17.385C0.3125 17.7525 0.458487 18.105 0.718345 18.3648C0.978202 18.6247 1.33064 18.7707 1.69814 18.7707H17.6975C18.065 18.7707 18.4175 18.6247 18.6773 18.3648C18.9372 18.105 19.0832 17.7525 19.0832 17.385V1.38564C19.0832 1.01814 18.9372 0.665702 18.6773 0.405845C18.4175 0.145987 18.065 0 17.6975 0ZM5.9072 15.9902H3.08508V7.02596H5.9072V15.9902ZM4.49418 5.78371C4.17406 5.7819 3.86165 5.68531 3.59637 5.50613C3.3311 5.32694 3.12484 5.07318 3.00365 4.77689C2.88245 4.48059 2.85174 4.15503 2.91539 3.8413C2.97904 3.52757 3.1342 3.23972 3.36129 3.01408C3.58838 2.78845 3.87721 2.63514 4.19135 2.5735C4.50549 2.51187 4.83084 2.54467 5.12635 2.66777C5.42186 2.79087 5.67429 2.99874 5.85177 3.26516C6.02925 3.53159 6.12383 3.84461 6.12358 4.16474C6.1266 4.37906 6.08644 4.5918 6.00549 4.79027C5.92454 4.98875 5.80447 5.16889 5.65241 5.31997C5.50036 5.47105 5.31945 5.58996 5.12047 5.66964C4.92148 5.74931 4.70849 5.7881 4.49418 5.78371ZM16.3093 15.9981H13.4885V11.1008C13.4885 9.65646 12.8745 9.21066 12.082 9.21066C11.2451 9.21066 10.4239 9.84156 10.4239 11.1373V15.9981H7.60177V7.03248H10.3157V8.27473H10.3522C10.6246 7.72334 11.5788 6.7809 13.0348 6.7809C14.6095 6.7809 16.3106 7.71552 16.3106 10.4529L16.3093 15.9981Z" fill="#ECECEC"/>
    </g>
    <defs>
        <clipPath id="clip0_543_5749">
            <rect width="18.7707" height="18.7707" fill="white" transform="translate(0.3125)"/>
        </clipPath>
    </defs>
</svg>
