<svg width="19" height="19" viewBox="0 0 19 19" fill="none"
    xmlns="http://www.w3.org/2000/svg">
    <g clip-path="url(#clip0_543_5750)">
        <path d="M9.46736 18.7707C14.6507 18.7707 18.8527 14.5687 18.8527 9.38533C18.8527 4.20195 14.6507 0 9.46736 0C4.28399 0 0.0820312 4.20195 0.0820312 9.38533C0.0820312 14.5687 4.28399 18.7707 9.46736 18.7707Z" fill="#ECECEC"/>
        <path fill-rule="evenodd" clip-rule="evenodd" d="M4.33056 9.28668C7.06658 8.09464 8.89101 7.30878 9.80387 6.92909C12.4103 5.84499 12.9519 5.65668 13.3049 5.65046C13.3825 5.64909 13.5561 5.66833 13.6686 5.75957C13.7635 5.83662 13.7896 5.94069 13.8021 6.01374C13.8146 6.08679 13.8302 6.25319 13.8178 6.38321C13.6766 7.86725 13.0654 11.4686 12.7545 13.1308C12.6229 13.8341 12.3639 14.0699 12.1131 14.093C11.5681 14.1431 11.1542 13.7328 10.6263 13.3868C9.8003 12.8453 9.33365 12.5082 8.53184 11.9798C7.60522 11.3692 8.20591 11.0336 8.73399 10.4851C8.87219 10.3416 11.2736 8.15733 11.3201 7.95918C11.3259 7.9344 11.3313 7.84203 11.2764 7.79325C11.2215 7.74448 11.1405 7.76116 11.0821 7.77442C10.9992 7.79323 9.67962 8.66543 7.12328 10.391C6.74872 10.6482 6.40945 10.7735 6.10548 10.767C5.77038 10.7597 5.12577 10.5775 4.64657 10.4217C4.05881 10.2307 3.59167 10.1297 3.63235 9.8052C3.65354 9.63619 3.88628 9.46335 4.33056 9.28668Z" fill="#141213"/>
    </g>
    <defs>
        <clipPath id="clip0_543_5750">
            <rect width="18.7707" height="18.7707" fill="white" transform="translate(0.0820312)"/>
        </clipPath>
    </defs>
</svg>
