<svg width="90" height="99" viewBox="0 0 90 99" fill="none"
    xmlns="http://www.w3.org/2000/svg">
    <path d="M73.6074 98.0595C62.1695 98.0273 50.346 97.9952 38.4904 97.9952C26.6831 97.9952 14.4419 98.0113 2.13657 98.0434H2.10444C1.25303 98.0434 0.722901 97.9149 0.433741 97.6257C0.128516 97.3205 0.0160645 96.8064 0.0160645 95.7783C0.0803224 61.0148 0.0803223 34.4442 0 9.62461C0 8.61255 0.160645 7.96997 0.497998 7.61656C0.803223 7.31133 1.30122 7.18282 2.15264 7.18282C2.32935 7.18282 2.52212 7.18282 2.76309 7.19888C3.06831 7.21494 3.37354 7.23101 3.67876 7.26314C4.1607 7.29527 4.67476 7.34346 5.14063 7.34346C5.95991 7.34346 6.97198 7.24707 7.71094 6.49204C8.38565 5.80127 8.70694 4.6607 8.67481 3.02212C8.65874 2.41167 8.83545 1.92974 9.20494 1.56025C10.1206 0.628515 12.0483 0.516064 13.6387 0.516064H13.703C15.3094 0.516064 18.0083 0.965869 18.0886 3.96992C18.1689 6.81333 19.3095 7.31133 21.687 7.32739H21.7513C24.1449 7.32739 24.916 6.52417 24.9642 4.00205C24.9963 1.60845 26.4421 0.532129 29.6229 0.5H29.7514C33.0928 0.5 34.5225 1.57632 34.5547 4.09844C34.5707 6.49204 35.3739 7.31133 37.7033 7.31133C37.7836 7.31133 37.8639 7.31133 37.9282 7.31133C40.0005 7.2792 41.4463 7.02217 41.4142 4.17876C41.3821 1.75303 42.8118 0.580322 45.9122 0.5C46.0568 0.5 46.1853 0.5 46.3299 0.5C49.4785 0.5 50.9083 1.57632 50.9886 3.96992C51.085 6.76514 52.2416 7.2792 54.6513 7.32739C54.6995 7.32739 54.7637 7.32739 54.8119 7.32739C57.1574 7.32739 57.9606 6.49204 57.9927 4.01812C58.0248 1.68877 59.4224 0.564258 62.2659 0.532129H62.4908C65.4466 0.532129 67.4386 1.07832 67.5029 3.79321C67.5671 6.21895 68.4989 7.35952 70.4587 7.35952C70.8603 7.35952 71.3101 7.31133 71.8403 7.23101C72.4025 7.13462 72.8845 7.08643 73.3021 7.08643C74.1696 7.08643 74.7961 7.29527 75.1977 7.71294C75.7761 8.30733 76.017 9.41577 75.9688 11.2632C75.7921 17.9781 75.8082 24.8055 75.8403 31.408C75.8564 35.1671 75.8725 39.0547 75.8403 42.878C75.8243 44.9986 76.3383 46.5889 77.5432 48.2275C81.4147 53.4645 82.2822 59.1031 80.1135 64.9827C79.4066 66.9105 79.6958 68.0992 81.254 69.5129C83.2139 71.28 85.0774 73.2399 86.8766 75.1194C87.214 75.4728 87.5352 75.8102 87.8726 76.1475C90.475 78.8624 90.716 82.3966 88.4509 84.742C87.2943 85.9308 85.8967 86.5734 84.3866 86.5734C82.8605 86.5734 81.2862 85.9308 79.8243 84.726C79.5512 84.5011 79.2942 84.2119 79.0371 83.9227C78.3946 83.1998 77.6556 82.3645 76.2741 82.0914L75.8885 82.0111V82.3966C75.8885 83.7139 75.8885 85.0312 75.8725 86.3003C75.8564 89.4971 75.8403 92.5012 75.9206 95.5695C75.9528 96.6618 75.8243 97.2402 75.503 97.5936C75.1817 97.9309 74.5873 98.0755 73.6555 98.0755H73.6074V98.0595ZM5.30127 9.92984C4.3856 9.92984 3.77515 10.1226 3.35747 10.5403C2.76309 11.1347 2.73096 12.0503 2.73096 13.0303C2.76309 36.5005 2.79522 64.2598 2.71489 92.0513C2.71489 93.3686 2.92373 94.1558 3.42173 94.6538C3.8876 95.1197 4.6105 95.3285 5.75108 95.3285C5.8314 95.3285 5.91172 95.3285 5.99204 95.3285C8.41778 95.2642 11.0523 95.2482 14.2974 95.2482C16.1127 95.2482 17.9601 95.2482 19.7432 95.2642C21.5264 95.2642 23.3577 95.2803 25.173 95.2803H45.9122C52.3862 95.2803 60.9164 95.2803 69.5752 95.2642C69.8001 95.2642 70.041 95.2803 70.282 95.2964C70.523 95.3124 70.78 95.3285 71.021 95.3285C71.535 95.3285 72.1776 95.2642 72.6274 94.7984C73.029 94.3807 73.2057 93.7221 73.1736 92.7742C73.1094 90.6216 73.1254 88.4208 73.1415 86.3003C73.1576 84.0994 73.1736 81.8344 73.0933 79.6014C73.013 77.272 71.9688 75.9869 70.1696 75.9869C69.6555 75.9869 69.0772 76.0833 68.4667 76.2921C66.7157 76.8704 65.0129 77.1596 63.3904 77.1596C62.2498 77.1596 61.1413 77.015 60.1132 76.7259C56.7879 75.7941 53.4786 75.7299 50.3782 75.7299C49.9283 75.7299 49.4785 75.7299 49.0287 75.7299C48.5789 75.7299 48.1291 75.7299 47.6793 75.7299C47.3098 75.7299 46.9564 75.7299 46.5869 75.7299C44.3218 75.7138 42.5708 75.6977 40.9322 75.6977C38.876 75.6977 37.0446 75.7138 35.2936 75.7459C35.2454 75.7459 35.1972 75.7459 35.1651 75.7459C33.7836 75.7459 33.382 75.3443 33.3498 73.9628C33.3338 73.4648 33.4301 73.1114 33.6069 72.9346C33.7514 72.7901 33.9603 72.7258 34.3137 72.7258C34.4583 72.7258 34.6189 72.7419 34.7796 72.7419C34.9402 72.7579 35.1169 72.7579 35.2776 72.7579H35.3097C36.5948 72.7579 37.8961 72.7579 39.1812 72.7579C40.4664 72.7579 41.7676 72.7579 43.0528 72.7579C46.0247 72.7579 48.3058 72.7419 50.4424 72.7258V72.0832C50.4906 72.0832 50.5227 72.0993 50.5227 72.0993C50.3781 72.019 50.0569 71.5692 49.5428 70.7659C49.4625 70.6535 49.4143 70.5571 49.3822 70.5089C49.0127 69.9627 48.6432 69.3844 48.2898 68.7579C47.5347 67.4085 46.8118 66.0109 46.1371 64.6133C45.7195 63.7297 44.9484 61.818 45.0126 61.4807C44.9966 61.5289 44.9162 61.6413 44.8038 61.6413V60.9987C44.3861 60.9987 43.9524 61.0309 43.5186 61.0469C43.0688 61.0791 42.603 61.0951 42.1692 61.0951C41.6873 61.0951 41.2857 61.063 40.9322 60.9987C40.2415 60.8702 39.4864 60.806 38.6993 60.806C37.9282 60.806 37.0928 60.8702 36.2254 60.9987H33.7836C33.5265 60.7417 33.382 60.2758 33.382 59.6333C33.382 59.1513 33.4623 58.814 33.639 58.6212C33.7996 58.4606 34.0567 58.3963 34.5065 58.3963C34.635 58.3963 34.7635 58.3963 34.892 58.4124C35.0366 58.4124 35.1651 58.4284 35.2936 58.4284C35.2936 58.4284 36.129 58.4124 36.5306 58.4124C37.6069 58.3963 38.7154 58.3802 39.7917 58.3802C41.109 58.3802 42.2013 58.3963 43.2295 58.4445C43.2937 58.4445 43.358 58.4445 43.4222 58.4445C45.2215 58.4445 45.3018 57.1915 45.366 56.2758C45.3821 56.067 45.3982 55.8421 45.4303 55.6493C45.5267 55.0388 45.4464 54.589 45.1893 54.2838C44.8841 53.9304 44.3861 53.8822 44.0006 53.8822C43.872 53.8822 43.7275 53.8822 43.5989 53.8983C43.4704 53.8983 43.358 53.9143 43.2455 53.9143H42.86C41.4624 53.8983 40.0005 53.8822 38.5708 53.8822C37.2214 53.8822 36.0165 53.8983 34.9081 53.9304C34.8599 53.9304 34.8278 53.9304 34.7956 53.9304C33.639 53.9304 33.4141 53.4645 33.398 52.1633C33.382 51.7135 33.4623 51.4083 33.639 51.2316C33.8799 50.9906 34.3619 50.9585 34.9081 50.9585H35.0205C35.5346 50.9585 36.0647 50.9585 36.5788 50.9585C37.2053 50.9585 39.7113 50.9585 40.3379 50.9585C41.5588 50.9585 43.1813 50.9585 44.7877 50.9745H44.8841C46.0889 50.9745 47.0046 50.7496 47.9203 49.6572C53.0288 43.4885 57.0931 41.0788 62.3944 41.0788C65.2056 41.0788 68.4828 41.7857 72.7238 43.2797L73.1576 43.4242V35.633C73.1576 27.9702 73.1576 20.7412 73.1576 13.3516C73.1576 13.1588 73.1736 12.966 73.1736 12.7732C73.2057 11.97 73.2379 11.1347 72.6917 10.5724C72.3061 10.1708 71.6796 9.96197 70.7961 9.9459H70.6836C68.4667 9.9459 67.6796 10.7009 67.5993 12.95C67.5189 15.456 66.041 16.5805 62.812 16.5805H62.6675C59.4867 16.5484 58.0409 15.4721 58.0248 13.1106C57.9927 10.476 56.8843 9.99409 54.5388 9.9459C54.4585 9.9459 54.3621 9.9459 54.2818 9.9459C52.2416 9.9459 51.1171 10.4439 51.0207 13.0785C50.9404 15.4721 49.5107 16.5966 46.5227 16.5966C46.4745 16.5966 46.4263 16.5966 46.362 16.5966C43.5026 16.5645 41.5909 15.9861 41.4784 13.3516C41.366 10.7331 40.5146 9.92984 37.8479 9.92984C35.2133 9.92984 34.6832 10.9901 34.5386 13.2391C34.394 15.5685 32.9 16.6127 29.7353 16.6127C26.5867 16.6127 25.0766 15.5203 24.9963 13.1909C24.916 10.7652 24.1288 9.9459 21.8959 9.9459C21.8155 9.9459 21.7192 9.9459 21.6228 9.9459C19.5344 9.99409 18.2332 10.1708 18.1207 12.9981C18.0083 15.4721 16.5143 16.6127 13.3978 16.6127C13.1889 16.6127 12.9801 16.6127 12.7552 16.5966C9.73506 16.452 8.35352 15.2472 8.41778 12.7572C8.44991 11.7451 8.25713 11.0704 7.83946 10.6367C7.32539 10.0905 6.53824 9.97803 5.42979 9.9459C5.39766 9.92984 5.34947 9.92984 5.30127 9.92984ZM77.7841 70.0591C75.5351 72.2117 74.507 73.1917 74.4909 74.3001C74.4748 75.3604 75.4066 76.2921 77.254 78.1395C77.6717 78.5572 78.0893 78.9749 78.491 79.3765C79.4709 80.3564 80.499 81.3846 81.495 82.3805C82.3946 83.2802 83.2942 83.746 84.1778 83.746C84.8846 83.746 85.5754 83.4408 86.234 82.8464C86.9087 82.236 87.2621 81.5613 87.2943 80.8544C87.3264 80.003 86.8927 79.1195 85.977 78.1717C84.1456 76.26 82.2822 74.3001 80.499 72.4206C79.744 71.6334 78.0412 69.8342 78.0412 69.8342L77.7841 70.0591ZM63.2137 43.7616C59.2457 43.7616 55.3099 45.4484 52.4183 48.3721C49.5267 51.3119 47.9203 55.2637 47.9845 59.2477C48.1291 67.5209 54.9565 74.2519 63.1976 74.2519H63.294C71.6314 74.2037 78.3946 67.3763 78.3785 59.0389C78.3624 50.6532 71.5832 43.8098 63.2779 43.7616H63.2137ZM46.1532 3.24702C45.3821 3.24702 44.852 3.40767 44.4986 3.77715C44.1773 4.1145 44.0166 4.59644 44.0327 5.25508C44.0488 5.97798 44.0327 6.71695 44.0327 7.42378C44.0327 7.69688 44.0327 7.96997 44.0327 8.24307C44.0327 8.56436 44.0327 8.88565 44.0327 9.20694C44.0488 9.86558 44.0488 10.5564 44.0166 11.215C43.9684 12.211 44.1291 12.8696 44.5307 13.3034C44.9002 13.6889 45.4464 13.8817 46.2014 13.8817C46.2656 13.8817 46.3299 13.8817 46.3942 13.8817C48.4344 13.8014 48.4183 12.2752 48.4022 11.2793C48.3862 9.64068 48.3701 7.47197 48.4183 5.30327C48.4343 4.64463 48.2898 4.1627 47.9685 3.82534C47.6151 3.45586 47.0849 3.29522 46.2496 3.27915C46.2175 3.24702 46.1853 3.24702 46.1532 3.24702ZM13.2853 3.21489C12.5303 3.21489 11.9841 3.40767 11.6307 3.76109C11.0684 4.32334 11.0845 5.20689 11.0845 6.0583C11.1005 7.72901 11.1166 9.70494 11.1005 11.6969C11.1005 12.4198 11.2612 12.9339 11.6146 13.3034C11.968 13.6729 12.4981 13.8496 13.2211 13.8496H13.2692C14.0082 13.8496 14.5383 13.6729 14.8918 13.3034C15.2291 12.95 15.3898 12.4359 15.3576 11.7291C15.3255 10.9419 15.3416 10.1547 15.3416 9.36758C15.3416 9.03023 15.3416 8.69287 15.3416 8.35552C15.3416 8.13062 15.3416 7.92178 15.3416 7.69688C15.3416 7.16675 15.3416 6.63662 15.3416 6.09043C15.3416 5.94585 15.3416 5.78521 15.3416 5.62456C15.3576 4.91773 15.3576 4.19483 14.8757 3.69683C14.5383 3.35947 14.0243 3.19883 13.3174 3.19883L13.2853 3.21489ZM62.7157 3.27915C62.5871 3.27915 62.4426 3.29522 62.298 3.31128C61.5429 3.42373 60.8843 3.87354 60.563 4.51611C60.547 4.56431 60.5148 4.6125 60.4988 4.64463C60.2417 5.27114 60.2899 5.97798 60.3381 6.60449V6.68482C60.4345 8.0503 60.4345 9.43184 60.3381 10.7973C60.2899 11.4881 60.2257 12.2752 60.6755 12.8857C61.061 13.4319 61.7839 13.7211 62.6835 13.7211C62.7478 13.7211 62.8281 13.7211 62.8924 13.7211C63.7438 13.6729 64.3542 13.4158 64.7237 12.95C65.1574 12.4038 65.1575 11.6809 65.1575 11.1507L65.1896 6.70088C65.2057 5.52818 64.8683 4.51611 64.2739 3.92173C63.8884 3.48799 63.3422 3.27915 62.7157 3.27915ZM29.9281 3.21489C29.8478 3.21489 29.7674 3.21489 29.7032 3.21489C28.8357 3.27915 28.0485 3.74502 27.6469 4.41973C27.5666 4.56431 27.4863 4.72495 27.4381 4.8856C27.2453 5.47998 27.2453 6.12256 27.2614 6.65269L27.3417 12.0343C27.3417 12.2431 27.3417 12.5162 27.4702 12.7732C27.7273 13.2712 28.3216 13.4319 28.5305 13.4801C28.9803 13.5925 29.4462 13.6568 29.9281 13.6568C30.3136 13.6568 30.6992 13.6247 31.0847 13.5443C32.2414 13.3034 32.1932 11.6327 32.1771 10.5242C32.1771 10.2993 32.161 10.0905 32.1771 9.9459C32.2092 9.25513 32.2253 8.54829 32.2414 7.87359C32.2574 7.21494 32.2735 6.52417 32.2896 5.84946C32.2896 5.78521 32.2896 5.72095 32.3056 5.64063C32.3378 5.07837 32.386 4.29121 31.9683 3.85747C31.5024 3.3916 30.5867 3.21489 29.9281 3.21489Z" fill="#C7A57A"/>
    <path d="M60.6138 38.7815C60.5656 38.7815 60.5014 38.7815 60.4371 38.7815C58.8146 38.7494 57.0636 38.7334 54.927 38.7334C53.674 38.7334 52.437 38.7333 51.184 38.7494C50.0113 38.7494 48.8386 38.7655 47.6659 38.7655H47.3928C46.2683 38.7655 45.1598 38.7655 44.0353 38.7655C42.9108 38.7655 41.8023 38.7655 40.6778 38.7655C38.5573 38.7655 36.8384 38.7815 35.2641 38.7976C35.232 38.7976 35.1838 38.7976 35.1517 38.7976C34.3966 38.7976 33.9629 38.6852 33.6898 38.4121C33.4328 38.155 33.3203 37.7052 33.3203 37.0305C33.3364 35.9221 33.7701 35.8257 34.3484 35.8257C34.493 35.8257 34.6537 35.8417 34.8143 35.8417C34.975 35.8578 35.1517 35.8578 35.3123 35.8578C39.4087 35.8417 43.7301 35.8417 49.3526 35.8417C51.9711 35.8417 54.5736 35.8417 57.1921 35.8417H60.5014C60.6299 35.8417 60.7584 35.8417 60.8869 35.8417C60.9994 35.8417 61.1279 35.8417 61.2403 35.8417C61.7223 35.8417 61.9954 35.906 62.156 36.0827C62.3327 36.2594 62.4291 36.6128 62.4291 37.1108C62.4291 38.5406 61.8829 38.7815 60.6138 38.7815Z" fill="#C7A57A"/>
    <path d="M16.7721 40.6768C16.1135 39.9057 15.4709 39.1668 14.8444 38.4439C13.1737 36.5161 11.5994 34.7009 9.99291 32.9338C9.46279 32.3715 9.27001 32.0181 9.28608 31.7129C9.30214 31.4237 9.52704 31.0864 9.97685 30.6848C10.3624 30.3474 10.6676 30.1868 10.9247 30.1868C11.2941 30.1868 11.6154 30.508 12.0492 30.9257C12.1134 30.99 12.1777 31.0542 12.258 31.1185C12.7399 31.5844 13.1737 32.2269 13.5914 32.8535C14.4428 34.1386 15.3263 35.4559 16.7561 35.4559C16.9006 35.4559 17.0452 35.4398 17.1898 35.4238C18.475 35.1989 19.487 33.8013 20.4669 32.4679C20.8686 31.9057 21.3023 31.3434 21.72 30.8615C22.6999 29.7851 23.6638 28.6928 24.4831 27.7771L24.6276 27.6164C25.0775 27.1024 25.4469 26.6686 25.8967 26.6686C26.202 26.6686 26.5554 26.8614 26.9891 27.263C27.9851 28.1787 27.6156 28.5803 26.9088 29.3675C26.8606 29.4317 26.7964 29.4799 26.7482 29.5442C24.3224 32.2591 21.8967 34.9579 19.4067 37.7531L16.7721 40.6768Z" fill="#C7A57A"/>
    <path d="M34.9402 31.408C33.7032 31.408 33.3498 31.0545 33.3338 29.7854C33.3177 29.2393 33.4141 28.8698 33.6229 28.6609C33.8639 28.4039 34.3137 28.3557 34.9402 28.3557C35.0045 28.3557 35.0687 28.3557 35.133 28.3557C36.3699 28.3718 37.7194 28.3718 39.4061 28.3718C40.2575 28.3718 41.0929 28.3718 41.9443 28.3718C42.7957 28.3718 43.6311 28.3718 44.4825 28.3718H44.8841C45.7516 28.3718 46.6351 28.3718 47.5026 28.3718C48.5147 28.3718 49.5428 28.3718 50.5549 28.3718C52.1292 28.3718 53.4304 28.3718 54.6352 28.3557H54.7155C54.828 28.3557 54.9405 28.3557 55.0368 28.3557C55.6794 28.3557 56.1292 28.4039 56.3863 28.677C56.5951 28.9019 56.6915 29.3035 56.6754 29.8979C56.6272 31.167 56.1774 31.3919 54.9244 31.3919H54.8762C51.2617 31.3758 48.0327 31.3598 45.0126 31.3598C41.4463 31.3598 38.1692 31.3758 35.0045 31.3919L34.9402 31.408Z" fill="#C7A57A"/>
    <path d="M16.7231 62.8303C16.3857 62.8303 15.9841 62.5251 15.5183 61.9146C13.8475 59.7298 11.968 57.6575 10.1367 55.6495L9.86356 55.3443C9.10853 54.525 8.94788 54.1876 9.81537 53.3844C10.2652 52.9667 10.6025 52.7739 10.8917 52.7739C11.1969 52.7739 11.5343 52.9828 12.0965 53.4968C12.6106 53.9627 13.0604 54.6535 13.4941 55.2961C14.3616 56.5973 15.2452 57.9467 16.7231 57.9467C16.9159 57.9467 17.1086 57.9306 17.3014 57.8824C18.6669 57.5611 19.7271 56.1153 20.7392 54.7338C21.1729 54.1394 21.6067 53.529 22.0726 53.031L22.4099 52.6615C23.2935 51.6816 24.2091 50.6856 25.0927 49.6735C25.414 49.304 25.671 49.1434 25.912 49.1434C26.0887 49.1434 26.2975 49.2398 26.5063 49.4486C26.6188 49.561 26.7473 49.6574 26.8758 49.7538C27.3096 50.0912 27.6469 50.3803 27.6469 50.9747C27.5666 51.0711 27.4863 51.1675 27.406 51.2639C27.165 51.5691 26.8919 51.9065 26.6188 52.2117C25.6871 53.2559 24.7714 54.284 23.8396 55.3282C21.9601 57.4166 20.0163 59.5853 18.1528 61.754C17.5584 62.4287 17.1408 62.8303 16.7231 62.8303Z" fill="#C7A57A"/>
    <path d="M16.7187 84.6452C16.4617 84.6452 16.1404 84.4203 15.7709 83.9384C14.4858 82.3319 13.1203 80.7737 11.787 79.2636C11.1765 78.5729 10.5339 77.85 9.92348 77.1271C9.84315 77.0307 9.7307 76.9343 9.65038 76.8379C9.15238 76.3399 9.0078 76.115 9.34516 75.6973C9.65038 75.3278 10.0199 75.0226 10.4375 74.6853C10.5821 74.5728 10.7106 74.4604 10.8552 74.3318C12.3331 75.119 13.3131 76.5327 14.1645 77.7857C15.0962 79.1512 15.9155 79.7777 16.7669 79.7777C17.6344 79.7777 18.4537 79.1512 19.514 77.7054C20.4778 76.3881 21.6184 75.1833 22.7429 74.0106C23.4819 73.2234 24.253 72.4202 24.9598 71.5848C25.4417 71.0226 25.7148 70.9583 25.8755 70.9583C26.1325 70.9583 26.4377 71.135 26.8875 71.5527C27.6908 72.3077 27.8193 72.6451 27.0321 73.5126C23.755 77.0628 20.5581 80.7094 17.8272 83.842C17.4416 84.2436 17.0561 84.6452 16.7187 84.6452Z" fill="#C7A57A"/>
    <path d="M60.5163 82.9431C58.8456 82.9431 57.0304 82.927 54.7653 82.927C53.5926 82.927 49.1427 82.927 48.0824 82.927L47.7612 82.9109C46.6366 82.9109 45.5282 82.9109 44.4037 82.9109C43.2792 82.9109 42.1707 82.9109 41.0462 82.9109C38.8293 82.9109 37.0301 82.9109 35.3915 82.8949H35.3594C35.2309 82.8949 35.1023 82.8949 34.9738 82.8949C34.8453 82.8949 34.7329 82.8949 34.6204 82.8949C33.9296 82.8949 33.4316 82.7985 33.3674 81.6579C33.3353 81.0635 33.4316 80.678 33.6405 80.4531C33.8814 80.196 34.3152 80.1478 34.9738 80.1478C35.0542 80.1478 35.4397 80.1478 35.4397 80.1478C39.263 80.1478 43.1025 80.1478 46.9258 80.1478C51.9379 80.1478 56.3878 80.1478 60.5645 80.1318H60.677C61.3035 80.1318 61.8176 80.1478 62.0907 80.4209C62.2834 80.6298 62.3798 80.9832 62.3798 81.5294C62.3798 82.8467 61.8176 82.9109 60.7573 82.9109L60.5163 82.9431Z" fill="#C7A57A"/>
    <path d="M60.2751 66.8785C59.9377 66.8785 59.5522 66.6215 59.0542 66.0753C57.3031 64.1476 55.5039 62.3644 53.7047 60.7741C52.7248 59.9066 53.0621 59.521 53.8171 58.6696L53.9778 58.4929C54.283 58.1555 54.54 57.9788 54.7489 57.9788C55.022 57.9788 55.3111 58.2519 55.6646 58.5893C55.7449 58.6696 55.8252 58.7339 55.9055 58.8142C58.1064 60.8062 59.2148 61.8022 60.3875 61.8022C61.5923 61.8022 62.6526 60.7098 64.741 58.525C65.3354 57.9146 65.9297 57.272 66.5081 56.6615C67.3755 55.7459 68.2591 54.8141 69.1587 53.8985C69.2069 53.8503 69.2551 53.786 69.3193 53.7378C69.5764 53.4647 69.8013 53.2238 70.0583 53.2238C70.2029 53.2238 70.3796 53.3041 70.5884 53.4647C71.0061 53.8021 71.488 54.043 71.986 54.3001C72.0985 54.3483 72.1949 54.4125 72.3073 54.4607C72.0824 54.7499 71.9057 54.9748 71.7451 55.1836C71.3917 55.6495 71.1507 55.9386 70.8937 56.2117C69.8816 57.272 68.8535 58.3483 67.8414 59.3925C65.7691 61.5451 63.6325 63.7781 61.5763 66.0271C61.014 66.6215 60.6285 66.8785 60.2751 66.8785Z" fill="#C7A57A"/>
</svg>
