<svg width="117" height="97" viewBox="0 0 117 97" fill="none"
    xmlns="http://www.w3.org/2000/svg">
    <path d="M115.562 46.3287C112.754 33.3301 105.47 21.5883 95.0433 13.2629C84.7544 5.03574 71.8933 0.5 58.8358 0.5C55.2622 0.5 51.669 0.833799 48.1543 1.5014C38.533 3.30784 30.0898 6.95999 23.0408 12.3204C15.9721 17.7005 10.2582 24.8673 6.01699 33.6443C-2.58325 51.4927 -1.95492 69.7142 7.84307 87.7983C9.55134 90.9596 11.5149 93.7674 13.6747 96.1433C13.9496 96.4574 14.4012 96.8698 14.9707 96.8698C15.3045 96.8698 15.6186 96.7323 15.9132 96.4574C16.62 95.7898 16.6397 94.9455 15.9917 94.1797L15.8739 94.0423C15.7364 93.8852 15.6186 93.7478 15.5008 93.5907C5.62429 81.0045 1.6776 66.7297 3.77857 51.2375C7.43073 24.1801 30.9341 3.72018 58.4235 3.64164H58.6395C68.8891 3.64164 76.8806 5.72297 85.4024 10.6122C102.996 20.7047 112.558 36.0594 113.834 56.2837C114.659 69.5375 110.732 81.9077 102.151 93.0605C102.033 93.2176 101.857 93.3747 101.68 93.5514C101.189 94.0423 100.62 94.5921 100.659 95.2793C100.679 95.6917 100.914 96.0844 101.385 96.4574C101.759 96.752 102.112 96.8894 102.465 96.8894C103.329 96.8894 103.84 96.0647 104.233 95.3971C104.35 95.2204 104.449 95.0437 104.547 94.9062C115.641 80.1994 119.352 63.8433 115.562 46.3287Z" fill="#C7A57A"/>
    <path d="M88.8221 90.3117C88.8024 90.1742 88.7632 90.076 88.7239 89.9779C88.7043 89.9386 88.7043 89.919 88.6846 89.8797C88.2723 88.3285 87.8599 86.7577 87.4672 85.2065C86.3873 81.0634 85.2681 76.783 84.1292 72.581C83.9722 72.0116 84.0114 71.8152 84.0703 71.7367C84.1292 71.6582 84.3256 71.56 84.8754 71.5403C85.975 71.5011 87.0745 71.2458 88.1937 70.9709C89.1362 70.7353 89.7253 70.0481 89.686 69.2038C89.6468 68.4183 89.1166 67.8686 88.1152 67.574C86.7015 67.1617 85.2877 66.9457 83.8936 66.9457C83.658 66.9457 83.4224 66.9457 83.1671 66.9653C83.0493 66.9653 82.9315 66.9653 82.8333 66.9653C82.3228 66.9653 82.0283 66.8868 81.8908 66.7297C81.7337 66.553 81.7141 66.1799 81.8123 65.6498C81.9301 65.0607 82.205 63.4899 80.6931 63.0776C80.2022 62.9401 80.1433 62.8027 80.1433 62.8027C80.104 62.6848 80.3789 62.3314 80.4967 62.1547C80.536 62.0958 80.5753 62.0565 80.6145 61.9976C80.7912 61.7424 81.1447 61.5656 81.4981 61.3693C81.6748 61.2711 81.8515 61.1729 82.0283 61.0551L82.3424 60.8391L82.1461 60.5053C81.6552 59.7199 80.9483 59.6218 80.3985 59.6218C80.2807 59.6218 80.1433 59.6218 80.0255 59.6218C79.9077 59.6218 79.8095 59.6218 79.7113 59.6218C79.6917 59.6218 79.672 59.6218 79.6328 59.6218C79.6524 59.5236 79.7113 59.4254 79.8684 59.229C80.0844 58.9738 80.3985 58.5811 80.1825 58.0509L80.1236 57.9135L80.0058 57.8349C79.8095 57.7171 79.5935 57.6582 79.3971 57.6582C78.9259 57.6582 78.5725 57.9331 78.2976 58.1491C78.219 58.208 78.1012 58.3062 78.0423 58.3258C77.8067 58.0509 77.7085 57.5797 77.6103 57.0692C77.5514 56.7746 77.4925 56.4801 77.3943 56.2052C77.3354 56.0089 77.1784 55.8911 77.0409 55.7732C77.0016 55.734 76.9427 55.6947 76.8838 55.6358L76.2751 55.0664L76.0591 58.208C75.961 58.1098 75.8628 57.9724 75.7646 57.8349C75.4701 57.4226 75.1166 56.9317 74.3312 56.9317H73.8404L74.4687 59.5628C74.2331 59.5039 73.9974 59.4843 73.7618 59.4843C73.0746 59.4843 72.4266 59.7199 71.6805 60.2501L70.8362 60.8391L71.8572 60.9569C73.0353 61.0944 73.8207 61.5264 74.3705 62.3707C74.5276 62.6063 74.5669 62.7634 74.5669 62.8223C74.5472 62.8223 74.5276 62.8419 74.4883 62.8419C72.4855 63.1365 72.6622 64.6877 72.7997 65.7283V65.8069C72.8586 66.2388 72.8193 66.5334 72.7015 66.6708C72.5641 66.8279 72.2695 66.8868 71.6805 66.9064C70.3256 66.9457 68.9708 67.1028 67.6749 67.2795L67.0073 67.358C66.2219 67.4562 65.6525 67.7311 65.3383 68.1827C65.6328 66.6708 65.7506 65.316 65.6917 64.1771C65.5346 57.6386 65.0241 52.828 64.4351 47.6835C64.2191 45.7985 63.0213 45.5433 61.8628 45.5433H61.8236C59.6244 45.5433 57.2289 45.5629 54.3033 45.5629C52.6539 45.5629 50.9849 45.5629 49.3355 45.5629C47.6862 45.5629 46.0172 45.5629 44.3678 45.5629C42.1883 45.5629 40.0284 45.5629 37.8489 45.5825C35.0803 45.5825 32.9401 46.8785 31.6638 49.3132C31.5067 49.6078 31.3496 49.9023 31.1926 50.2165C30.525 51.4535 29.8574 52.7298 29.2879 54.0453C28.7578 55.302 27.9527 55.8518 26.539 55.9892C25.0074 56.1267 23.4563 56.323 21.9443 56.5194C20.0986 56.755 18.1744 56.9906 16.2894 57.1281C14.7186 57.2459 13.8939 57.8939 13.3245 59.4058C10.0454 68.2024 15.4058 76.9204 19.0776 80.6904C19.4899 81.1224 19.9612 81.3383 20.4913 81.3383C20.5306 81.3383 20.5502 81.3383 20.5895 81.3383C20.6484 81.3383 20.7073 81.3383 20.7662 81.3383C21.1589 81.3383 21.4338 81.4169 21.532 81.5347C21.7087 81.79 21.4535 82.5165 21.3553 82.7914C20.4913 85.2065 19.7256 87.6216 19.1365 89.4477C19.0972 89.5655 19.058 89.703 18.9991 89.8208C18.7045 90.6062 18.2333 91.9217 19.7059 92.4519C19.9415 92.5501 20.1772 92.5893 20.3735 92.5893C21.3749 92.5893 21.6498 91.6272 21.8462 90.9007C21.8854 90.7436 21.9247 90.6062 21.9836 90.4687L22.2192 89.7815C23.0243 87.4645 23.849 85.0887 24.6147 82.7128C24.8504 81.947 25.1449 81.8096 25.5965 81.8096C25.7143 81.8096 25.8518 81.8292 26.0088 81.8489C27.9724 82.163 29.9555 82.3397 31.6442 82.4968H31.7031C33.2739 82.6343 34.1575 82.7128 34.4716 83.0662C34.7858 83.4197 34.7662 84.3033 34.7465 85.9134V85.9723C34.7465 86.0901 34.7269 86.2079 34.7269 86.3453C34.6876 86.8362 34.6287 87.4449 35.0018 87.8769C35.2374 88.1518 35.5909 88.2892 36.0425 88.3285C36.1014 88.3285 36.1603 88.3285 36.2192 88.3285C37.5347 88.3285 37.7115 87.1111 37.8096 86.3846L37.8293 86.1883C38.2023 83.5768 38.2809 83.4393 39.3019 83.4393C39.7535 83.4393 40.3426 83.4982 41.1673 83.5964H41.2065C41.2654 83.5964 41.3244 83.616 41.3636 83.616C41.3833 83.616 41.4225 83.616 41.4422 83.616C41.5796 83.5964 41.7171 83.5964 41.8152 83.5964C42.6988 83.5964 42.9934 84.0284 43.0719 85.4618C43.2093 87.7787 43.445 90.1349 43.6806 92.4126C43.7395 93.0017 43.7984 93.6104 43.8769 94.1994C43.9358 94.8474 44.0733 96.2219 45.4478 96.2219C45.5459 96.2219 45.6441 96.2219 45.7423 96.2022C47.156 96.0255 47.0186 94.7885 46.9597 94.1405C46.9597 94.0816 46.94 94.0031 46.94 93.9442L46.8811 93.2569C46.6259 90.3706 46.3706 87.3664 46.0565 84.4407C45.9583 83.5179 46.1939 83.1841 47.0971 82.9484C50.0031 82.1827 52.3986 81.4954 54.5978 80.7689C54.8334 80.6904 55.0298 80.6511 55.1869 80.6511C55.4421 80.6511 55.6777 80.71 55.8741 81.4954C56.2668 82.9092 56.6595 84.3622 57.0522 85.7563C57.4449 87.1307 57.8376 88.5445 58.2107 89.9386C58.3678 90.4884 58.6819 91.6469 59.7815 91.6469C59.9779 91.6469 60.1742 91.6076 60.3902 91.5487C61.7254 91.1167 61.3916 89.9582 61.1952 89.2514L61.156 89.0943C60.9793 88.4659 60.8222 87.8573 60.6455 87.2289C60.0564 85.069 59.4281 82.8306 58.7801 80.6511C58.6427 80.1602 58.623 79.8461 58.7212 79.6693C58.8194 79.5319 59.055 79.4337 59.4477 79.3945C61.1756 79.2177 61.9414 78.02 62.5108 76.7437C63.63 74.2107 64.4743 71.776 65.0045 69.5768C65.1419 70.3622 65.7899 70.8924 66.9484 71.1084C67.7534 71.2655 68.5388 71.3636 69.3832 71.4814C69.5991 71.5207 69.8151 71.5404 70.0311 71.5796C70.0115 71.6189 70.0115 71.6582 69.9918 71.6974C69.9133 72.0312 69.8544 72.3061 69.7759 72.581C68.4014 77.4506 66.9877 82.4772 65.5346 87.5431C65.3776 88.0929 65.2597 88.7408 65.5543 89.2514C65.7506 89.5852 66.0648 89.8011 66.536 89.9189C66.6735 89.9582 66.8109 89.9779 66.9484 89.9779C68.0087 89.9779 68.3425 88.8979 68.4799 88.4463C68.637 87.9358 68.7745 87.4253 68.9119 86.9148C68.9708 86.6791 69.0494 86.4239 69.1083 86.1883L71.1111 78.9821C71.0718 79.5123 71.0718 80.0424 71.0522 80.5529C71.0325 81.3776 71.0129 82.2416 70.8951 83.0662C70.5416 85.6581 70.2667 88.3089 69.9918 90.8811L69.8544 92.2359C69.7759 92.9428 69.6384 94.2583 71.0522 94.4743C71.1503 94.494 71.2485 94.494 71.3467 94.494C72.5444 94.494 72.7604 93.2962 72.8782 92.6482C72.9371 92.3537 72.9568 92.0592 72.9764 91.7647C72.996 91.6076 72.996 91.4309 73.0157 91.2738C73.212 89.5459 73.4084 87.7983 73.6047 86.0704C74.0956 81.7507 74.6061 77.3131 75.0381 72.9148C75.1559 71.7367 75.6272 71.7367 76.4911 71.7367H76.6089C76.7856 71.7367 76.9624 71.7367 77.1391 71.7171C77.2373 71.7171 77.3158 71.7171 77.3943 71.7171C78.1012 71.7171 78.3957 71.8938 78.5136 72.9737C78.9259 77.2346 79.4168 81.574 79.9077 85.7563C80.0255 86.7184 80.1236 87.6805 80.2415 88.6427C80.2415 88.7016 80.2611 88.7801 80.2611 88.839C80.3396 89.5262 80.4574 90.7044 81.7141 90.7044C81.8123 90.7044 81.9105 90.7044 82.0283 90.6847C83.5009 90.4884 83.3438 89.2906 83.2457 88.5838C83.226 88.4856 83.226 88.3678 83.2064 88.2696C82.794 84.5193 82.4013 80.6904 82.0283 76.999L81.989 76.5866C82.637 79.0214 83.2849 81.4758 83.9329 83.9106C84.5612 86.3061 85.2092 88.7016 85.8375 91.0971C85.8768 91.2345 85.916 91.3916 85.9357 91.5487C86.1124 92.3734 86.348 93.4926 87.5065 93.4926C87.6832 93.4926 87.8599 93.4729 88.0563 93.414C88.6846 93.2373 89.0577 92.8642 89.1166 92.3145C89.1755 91.9021 89.0577 91.4505 88.9202 91.0185C88.9202 90.7633 88.8417 90.508 88.8221 90.3117ZM15.72 62.2529C16.0145 60.6035 16.6625 60.0145 18.2529 59.9163C21.1393 59.7396 24.0453 59.3272 26.8728 58.9542L27.1673 58.9149C27.4226 58.8756 27.6778 58.856 27.9527 58.856C30.5446 58.856 32.8419 60.5446 33.8237 63.1168C32.9401 63.215 32.0172 63.2935 31.1336 63.3525C29.229 63.4899 27.2655 63.6273 25.3805 64.1968C23.4955 64.7466 21.5124 65.4338 19.7648 66.6119C17.978 67.8097 17.3104 69.4786 17.7817 71.5796C18.3315 74.0929 20.079 75.9976 22.1407 76.3314C27.3833 77.1757 32.5278 77.9218 37.7311 77.9218C37.8489 77.9218 37.9471 77.9218 38.0649 77.9218C40.6371 77.9022 42.5221 76.94 43.9947 74.898C45.8601 72.3258 47.2542 69.4394 48.5894 66.6512C49.0214 65.7479 49.473 64.8055 49.9442 63.9022C50.6707 62.4492 51.6329 61.6835 53.1644 61.3693C55.1672 60.9373 57.2289 60.7606 59.2317 60.5839C59.9386 60.525 60.6847 60.4464 61.4112 60.3679C61.5487 60.3483 61.6665 60.3483 61.7647 60.3483C62.2948 60.3483 62.5501 60.4661 62.5894 61.4675C62.825 66.0621 61.9217 70.5782 59.8797 75.2907C59.5852 75.9779 59.1925 76.3117 58.4856 76.5277C56.5613 77.0775 54.5978 77.6469 52.6932 78.1967C50.062 78.9625 47.3327 79.7479 44.6623 80.494C44.2893 80.5922 43.8573 80.6511 43.3664 80.6511C43.0915 80.6511 42.797 80.6315 42.4828 80.6118C39.0663 80.2584 35.6105 79.8853 32.2529 79.5319C29.013 79.1785 25.675 78.825 22.3763 78.4912C21.4142 78.3931 20.727 78.0004 20.0594 77.156C16.1519 72.149 14.7775 67.4169 15.72 62.2529ZM40.5389 48.6456C41.0887 48.6456 41.6778 48.6456 42.3454 48.6456H42.6596C43.445 48.6456 44.25 48.6456 45.0354 48.6456H49.0803C50.121 48.6456 51.1616 48.6456 52.2023 48.6456C53.243 48.6456 54.2836 48.6456 55.3243 48.6456C57.2289 48.6456 58.7801 48.626 60.1938 48.6064C60.2331 48.6064 60.2528 48.6064 60.292 48.6064C61.2738 48.6064 61.5879 48.9009 61.6469 49.8434C61.8039 51.9247 61.9807 54.1828 62.2556 56.4408C62.2948 56.7746 62.2752 56.9906 62.1966 57.0888C62.1181 57.187 61.8825 57.2459 61.5094 57.2852L61.3523 57.3048C58.6034 57.5011 55.7563 57.7171 52.9681 58.2669C49.8068 58.8953 47.9022 60.3679 46.999 62.9205C46.7241 63.6862 46.3903 63.9611 45.6834 63.9611C45.5459 63.9611 45.3889 63.9415 45.2121 63.9219C43.4057 63.6863 41.56 63.5881 39.7732 63.5095C39.3216 63.4899 38.8503 63.4703 38.3987 63.4506C37.6329 63.4114 37.3384 63.2935 37.142 62.6849C36.3763 60.4268 34.8644 58.5614 32.6848 57.1281C31.7423 56.5194 31.6442 56.107 32.1547 55.1253C32.4688 54.5362 32.7437 54.0061 32.999 53.5152C35.3945 48.842 35.4927 48.6653 39.3412 48.6653C39.675 48.6456 40.0873 48.6456 40.5389 48.6456ZM43.8769 66.8868C44.7016 66.9261 44.8194 67.0439 44.8391 67.0832C44.8391 67.0832 44.9176 67.2402 44.5642 67.8489C44.0733 68.6932 43.5824 69.6161 43.0915 70.6371C41.6582 73.6217 39.9695 75.0747 37.9471 75.0747C37.4955 75.0747 37.0242 74.9962 36.5333 74.8587L36.4941 74.8391H36.4352C32.4296 74.7213 28.8952 74.2304 25.4787 73.7395C24.7522 73.6413 24.0257 73.5235 23.2795 73.4253C21.6891 73.2093 21.1393 72.1883 20.8055 70.7157C20.5502 69.5768 21.2571 69.1645 22.4352 68.5951L22.6316 68.4969C25.7929 66.985 29.4647 66.2585 33.804 66.2585C34.4127 66.2585 35.0607 66.2781 35.7283 66.2977C37.1028 66.3566 38.4772 66.4745 39.8321 66.5923C41.1476 66.7101 42.5221 66.8279 43.8769 66.8868ZM78.7295 66.1603C78.7099 66.7493 78.4154 66.8475 77.414 66.8868C77.3354 66.8868 77.2569 66.8868 77.198 66.8868H77.1784C76.6089 66.8868 76.177 66.769 76.0199 66.5923C75.961 66.5334 75.9021 66.4352 75.9413 66.1996C75.9806 65.8461 76.0984 65.7872 76.4126 65.7872C76.5697 65.7872 76.7267 65.8069 76.9231 65.8265C77.1194 65.8461 77.3158 65.8854 77.5122 65.8854C77.5711 65.8854 77.63 65.8854 77.6889 65.8854L77.8263 65.8658C77.9834 65.8461 78.1601 65.8265 78.3172 65.8265C78.5725 65.8265 78.6706 65.8854 78.6903 65.905C78.7295 65.9639 78.7295 66.1014 78.7295 66.1603Z" fill="#C7A57A"/>
    <path d="M96.9659 86.7771C96.8874 86.7771 96.7892 86.7771 96.7106 86.7968C96.5536 86.8164 96.3965 86.836 96.259 86.836C95.8663 86.836 95.6111 86.7575 95.454 86.6004C95.1594 86.3059 95.1202 85.6383 95.1398 84.8529C95.1594 77.902 95.1594 70.8333 95.1594 64.0002C95.1594 57.501 95.1595 50.7661 95.1791 44.149C95.1791 42.4604 94.7275 41.3215 93.6279 40.2612C90.9379 37.689 88.2675 34.999 85.6952 32.3875C84.7135 31.3861 83.7317 30.4043 82.75 29.4226C81.6111 28.2837 80.9828 27.6358 80.9632 27.1645C80.9632 26.6933 81.5129 26.0846 82.6911 24.8476C83.8888 23.5909 83.8888 22.4128 82.7107 21.2936C82.3376 20.9402 81.9449 20.5278 81.4933 20.0566C80.9042 19.4282 80.2759 19.1141 79.6672 19.1141C79.0782 19.1141 78.4891 19.4086 77.9197 19.9977C77.5663 20.3707 77.1343 20.8027 76.7023 21.1954C75.9758 21.8237 75.3082 22.5502 74.6799 23.2571C72.8734 25.2403 71.1455 27.1056 68.1413 27.1056C67.9646 27.1056 67.7683 27.1056 67.5915 27.086C67.5326 27.086 67.4934 27.086 67.4344 27.086C66.8454 27.086 66.3938 27.3609 66.1974 27.8321C65.9422 28.4408 66.1778 29.2459 66.7865 29.8742C68.2002 31.3076 69.6336 32.7409 71.0473 34.135C71.5971 34.6848 72.1666 35.2346 72.7163 35.804C73.0698 36.1575 73.5214 36.5894 74.1301 36.5894C74.3068 36.5894 74.4639 36.5502 74.6406 36.4913C75.6027 36.1182 75.7009 35.215 75.7598 34.567C75.8383 33.762 75.9169 32.9176 76.0347 32.0733C76.1918 31.0327 76.9183 30.1884 78.2338 29.4815C78.3124 29.4422 78.3713 29.4226 78.4302 29.4226C78.7051 29.4226 79.0193 29.8545 79.2942 30.2276C79.4512 30.4436 79.6279 30.6792 79.8047 30.8559C81.5915 32.6231 83.4176 34.4296 85.1651 36.1771C87.109 38.121 89.1314 40.1434 91.1342 42.1069C91.8411 42.7942 92.1356 43.501 92.116 44.5613C92.0767 59.5038 92.0767 72.5612 92.116 84.4798C92.116 85.3634 92.116 86.1881 91.7626 86.5611C91.5662 86.7575 91.2717 86.836 90.8201 86.836C90.663 86.836 90.5059 86.8164 90.3095 86.7968C90.231 86.7968 90.1525 86.7771 90.0739 86.7771C89.1903 86.7771 88.5816 87.3662 88.5227 88.2498C88.4638 89.2708 89.0922 89.8991 90.2506 89.9777C90.8986 90.0169 91.5269 90.0562 92.1749 90.0758L92.6265 90.0955V90.2329C92.6265 90.2329 93.7653 90.174 94.1384 90.1544C95.0024 90.1151 95.8467 90.0562 96.7106 89.9973C97.3193 89.958 98.7723 89.8599 98.6742 88.3087C98.6153 87.4054 97.928 86.7771 96.9659 86.7771ZM79.6869 22.6091C79.6869 22.6091 79.7065 22.6091 79.7065 22.6288C79.8243 22.7073 79.9225 22.8644 80.0403 23.0215C80.0403 23.0411 80.0599 23.0411 80.0599 23.0608C80.0403 23.0804 80.0403 23.1 80.0207 23.1C79.8832 23.2767 79.7654 23.4338 79.628 23.5713C78.1946 25.0243 76.7808 26.438 75.4064 27.8125L75.3475 27.8714C75.2297 27.9892 75.0529 28.1659 74.9744 28.1659C74.9548 28.1659 74.9155 28.1659 74.8173 28.0677C74.7191 27.9892 74.621 27.8714 74.621 27.7536C74.621 27.6358 74.7191 27.4983 74.8762 27.3216C75.5242 26.6933 76.1525 26.0453 76.8005 25.3974C77.6448 24.553 78.5284 23.6695 79.3923 22.8055C79.4512 22.7859 79.6083 22.6288 79.6869 22.6091ZM71.0473 29.7171C71.067 29.7171 71.0866 29.6975 71.1062 29.6975C72.0487 30.0313 72.6182 30.797 73.0109 31.4646C73.0109 31.5432 72.9912 31.6021 72.9716 31.661C72.2647 31.0719 71.6168 30.424 71.0473 29.7171Z" fill="#C7A57A"/>
</svg>
