<svg width="107" height="96" viewBox="0 0 107 96" fill="none"
    xmlns="http://www.w3.org/2000/svg">
    <path d="M105.674 59.7609C102.9 56.0557 99.1733 55.644 94.8831 56.9441C90.5713 58.2658 86.9528 60.9309 82.0993 63.1843C82.0993 50.3138 82.2943 38.0499 81.9909 25.7861C81.8826 21.3442 84.4394 21.9726 86.9961 22.1459C89.4229 22.2976 92.7814 20.6725 92.543 25.7428C92.1747 33.0447 92.413 40.3684 92.4564 47.6703C92.4564 48.7971 92.0447 50.4655 93.8214 50.6171C96.0098 50.7905 95.6415 48.9271 95.6415 47.627C95.6848 42.3401 95.8148 37.0532 95.6198 31.7663C95.4682 27.6278 97.5266 22.2109 94.7098 19.6975C92.0014 17.2707 86.6711 19.3075 82.5326 18.9391C79.3908 18.6575 78.5891 19.8925 78.6108 22.9043C78.7625 35.9699 78.6541 49.0354 78.6758 62.101C78.6758 64.246 79.0658 67.1062 76.1624 67.0628C73.5622 67.0195 73.9306 64.246 73.9523 62.231C73.9739 53.0439 73.8656 43.8785 74.0173 34.6915C74.0606 31.853 73.1939 30.7696 70.2905 30.9646C67.0403 31.1597 63.7468 31.1813 60.4967 30.9646C57.5499 30.748 56.7916 31.9397 56.8566 34.7131C57.0082 41.8634 56.9649 49.0137 56.8566 56.164C56.8349 57.2257 57.9616 59.3492 55.4915 59.2408C53.5414 59.1542 51.9164 58.4608 52.068 55.839C52.2414 52.7406 52.0464 49.6204 52.1547 46.522C52.2414 44.1602 51.3313 43.1202 48.8829 43.2068C45.4594 43.3368 42.0359 43.4018 38.6125 43.1852C35.6657 43.0118 34.7773 44.2252 34.9073 46.9987C35.059 50.0971 34.8423 53.2172 34.9507 56.3374C35.0157 58.0708 33.7589 58.5908 32.6539 58.6991C31.3322 58.8292 31.6789 57.4208 31.7222 56.6624C31.9172 52.6972 29.3171 52.4156 26.457 52.7189C23.6618 53.0222 22.3618 52.1989 22.7951 49.1871C23.2068 46.4353 21.9068 45.1786 19.09 45.2219C13.8031 45.3086 8.51622 45.2219 3.22934 45.2652C1.79928 45.2652 0.174211 45.4603 0.044206 47.2587C-0.107467 49.3604 1.56094 49.7071 3.22934 49.7288C7.43285 49.7721 11.6364 49.8804 15.8182 49.6854C18.31 49.5771 18.9167 50.4438 18.895 52.8489C18.7866 64.6577 18.7866 76.4882 18.895 88.3187C18.9167 90.5288 18.3316 91.3088 16.0349 91.2005C11.6797 91.0272 7.32451 91.1138 2.96933 91.1788C1.53927 91.2005 -0.0424642 91.4822 0.000870961 93.3456C0.0442061 95.144 1.49593 95.534 3.01266 95.534C8.60289 95.5557 14.2148 95.5557 19.805 95.534C21.1051 95.534 22.7301 95.1873 22.6001 93.7356C22.2535 89.6404 24.7669 89.8138 27.5187 89.9438C28.5804 90.0088 30.2055 90.3338 30.5305 89.3154C32.1772 84.3102 34.9723 87.192 37.5724 88.037C41.2342 89.2071 44.8527 90.6155 48.6012 91.3522C54.7548 92.5439 61.1251 95.534 67.2353 93.0639C80.5175 87.712 92.738 80.3234 103.377 70.6163C107.299 67.0195 107.992 62.8593 105.674 59.7609ZM27.5187 82.5118C27.5187 84.0502 27.822 85.6536 25.3303 85.6319C23.1852 85.6103 22.7735 84.6352 22.7951 82.7502C22.8602 75.1232 22.8818 67.5178 22.7951 59.8909C22.7735 57.9841 23.2068 57.0741 25.3303 57.0524C27.8437 57.0091 27.5187 58.5908 27.5187 60.1292C27.5187 63.856 27.5187 67.6045 27.5187 71.3313C27.5187 75.0582 27.5187 78.785 27.5187 82.5118ZM63.7252 33.8681C65.2636 34.0631 66.8236 33.9764 68.3837 33.8898C70.0088 33.8031 70.5071 34.4965 70.4855 36.0782C70.4421 45.3736 70.4638 54.6473 70.4638 64.376C67.3003 63.401 64.5485 62.556 61.7968 61.6893C59.8033 61.0609 60.1284 59.3925 60.1284 57.8541C60.1284 51.0288 60.3017 44.2035 60.0634 37.3783C59.955 34.3881 60.9517 33.5214 63.7252 33.8681ZM38.2225 48.4287C38.6775 47.6487 39.6309 47.3453 40.5192 47.1287C41.5159 46.8903 42.5343 46.7386 43.531 46.6953C44.5494 46.6303 45.5894 46.652 46.5211 47.0203C48.1029 47.627 48.6229 49.0354 48.9046 50.5955C49.0996 51.6572 49.1862 52.7622 49.1646 53.8456C49.1429 54.6256 49.4246 56.1857 48.7096 56.7274C48.5579 56.8357 48.3845 56.8791 48.1895 56.9224C46.0444 57.3558 43.8344 57.2691 41.6676 57.0524C40.6709 56.9441 39.5225 56.9874 38.5691 56.7491C38.0491 56.6191 37.9624 56.1207 37.9624 55.6657C37.9408 54.864 37.9408 54.0623 37.9191 53.2822C37.8541 51.8955 37.6808 50.3355 38.0058 48.9704C38.0925 48.7321 38.1575 48.5587 38.2225 48.4287ZM100.517 67.6912C90.333 76.9432 78.6325 83.8985 65.9569 89.0988C60.9951 91.1355 55.9249 88.6004 51.028 87.712C46.2395 86.8453 41.7109 84.6786 36.9657 83.4218C32.9139 82.3385 30.8338 80.3017 31.6572 75.9249C31.8739 74.7332 31.7005 73.4548 31.7005 72.198C31.7005 61.9493 32.6106 61.2126 42.9893 60.9526C47.9729 60.8226 52.3064 62.7727 56.8132 64.2027C61.7751 65.7844 66.672 67.6045 71.5905 69.3379C73.4323 69.9879 75.339 70.898 74.7323 73.1948C74.2123 75.1665 72.2839 76.0765 70.3121 75.8815C65.0902 75.3832 59.9117 74.6248 54.6898 74.0615C53.1514 73.8881 50.8763 72.9131 50.6163 75.5565C50.378 78.135 52.6747 77.5933 54.2998 77.8316C59.6517 78.5683 64.9169 79.8467 70.3771 79.7167C75.729 79.5867 78.2208 77.4849 78.9358 72.1114C79.0658 71.1147 79.1308 70.3563 79.9975 69.7929C85.1977 66.4561 90.2029 62.816 96.0965 60.6926C98.6316 59.7825 100.755 60.1292 102.272 62.1876C104.092 64.5711 102.055 66.2828 100.517 67.6912Z" fill="#C7A57A"/>
    <path d="M41.7733 35.6661C44.0917 36.2512 47.2118 36.2945 47.8185 33.7161C49.1619 27.8875 54.5355 27.0858 58.2623 24.269C59.8657 23.0556 61.3174 22.4923 63.7008 23.3806C67.016 24.6157 69.9411 23.099 70.4828 19.2205C70.7428 17.4221 71.5662 16.5554 72.9746 15.7537C75.6613 14.2153 78.2614 12.5252 80.9266 10.9651C82.0533 10.2934 83.0283 9.49174 84.675 10.4018C88.0552 12.2652 90.7853 11.0085 92.1287 7.56333C93.4721 4.11819 91.6737 1.64809 88.4669 0.738049C85.1084 -0.193656 83.05 1.69142 81.9666 4.96322C80.7749 8.53837 70.9161 13.9553 67.1026 13.4136C64.7409 13.0886 61.6424 12.9152 61.0791 15.537C59.8224 21.4089 54.5355 22.3406 50.7436 25.0924C49.1619 26.2408 47.7752 27.0208 45.3701 25.8291C41.9466 24.1173 38.3931 26.9558 38.3281 31.8743C38.3498 33.1527 39.3682 35.0594 41.7733 35.6661ZM86.7768 3.83651C88.1419 3.7065 89.1602 4.13985 89.4202 5.80826C89.3552 6.80496 89.0086 7.715 87.6435 7.84501C86.2784 7.97501 85.1951 7.65 85.0651 6.06827C84.9784 4.85488 85.4551 3.96651 86.7768 3.83651ZM63.2025 18.1588C63.4192 16.8154 64.3075 15.9487 65.8026 16.2087C67.0593 16.4254 67.601 17.3571 67.5577 18.5271C67.5143 19.9355 66.6693 20.7372 65.1959 20.7805C63.9175 20.3688 62.9641 19.5888 63.2025 18.1588ZM43.29 28.4942C44.6984 28.2992 45.6734 29.2742 45.8251 30.5743C45.9768 31.961 45.0884 32.8277 43.6583 33.001C42.1416 32.9577 41.3399 32.1343 41.3182 30.7043C41.3182 29.4692 42.2066 28.6459 43.29 28.4942Z" fill="#C7A57A"/>
</svg>
