<svg width="22" height="22" viewBox="0 0 22 22" fill="none"
    xmlns="http://www.w3.org/2000/svg">
    <path d="M4.81315 7.79171C4.81315 7.41201 5.12096 7.10421 5.50065 7.10421H16.5007C16.8804 7.10421 17.1882 7.41201 17.1882 7.79171C17.1882 8.1714 16.8804 8.47921 16.5007 8.47921H5.50065C5.12096 8.47921 4.81315 8.1714 4.81315 7.79171Z" fill="#C7A57A"/>
    <path d="M5.50065 4.81254C5.12096 4.81254 4.81315 5.12035 4.81315 5.50004C4.81315 5.87974 5.12096 6.18754 5.50065 6.18754H16.5007C16.8804 6.18754 17.1882 5.87974 17.1882 5.50004C17.1882 5.12035 16.8804 4.81254 16.5007 4.81254H5.50065Z" fill="#C7A57A"/>
    <path fill-rule="evenodd" clip-rule="evenodd" d="M6.89846 1.14587H15.1028C16.1731 1.14586 17.036 1.14585 17.7229 1.22544C18.4335 1.30778 19.0429 1.48301 19.5606 1.89583C19.7618 2.05631 19.9444 2.23889 20.1049 2.44013C20.5177 2.95779 20.6929 3.56716 20.7753 4.27779C20.8548 4.96471 20.8548 5.8276 20.8548 6.89781V6.98438C20.8548 8.42245 20.8548 9.56182 20.7503 10.4644C20.6429 11.3908 20.4177 12.1551 19.9049 12.7982C19.7016 13.0531 19.4703 13.2843 19.2154 13.4876C18.5724 14.0004 17.8081 14.2256 16.8817 14.333C15.9791 14.4376 14.8398 14.4376 13.4017 14.4375H8.59965C7.16158 14.4376 6.02221 14.4376 5.11959 14.333C4.1932 14.2256 3.42893 14.0004 2.78587 13.4876C2.53097 13.2843 2.29971 13.0531 2.09643 12.7982C1.58361 12.1551 1.35838 11.3908 1.25105 10.4644C1.14647 9.56181 1.14647 8.42249 1.14648 6.9844V6.89785C1.14647 5.82762 1.14646 4.96472 1.22605 4.27779C1.30839 3.56716 1.48362 2.95779 1.89644 2.44013C2.05692 2.23889 2.2395 2.05631 2.44074 1.89583C2.9584 1.48301 3.56777 1.30778 4.2784 1.22544C4.96533 1.14585 5.82823 1.14586 6.89846 1.14587ZM4.43666 2.5913C3.85274 2.65896 3.5327 2.78371 3.29804 2.97085C3.17729 3.06714 3.06775 3.17668 2.97146 3.29743C2.78432 3.53209 2.65957 3.85213 2.59191 4.43605C2.52257 5.03456 2.52149 5.81757 2.52149 6.94052C2.52149 8.43229 2.52257 9.49191 2.61691 10.3062C2.70956 11.1059 2.88431 11.5808 3.17145 11.9409C3.31053 12.1153 3.46877 12.2735 3.64317 12.4126C3.92875 12.6403 4.2866 12.7974 4.82143 12.8988C4.83542 12.5188 4.87601 12.1798 5.00486 11.8687C5.26071 11.251 5.75145 10.7603 6.36913 10.5044C6.63532 10.3942 6.90988 10.3514 7.20056 10.3316C7.47979 10.3125 7.81991 10.3125 8.22733 10.3125L14.276 10.3125C14.636 10.3123 14.9137 10.3122 15.1589 10.361C16.1589 10.5599 16.9406 11.3416 17.1395 12.3416C17.1724 12.507 17.1831 12.6872 17.1865 12.8976C17.7177 12.7961 18.0737 12.6394 18.3581 12.4126C18.5325 12.2735 18.6908 12.1153 18.8299 11.9409C19.117 11.5808 19.2917 11.1059 19.3844 10.3062C19.4787 9.49191 19.4798 8.43229 19.4798 6.94052C19.4798 5.81757 19.4787 5.03456 19.4094 4.43605C19.3417 3.85213 19.217 3.53209 19.0298 3.29743C18.9336 3.17668 18.824 3.06714 18.7033 2.97085C18.4686 2.78371 18.1486 2.65896 17.5646 2.5913C16.9661 2.52196 16.1831 2.52088 15.0602 2.52088H6.94113C5.81818 2.52088 5.03518 2.52196 4.43666 2.5913ZM15.8124 13.0341C15.8108 12.7779 15.8055 12.6832 15.791 12.6098C15.7005 12.1553 15.3452 11.8 14.8907 11.7096C14.7967 11.6909 14.6677 11.6875 14.2088 11.6875H8.25048C7.81396 11.6875 7.521 11.6879 7.29416 11.7034C7.07349 11.7184 6.96604 11.7455 6.89532 11.7748C6.61456 11.8911 6.39149 12.1141 6.2752 12.3949C6.23122 12.5011 6.20395 12.6535 6.1934 13.0343C6.85665 13.0621 7.65525 13.0625 8.64351 13.0625H13.3578C14.3483 13.0625 15.1482 13.0621 15.8124 13.0341Z" fill="#C7A57A"/>
    <path d="M6.79852 15.4697C7.11445 15.6803 7.19982 16.1071 6.9892 16.4231L6.70813 16.8447C6.55393 17.076 6.60729 17.3874 6.82967 17.5542C7.63585 18.1588 7.82926 19.288 7.27027 20.1265L6.9892 20.5481C6.77858 20.864 6.35174 20.9494 6.03581 20.7387C5.71988 20.5281 5.63451 20.1013 5.84513 19.7854L6.1262 19.3637C6.2804 19.1325 6.22705 18.821 6.00467 18.6542C5.19848 18.0496 5.00507 16.9204 5.56406 16.082L5.84513 15.6604C6.05575 15.3444 6.4826 15.2591 6.79852 15.4697Z" fill="#C7A57A"/>
    <path d="M11.3819 15.4697C11.6978 15.6803 11.7832 16.1071 11.5725 16.4231L11.2915 16.8447C11.1373 17.076 11.1906 17.3874 11.413 17.5542C12.2192 18.1588 12.4126 19.288 11.8536 20.1265L11.5725 20.5481C11.3619 20.864 10.9351 20.9494 10.6191 20.7387C10.3032 20.5281 10.2178 20.1013 10.4285 19.7854L10.7095 19.3637C10.8637 19.1325 10.8104 18.821 10.588 18.6542C9.78181 18.0496 9.5884 16.9204 10.1474 16.082L10.4285 15.6604C10.6391 15.3444 11.0659 15.2591 11.3819 15.4697Z" fill="#C7A57A"/>
    <path d="M15.9652 15.4697C16.2811 15.6803 16.3665 16.1071 16.1559 16.4231L15.8748 16.8447C15.7206 17.076 15.774 17.3874 15.9963 17.5542C16.8025 18.1588 16.9959 19.288 16.4369 20.1265L16.1559 20.5481C15.9453 20.864 15.5184 20.9494 15.2025 20.7387C14.8866 20.5281 14.8012 20.1013 15.0118 19.7854L15.2929 19.3637C15.4471 19.1325 15.3937 18.821 15.1713 18.6542C14.3651 18.0496 14.1717 16.9204 14.7307 16.082L15.0118 15.6604C15.2224 15.3444 15.6493 15.2591 15.9652 15.4697Z" fill="#C7A57A"/>
</svg>
