<svg width="20" height="22" viewBox="0 0 20 22" fill="none"
    xmlns="http://www.w3.org/2000/svg">
    <path fill-rule="evenodd" clip-rule="evenodd" d="M4.48699 2.52087C3.73442 2.52087 3.12435 3.19195 3.12435 4.01978V10.3125H3.36125C3.37031 10.3125 3.37934 10.3125 3.38831 10.3125C3.39275 10.3125 3.39717 10.3125 3.40158 10.3125L16.6104 10.3125C16.6194 10.3125 16.6284 10.3125 16.6374 10.3125H18.3327C18.6779 10.3125 18.9577 10.6203 18.9577 11C18.9577 11.3797 18.6779 11.6875 18.3327 11.6875H18.1094C18.1148 11.7287 18.1188 11.7705 18.1213 11.8126C18.1244 11.8655 18.1244 11.9228 18.1244 11.9779L18.1243 12.0126C18.1244 12.3566 18.1244 12.5582 18.1114 12.7831C17.9931 14.8331 16.9861 16.7261 15.5265 17.964C15.538 17.9838 15.5486 18.0044 15.5584 18.0259L16.3917 19.8592C16.5461 20.1989 16.4209 20.6118 16.1122 20.7816C15.8035 20.9514 15.428 20.8138 15.2737 20.4742L14.4673 18.7001C13.7991 19.0721 13.0725 19.3169 12.3168 19.4011C12.113 19.4238 11.9887 19.429 11.7769 19.4377L11.7713 19.438C11.1544 19.4634 10.5506 19.4792 9.99935 19.4792C9.4481 19.4792 8.84427 19.4634 8.22741 19.438L8.22184 19.4377C8.01 19.429 7.88566 19.4238 7.68193 19.4011C6.9262 19.3169 6.19958 19.0721 5.53144 18.7001L4.72503 20.4742C4.57066 20.8138 4.19524 20.9514 3.88651 20.7816C3.57777 20.6118 3.45263 20.1989 3.607 19.8592L4.44033 18.0259C4.45009 18.0044 4.46073 17.9838 4.47218 17.964C3.01265 16.7261 2.0056 14.8331 1.88732 12.7831C1.87434 12.5582 1.87434 12.3566 1.87435 12.0125L1.87435 11.9925C1.87435 11.9877 1.87435 11.9828 1.87434 11.9779C1.87434 11.961 1.87433 11.9438 1.87441 11.9267C1.87437 11.9233 1.87435 11.92 1.87435 11.9167V11.6875H1.66602C1.32084 11.6875 1.04102 11.3797 1.04102 11C1.04102 10.6203 1.32084 10.3125 1.66602 10.3125H1.87435V4.01978C1.87435 2.43256 3.04407 1.14587 4.48699 1.14587C5.55531 1.14587 6.516 1.86133 6.91276 2.95244L7.00454 3.20483C7.66562 3.02036 8.38296 3.0631 9.05906 3.38083C9.90516 3.77844 10.5208 4.52864 10.8361 5.40886C10.9599 5.75436 10.8119 6.14553 10.5018 6.29237L5.53447 8.64461C5.37912 8.71818 5.20329 8.71934 5.04714 8.64784C4.89099 8.57634 4.76786 8.43827 4.70585 8.26518C4.39067 7.3853 4.37178 6.36643 4.72204 5.41767C4.97138 4.74228 5.37613 4.18855 5.87156 3.79144L5.75216 3.4631C5.54523 2.89403 5.04418 2.52087 4.48699 2.52087ZM3.40158 11.6875C3.36819 11.6875 3.34832 11.6876 3.33332 11.6877C3.32239 11.6879 3.3185 11.6881 3.31836 11.6881C3.3178 11.6881 3.31831 11.6881 3.31836 11.6881C3.21414 11.6955 3.13188 11.7867 3.12483 11.9012C3.12479 11.9023 3.12464 11.9069 3.12453 11.9174C3.12436 11.9339 3.12435 11.9558 3.12435 11.9925C3.12435 12.3616 3.12461 12.5192 3.13481 12.696C3.28933 15.3742 5.3807 17.7627 7.80788 18.0331C7.97035 18.0512 8.06028 18.0551 8.27434 18.0639C8.88104 18.089 9.4684 18.1042 9.99935 18.1042C10.5303 18.1042 11.1177 18.089 11.7244 18.0639C11.9384 18.0551 12.0284 18.0512 12.1908 18.0331C14.618 17.7627 16.7094 15.3742 16.8639 12.696C16.8741 12.5192 16.8743 12.3616 16.8743 11.9925C16.8743 11.9558 16.8743 11.9339 16.8742 11.9174C16.8741 11.9081 16.8739 11.9034 16.8739 11.9017C16.8738 11.9007 16.8739 11.9006 16.8739 11.9017C16.8671 11.7869 16.7839 11.6955 16.6795 11.688C16.6805 11.6881 16.6808 11.6881 16.6795 11.688C16.6779 11.688 16.6736 11.6878 16.6654 11.6877C16.6504 11.6876 16.6305 11.6875 16.5971 11.6875H3.40158ZM8.56798 4.64528C8.02023 4.38787 7.42812 4.42368 6.92196 4.69473C6.47291 4.93519 6.092 5.36126 5.88019 5.93501C5.74393 6.3041 5.69465 6.68855 5.72141 7.05909L9.37237 5.33019C9.16455 5.03565 8.89213 4.7976 8.56798 4.64528Z" fill="#C7A57A"/>
</svg>
