<svg width="20" height="22" viewBox="0 0 20 22" fill="none"
    xmlns="http://www.w3.org/2000/svg">
    <path fill-rule="evenodd" clip-rule="evenodd" d="M7.41996 3.89588C7.44606 3.89589 7.47252 3.89589 7.49935 3.89589H12.4993C12.5262 3.89589 12.5526 3.89589 12.5787 3.89588C13.2771 3.89577 13.7217 3.8957 14.1049 3.97955C15.6751 4.32313 16.9026 5.67334 17.215 7.4006L16.602 7.53473L17.215 7.4006C17.273 7.72149 17.2868 8.08142 17.2901 8.57382C18.2524 8.87273 18.9577 9.84579 18.9577 11.0001V13.2408C18.9577 14.6431 18.2929 15.8745 17.291 16.5746V17.4167C17.291 17.7964 17.0112 18.1042 16.666 18.1042C16.3208 18.1042 16.041 17.7964 16.041 17.4167V17.1186C15.8236 17.1639 15.5992 17.1876 15.3697 17.1876H4.62898C4.39955 17.1876 4.17514 17.1639 3.95768 17.1186V17.4167C3.95768 17.7964 3.67786 18.1042 3.33268 18.1042C2.9875 18.1042 2.70768 17.7964 2.70768 17.4167V16.5746C1.70584 15.8745 1.04102 14.6431 1.04102 13.2408V11.0001C1.04102 9.84579 1.74628 8.87272 2.70865 8.57381C2.71189 8.08142 2.72571 7.72149 2.78374 7.4006C3.09608 5.67334 4.32355 4.32313 5.89378 3.97955C6.27705 3.8957 6.72156 3.89577 7.41996 3.89588ZM3.95908 8.57455C4.92024 8.87432 5.62435 9.84674 5.62435 11.0001V12.1001C5.62435 12.1254 5.643 12.1459 5.66602 12.1459H14.3327C14.3557 12.1459 14.3743 12.1254 14.3743 12.1001V11.0001C14.3743 9.84674 15.0785 8.87432 16.0396 8.57455C16.0363 8.10756 16.0251 7.86888 15.989 7.66885C15.7753 6.48704 14.9354 5.56321 13.8611 5.32813C13.6146 5.27422 13.3037 5.27089 12.4993 5.27089H7.49935C6.69497 5.27089 6.38405 5.27422 6.13765 5.32813C5.06328 5.56321 4.22343 6.48704 4.00972 7.66885C3.97355 7.86888 3.96243 8.10756 3.95908 8.57455ZM3.33268 9.85422C2.75739 9.85422 2.29102 10.3672 2.29102 11.0001V13.2408C2.29102 14.6611 3.33776 15.8126 4.62898 15.8126H15.3697C16.6609 15.8126 17.7077 14.6611 17.7077 13.2408V11.0001C17.7077 10.3672 17.2413 9.85422 16.666 9.85422C16.0907 9.85422 15.6243 10.3672 15.6243 11.0001V12.1001C15.6243 12.8848 15.0461 13.5209 14.3327 13.5209H5.66602C4.95265 13.5209 4.37435 12.8848 4.37435 12.1001V11.0001C4.37435 10.3672 3.90798 9.85422 3.33268 9.85422Z" fill="#C7A57A"/>
</svg>
