<svg width="20" height="22" viewBox="0 0 20 22" fill="none"
    xmlns="http://www.w3.org/2000/svg">
    <path d="M10.8327 15.5834C10.8327 16.0896 10.4596 16.5 9.99935 16.5C9.53911 16.5 9.16602 16.0896 9.16602 15.5834C9.16602 15.0771 9.53911 14.6667 9.99935 14.6667C10.4596 14.6667 10.8327 15.0771 10.8327 15.5834Z" fill="#C7A57A"/>
    <path fill-rule="evenodd" clip-rule="evenodd" d="M8.28567 1.14587H11.713C13.2445 1.14586 14.4575 1.14585 15.4069 1.28625C16.3839 1.43074 17.1747 1.73518 17.7983 2.42118C18.4219 3.10718 18.6987 3.97705 18.8301 5.05177C18.9055 5.66857 18.9363 6.38655 18.9489 7.21814C18.9547 7.25561 18.9577 7.29411 18.9577 7.33337C18.9577 7.36569 18.9557 7.39748 18.9517 7.4286C18.9577 7.94719 18.9577 8.50838 18.9577 9.115V11.0518C18.9577 11.6584 18.9577 12.2196 18.9517 12.7381C18.9557 12.7693 18.9577 12.8011 18.9577 12.8334C18.9577 12.8726 18.9547 12.9111 18.9489 12.9486C18.9363 13.7802 18.9055 14.4982 18.8301 15.115C18.6987 16.1897 18.4219 17.0596 17.7983 17.7456C17.4117 18.1708 16.9608 18.4495 16.4412 18.6343C16.452 18.6848 16.4577 18.7375 16.4577 18.7917V20.1667C16.4577 20.5464 16.1779 20.8542 15.8327 20.8542C15.4875 20.8542 15.2077 20.5464 15.2077 20.1667V18.9075C14.2895 19.0209 13.1394 19.0209 11.713 19.0209H8.28567C6.8593 19.0209 5.70916 19.0209 4.79102 18.9075V20.1667C4.79102 20.5464 4.51119 20.8542 4.16602 20.8542C3.82084 20.8542 3.54102 20.5464 3.54102 20.1667V18.7917C3.54102 18.7375 3.54672 18.6848 3.55748 18.6343C3.03785 18.4495 2.587 18.1708 2.20039 17.7456C1.57675 17.0596 1.29999 16.1897 1.16863 15.115C1.09324 14.4982 1.06238 13.7802 1.04976 12.9486C1.04401 12.9111 1.04102 12.8726 1.04102 12.8334C1.04102 12.8011 1.04304 12.7693 1.04696 12.7382C1.04101 12.2196 1.04101 11.6584 1.04102 11.0518V9.11499C1.04101 8.50838 1.04101 7.94718 1.04696 7.4286C1.04304 7.39747 1.04102 7.36568 1.04102 7.33337C1.04102 7.29411 1.04401 7.25561 1.04976 7.21814C1.06238 6.38656 1.09324 5.66857 1.16863 5.05177C1.29999 3.97705 1.57675 3.10718 2.20039 2.42118C2.82402 1.73518 3.61481 1.43074 4.59183 1.28625C5.54118 1.14585 6.7542 1.14586 8.28567 1.14587ZM2.29267 8.02087C2.29109 8.3769 2.29102 8.75797 2.29102 9.16671V11C2.29102 11.4088 2.29109 11.7898 2.29267 12.1459H17.706C17.7076 11.7898 17.7077 11.4088 17.7077 11V9.16671C17.7077 8.75797 17.7076 8.3769 17.706 8.02087H2.29267ZM17.686 6.64587H2.31274C2.32905 6.10804 2.35757 5.64335 2.40748 5.23499C2.5202 4.31274 2.73159 3.78139 3.08427 3.39345C3.43694 3.00551 3.91998 2.77298 4.75839 2.64899C5.61478 2.52233 6.74367 2.52087 8.33268 2.52087H11.666C13.255 2.52087 14.3839 2.52233 15.2403 2.64899C16.0787 2.77298 16.5618 3.00551 16.9144 3.39345C17.2671 3.78139 17.4785 4.31274 17.5912 5.23499C17.6411 5.64335 17.6697 6.10804 17.686 6.64587ZM17.686 13.5209H2.31274C2.32905 14.0587 2.35757 14.5234 2.40748 14.9318C2.5202 15.854 2.73159 16.3854 3.08427 16.7733C3.43694 17.1612 3.91998 17.3938 4.75839 17.5178C5.61478 17.6444 6.74367 17.6459 8.33268 17.6459H11.666C13.255 17.6459 14.3839 17.6444 15.2403 17.5178C16.0787 17.3938 16.5618 17.1612 16.9144 16.7733C17.2671 16.3854 17.4785 15.854 17.5912 14.9318C17.6411 14.5234 17.6697 14.0587 17.686 13.5209Z" fill="#C7A57A"/>
</svg>
