<svg width="20" height="22" viewBox="0 0 20 22" fill="none"
    xmlns="http://www.w3.org/2000/svg">
    <path fill-rule="evenodd" clip-rule="evenodd" d="M6.87435 3.66663C6.87435 3.28693 7.15417 2.97913 7.49935 2.97913H12.4993C12.8445 2.97913 13.1243 3.28693 13.1243 3.66663C13.1243 4.04632 12.8445 4.35413 12.4993 4.35413H10.6243V15.125C10.6243 16.5172 11.6504 17.6458 12.916 17.6458C14.133 17.6458 15.1284 16.6023 15.2032 15.2844C13.779 14.9639 12.7077 13.5779 12.7077 11.9166V10.2666C12.7077 9.27942 13.4352 8.47913 14.3327 8.47913H17.3327C18.2301 8.47913 18.9577 9.27942 18.9577 10.2666V11.9166C18.9577 13.5808 17.8826 14.9688 16.4547 15.286C16.3779 17.3629 14.823 19.0208 12.916 19.0208C11.7063 19.0208 10.6383 18.3536 9.99935 17.3356C9.36044 18.3536 8.29239 19.0208 7.08268 19.0208C5.17572 19.0208 3.62077 17.3629 3.54399 15.286C2.11611 14.9688 1.04102 13.5808 1.04102 11.9166V9.95234C1.04102 9.13871 1.64063 8.47913 2.3803 8.47913H5.95173C6.6914 8.47913 7.29102 9.13871 7.29102 9.95234V11.9166C7.29102 13.5779 6.21968 14.9639 4.79552 15.2844C4.87028 16.6023 5.8657 17.6458 7.08268 17.6458C8.34834 17.6458 9.37435 16.5172 9.37435 15.125V4.35413H7.49935C7.15417 4.35413 6.87435 4.04632 6.87435 3.66663ZM2.3803 9.85413C2.33099 9.85413 2.29102 9.8981 2.29102 9.95234V11.9166C2.29102 13.0557 3.13048 13.9791 4.16602 13.9791C5.20155 13.9791 6.04102 13.0557 6.04102 11.9166V9.95234C6.04102 9.8981 6.00104 9.85413 5.95173 9.85413H2.3803ZM14.3327 9.85413C14.1256 9.85413 13.9577 10.0388 13.9577 10.2666V11.9166C13.9577 13.0557 14.7971 13.9791 15.8327 13.9791C16.8682 13.9791 17.7077 13.0557 17.7077 11.9166V10.2666C17.7077 10.0388 17.5398 9.85413 17.3327 9.85413H14.3327Z" fill="#C7A57A"/>
</svg>
