<svg width="20" height="22" viewBox="0 0 20 22" fill="none"
    xmlns="http://www.w3.org/2000/svg">
    <path fill-rule="evenodd" clip-rule="evenodd" d="M9.96784 1.14581H10.0325C11.0147 1.14581 11.7974 1.1458 12.4314 1.21394C13.0844 1.28413 13.6354 1.43094 14.1394 1.7621C14.4112 1.94076 14.6626 2.15465 14.8881 2.3992C15.3061 2.8525 15.5738 3.40235 15.7996 4.07996C16.0189 4.73785 16.2156 5.57112 16.4624 6.61692L16.5527 6.99969C16.8875 8.41792 17.1548 9.55073 17.254 10.4558C17.356 11.3861 17.2971 12.2043 16.8629 12.9157C16.7848 13.0437 16.699 13.1658 16.606 13.2812C16.2323 13.7445 15.7603 14.0131 15.2085 14.1737V15.5833C15.2085 15.963 14.9287 16.2708 14.5835 16.2708C14.2383 16.2708 13.9585 15.963 13.9585 15.5833V14.38C13.2343 14.4375 12.3596 14.4375 11.3223 14.4375H10.6252V19.4791H12.5002C12.8453 19.4791 13.1252 19.787 13.1252 20.1666C13.1252 20.5463 12.8453 20.8541 12.5002 20.8541H7.50016C7.15498 20.8541 6.87516 20.5463 6.87516 20.1666C6.87516 19.787 7.15498 19.4791 7.50016 19.4791H9.37516V14.4375H8.678C7.34593 14.4375 6.28195 14.4375 5.4606 14.3157C4.61646 14.1905 3.91126 13.9221 3.39435 13.2812C3.30134 13.1658 3.21549 13.0437 3.13738 12.9157C2.70327 12.2043 2.64436 11.3861 2.7463 10.4558C2.84549 9.55072 3.11287 8.41791 3.44761 6.99965L3.53794 6.61695C3.78475 5.57114 3.98142 4.73785 4.20069 4.07996C4.42654 3.40235 4.6942 2.8525 5.11222 2.3992C5.33773 2.15465 5.58911 1.94076 5.86097 1.7621C6.36487 1.43094 6.91596 1.28413 7.56895 1.21394C8.20295 1.1458 8.98559 1.14581 9.96784 1.14581ZM11.2745 13.0625C12.6654 13.0625 13.6447 13.061 14.3727 12.953C15.0877 12.847 15.4418 12.6528 15.6709 12.3687C15.7267 12.2995 15.7782 12.2262 15.8251 12.1494C16.0175 11.8341 16.0994 11.4083 16.013 10.6204C15.9251 9.81818 15.6803 8.7751 15.3308 7.2943L15.2606 6.99687C15.0038 5.90888 14.8218 5.14076 14.626 4.55327C14.4344 3.97831 14.2476 3.63548 14.0106 3.37839C13.8563 3.21107 13.6843 3.06472 13.4983 2.94248C13.2125 2.75467 12.8639 2.64198 12.3098 2.58243C11.7437 2.52157 11.022 2.52081 10.0002 2.52081C8.97828 2.52081 8.25666 2.52157 7.69052 2.58243C7.13645 2.64198 6.78785 2.75467 6.50206 2.94248C6.31606 3.06472 6.14406 3.21107 5.98976 3.37839C5.75268 3.63548 5.56594 3.97831 5.3743 4.55327C5.17849 5.14075 4.99649 5.90887 4.73971 6.99687L4.66951 7.2943C4.32002 8.7751 4.07523 9.81818 3.98732 10.6204C3.90097 11.4083 3.98285 11.8341 4.17526 12.1494C4.22212 12.2262 4.27363 12.2995 4.32944 12.3687C4.55855 12.6528 4.91266 12.847 5.62765 12.953C6.35563 13.061 7.33497 13.0625 8.72578 13.0625H11.2745Z" fill="#C7A57A"/>
</svg>
