<svg width="20" height="22" viewBox="0 0 20 22" fill="none"
    xmlns="http://www.w3.org/2000/svg">
    <path fill-rule="evenodd" clip-rule="evenodd" d="M7.76433 3.10721C7.99567 1.98426 8.9085 1.14587 9.99935 1.14587C11.0902 1.14587 12.003 1.98426 12.2344 3.10721C12.4142 3.19209 12.5766 3.31727 12.7075 3.47705C12.9786 3.80785 13.1106 4.29091 12.953 4.7917C12.5958 5.92638 11.7133 6.79233 10.6244 7.03546V12.2899C10.7263 12.1822 10.8337 12.0799 10.9466 11.9836L10.9563 11.9753L13.7393 9.78708C13.2814 8.69123 13.368 7.41187 13.9477 6.40826C14.2093 5.9552 14.6405 5.7649 15.0518 5.79511C15.2519 5.8098 15.4462 5.87516 15.6216 5.98189C16.5847 5.46974 17.7724 5.74684 18.4594 6.71426C19.1453 7.6802 19.1097 9.02154 18.435 9.93726C18.4888 10.1522 18.5011 10.3777 18.4672 10.5966C18.3988 11.0399 18.135 11.4607 17.6735 11.6386C16.5802 12.0599 15.3415 11.7909 14.472 10.9011L11.7037 13.0778C11.024 13.6631 10.6244 14.5662 10.6244 15.5255V19.4792H12.4994C12.8445 19.4792 13.1244 19.787 13.1244 20.1667C13.1244 20.5464 12.8445 20.8542 12.4994 20.8542H7.49935C7.15417 20.8542 6.87435 20.5464 6.87435 20.1667C6.87435 19.787 7.15417 19.4792 7.49935 19.4792H9.37435V15.5255C9.37435 14.5662 8.97466 13.6631 8.29496 13.0778L5.5267 10.9011C4.6572 11.7909 3.41847 12.0599 2.32517 11.6386C1.86369 11.4607 1.59992 11.0399 1.53147 10.5966C1.49765 10.3777 1.50993 10.1522 1.56372 9.93726C0.888961 9.02154 0.853386 7.6802 1.53935 6.71426C2.22635 5.74684 3.41404 5.46974 4.37711 5.98189C4.55251 5.87516 4.74681 5.8098 4.94688 5.79511C5.35817 5.7649 5.78939 5.9552 6.05105 6.40826C6.63066 7.41188 6.71733 8.69123 6.25938 9.78708L9.04242 11.9753L9.05215 11.9836C9.16497 12.0799 9.27245 12.1822 9.37435 12.2899V7.03546C8.28537 6.79233 7.40286 5.92638 7.04572 4.7917C6.8881 4.2909 7.02014 3.80785 7.29121 3.47705C7.42213 3.31727 7.5845 3.19209 7.76433 3.10721ZM9.16594 2.97921H10.8328C10.6427 2.7009 10.3401 2.52087 9.99935 2.52087C9.65856 2.52087 9.35599 2.7009 9.16594 2.97921ZM3.4312 7.10613C3.09305 7.08514 2.75113 7.24146 2.52442 7.56071C2.29758 7.88013 2.23959 8.28719 2.33522 8.64945L3.4312 7.10613ZM17.6635 8.64945C17.7591 8.28718 17.7011 7.88013 17.4743 7.56071C17.2476 7.24146 16.9057 7.08514 16.5675 7.10613L17.6635 8.64945ZM8.23956 4.3807C8.50389 5.16877 9.19291 5.72921 9.99935 5.72921C10.8058 5.72921 11.4948 5.16877 11.7591 4.3807C11.7542 4.37747 11.7484 4.37412 11.7417 4.37089C11.7206 4.36083 11.6946 4.35421 11.666 4.35421H8.33269C8.30412 4.35421 8.27815 4.36083 8.25704 4.37089C8.25026 4.37412 8.24446 4.37747 8.23956 4.3807ZM4.9829 7.18463C4.96074 7.19789 4.93775 7.21825 4.91805 7.246L2.80798 10.2173C2.78826 10.2451 2.77524 10.2755 2.76838 10.3043C2.76396 10.3228 2.76263 10.3383 2.76267 10.35C3.51104 10.626 4.36783 10.3711 4.88583 9.64165C4.90041 9.62112 4.91458 9.60041 4.92836 9.57953C5.40556 8.8562 5.41802 7.8996 5.01068 7.17148C5.00292 7.17414 4.99351 7.17828 4.9829 7.18463ZM14.988 7.17148C14.5807 7.8996 14.5931 8.8562 15.0703 9.57953C15.0841 9.60042 15.0983 9.62113 15.1129 9.64165C15.6309 10.3711 16.4877 10.626 17.236 10.35C17.2361 10.3383 17.2347 10.3228 17.2303 10.3043C17.2235 10.2755 17.2104 10.2451 17.1907 10.2173L15.0807 7.246C15.061 7.21825 15.038 7.19789 15.0158 7.18463C15.0052 7.17828 14.9958 7.17414 14.988 7.17148Z" fill="#C7A57A"/>
</svg>
