<svg width="20" height="22" viewBox="0 0 20 22" fill="none"
    xmlns="http://www.w3.org/2000/svg">
    <path fill-rule="evenodd" clip-rule="evenodd" d="M7.8849 1.79831C8.45342 1.3814 9.20282 1.14587 9.99935 1.14587C10.7959 1.14587 11.5453 1.3814 12.1138 1.79831C12.5071 2.08674 12.8432 2.48859 13.0107 2.97921H13.3327C13.7309 2.97921 14.113 3.15949 14.3732 3.47487C14.6435 3.80248 14.778 4.27859 14.6348 4.77652C14.1301 6.53121 12.5106 7.75946 10.6244 7.98388V19.4792H12.4994C12.8445 19.4792 13.1244 19.787 13.1244 20.1667C13.1244 20.5464 12.8445 20.8542 12.4994 20.8542H7.49935C7.15418 20.8542 6.87435 20.5464 6.87435 20.1667C6.87435 19.787 7.15418 19.4792 7.49935 19.4792H9.37435V16.4421C9.37435 15.4829 8.97466 14.5797 8.29497 13.9944L5.5267 11.8178C4.6572 12.7076 3.41847 12.9765 2.32517 12.5552C1.86369 12.3774 1.59992 11.9565 1.53147 11.5133C1.49765 11.2943 1.50993 11.0689 1.56372 10.8539C0.888961 9.93821 0.853386 8.59687 1.53935 7.63092C2.22635 6.66351 3.41405 6.38641 4.37711 6.89856C4.55251 6.79182 4.74681 6.72647 4.94688 6.71178C5.35817 6.68157 5.7894 6.87187 6.05105 7.32493C6.63066 8.32854 6.71733 9.60789 6.25938 10.7037L9.04242 12.892L9.05215 12.9003C9.16497 12.9966 9.27245 13.0989 9.37435 13.2066V7.98388C7.48811 7.75946 5.86859 6.53121 5.36394 4.77652C5.22073 4.27859 5.35516 3.80248 5.62548 3.47487C5.8857 3.15949 6.26782 2.97921 6.66602 2.97921H6.98803C7.1555 2.48859 7.49158 2.08674 7.8849 1.79831ZM8.52986 2.97921H11.4689C11.4532 2.96689 11.4371 2.95461 11.4204 2.94238C11.0841 2.69576 10.5835 2.52087 9.99935 2.52087C9.41518 2.52087 8.91458 2.69576 8.57827 2.94238C8.56159 2.95461 8.54546 2.96689 8.52986 2.97921ZM6.66602 4.35421C6.63714 4.35421 6.61112 4.36085 6.58998 4.3709C6.57856 4.37633 6.56974 4.38217 6.56323 4.38737C6.92848 5.60778 8.26193 6.64587 9.99935 6.64587C11.7368 6.64587 13.0702 5.60778 13.4355 4.38737C13.429 4.38217 13.4201 4.37633 13.4087 4.3709C13.3876 4.36085 13.3616 4.35421 13.3327 4.35421H6.66602ZM3.4312 8.02279C3.09305 8.00181 2.75113 8.15813 2.52442 8.47737C2.29758 8.7968 2.23959 9.20385 2.33522 9.56612L3.4312 8.02279ZM4.9829 8.10129C4.96074 8.11456 4.93775 8.13492 4.91805 8.16266L2.80798 11.134C2.78826 11.1618 2.77524 11.1921 2.76838 11.2209C2.76396 11.2395 2.76263 11.255 2.76267 11.2667C3.51104 11.5427 4.36783 11.2877 4.88583 10.5583C4.90041 10.5378 4.91459 10.5171 4.92836 10.4962C5.40557 9.77287 5.41802 8.81627 5.01068 8.08815C5.00292 8.09081 4.99351 8.09495 4.9829 8.10129Z" fill="#C7A57A"/>
</svg>
