<svg width="20" height="22" viewBox="0 0 20 22" fill="none"
    xmlns="http://www.w3.org/2000/svg">
    <path fill-rule="evenodd" clip-rule="evenodd" d="M8.28567 1.14587H11.713C13.2445 1.14586 14.4575 1.14585 15.4069 1.28625C16.3839 1.43074 17.1747 1.73518 17.7983 2.42118C18.4219 3.10718 18.6987 3.97705 18.8301 5.05177C18.9577 6.09605 18.9577 7.43038 18.9577 9.115V11.0518C18.9577 12.7364 18.9577 14.0707 18.8301 15.115C18.6987 16.1897 18.4219 17.0596 17.7983 17.7456C17.4117 18.1708 16.9608 18.4495 16.4412 18.6343C16.452 18.6848 16.4577 18.7375 16.4577 18.7917V20.1667C16.4577 20.5464 16.1779 20.8542 15.8327 20.8542C15.4875 20.8542 15.2077 20.5464 15.2077 20.1667V18.9075C14.2895 19.0209 13.1394 19.0209 11.713 19.0209H8.28567C6.8593 19.0209 5.70916 19.0209 4.79102 18.9075V20.1667C4.79102 20.5464 4.51119 20.8542 4.16602 20.8542C3.82084 20.8542 3.54102 20.5464 3.54102 20.1667V18.7917C3.54102 18.7375 3.54672 18.6848 3.55748 18.6343C3.03785 18.4495 2.587 18.1708 2.20039 17.7456C1.57675 17.0596 1.29999 16.1897 1.16863 15.115C1.04099 14.0707 1.041 12.7364 1.04102 11.0518V9.11499C1.041 7.43038 1.04099 6.09605 1.16863 5.05177C1.29999 3.97705 1.57675 3.10718 2.20039 2.42118C2.82402 1.73518 3.61481 1.43074 4.59183 1.28625C5.54118 1.14585 6.7542 1.14586 8.28567 1.14587ZM2.29102 10.7709V11C2.29102 12.748 2.29234 13.9897 2.40748 14.9318C2.5202 15.854 2.73159 16.3854 3.08427 16.7733C3.43694 17.1612 3.91998 17.3938 4.75839 17.5178C5.61478 17.6444 6.74367 17.6459 8.33268 17.6459H11.666C13.255 17.6459 14.3839 17.6444 15.2403 17.5178C16.0787 17.3938 16.5618 17.1612 16.9144 16.7733C17.2671 16.3854 17.4785 15.854 17.5912 14.9318C17.7064 13.9897 17.7077 12.748 17.7077 11V10.7709H2.29102ZM17.7077 9.39587H2.29102V9.16671C2.29102 7.41879 2.29234 6.17701 2.40748 5.23499C2.5202 4.31274 2.73159 3.78139 3.08427 3.39345C3.43694 3.00551 3.91998 2.77298 4.75839 2.64899C5.61478 2.52233 6.74367 2.52087 8.33268 2.52087H11.666C13.255 2.52087 14.3839 2.52233 15.2403 2.64899C16.0787 2.77298 16.5618 3.00551 16.9144 3.39345C17.2671 3.78139 17.4785 4.31274 17.5912 5.23499C17.7064 6.17701 17.7077 7.41879 17.7077 9.16671V9.39587ZM6.87435 5.95837C6.87435 5.57868 7.15417 5.27087 7.49935 5.27087H12.4993C12.8445 5.27087 13.1243 5.57868 13.1243 5.95837C13.1243 6.33807 12.8445 6.64587 12.4993 6.64587H7.49935C7.15417 6.64587 6.87435 6.33807 6.87435 5.95837ZM6.87435 14.2084C6.87435 13.8287 7.15417 13.5209 7.49935 13.5209H12.4993C12.8445 13.5209 13.1243 13.8287 13.1243 14.2084C13.1243 14.5881 12.8445 14.8959 12.4993 14.8959H7.49935C7.15417 14.8959 6.87435 14.5881 6.87435 14.2084Z" fill="#C7A57A"/>
</svg>
