<svg width="20" height="22" viewBox="0 0 20 22" fill="none"
    xmlns="http://www.w3.org/2000/svg">
    <path d="M14.7923 6.41671C14.7923 6.03701 14.5125 5.72921 14.1673 5.72921C13.8221 5.72921 13.5423 6.03701 13.5423 6.41671V8.25004C13.5423 8.62974 13.8221 8.93754 14.1673 8.93754C14.5125 8.93754 14.7923 8.62974 14.7923 8.25004V6.41671Z" fill="#C7A57A"/>
    <path d="M14.7923 12.8334C14.7923 12.4537 14.5125 12.1459 14.1673 12.1459C13.8221 12.1459 13.5423 12.4537 13.5423 12.8334V14.6667C13.5423 15.0464 13.8221 15.3542 14.1673 15.3542C14.5125 15.3542 14.7923 15.0464 14.7923 14.6667V12.8334Z" fill="#C7A57A"/>
    <path fill-rule="evenodd" clip-rule="evenodd" d="M10.0477 1.14587H9.95364C8.42218 1.14586 7.20914 1.14585 6.2598 1.28625C5.28278 1.43074 4.49199 1.73518 3.86835 2.42118C3.24472 3.10718 2.96795 3.97705 2.8366 5.05177C2.70896 6.09605 2.70897 7.43038 2.70898 9.11498V11.9684C2.70897 13.653 2.70896 14.9874 2.8366 16.0316C2.96795 17.1064 3.24472 17.9762 3.86835 18.6622C4.25088 19.083 4.69629 19.3602 5.20898 19.545V20.1667C5.20898 20.5464 5.48881 20.8542 5.83398 20.8542H6.66732C7.0125 20.8542 7.29232 20.5464 7.29232 20.1667V19.8956C8.04796 19.9376 8.9296 19.9375 9.95361 19.9375H10.0477C11.0717 19.9375 11.9533 19.9376 12.709 19.8956V20.1667C12.709 20.5464 12.9888 20.8542 13.334 20.8542H14.1673C14.5125 20.8542 14.7923 20.5464 14.7923 20.1667V19.545C15.305 19.3602 15.7504 19.083 16.133 18.6622C16.7566 17.9762 17.0334 17.1064 17.1647 16.0316C17.2923 14.9874 17.2923 13.6531 17.2923 11.9685V9.115C17.2923 7.4304 17.2923 6.09604 17.1647 5.05177C17.0334 3.97705 16.7566 3.10718 16.133 2.42118C15.5093 1.73518 14.7185 1.43074 13.7415 1.28625C12.7922 1.14585 11.5791 1.14586 10.0477 1.14587ZM4.75224 3.39345C5.10491 3.00551 5.58795 2.77298 6.42636 2.64899C7.28275 2.52233 8.41164 2.52087 10.0007 2.52087C11.5897 2.52087 12.7186 2.52233 13.5749 2.64899C14.4134 2.77298 14.8964 3.00551 15.2491 3.39345C15.6017 3.78139 15.8131 4.31274 15.9259 5.23499C16.041 6.17701 16.0423 7.41879 16.0423 9.16671V9.85421H3.95899V9.16671C3.95899 7.41879 3.96031 6.17701 4.07545 5.23499C4.18817 4.31274 4.39956 3.78139 4.75224 3.39345ZM3.95899 11.2292H16.0423V11.9167C16.0423 13.6646 16.041 14.9064 15.9259 15.8484C15.8131 16.7707 15.6017 17.302 15.2491 17.69C14.8964 18.0779 14.4134 18.3104 13.5749 18.4344C12.7186 18.5611 11.5897 18.5625 10.0007 18.5625C8.41164 18.5625 7.28275 18.5611 6.42636 18.4344C5.58795 18.3104 5.10491 18.0779 4.75224 17.69C4.39956 17.302 4.18817 16.7707 4.07545 15.8484C3.96031 14.9064 3.95899 13.6646 3.95899 11.9167V11.2292Z" fill="#C7A57A"/>
</svg>
