<svg width="22" height="22" viewBox="0 0 22 22" fill="none"
    xmlns="http://www.w3.org/2000/svg">
    <path fill-rule="evenodd" clip-rule="evenodd" d="M7.28368 3.89587H14.7176C15.9712 3.89586 16.9817 3.89584 17.7764 4.00269C18.6015 4.11362 19.2962 4.35094 19.848 4.9027C20.3998 5.45445 20.6371 6.14917 20.748 6.97427C20.8549 7.76899 20.8548 8.77945 20.8548 10.0331V10.1351C20.8548 11.8197 20.8548 13.154 20.7144 14.1983C20.57 15.273 20.2655 16.1429 19.5795 16.8289C18.8935 17.5149 18.0236 17.8193 16.9489 17.9638C15.9046 18.1042 14.5703 18.1042 12.8857 18.1042H9.11561C7.43099 18.1042 6.09666 18.1042 5.05238 17.9638C3.97766 17.8193 3.10779 17.5149 2.42179 16.8289C1.73579 16.1429 1.43135 15.273 1.28686 14.1983C1.14646 13.154 1.14647 11.8197 1.14649 10.1351L1.14648 10.0331C1.14647 8.77945 1.14645 7.76899 1.2533 6.97427C1.36423 6.14917 1.60155 5.45445 2.15331 4.9027C2.70506 4.35094 3.39978 4.11362 4.22488 4.00269C5.0196 3.89584 6.03006 3.89586 7.28368 3.89587ZM4.4081 5.36543C3.73547 5.45586 3.37928 5.62127 3.12558 5.87497C2.87188 6.12867 2.70647 6.48486 2.61604 7.15749C2.52295 7.84989 2.52149 8.76758 2.52149 10.0834C2.52149 11.8313 2.52295 13.0731 2.6496 14.0151C2.77359 14.9373 3.00612 15.4687 3.39406 15.8566C3.71859 16.1812 4.14347 16.3969 4.8136 16.5314C4.81519 16.088 4.82244 15.7057 4.8553 15.3826C4.89946 14.9486 4.99544 14.5459 5.23799 14.1829C5.42191 13.9076 5.65824 13.6713 5.93349 13.4874C6.29648 13.2448 6.69924 13.1488 7.13325 13.1047C7.54789 13.0625 8.06005 13.0625 8.67382 13.0625H13.3275C13.9413 13.0625 14.4534 13.0625 14.8681 13.1047C15.3021 13.1488 15.7048 13.2448 16.0678 13.4874C16.3431 13.6713 16.5794 13.9076 16.7633 14.1829C17.0059 14.5459 17.1019 14.9486 17.146 15.3826C17.1789 15.7057 17.1861 16.088 17.1877 16.5314C17.8578 16.3969 18.2827 16.1812 18.6072 15.8566C18.9952 15.4687 19.2277 14.9373 19.3517 14.0151C19.4784 13.0731 19.4798 11.8313 19.4798 10.0834C19.4798 8.76758 19.4784 7.84989 19.3853 7.15749C19.2948 6.48486 19.1294 6.12867 18.8757 5.87497C18.622 5.62127 18.2658 5.45586 17.5932 5.36543C16.9008 5.27234 15.9831 5.27088 14.6673 5.27088H7.33399C6.01819 5.27088 5.1005 5.27234 4.4081 5.36543ZM15.813 16.6856C15.8122 16.1745 15.8074 15.8098 15.7781 15.5218C15.745 15.1965 15.6865 15.0462 15.62 14.9468C15.5364 14.8217 15.429 14.7142 15.3039 14.6306C15.2045 14.5642 15.0542 14.5057 14.7289 14.4726C14.3921 14.4384 13.9503 14.4375 13.2923 14.4375H8.70899C8.05096 14.4375 7.6092 14.4384 7.27241 14.4726C6.94711 14.5057 6.79681 14.5642 6.69739 14.6306C6.57228 14.7142 6.46486 14.8217 6.38126 14.9468C6.31483 15.0462 6.25634 15.1965 6.22324 15.5218C6.19395 15.8098 6.1891 16.1745 6.1883 16.6856C6.9832 16.7285 7.95315 16.7292 9.16732 16.7292H12.834C14.0482 16.7292 15.0181 16.7285 15.813 16.6856ZM4.81315 8.25004C4.81315 7.87035 5.12096 7.56254 5.50065 7.56254H16.5007C16.8803 7.56254 17.1882 7.87035 17.1882 8.25004C17.1882 8.62974 16.8803 8.93754 16.5007 8.93754H5.50065C5.12096 8.93754 4.81315 8.62974 4.81315 8.25004ZM4.81315 10.5417C4.81315 10.162 5.12096 9.85421 5.50065 9.85421H16.5007C16.8803 9.85421 17.1882 10.162 17.1882 10.5417C17.1882 10.9214 16.8803 11.2292 16.5007 11.2292H5.50065C5.12096 11.2292 4.81315 10.9214 4.81315 10.5417Z" fill="#C7A57A"/>
</svg>
