<svg width="22" height="22" viewBox="0 0 22 22" fill="none"
    xmlns="http://www.w3.org/2000/svg">
    <path fill-rule="evenodd" clip-rule="evenodd" d="M10.9625 1.14587H11.0388C12.2939 1.14587 13.2884 1.14586 14.0825 1.22665C14.8962 1.30942 15.5755 1.48265 16.1697 1.87968C16.6451 2.19736 17.0533 2.60556 17.371 3.081C17.768 3.6752 17.9413 4.35448 18.024 5.16816C18.1048 5.96231 18.1048 6.9568 18.1048 8.21191V13.7882C18.1048 15.0433 18.1048 16.0378 18.024 16.8319C17.9413 17.6456 17.768 18.3249 17.371 18.9191C17.0533 19.3945 16.6451 19.8027 16.1697 20.1204C15.5755 20.5174 14.8962 20.6907 14.0825 20.7734C13.2884 20.8542 12.2939 20.8542 11.0387 20.8542H10.9626C9.70743 20.8542 8.71293 20.8542 7.91877 20.7734C7.10509 20.6907 6.42581 20.5174 5.83161 20.1204C5.35617 19.8027 4.94797 19.3945 4.63029 18.9191C4.23326 18.3249 4.06003 17.6456 3.97726 16.8319C3.89647 16.0378 3.89648 15.0433 3.89648 13.7882V8.21192C3.89648 6.95681 3.89647 5.96232 3.97726 5.16816C4.06003 4.35448 4.23326 3.6752 4.63029 3.081C4.94797 2.60556 5.35617 2.19736 5.83161 1.87968C6.42581 1.48265 7.10509 1.30942 7.91877 1.22665C8.71293 1.14586 9.70742 1.14587 10.9625 1.14587ZM8.05792 2.59459C7.35297 2.6663 6.92613 2.80204 6.59551 3.02295C6.27022 3.24031 5.99092 3.51961 5.77356 3.8449C5.55265 4.17552 5.41691 4.60236 5.3452 5.30731C5.27232 6.02376 5.27148 6.94831 5.27148 8.25004V13.75C5.27148 15.0518 5.27232 15.9763 5.3452 16.6928C5.41691 17.3977 5.55265 17.8246 5.77356 18.1552C5.99092 18.4805 6.27022 18.7598 6.59551 18.9771C6.92613 19.198 7.35297 19.3338 8.05792 19.4055C8.77437 19.4784 9.69892 19.4792 11.0007 19.4792C12.3024 19.4792 13.2269 19.4784 13.9434 19.4055C14.6483 19.3338 15.0752 19.198 15.4058 18.9771C15.7311 18.7598 16.0104 18.4805 16.2277 18.1552C16.4486 17.8246 16.5844 17.3977 16.6561 16.6928C16.729 15.9763 16.7298 15.0518 16.7298 13.75V8.25004C16.7298 6.94831 16.729 6.02376 16.6561 5.30731C16.5844 4.60236 16.4486 4.17552 16.2277 3.8449C16.0104 3.51961 15.7311 3.24031 15.4058 3.02295C15.0752 2.80204 14.6483 2.6663 13.9434 2.59459C13.2269 2.52171 12.3024 2.52087 11.0007 2.52087C9.69892 2.52087 8.77437 2.52171 8.05792 2.59459ZM11.0007 8.02087C9.86156 8.02087 8.93815 8.94429 8.93815 10.0834C8.93815 11.2225 9.86156 12.1459 11.0007 12.1459C12.1397 12.1459 13.0631 11.2225 13.0631 10.0834C13.0631 8.94429 12.1397 8.02087 11.0007 8.02087ZM7.56315 10.0834C7.56315 8.1849 9.10217 6.64587 11.0007 6.64587C12.8991 6.64587 14.4381 8.1849 14.4381 10.0834C14.4381 11.9819 12.8991 13.5209 11.0007 13.5209C9.10217 13.5209 7.56315 11.9819 7.56315 10.0834Z" fill="#C7A57A"/>
    <path d="M11.9173 4.58337C11.9173 5.08964 11.5069 5.50004 11.0007 5.50004C10.4944 5.50004 10.084 5.08964 10.084 4.58337C10.084 4.07711 10.4944 3.66671 11.0007 3.66671C11.5069 3.66671 11.9173 4.07711 11.9173 4.58337Z" fill="#C7A57A"/>
    <path d="M11.9173 15.5834C11.9173 16.0896 11.5069 16.5 11.0007 16.5C10.4944 16.5 10.084 16.0896 10.084 15.5834C10.084 15.0771 10.4944 14.6667 11.0007 14.6667C11.5069 14.6667 11.9173 15.0771 11.9173 15.5834Z" fill="#C7A57A"/>
</svg>
