<svg width="22" height="22" viewBox="0 0 22 22" fill="none"
    xmlns="http://www.w3.org/2000/svg">
    <path fill-rule="evenodd" clip-rule="evenodd" d="M10.9625 1.14587H11.0388C12.2939 1.14587 13.2884 1.14586 14.0825 1.22665C14.8962 1.30942 15.5755 1.48265 16.1697 1.87968C16.6451 2.19736 17.0533 2.60556 17.371 3.081C17.768 3.6752 17.9413 4.35448 18.024 5.16816C18.1048 5.96231 18.1048 6.9568 18.1048 8.21191V13.7882C18.1048 15.0433 18.1048 16.0378 18.024 16.8319C17.9413 17.6456 17.768 18.3249 17.371 18.9191C17.0533 19.3945 16.6451 19.8027 16.1697 20.1204C15.5755 20.5174 14.8962 20.6907 14.0825 20.7734C13.2884 20.8542 12.2939 20.8542 11.0387 20.8542H10.9626C9.70743 20.8542 8.71293 20.8542 7.91877 20.7734C7.10509 20.6907 6.42581 20.5174 5.83161 20.1204C5.35617 19.8027 4.94797 19.3945 4.63029 18.9191C4.23326 18.3249 4.06003 17.6456 3.97726 16.8319C3.89647 16.0378 3.89648 15.0433 3.89648 13.7882V8.21192C3.89648 6.95681 3.89647 5.96232 3.97726 5.16816C4.06003 4.35448 4.23326 3.6752 4.63029 3.081C4.94797 2.60556 5.35617 2.19736 5.83161 1.87968C6.42581 1.48265 7.10509 1.30942 7.91877 1.22665C8.71293 1.14586 9.70742 1.14587 10.9625 1.14587ZM8.05792 2.59459C7.35297 2.6663 6.92613 2.80204 6.59551 3.02295C6.27022 3.24031 5.99092 3.51961 5.77356 3.8449C5.55265 4.17552 5.41691 4.60236 5.3452 5.30731C5.27232 6.02376 5.27148 6.94831 5.27148 8.25004V13.75C5.27148 15.0518 5.27232 15.9763 5.3452 16.6928C5.41691 17.3977 5.55265 17.8246 5.77356 18.1552C5.99092 18.4805 6.27022 18.7598 6.59551 18.9771C6.92613 19.198 7.35297 19.3338 8.05792 19.4055C8.77437 19.4784 9.69892 19.4792 11.0007 19.4792C12.3024 19.4792 13.2269 19.4784 13.9434 19.4055C14.6483 19.3338 15.0752 19.198 15.4058 18.9771C15.7311 18.7598 16.0104 18.4805 16.2277 18.1552C16.4486 17.8246 16.5844 17.3977 16.6561 16.6928C16.729 15.9763 16.7298 15.0518 16.7298 13.75V8.25004C16.7298 6.94831 16.729 6.02376 16.6561 5.30731C16.5844 4.60236 16.4486 4.17552 16.2277 3.8449C16.0104 3.51961 15.7311 3.24031 15.4058 3.02295C15.0752 2.80204 14.6483 2.6663 13.9434 2.59459C13.2269 2.52171 12.3024 2.52087 11.0007 2.52087C9.69892 2.52087 8.77437 2.52171 8.05792 2.59459ZM11.0007 12.1459C9.86156 12.1459 8.93815 13.0693 8.93815 14.2084C8.93815 15.3475 9.86156 16.2709 11.0007 16.2709C12.1397 16.2709 13.0631 15.3475 13.0631 14.2084C13.0631 13.0693 12.1397 12.1459 11.0007 12.1459ZM7.56315 14.2084C7.56315 12.3099 9.10217 10.7709 11.0007 10.7709C12.8991 10.7709 14.4381 12.3099 14.4381 14.2084C14.4381 16.1069 12.8991 17.6459 11.0007 17.6459C9.10217 17.6459 7.56315 16.1069 7.56315 14.2084Z" fill="#C7A57A"/>
    <path d="M10.084 8.70837C10.084 9.21463 9.67358 9.62504 9.16732 9.62504C8.66106 9.62504 8.25065 9.21463 8.25065 8.70837C8.25065 8.20211 8.66106 7.79171 9.16732 7.79171C9.67358 7.79171 10.084 8.20211 10.084 8.70837Z" fill="#C7A57A"/>
    <path d="M10.084 5.50004C10.084 6.0063 9.67358 6.41671 9.16732 6.41671C8.66106 6.41671 8.25065 6.0063 8.25065 5.50004C8.25065 4.99378 8.66106 4.58337 9.16732 4.58337C9.67358 4.58337 10.084 4.99378 10.084 5.50004Z" fill="#C7A57A"/>
    <path d="M13.7506 8.70837C13.7506 9.21463 13.3402 9.62504 12.834 9.62504C12.3277 9.62504 11.9173 9.21463 11.9173 8.70837C11.9173 8.20211 12.3277 7.79171 12.834 7.79171C13.3402 7.79171 13.7506 8.20211 13.7506 8.70837Z" fill="#C7A57A"/>
    <path d="M13.7506 5.50004C13.7506 6.0063 13.3402 6.41671 12.834 6.41671C12.3277 6.41671 11.9173 6.0063 11.9173 5.50004C11.9173 4.99378 12.3277 4.58337 12.834 4.58337C13.3402 4.58337 13.7506 4.99378 13.7506 5.50004Z" fill="#C7A57A"/>
</svg>
