<svg width="22" height="22" viewBox="0 0 22 22" fill="none"
    xmlns="http://www.w3.org/2000/svg">
    <path fill-rule="evenodd" clip-rule="evenodd" d="M10.0316 1.14587H11.9684C13.653 1.14586 14.9873 1.14585 16.0316 1.28625C17.1063 1.43074 17.9762 1.73518 18.6622 2.42118C19.3482 3.10718 19.6526 3.97705 19.7971 5.05177C19.9375 6.09605 19.9375 7.43038 19.9375 9.115V12.8851C19.9375 14.5697 19.9375 15.904 19.7971 16.9483C19.6526 18.023 19.3482 18.8929 18.6622 19.5789C17.9762 20.2649 17.1063 20.5693 16.0316 20.7138C14.9873 20.8542 13.653 20.8542 11.9684 20.8542H10.0316C8.34701 20.8542 7.01268 20.8542 5.9684 20.7138C4.89368 20.5693 4.02381 20.2649 3.33781 19.5789C2.65181 18.8929 2.34737 18.023 2.20287 16.9483C2.06247 15.904 2.06249 14.5697 2.0625 12.8851V9.11499C2.06249 7.43038 2.06247 6.09605 2.20287 5.05177C2.34737 3.97705 2.65181 3.10718 3.33781 2.42118C4.02381 1.73518 4.89368 1.43074 5.9684 1.28625C7.01268 1.14585 8.34701 1.14586 10.0316 1.14587ZM6.15161 2.64899C5.22936 2.77298 4.69802 3.00551 4.31008 3.39345C3.92214 3.78139 3.68961 4.31274 3.56561 5.23499C3.43896 6.17701 3.4375 7.41879 3.4375 9.16671V12.8334C3.4375 14.5813 3.43896 15.8231 3.56561 16.7651C3.68961 17.6873 3.92214 18.2187 4.31008 18.6066C4.69802 18.9946 5.22936 19.2271 6.15161 19.3511C7.09364 19.4777 8.33541 19.4792 10.0833 19.4792H11.9167C13.6646 19.4792 14.9064 19.4777 15.8484 19.3511C16.7706 19.2271 17.302 18.9946 17.6899 18.6066C18.0779 18.2187 18.3104 17.6873 18.4344 16.7651C18.561 15.8231 18.5625 14.5813 18.5625 12.8334V9.16671C18.5625 7.41879 18.561 6.17701 18.4344 5.23499C18.3104 4.31274 18.0779 3.78139 17.6899 3.39345C17.302 3.00551 16.7706 2.77298 15.8484 2.64899C14.9064 2.52233 13.6646 2.52087 11.9167 2.52087H10.0833C8.33542 2.52087 7.09364 2.52233 6.15161 2.64899ZM6.64583 5.50004C6.64583 5.12035 6.95364 4.81254 7.33333 4.81254H14.6667C15.0464 4.81254 15.3542 5.12035 15.3542 5.50004C15.3542 5.87974 15.0464 6.18754 14.6667 6.18754H7.33333C6.95364 6.18754 6.64583 5.87974 6.64583 5.50004ZM7.10897 12.6382C7.26295 12.7193 7.41383 12.8038 7.56602 12.889C8.21985 13.255 8.89814 13.6347 9.95229 13.8247C10.3924 13.904 10.6583 13.8594 10.8442 13.7908C11.0485 13.7154 11.2136 13.5932 11.466 13.3974C11.4732 13.3918 11.4804 13.3862 11.4877 13.3805C11.7205 13.1998 12.0361 12.9548 12.4547 12.8004C12.9049 12.6343 13.4238 12.5875 14.0663 12.7032C14.3763 12.759 14.6508 12.8323 14.8949 12.9189C14.8955 12.8904 14.8958 12.8619 14.8958 12.8334C14.8958 10.6818 13.1516 8.93754 11 8.93754C8.91385 8.93754 7.21067 10.5772 7.10897 12.6382ZM14.6161 14.2858C14.4142 14.198 14.156 14.1165 13.8226 14.0564C13.3825 13.9771 13.1165 14.0218 12.9306 14.0904C12.7263 14.1658 12.5612 14.2881 12.3087 14.4839C12.3016 14.4894 12.2944 14.495 12.2871 14.5007C12.0543 14.6814 11.7387 14.9264 11.32 15.0808C10.8698 15.2469 10.3509 15.2937 9.70839 15.1779C8.76739 15.0083 8.01874 14.6873 7.42325 14.38C8.02173 15.7622 9.39794 16.7292 11 16.7292C12.6382 16.7292 14.0403 15.7181 14.6161 14.2858ZM5.72917 12.8334C5.72917 9.92237 8.089 7.56254 11 7.56254C13.911 7.56254 16.2708 9.92237 16.2708 12.8334C16.2708 15.7444 13.911 18.1042 11 18.1042C8.089 18.1042 5.72917 15.7444 5.72917 12.8334Z" fill="#C7A57A"/>
</svg>
