<svg width="20" height="22" viewBox="0 0 20 22" fill="none"
    xmlns="http://www.w3.org/2000/svg">
    <path fill-rule="evenodd" clip-rule="evenodd" d="M9.9491 2.97913H10.0496C11.8741 2.97911 13.3096 2.9791 14.4107 3.14637C15.536 3.31733 16.4315 3.6783 17.0742 4.50654C17.1489 4.60289 17.2199 4.70278 17.2867 4.80593C17.8613 5.69263 17.9624 6.73587 17.8403 7.97821C17.7311 9.08924 17.4308 10.4645 17.0421 12.1796C18.1288 12.3769 18.9577 13.4153 18.9577 14.6666C18.9577 15.8205 18.2529 16.7933 17.291 17.0926V18.3333C17.291 18.713 17.0112 19.0208 16.666 19.0208C16.3208 19.0208 16.041 18.713 16.041 18.3333V17.1875H3.95768L3.95768 18.3333C3.95768 18.713 3.67786 19.0208 3.33268 19.0208C2.9875 19.0208 2.70768 18.713 2.70768 18.3333L2.70768 17.0926C1.74581 16.7933 1.04102 15.8205 1.04102 14.6666C1.04102 13.4153 1.86989 12.3769 2.95664 12.1796C2.5679 10.4645 2.26765 9.08924 2.15841 7.97821C2.03625 6.73587 2.13741 5.69263 2.71201 4.80593C2.77885 4.70278 2.84975 4.60289 2.92451 4.50654C3.56718 3.6783 4.46273 3.31733 5.58803 3.14637C6.68907 2.9791 8.12455 2.97911 9.9491 2.97913ZM4.23735 12.1458H15.7613C16.1892 10.2617 16.4929 8.89449 16.5975 7.83036C16.7051 6.73591 16.5866 6.09438 16.2688 5.60405C16.2231 5.53347 16.1746 5.46512 16.1234 5.3992C15.768 4.9412 15.231 4.65905 14.2397 4.50844C13.2341 4.35568 11.8852 4.35413 9.99935 4.35413C8.11354 4.35413 6.76456 4.35568 5.75904 4.50844C4.7677 4.65905 4.23066 4.9412 3.87528 5.3992C3.82413 5.46512 3.77561 5.53347 3.72988 5.60405C3.41214 6.09438 3.29355 6.73591 3.40116 7.83036C3.50579 8.89449 3.8095 10.2617 4.23735 12.1458ZM3.33268 13.5208C2.75739 13.5208 2.29102 14.0338 2.29102 14.6666C2.29102 15.2995 2.75739 15.8125 3.33268 15.8125H16.666C17.2413 15.8125 17.7077 15.2995 17.7077 14.6666C17.7077 14.0338 17.2413 13.5208 16.666 13.5208H3.33268Z" fill="#C7A57A"/>
</svg>
