<svg width="17" height="18" viewBox="0 0 17 18" fill="none"
    xmlns="http://www.w3.org/2000/svg">
    <path d="M13.5039 5.99976L14.2945 6.26328C15.1195 6.53829 15.532 6.67579 15.768 7.00315C16.0039 7.33051 16.0039 7.76534 16.0039 8.63499V13.3572C16.0039 14.433 16.0039 14.9709 15.7208 15.3164C15.6247 15.4337 15.5079 15.5326 15.3764 15.6082C14.989 15.8306 14.4585 15.7422 13.3974 15.5653C12.3503 15.3908 11.8268 15.3036 11.3079 15.347C11.1258 15.3622 10.9449 15.3894 10.7664 15.4284C10.2577 15.5395 9.77885 15.779 8.82109 16.2578C7.57132 16.8827 6.94644 17.1952 6.28127 17.2915C6.08093 17.3205 5.87874 17.3348 5.6763 17.3345C5.0042 17.3332 4.34712 17.1142 3.03297 16.6761L2.71334 16.5696C1.88831 16.2946 1.4758 16.1571 1.23985 15.8297C1.00391 15.5023 1.00391 15.0675 1.00391 14.1979V10.0898C1.00391 8.70735 1.00391 8.01614 1.41092 7.6444C1.48214 7.57936 1.56065 7.52277 1.64488 7.47577C2.12625 7.2072 2.78199 7.42578 4.09345 7.86294" stroke="#C7A57A"/>
    <path d="M3.50586 5.74977C3.50586 3.12627 5.74444 0.999512 8.50586 0.999512C11.2673 0.999512 13.5059 3.12627 13.5059 5.74977C13.5059 8.3527 11.91 11.3901 9.42019 12.4763C8.83977 12.7295 8.17195 12.7295 7.59153 12.4763C5.10169 11.3901 3.50586 8.3527 3.50586 5.74977Z" stroke="#C7A57A"/>
    <circle cx="8.50456" cy="5.99967" r="1.66667" stroke="#C7A57A"/>
</svg>
