<svg width="26" height="25" viewBox="0 0 26 25" fill="none"
    xmlns="http://www.w3.org/2000/svg">
    <path d="M11.7735 8.32261L12.1791 9.04944C12.5452 9.70536 12.3982 10.5658 11.8217 11.1424C11.8217 11.1424 11.8217 11.1424 11.8217 11.1424C11.8216 11.1425 11.1225 11.8418 12.3903 13.1097C13.6575 14.3769 14.3568 13.6791 14.3576 13.6783C14.3576 13.6783 14.3576 13.6783 14.3577 13.6783C14.9342 13.1018 15.7946 12.9548 16.4506 13.3209L17.1774 13.7265C18.1679 14.2793 18.2848 15.6683 17.4142 16.5389C16.8911 17.062 16.2503 17.469 15.5418 17.4959C14.3492 17.5411 12.3239 17.2393 10.2923 15.2077C8.2607 13.1761 7.95888 11.1508 8.00409 9.95818C8.03095 9.24975 8.438 8.6089 8.96113 8.08577C9.83172 7.21518 11.2207 7.33215 11.7735 8.32261Z" stroke="#C7A57A" stroke-linecap="round"/>
    <path d="M13 24.5C19.6274 24.5 25 19.1274 25 12.5C25 5.87258 19.6274 0.5 13 0.5C6.37258 0.5 0.999999 5.87258 0.999999 12.5C0.999999 14.4196 1.45074 16.234 2.25215 17.843C2.46512 18.2706 2.53601 18.7593 2.41254 19.2207L1.69781 21.892C1.38754 23.0516 2.44842 24.1125 3.60802 23.8022L6.27926 23.0875C6.74072 22.964 7.22945 23.0349 7.65703 23.2478C9.26604 24.0493 11.0804 24.5 13 24.5Z" stroke="#C7A57A"/>
</svg>
