<svg width="24" height="23" viewBox="0 0 24 23" fill="none" xmlns="http://www.w3.org/2000/svg">
<path fill-rule="evenodd" clip-rule="evenodd" d="M4.82921 2.68906C3.8667 2.68906 3.08642 3.40491 3.08642 4.28794V11.0004H3.38942C3.401 11.0004 3.41255 11.0004 3.42403 11.0004C3.4297 11.0004 3.43536 11.0004 3.441 11.0004L20.3348 11.0004C20.3463 11.0004 20.3579 11.0004 20.3694 11.0004H22.5376C22.9791 11.0004 23.337 11.3288 23.337 11.7338C23.337 12.1388 22.9791 12.4672 22.5376 12.4672H22.2521C22.259 12.5111 22.264 12.5556 22.2672 12.6006C22.2712 12.657 22.2712 12.7181 22.2712 12.7769L22.2712 12.8139C22.2712 13.1808 22.2712 13.3959 22.2546 13.6358C22.1033 15.8225 20.8153 17.8418 18.9486 19.1622C18.9632 19.1834 18.9768 19.2054 18.9893 19.2283L20.0551 21.1839C20.2526 21.5462 20.0925 21.9867 19.6976 22.1678C19.3028 22.349 18.8226 22.2021 18.6252 21.8399L17.5938 19.9474C16.7393 20.3442 15.8099 20.6054 14.8434 20.6953C14.5828 20.7195 14.4238 20.7249 14.1528 20.7343L14.1457 20.7345C13.3568 20.7617 12.5845 20.7785 11.8794 20.7785C11.1744 20.7785 10.4021 20.7617 9.61315 20.7345L9.60603 20.7343C9.33509 20.7249 9.17606 20.7195 8.91549 20.6953C7.94893 20.6054 7.01959 20.3442 6.16505 19.9474L5.13367 21.8399C4.93623 22.2021 4.45608 22.349 4.06121 22.1678C3.66634 21.9867 3.50629 21.5462 3.70372 21.1839L4.76954 19.2283C4.78202 19.2054 4.79563 19.1834 4.81028 19.1622C2.94356 17.8418 1.65556 15.8225 1.50428 13.6358C1.48768 13.3959 1.48769 13.1808 1.48769 12.8138L1.48769 12.7925C1.48769 12.7873 1.48769 12.7821 1.48769 12.7769C1.48768 12.7588 1.48767 12.7405 1.48778 12.7222C1.48772 12.7187 1.48769 12.7152 1.48769 12.7116V12.4672H1.22124C0.779763 12.4672 0.421875 12.1388 0.421875 11.7338C0.421875 11.3288 0.779763 11.0004 1.22124 11.0004H1.48769V4.28794C1.48769 2.59486 2.98374 1.22235 4.82921 1.22235C6.19557 1.22235 7.42428 1.98553 7.93173 3.14941L8.04912 3.41864C8.89463 3.22186 9.81209 3.26746 10.6768 3.60638C11.759 4.03051 12.5464 4.83075 12.9496 5.76969C13.1079 6.13823 12.9186 6.55549 12.522 6.71212L6.16893 9.22126C5.97023 9.29974 5.74535 9.30098 5.54564 9.22471C5.34593 9.14843 5.18844 9.00116 5.10914 8.81652C4.70603 7.87795 4.68187 6.79112 5.12984 5.77907C5.44874 5.05864 5.96641 4.46798 6.60006 4.04438L6.44735 3.69414C6.18269 3.08711 5.54185 2.68906 4.82921 2.68906ZM3.441 12.4672C3.3983 12.4672 3.37288 12.4672 3.35369 12.4674C3.33971 12.4675 3.33474 12.4677 3.33455 12.4677C3.33385 12.4678 3.3345 12.4677 3.33455 12.4677C3.20126 12.4757 3.09605 12.5729 3.08703 12.6951C3.08698 12.6962 3.08679 12.7011 3.08665 12.7124C3.08643 12.73 3.08642 12.7533 3.08642 12.7925C3.08642 13.1862 3.08675 13.3543 3.0998 13.5429C3.29743 16.3997 5.97225 18.9476 9.07658 19.236C9.28437 19.2553 9.39939 19.2594 9.67317 19.2689C10.4491 19.2956 11.2004 19.3118 11.8794 19.3118C12.5585 19.3118 13.3097 19.2956 14.0857 19.2689C14.3595 19.2594 14.4745 19.2553 14.6823 19.236C17.7866 18.9476 20.4614 16.3997 20.6591 13.5429C20.6721 13.3543 20.6724 13.1862 20.6724 12.7925C20.6724 12.7533 20.6724 12.73 20.6722 12.7124C20.6721 12.7024 20.6719 12.6975 20.6718 12.6956C20.6718 12.6945 20.6718 12.6944 20.6718 12.6956C20.6632 12.5731 20.5568 12.4756 20.4233 12.4677C20.4246 12.4678 20.4249 12.4677 20.4233 12.4677C20.4211 12.4676 20.4156 12.4675 20.4052 12.4674C20.386 12.4672 20.3606 12.4672 20.3179 12.4672H3.441ZM10.0487 4.95517C9.34817 4.68059 8.59087 4.71879 7.9435 5.00792C7.36917 5.26442 6.882 5.71891 6.61109 6.33093C6.43682 6.72464 6.37379 7.13473 6.40802 7.52998L11.0775 5.68577C10.8117 5.37158 10.4633 5.11765 10.0487 4.95517Z" fill="#C7A57A"/>
<path d="M7.93173 3.14941C7.42428 1.98553 6.19557 1.22235 4.82921 1.22235C2.98374 1.22235 1.48769 2.59486 1.48769 4.28794V11.0004H1.22124C0.779763 11.0004 0.421875 11.3288 0.421875 11.7338C0.421875 12.1388 0.779763 12.4672 1.22124 12.4672H1.48769V12.7116C1.48769 12.7152 1.48772 12.7187 1.48778 12.7222C1.48767 12.7405 1.48768 12.7588 1.48769 12.7769C1.48769 12.7821 1.48769 12.7873 1.48769 12.7925L1.48769 12.8138C1.48769 13.1808 1.48768 13.3959 1.50428 13.6358C1.65556 15.8225 2.94356 17.8418 4.81028 19.1622C4.79563 19.1834 4.78202 19.2054 4.76954 19.2283L3.70372 21.1839C3.50629 21.5462 3.66634 21.9867 4.06121 22.1678C4.45608 22.349 4.93623 22.2021 5.13367 21.8399L6.16505 19.9474C7.01959 20.3442 7.94893 20.6054 8.91549 20.6953C9.17606 20.7195 9.33509 20.7249 9.60603 20.7343L9.61315 20.7345C10.4021 20.7617 11.1744 20.7785 11.8794 20.7785C12.5845 20.7785 13.3568 20.7617 14.1457 20.7345L14.1528 20.7343C14.4238 20.7249 14.5828 20.7195 14.8434 20.6953C15.8099 20.6054 16.7393 20.3442 17.5938 19.9474L18.6252 21.8399C18.8226 22.2021 19.3028 22.349 19.6976 22.1678C20.0925 21.9867 20.2526 21.5462 20.0551 21.1839L18.9893 19.2283C18.9768 19.2054 18.9632 19.1834 18.9486 19.1622C20.8153 17.8418 22.1033 15.8225 22.2546 13.6358C22.2712 13.3959 22.2712 13.1808 22.2712 12.8139L22.2712 12.7769C22.2712 12.7181 22.2712 12.657 22.2672 12.6006C22.264 12.5556 22.259 12.5111 22.2521 12.4672H22.5376C22.9791 12.4672 23.337 12.1388 23.337 11.7338C23.337 11.3288 22.9791 11.0004 22.5376 11.0004H20.3694C20.3579 11.0004 20.3463 11.0004 20.3348 11.0004L3.441 11.0004C3.43536 11.0004 3.4297 11.0004 3.42403 11.0004C3.41255 11.0004 3.401 11.0004 3.38942 11.0004H3.08642V4.28794C3.08642 3.40491 3.8667 2.68906 4.82921 2.68906C5.54185 2.68906 6.18269 3.08711 6.44735 3.69414L6.60006 4.04438C5.96641 4.46798 5.44874 5.05864 5.12984 5.77907C4.68187 6.79112 4.70603 7.87795 5.10914 8.81652C5.18844 9.00116 5.34593 9.14843 5.54564 9.22471C5.74535 9.30098 5.97023 9.29974 6.16893 9.22126L12.522 6.71212C12.9186 6.55549 13.1079 6.13823 12.9496 5.76969C12.5464 4.83075 11.759 4.03051 10.6768 3.60638C9.81209 3.26746 8.89463 3.22186 8.04912 3.41864L7.93173 3.14941ZM7.93173 3.14941L7.18954 3.42177M3.33455 12.4677C3.33474 12.4677 3.33971 12.4675 3.35369 12.4674C3.37288 12.4672 3.3983 12.4672 3.441 12.4672H20.3179C20.3606 12.4672 20.386 12.4672 20.4052 12.4674C20.4156 12.4675 20.4211 12.4676 20.4233 12.4677M3.33455 12.4677C3.33385 12.4678 3.3345 12.4677 3.33455 12.4677ZM3.33455 12.4677C3.20126 12.4757 3.09605 12.5729 3.08703 12.6951C3.08698 12.6962 3.08679 12.7011 3.08665 12.7124C3.08643 12.73 3.08642 12.7533 3.08642 12.7925C3.08642 13.1862 3.08675 13.3543 3.0998 13.5429C3.29743 16.3997 5.97225 18.9476 9.07658 19.236C9.28437 19.2553 9.39939 19.2594 9.67317 19.2689C10.4491 19.2956 11.2004 19.3118 11.8794 19.3118C12.5585 19.3118 13.3097 19.2956 14.0857 19.2689C14.3595 19.2594 14.4745 19.2553 14.6823 19.236C17.7866 18.9476 20.4614 16.3997 20.6591 13.5429C20.6721 13.3543 20.6724 13.1862 20.6724 12.7925C20.6724 12.7533 20.6724 12.73 20.6722 12.7124C20.6721 12.7024 20.6719 12.6975 20.6718 12.6956M20.6718 12.6956C20.6718 12.6945 20.6718 12.6944 20.6718 12.6956ZM20.6718 12.6956C20.6632 12.5731 20.5568 12.4756 20.4233 12.4677M20.4233 12.4677C20.4249 12.4677 20.4246 12.4678 20.4233 12.4677ZM7.9435 5.00792C8.59087 4.71879 9.34817 4.68059 10.0487 4.95517C10.4633 5.11765 10.8117 5.37158 11.0775 5.68577L6.40802 7.52998C6.37379 7.13473 6.43682 6.72464 6.61109 6.33093C6.882 5.71891 7.36917 5.26442 7.9435 5.00792Z" stroke="black" stroke-width="0.5" stroke-linecap="round"/>
</svg>
