<svg width="24" height="22" viewBox="0 0 24 22" fill="none" xmlns="http://www.w3.org/2000/svg">
<path d="M0.810547 4.98414V17.4346C0.810547 18.8335 0.810547 19.5329 1.17649 20.0353C1.33491 20.2529 1.53848 20.4396 1.77557 20.585C2.32324 20.9207 3.08564 20.9207 4.61044 20.9207C6.13524 20.9207 6.89764 20.9207 7.44531 20.585C7.68241 20.4396 7.88597 20.2529 8.04439 20.0353C8.41033 19.5329 8.41033 18.8335 8.41033 17.4346V9.96431C8.41033 9.02524 8.41033 8.5557 8.72832 8.26397C9.04631 7.97224 9.55811 7.97224 10.5817 7.97224H18.7243C20.2491 7.97224 21.0115 7.97224 21.5592 7.63651C21.7963 7.49118 21.9999 7.30442 22.1583 7.0869C22.5242 6.58446 22.5242 5.88501 22.5242 4.48612C22.5242 3.08723 22.5242 2.38778 22.1583 1.88533C21.9999 1.66782 21.7963 1.48106 21.5592 1.33572C21.0115 1 20.2491 1 18.7243 1H5.15328C3.1061 1 2.0825 1 1.44653 1.58346C0.810547 2.16693 0.810547 3.106 0.810547 4.98414Z" stroke="#C7A57A" stroke-linecap="round"/>
</svg>
