<svg width="29" height="23" viewBox="0 0 29 23" fill="none" xmlns="http://www.w3.org/2000/svg">
<path fill-rule="evenodd" clip-rule="evenodd" d="M13.1361 0.927094H15.8652C18.239 0.927075 20.1192 0.927059 21.5906 1.11213C23.105 1.3026 24.3307 1.70391 25.2974 2.60818C26.264 3.51245 26.693 4.6591 26.8966 6.07578C27.0921 7.43608 27.0944 9.16975 27.0944 11.3534C27.5386 11.6962 27.8913 12.1382 28.1157 12.6451C28.271 12.9959 28.3313 13.3579 28.3592 13.741C28.3861 14.1091 28.3861 14.5574 28.3861 15.0945V15.1555C28.3861 15.6926 28.3861 16.1409 28.3592 16.509C28.3313 16.8922 28.271 17.2541 28.1157 17.605C27.7552 18.4192 27.0637 19.0661 26.1933 19.4033C25.8182 19.5487 25.4313 19.605 25.0217 19.6312C24.8653 19.6412 24.6952 19.6472 24.5111 19.6508V21.1667C24.5111 21.6672 24.0773 22.0729 23.5423 22.0729C23.0073 22.0729 22.5736 21.6672 22.5736 21.1667V19.6563H6.42774V21.1667C6.42774 21.6672 5.99401 22.0729 5.45899 22.0729C4.92396 22.0729 4.49024 21.6672 4.49024 21.1667V19.6508C4.30606 19.6472 4.13602 19.6412 3.97956 19.6312C3.56997 19.605 3.18308 19.5487 2.80799 19.4033C1.93764 19.0661 1.24614 18.4192 0.885621 17.605C0.730256 17.2541 0.670009 16.8922 0.642063 16.509C0.615217 16.1409 0.615225 15.6926 0.615235 15.1555V15.0945C0.615225 14.5574 0.615217 14.1091 0.642063 13.741C0.670009 13.3579 0.730256 12.9959 0.885621 12.6451C1.11003 12.1382 1.46269 11.6962 1.9069 11.3534C1.90691 9.16975 1.9092 7.43608 2.1047 6.07578C2.3083 4.6591 2.73729 3.51245 3.70392 2.60818C4.67056 1.70391 5.89629 1.3026 7.41066 1.11213C8.88215 0.927059 10.7623 0.927075 13.1361 0.927094ZM3.8449 10.6287C3.88952 10.625 3.9344 10.6217 3.97956 10.6189C4.30475 10.5981 4.68855 10.5945 5.13607 10.5939L5.13607 9.62468C5.13603 8.53901 5.136 7.63371 5.23929 6.91502C5.34831 6.15643 5.58813 5.47155 6.17645 4.92119C6.76477 4.37083 7.49688 4.14648 8.30778 4.04449C9.07604 3.94786 10.0438 3.94789 11.2043 3.94793H17.797C18.9575 3.94789 19.9253 3.94786 20.6935 4.04449C21.5044 4.14648 22.2365 4.37083 22.8249 4.92119C23.4132 5.47155 23.653 6.15643 23.762 6.91502C23.8653 7.63371 23.8653 8.53902 23.8652 9.62469V10.5939C24.3128 10.5945 24.6966 10.5981 25.0217 10.6189C25.0669 10.6217 25.1118 10.625 25.1564 10.6287C25.1533 8.77407 25.1315 7.39646 24.9764 6.31729C24.8017 5.1016 24.474 4.40119 23.9274 3.88981C23.3807 3.37843 22.632 3.07192 21.3325 2.90847C20.0051 2.74152 18.2553 2.73959 15.7923 2.73959H13.209C10.746 2.73959 8.99623 2.74152 7.66883 2.90847C6.3693 3.07192 5.62059 3.37843 5.07394 3.88981C4.5273 4.40119 4.19964 5.1016 4.02492 6.31729C3.86983 7.39646 3.84797 8.77407 3.8449 10.6287ZM21.9277 10.5938V9.68751C21.9277 8.52266 21.9257 7.7402 21.8418 7.15653C21.7617 6.59893 21.6232 6.36028 21.4548 6.20282C21.2865 6.04535 21.0314 5.91579 20.4354 5.84082C19.8114 5.76235 18.975 5.76043 17.7298 5.76043H15.4694V10.5938H21.9277ZM13.5319 10.5938V5.76043H11.2715C10.0263 5.76043 9.18987 5.76235 8.56595 5.84082C7.9699 5.91579 7.71479 6.04535 7.54647 6.20282C7.37814 6.36028 7.23965 6.59893 7.15951 7.15653C7.07563 7.7402 7.07357 8.52266 7.07357 9.68751V10.5938H13.5319ZM4.11144 12.4272C3.8005 12.447 3.6491 12.4826 3.54944 12.5212C3.15383 12.6745 2.83951 12.9686 2.67564 13.3387C2.63436 13.4319 2.59628 13.5735 2.57507 13.8644C2.55326 14.1634 2.55274 14.5496 2.55274 15.125C2.55274 15.7004 2.55326 16.0866 2.57507 16.3856C2.59628 16.6765 2.63436 16.8181 2.67564 16.9114C2.83951 17.2815 3.15383 17.5755 3.54944 17.7288C3.6491 17.7674 3.8005 17.803 4.11144 17.8229C4.43108 17.8433 4.84389 17.8438 5.45898 17.8438H23.5423C24.1574 17.8438 24.5702 17.8433 24.8899 17.8229C25.2008 17.803 25.3522 17.7674 25.4519 17.7288C25.8475 17.5755 26.1618 17.2815 26.3257 16.9114C26.3669 16.8181 26.405 16.6765 26.4262 16.3856C26.448 16.0866 26.4486 15.7004 26.4486 15.125C26.4486 14.5496 26.448 14.1634 26.4262 13.8644C26.405 13.5735 26.3669 13.4319 26.3257 13.3387C26.1618 12.9686 25.8475 12.6745 25.4519 12.5212C25.3522 12.4826 25.2008 12.447 24.8899 12.4272C24.5702 12.4068 24.1574 12.4063 23.5423 12.4063H5.45899C4.84389 12.4063 4.43108 12.4068 4.11144 12.4272Z" fill="#C7A57A"/>
<path d="M21.4548 6.20282C21.6232 6.36028 21.7617 6.59893 21.8418 7.15653C21.9257 7.7402 21.9277 8.52266 21.9277 9.68751V10.5938H15.4694V5.76043H17.7298C18.975 5.76043 19.8114 5.76235 20.4354 5.84082C21.0314 5.91579 21.2865 6.04535 21.4548 6.20282ZM21.4548 6.20282L22.1398 5.562M13.1361 0.927094C10.7623 0.927075 8.88215 0.927059 7.41066 1.11213C5.89629 1.3026 4.67056 1.70391 3.70392 2.60818C2.73729 3.51245 2.3083 4.6591 2.1047 6.07578C1.9092 7.43608 1.90691 9.16975 1.9069 11.3534C1.46269 11.6962 1.11003 12.1382 0.885621 12.6451C0.730256 12.9959 0.670009 13.3579 0.642063 13.741C0.615217 14.1091 0.615225 14.5574 0.615235 15.0945V15.1555C0.615225 15.6926 0.615217 16.1409 0.642063 16.509C0.670009 16.8922 0.730256 17.2541 0.885621 17.605C1.24614 18.4192 1.93764 19.0661 2.80799 19.4033C3.18308 19.5487 3.56997 19.605 3.97956 19.6312C4.13602 19.6412 4.30606 19.6472 4.49024 19.6508V21.1667C4.49024 21.6672 4.92396 22.0729 5.45899 22.0729C5.99401 22.0729 6.42774 21.6672 6.42774 21.1667V19.6563H22.5736V21.1667C22.5736 21.6672 23.0073 22.0729 23.5423 22.0729C24.0773 22.0729 24.5111 21.6672 24.5111 21.1667V19.6508C24.6952 19.6472 24.8653 19.6412 25.0217 19.6312C25.4313 19.605 25.8182 19.5487 26.1933 19.4033C27.0637 19.0661 27.7552 18.4192 28.1157 17.605C28.271 17.2541 28.3313 16.8922 28.3592 16.509C28.3861 16.1409 28.3861 15.6926 28.3861 15.1555V15.0945C28.3861 14.5574 28.3861 14.1091 28.3592 13.741C28.3313 13.3579 28.271 12.9959 28.1157 12.6451C27.8913 12.1382 27.5386 11.6962 27.0944 11.3534C27.0944 9.16975 27.0921 7.43608 26.8966 6.07578C26.693 4.6591 26.264 3.51245 25.2974 2.60818C24.3307 1.70391 23.105 1.3026 21.5906 1.11213C20.1192 0.927059 18.239 0.927075 15.8652 0.927094H13.1361ZM3.97956 10.6189C3.9344 10.6217 3.88952 10.625 3.8449 10.6287C3.84796 8.77407 3.86983 7.39646 4.02492 6.31729C4.19964 5.1016 4.5273 4.40119 5.07394 3.88981C5.62059 3.37843 6.3693 3.07192 7.66883 2.90847C8.99623 2.74152 10.746 2.73959 13.209 2.73959H15.7923C18.2553 2.73959 20.0051 2.74152 21.3325 2.90847C22.632 3.07192 23.3807 3.37843 23.9274 3.88981C24.474 4.40119 24.8017 5.1016 24.9764 6.31729C25.1315 7.39646 25.1533 8.77407 25.1564 10.6287C25.1118 10.625 25.0669 10.6217 25.0217 10.6189C24.6966 10.5981 24.3128 10.5945 23.8652 10.5939V9.62469C23.8653 8.53902 23.8653 7.63371 23.762 6.91502C23.653 6.15643 23.4132 5.47155 22.8249 4.92119C22.2365 4.37083 21.5044 4.14648 20.6935 4.04449C19.9253 3.94786 18.9575 3.94789 17.797 3.94793H11.2043C10.0438 3.94789 9.07604 3.94786 8.30778 4.04449C7.49688 4.14648 6.76477 4.37083 6.17645 4.92119C5.58813 5.47155 5.34831 6.15643 5.23929 6.91502C5.136 7.63371 5.13603 8.53901 5.13607 9.62468L5.13607 10.5939C4.68855 10.5945 4.30475 10.5981 3.97956 10.6189ZM13.5319 5.76043V10.5938H7.07357V9.68751C7.07357 8.52266 7.07563 7.7402 7.15951 7.15653C7.23965 6.59893 7.37814 6.36028 7.54647 6.20282C7.71479 6.04535 7.9699 5.91579 8.56595 5.84082C9.18987 5.76235 10.0263 5.76043 11.2715 5.76043H13.5319ZM3.54944 12.5212C3.6491 12.4826 3.8005 12.447 4.11144 12.4272C4.43108 12.4068 4.84389 12.4063 5.45899 12.4063H23.5423C24.1574 12.4063 24.5702 12.4068 24.8899 12.4272C25.2008 12.447 25.3522 12.4826 25.4519 12.5212C25.8475 12.6745 26.1618 12.9686 26.3257 13.3387C26.3669 13.4319 26.405 13.5735 26.4262 13.8644C26.448 14.1634 26.4486 14.5496 26.4486 15.125C26.4486 15.7004 26.448 16.0866 26.4262 16.3856C26.405 16.6765 26.3669 16.8181 26.3257 16.9114C26.1618 17.2815 25.8475 17.5755 25.4519 17.7288C25.3522 17.7674 25.2008 17.803 24.8899 17.8229C24.5702 17.8433 24.1574 17.8438 23.5423 17.8438H5.45898C4.84389 17.8438 4.43108 17.8433 4.11144 17.8229C3.8005 17.803 3.6491 17.7674 3.54944 17.7288C3.15383 17.5755 2.83951 17.2815 2.67564 16.9114C2.63436 16.8181 2.59628 16.6765 2.57507 16.3856C2.55326 16.0866 2.55274 15.7004 2.55274 15.125C2.55274 14.5496 2.55326 14.1634 2.57507 13.8644C2.59628 13.5735 2.63436 13.4319 2.67564 13.3387C2.83951 12.9686 3.15383 12.6745 3.54944 12.5212Z" stroke="#141213"/>
</svg>
