<svg width="19" height="21" viewBox="0 0 19 21" fill="none"
    xmlns="http://www.w3.org/2000/svg">
    <path d="M18 14.3081V9.5921C18 5.54175 18 3.51657 16.7552 2.25828C15.5104 1 13.5069 1 9.5 1C5.49306 1 3.48959 1 2.2448 2.25828C1 3.51657 1 5.54175 1 9.5921V14.3081C1 17.2326 1 18.6949 1.69332 19.3338C2.02398 19.6386 2.44136 19.83 2.88598 19.8809C3.81824 19.9876 4.90691 19.0247 7.08426 17.0988C8.04671 16.2476 8.52793 15.8219 9.08471 15.7098C9.35887 15.6546 9.64113 15.6546 9.91529 15.7098C10.4721 15.8219 10.9533 16.2476 11.9157 17.0988C14.0931 19.0247 15.1818 19.9876 16.114 19.8809C16.5586 19.83 16.976 19.6386 17.3067 19.3338C18 18.6949 18 17.2326 18 14.3081Z" stroke="#ECECEC" stroke-width="1.5"/>
    <path d="M12.3327 4.77783H6.66602" stroke="#ECECEC" stroke-width="1.5" stroke-linecap="round"/>
</svg>
