<svg width="18" height="17" viewBox="0 0 18 17" fill="none"
    xmlns="http://www.w3.org/2000/svg">
    <path fill-rule="evenodd" clip-rule="evenodd" d="M17.5 0.75C17.5 1.16421 17.1642 1.5 16.75 1.5L0.75 1.5C0.335787 1.5 0 1.16421 0 0.75C0 0.335786 0.335787 0 0.75 0L16.75 0C17.1642 0 17.5 0.335786 17.5 0.75Z" fill="#ECECEC"/>
    <path fill-rule="evenodd" clip-rule="evenodd" d="M17.5 5.75C17.5 6.16421 17.1642 6.5 16.75 6.5L0.75 6.5C0.335787 6.5 0 6.16421 0 5.75C0 5.33579 0.335787 5 0.75 5L16.75 5C17.1642 5 17.5 5.33579 17.5 5.75Z" fill="#ECECEC"/>
    <path fill-rule="evenodd" clip-rule="evenodd" d="M17.5 15.75C17.5 16.1642 17.1642 16.5 16.75 16.5L0.75 16.5C0.335787 16.5 0 16.1642 0 15.75C0 15.3358 0.335787 15 0.75 15L16.75 15C17.1642 15 17.5 15.3358 17.5 15.75Z" fill="#ECECEC"/>
    <path fill-rule="evenodd" clip-rule="evenodd" d="M17.5 10.75C17.5 11.1642 17.1642 11.5 16.75 11.5L0.75 11.5C0.335787 11.5 0 11.1642 0 10.75C0 10.3358 0.335787 10 0.75 10L16.75 10C17.1642 10 17.5 10.3358 17.5 10.75Z" fill="#ECECEC"/>
</svg>
