<svg width="21" height="40" viewBox="0 0 21 40" fill="none"
    xmlns="http://www.w3.org/2000/svg">
    <path d="M3.72841 18.9811H2.57979V15.2796L6.3746 12.8552L6.35624 9.88123L0.00988985 14.0321L0.0113023 14.0335H0V21.5383H1.41281H2.57979H3.72841V37.3562H2.56849V23.8285H0.00988985V39.8554H1.12318H2.56849H3.72841H4.61707H6.28701V18.9811H4.90669H3.72841Z" fill="#C7A57A"/>
    <path d="M13.5983 0L7.32966 4.19463L7.33108 4.19605H7.32966H7.31836L7.32966 4.2017V39.8554H8.44154H9.88685H11.0468H11.9354H13.6054L13.5983 0ZM11.0482 37.3561H9.88826V5.48453L9.89956 5.49018L11.0496 4.65662V37.3561H11.0482Z" fill="#C7A57A"/>
    <path d="M17.3182 37.3095H18.4315H19.8768H20.9887V13.9614L21 13.9558H20.9887H20.9873L20.9887 13.9544L14.7215 9.95752L14.7031 12.9244L14.7144 37.3095L14.7031 39.8568H17.3168L17.3182 37.3095ZM17.2716 14.5859L18.4216 15.2895L18.4329 15.2838V34.7509H17.273V14.5859H17.2716Z" fill="#C7A57A"/>
</svg>
