<svg width="21" height="21" viewBox="0 0 21 21" fill="none"
    xmlns="http://www.w3.org/2000/svg">
    <path d="M11.5 1C11.5 1 13.8335 1.21213 16.8033 4.18198C19.7731 7.15183 19.9853 9.48528 19.9853 9.48528" stroke="#C7A57A" stroke-width="1.5" stroke-linecap="round"/>
    <path d="M12.207 4.53564C12.207 4.53564 13.197 4.81849 14.6819 6.30341C16.1668 7.78834 16.4497 8.77829 16.4497 8.77829" stroke="#C7A57A" stroke-width="1.5" stroke-linecap="round"/>
    <path d="M13.1007 14.0272L12.5569 13.5107L13.1007 14.0272ZM13.5562 13.5477L14.1 14.0642H14.1L13.5562 13.5477ZM15.9728 13.2123L15.5987 13.8623H15.5987L15.9728 13.2123ZM17.8833 14.312L17.5092 14.962L17.8833 14.312ZM18.4217 17.7584L18.9655 18.2749L18.4217 17.7584ZM17.0011 19.254L16.4573 18.7375L17.0011 19.254ZM15.6763 19.9631L15.7499 20.7095L15.6763 19.9631ZM5.81536 15.4752L6.35915 14.9587L5.81536 15.4752ZM1.00289 5.96594L0.253966 6.00613L0.253966 6.00613L1.00289 5.96594ZM7.47752 7.50311L8.02131 8.01963H8.02131L7.47752 7.50311ZM7.63424 4.6931L8.24664 4.26012L7.63424 4.6931ZM6.37326 2.90961L5.76086 3.3426V3.3426L6.37326 2.90961ZM3.26145 2.60864L3.80524 3.12516L3.26145 2.60864ZM1.69185 4.26114L1.14806 3.74462L1.14806 3.74462L1.69185 4.26114ZM9.06312 12.0559L9.60692 11.5394L9.06312 12.0559ZM13.6445 14.5437L14.1 14.0642L13.0124 13.0312L12.5569 13.5107L13.6445 14.5437ZM15.5987 13.8623L17.5092 14.962L18.2575 13.662L16.347 12.5623L15.5987 13.8623ZM17.8779 17.2419L16.4573 18.7375L17.5449 19.7705L18.9655 18.2749L17.8779 17.2419ZM15.6026 19.2167C14.1676 19.3584 10.4233 19.2375 6.35915 14.9587L5.27157 15.9917C9.70095 20.655 13.9261 20.8895 15.7499 20.7095L15.6026 19.2167ZM6.35915 14.9587C2.48303 10.8778 1.83285 7.43556 1.75181 5.92574L0.253966 6.00613C0.353222 7.85536 1.1384 11.6403 5.27157 15.9917L6.35915 14.9587ZM7.7345 8.32159L8.02131 8.01963L6.93372 6.9866L6.64691 7.28856L7.7345 8.32159ZM8.24664 4.26012L6.98565 2.47663L5.76086 3.3426L7.02185 5.12608L8.24664 4.26012ZM2.71766 2.09213L1.14806 3.74462L2.23564 4.77765L3.80524 3.12516L2.71766 2.09213ZM7.1907 7.80507C6.64691 7.28856 6.64622 7.28929 6.64552 7.29002C6.64528 7.29028 6.64458 7.29102 6.64411 7.29152C6.64316 7.29254 6.64219 7.29357 6.64121 7.29463C6.63924 7.29675 6.6372 7.29896 6.6351 7.30127C6.63091 7.30588 6.62646 7.31087 6.62178 7.31625C6.61243 7.32701 6.60215 7.33931 6.59116 7.3532C6.56918 7.38098 6.54431 7.41512 6.51822 7.45588C6.46591 7.53764 6.40917 7.64531 6.36112 7.78033C6.26342 8.0549 6.21018 8.4185 6.27671 8.87257C6.40742 9.76468 6.99198 10.9644 8.51933 12.5724L9.60692 11.5394C8.17926 10.0363 7.82761 9.11064 7.76086 8.65511C7.72866 8.43536 7.76138 8.31957 7.77432 8.28321C7.78159 8.26277 7.78635 8.25709 7.78169 8.26437C7.77944 8.26789 7.77494 8.27451 7.76738 8.28407C7.76359 8.28885 7.75904 8.29437 7.7536 8.30063C7.75088 8.30375 7.74793 8.30706 7.74476 8.31056C7.74317 8.31231 7.74152 8.3141 7.73981 8.31594C7.73896 8.31686 7.73809 8.31779 7.7372 8.31873C7.73676 8.3192 7.73608 8.31992 7.73586 8.32015C7.73518 8.32087 7.7345 8.32159 7.1907 7.80507ZM8.51933 12.5724C10.0422 14.1757 11.1923 14.806 12.0698 14.9485C12.5201 15.0216 12.8846 14.9632 13.1606 14.8544C13.2955 14.8012 13.4022 14.7387 13.4823 14.6819C13.5223 14.6535 13.5556 14.6266 13.5824 14.6031C13.5959 14.5913 13.6077 14.5803 13.618 14.5703C13.6232 14.5654 13.628 14.5606 13.6324 14.5562C13.6346 14.554 13.6367 14.5518 13.6387 14.5497C13.6397 14.5487 13.6407 14.5477 13.6417 14.5467C13.6422 14.5462 13.6429 14.5454 13.6431 14.5452C13.6438 14.5444 13.6445 14.5437 13.1007 14.0272C12.5569 13.5107 12.5576 13.51 12.5583 13.5093C12.5585 13.509 12.5592 13.5083 12.5596 13.5078C12.5605 13.5069 12.5614 13.506 12.5623 13.5051C12.5641 13.5033 12.5658 13.5015 12.5674 13.4998C12.5708 13.4965 12.574 13.4933 12.577 13.4904C12.583 13.4846 12.5885 13.4796 12.5933 13.4754C12.6028 13.467 12.6099 13.4616 12.6145 13.4584C12.6239 13.4517 12.6229 13.454 12.6102 13.459C12.5909 13.4666 12.5 13.4987 12.3103 13.4679C11.9077 13.4025 11.0391 13.0472 9.60692 11.5394L8.51933 12.5724ZM6.98565 2.47663C5.97206 1.04305 3.94384 0.801186 2.71766 2.09213L3.80524 3.12516C4.32808 2.57471 5.24851 2.61795 5.76086 3.3426L6.98565 2.47663ZM1.75181 5.92574C1.73038 5.52644 1.90425 5.12654 2.23564 4.77765L1.14806 3.74462C0.612205 4.30877 0.204926 5.09246 0.253966 6.00613L1.75181 5.92574ZM16.4573 18.7375C16.1783 19.0313 15.8864 19.1887 15.6026 19.2167L15.7499 20.7095C16.497 20.6357 17.1016 20.2373 17.5449 19.7705L16.4573 18.7375ZM8.02131 8.01963C8.98889 7.00095 9.05737 5.40678 8.24664 4.26012L7.02185 5.12608C7.44399 5.72315 7.37926 6.51753 6.93372 6.9866L8.02131 8.01963ZM17.5092 14.962C18.33 15.4345 18.4907 16.5968 17.8779 17.2419L18.9655 18.2749C20.2704 16.901 19.8904 14.6019 18.2575 13.662L17.5092 14.962ZM14.1 14.0642C14.4854 13.6584 15.086 13.5672 15.5987 13.8623L16.347 12.5623C15.2485 11.93 13.8861 12.1113 13.0124 13.0312L14.1 14.0642Z" fill="#C7A57A"/>
</svg>
