<svg width="20" height="20" viewBox="0 0 20 20" fill="none"
    xmlns="http://www.w3.org/2000/svg">
    <path d="M18.5941 19.9932C15.1818 19.9932 11.7745 19.9932 8.36222 19.9932C8.3134 19.9786 8.26458 19.959 8.21577 19.9444C7.52258 19.7245 7.08323 19.2652 6.95143 18.5469C6.84403 17.9557 6.78545 17.3498 6.71223 16.7537C6.67318 16.4605 6.67806 16.4556 6.38028 16.4556C4.85233 16.4556 3.32438 16.4556 1.79644 16.4556C1.3278 16.4556 0.917745 16.3041 0.566268 15.9963C0.273371 15.7373 0.117159 15.4002 0 15.0337C0 10.4944 0 5.95509 0 1.41578C0.0244081 1.34738 0.0488162 1.28386 0.0732243 1.21545C0.307542 0.511832 0.966561 0.0085509 1.71833 0.00366467C3.75885 -0.00122156 5.80425 -0.00122156 7.84476 0.00366467C8.64047 0.0085509 9.33366 0.575353 9.5094 1.34738C9.64608 1.9435 9.68514 2.55428 9.75836 3.16017C9.81694 3.62436 9.8267 3.55595 10.2221 3.55595C12.8777 3.55595 15.5284 3.56084 18.184 3.55595C18.7015 3.55595 19.136 3.72697 19.507 4.08367C19.7608 4.33286 19.8926 4.64558 20 4.97785C20 9.51715 20 14.0565 20 18.5958C19.9072 18.8498 19.8194 19.1039 19.6534 19.3238C19.3752 19.6707 19.009 19.8662 18.5941 19.9932ZM18.8138 11.7844C18.8138 9.6784 18.8138 7.57243 18.8138 5.46647C18.8138 4.99739 18.5941 4.75797 18.1499 4.75797C15.4943 4.75308 12.8387 4.75797 10.1831 4.75308C10.0171 4.75308 9.96827 4.8166 9.9878 4.97785C10.1831 6.47792 10.3686 7.97799 10.5589 9.48295C10.8079 11.4619 11.0422 13.4408 11.3058 15.4148C11.3644 15.8693 11.2717 16.2113 10.9592 16.5436C10.3979 17.1494 9.87064 17.7847 9.32878 18.4101C9.24579 18.5029 9.16768 18.5958 9.0847 18.6886C9.02612 18.757 9.02612 18.8059 9.13839 18.8059C9.19209 18.8059 9.24091 18.8059 9.29461 18.8059C12.165 18.8059 15.0354 18.8059 17.9058 18.8059C18.0034 18.8059 18.101 18.8108 18.1987 18.8059C18.5697 18.7814 18.7845 18.5713 18.8089 18.2C18.8138 18.1218 18.8138 18.0436 18.8138 17.9654C18.8138 15.9035 18.8138 13.8464 18.8138 11.7844ZM1.19112 8.22719C1.19112 10.2599 1.19112 12.2974 1.19112 14.3301C1.19112 14.4327 1.18623 14.5402 1.19112 14.6428C1.21552 15.0142 1.42543 15.2292 1.79644 15.2536C1.85502 15.2585 1.9136 15.2536 1.97217 15.2536C4.56432 15.2536 7.15157 15.2536 9.74372 15.2536C9.77789 15.2536 9.80718 15.2536 9.84135 15.2536C9.9878 15.2634 10.0464 15.195 10.022 15.0533C10.0024 14.9262 9.9878 14.7943 9.97315 14.6672C9.83647 13.5678 9.69978 12.4635 9.55821 11.3641C9.42153 10.2745 9.28484 9.18489 9.15304 8.09526C9.01635 6.99586 8.87967 5.89157 8.74298 4.79217C8.61606 3.79538 8.4989 2.7937 8.36222 1.79691C8.30364 1.37181 8.09373 1.20079 7.66414 1.20079C6.84891 1.20079 6.03857 1.20079 5.22333 1.20079C4.11032 1.20079 2.99731 1.20079 1.88431 1.20079C1.42543 1.20079 1.20088 1.43044 1.19112 1.88486C1.19112 1.94838 1.19112 2.01679 1.19112 2.08031C1.19112 4.13253 1.19112 6.17986 1.19112 8.22719ZM9.36295 16.5093C9.35807 16.4947 9.3483 16.4751 9.34342 16.4605C8.90408 16.4605 8.46473 16.4605 8.02538 16.4605C7.9424 16.4605 7.91799 16.5142 7.92775 16.5924C7.97657 16.998 8.0205 17.4035 8.0742 17.8091C8.08885 17.9068 8.13278 17.9361 8.21089 17.8482C8.29387 17.7505 8.38174 17.6527 8.46473 17.555C8.76251 17.2081 9.06029 16.8563 9.36295 16.5093Z" fill="#C7A57A"/>
    <path d="M13.1111 8.8184C13.3649 8.8184 13.6188 8.81351 13.8726 8.8184C14.0386 8.82328 14.0972 8.75488 14.0825 8.59852C14.0728 8.47148 14.0776 8.33955 14.0825 8.20762C14.0972 7.88024 14.3608 7.64082 14.6878 7.6457C15.0051 7.65059 15.259 7.88513 15.2785 8.20273C15.2883 8.33955 15.2883 8.47636 15.2785 8.61318C15.2688 8.76465 15.3371 8.8184 15.4835 8.8184C16.0059 8.81351 16.5233 8.81351 17.0457 8.8184C17.3386 8.82328 17.5729 9.03828 17.6168 9.31191C17.6656 9.61485 17.4948 9.89337 17.2116 9.98621C17.1628 10.0009 17.1091 10.0155 17.0603 10.0106C16.9431 10.0058 16.8846 10.0644 16.8504 10.1719C16.577 11.0025 16.167 11.755 15.6202 12.4391C15.5372 12.5466 15.5616 12.6003 15.6544 12.6736C16.0303 12.9717 16.4013 13.2795 16.7723 13.5825C17.0164 13.7828 17.0994 14.032 17.0066 14.291C16.865 14.6916 16.4062 14.8236 16.0449 14.5548C15.6935 14.2861 15.3566 14.0027 15.0149 13.7242C14.9514 13.6704 14.8782 13.6216 14.8245 13.558C14.7269 13.4554 14.6537 13.4603 14.5463 13.5532C14.1557 13.8854 13.7554 14.2079 13.3552 14.5304C13.1697 14.6819 12.9646 14.7405 12.7352 14.6623C12.5204 14.5939 12.3837 14.4376 12.3398 14.2177C12.291 13.9685 12.3739 13.7584 12.5741 13.5971C12.9353 13.304 13.2966 13.001 13.6676 12.7127C13.814 12.6003 13.8238 12.5222 13.7066 12.3756C13.1843 11.7257 12.7987 11.0025 12.535 10.211C12.4911 10.0742 12.4276 10.0155 12.2763 10.0058C11.959 9.98132 11.7393 9.71746 11.7442 9.39497C11.754 9.07737 11.9932 8.82817 12.3154 8.8184C12.579 8.81351 12.8475 8.82328 13.1111 8.8184ZM14.6878 10.0204C14.4438 10.0204 14.1948 10.0253 13.9507 10.0204C13.8189 10.0155 13.7701 10.0546 13.8287 10.1914C14.0288 10.6654 14.2729 11.1149 14.5804 11.5254C14.6634 11.6329 14.722 11.6329 14.805 11.5254C15.1125 11.11 15.3566 10.6654 15.5568 10.1914C15.6153 10.0497 15.5616 10.0204 15.4347 10.0204C15.1809 10.0253 14.9319 10.0204 14.6878 10.0204Z" fill="#C7A57A"/>
    <path d="M5.30691 8.85265C5.11165 8.85265 4.91638 8.85754 4.72112 8.85265C4.57467 8.84777 4.51121 8.9064 4.4868 9.0481C4.38917 9.56604 4.28666 10.0791 4.17926 10.597C4.09627 10.9928 3.89124 11.1932 3.57394 11.198C3.2127 11.2029 2.92956 10.9342 2.96374 10.5677C3.00279 10.1866 3.09066 9.81524 3.16876 9.439C3.47631 7.89984 3.78873 6.35579 4.09139 4.81663C4.1939 4.29869 4.37452 4.14722 4.90174 4.14722C5.21416 4.14722 5.52659 4.14722 5.83901 4.14722C6.21001 4.1521 6.4248 4.30846 6.50291 4.67982C6.70306 5.61797 6.88856 6.56101 7.07406 7.50406C7.26933 8.46664 7.45971 9.42434 7.65009 10.3869C7.74284 10.8658 7.46459 11.2225 7.02036 11.198C6.74699 11.1785 6.53708 10.9977 6.47362 10.6997C6.36134 10.1768 6.25395 9.65888 6.1612 9.13606C6.12703 8.93572 6.0538 8.83311 5.83413 8.85754C5.65839 8.86731 5.48265 8.85265 5.30691 8.85265ZM5.31668 7.65064C5.43872 7.65064 5.56564 7.65064 5.68768 7.65064C5.79996 7.65064 5.85854 7.61644 5.82925 7.48451C5.69256 6.81998 5.56076 6.15057 5.42407 5.48604C5.40943 5.42252 5.39966 5.34923 5.3118 5.34923C5.22881 5.34923 5.21416 5.41764 5.19952 5.48604C5.06771 6.15546 4.93103 6.81998 4.79434 7.48451C4.76994 7.61155 4.82852 7.65064 4.94079 7.64576C5.06771 7.65064 5.18975 7.65064 5.31668 7.65064Z" fill="#C7A57A"/>
</svg>
